<svg width="91" height="32" viewBox="0 0 91 32" fill="none" xmlns="http://www.w3.org/2000/svg">
<g filter="url(#filter0_b_162_7354)">
<path d="M0 0H75C83.8366 0 91 7.16344 91 16C91 24.8366 83.8366 32 75 32H0V0Z" fill="url(#paint0_linear_162_7354)"/>
</g>
<path d="M36.1561 14.028H32.4121V15.684C32.5721 15.508 32.7961 15.364 33.0841 15.252C33.3721 15.14 33.6841 15.084 34.0201 15.084C34.6201 15.084 35.1161 15.22 35.5081 15.492C35.9081 15.764 36.2001 16.116 36.3841 16.548C36.5681 16.98 36.6601 17.448 36.6601 17.952C36.6601 18.888 36.3961 19.632 35.8681 20.184C35.3401 20.728 34.5961 21 33.6361 21C32.9961 21 32.4401 20.892 31.9681 20.676C31.4961 20.452 31.1321 20.144 30.8761 19.752C30.6201 19.36 30.4801 18.908 30.4561 18.396H32.4601C32.5081 18.644 32.6241 18.852 32.8081 19.02C32.9921 19.18 33.2441 19.26 33.5641 19.26C33.9401 19.26 34.2201 19.14 34.4041 18.9C34.5881 18.66 34.6801 18.34 34.6801 17.94C34.6801 17.548 34.5841 17.248 34.3921 17.04C34.2001 16.832 33.9201 16.728 33.5521 16.728C33.2801 16.728 33.0561 16.796 32.8801 16.932C32.7041 17.06 32.5881 17.232 32.5321 17.448H30.5521V12.228H36.1561V14.028ZM37.7808 16.5C37.7808 15.124 38.0448 14.04 38.5728 13.248C39.1088 12.456 39.9688 12.06 41.1528 12.06C42.3368 12.06 43.1928 12.456 43.7208 13.248C44.2568 14.04 44.5248 15.124 44.5248 16.5C44.5248 17.892 44.2568 18.984 43.7208 19.776C43.1928 20.568 42.3368 20.964 41.1528 20.964C39.9688 20.964 39.1088 20.568 38.5728 19.776C38.0448 18.984 37.7808 17.892 37.7808 16.5ZM42.5088 16.5C42.5088 15.692 42.4208 15.072 42.2448 14.64C42.0688 14.2 41.7048 13.98 41.1528 13.98C40.6008 13.98 40.2368 14.2 40.0608 14.64C39.8848 15.072 39.7968 15.692 39.7968 16.5C39.7968 17.044 39.8288 17.496 39.8928 17.856C39.9568 18.208 40.0848 18.496 40.2768 18.72C40.4768 18.936 40.7688 19.044 41.1528 19.044C41.5368 19.044 41.8248 18.936 42.0168 18.72C42.2168 18.496 42.3488 18.208 42.4128 17.856C42.4768 17.496 42.5088 17.044 42.5088 16.5ZM45.4289 14.448C45.4289 13.8 45.6129 13.3 45.9809 12.948C46.3569 12.596 46.8409 12.42 47.4329 12.42C48.0249 12.42 48.5049 12.596 48.8729 12.948C49.2409 13.3 49.4249 13.8 49.4249 14.448C49.4249 15.096 49.2409 15.596 48.8729 15.948C48.5049 16.3 48.0249 16.476 47.4329 16.476C46.8409 16.476 46.3569 16.3 45.9809 15.948C45.6129 15.596 45.4289 15.096 45.4289 14.448ZM53.5769 12.552L48.9569 21H46.9769L51.5969 12.552H53.5769ZM47.4209 13.62C47.0369 13.62 46.8449 13.896 46.8449 14.448C46.8449 14.992 47.0369 15.264 47.4209 15.264C47.6049 15.264 47.7489 15.196 47.8529 15.06C47.9569 14.924 48.0089 14.72 48.0089 14.448C48.0089 13.896 47.8129 13.62 47.4209 13.62ZM51.1409 19.104C51.1409 18.456 51.3249 17.956 51.6929 17.604C52.0609 17.252 52.5409 17.076 53.1329 17.076C53.7249 17.076 54.2049 17.252 54.5729 17.604C54.9409 17.956 55.1249 18.456 55.1249 19.104C55.1249 19.752 54.9409 20.252 54.5729 20.604C54.2049 20.956 53.7249 21.132 53.1329 21.132C52.5409 21.132 52.0609 20.956 51.6929 20.604C51.3249 20.252 51.1409 19.752 51.1409 19.104ZM53.1209 18.276C52.9369 18.276 52.7929 18.344 52.6889 18.48C52.5929 18.616 52.5449 18.824 52.5449 19.104C52.5449 19.648 52.7369 19.92 53.1209 19.92C53.3049 19.92 53.4489 19.852 53.5529 19.716C53.6569 19.58 53.7089 19.376 53.7089 19.104C53.7089 18.832 53.6569 18.628 53.5529 18.492C53.4489 18.348 53.3049 18.276 53.1209 18.276ZM62.7453 21.084C61.9533 21.084 61.2253 20.9 60.5613 20.532C59.9053 20.164 59.3813 19.652 58.9893 18.996C58.6053 18.332 58.4133 17.588 58.4133 16.764C58.4133 15.94 58.6053 15.2 58.9893 14.544C59.3813 13.888 59.9053 13.376 60.5613 13.008C61.2253 12.64 61.9533 12.456 62.7453 12.456C63.5373 12.456 64.2613 12.64 64.9173 13.008C65.5813 13.376 66.1013 13.888 66.4773 14.544C66.8613 15.2 67.0533 15.94 67.0533 16.764C67.0533 17.588 66.8613 18.332 66.4773 18.996C66.0933 19.652 65.5733 20.164 64.9173 20.532C64.2613 20.9 63.5373 21.084 62.7453 21.084ZM62.7453 19.212C63.4173 19.212 63.9533 18.988 64.3533 18.54C64.7613 18.092 64.9653 17.5 64.9653 16.764C64.9653 16.02 64.7613 15.428 64.3533 14.988C63.9533 14.54 63.4173 14.316 62.7453 14.316C62.0653 14.316 61.5213 14.536 61.1133 14.976C60.7133 15.416 60.5133 16.012 60.5133 16.764C60.5133 17.508 60.7133 18.104 61.1133 18.552C61.5213 18.992 62.0653 19.212 62.7453 19.212ZM73.6669 12.576V14.22H70.2349V15.996H72.8029V17.592H70.2349V21H68.1829V12.576H73.6669ZM80.2174 12.576V14.22H76.7854V15.996H79.3534V17.592H76.7854V21H74.7334V12.576H80.2174Z" fill="#2D2A2E"/>
<g clip-path="url(#clip0_162_7354)">
<path d="M16.297 9.56298C15.5495 8.92595 14.4501 8.92595 13.7026 9.56298L12.8549 10.2853C12.7482 10.3763 12.6154 10.4313 12.4756 10.4425L11.3654 10.5311C10.3864 10.6092 9.60895 11.3866 9.53083 12.3656L9.44223 13.4758C9.43107 13.6156 9.37608 13.7484 9.28509 13.8552L8.56273 14.7028C7.9257 15.4503 7.9257 16.5498 8.56273 17.2973L9.28509 18.1449C9.37608 18.2517 9.43107 18.3845 9.44223 18.5243L9.53083 19.6345C9.60895 20.6135 10.3864 21.3909 11.3654 21.469L12.4756 21.5576C12.6154 21.5688 12.7482 21.6238 12.8549 21.7148L13.7026 22.4371C14.4501 23.0742 15.5495 23.0742 16.297 22.4371L17.1447 21.7148C17.2515 21.6238 17.3842 21.5688 17.5241 21.5576L18.6342 21.469C19.6133 21.3909 20.3907 20.6135 20.4688 19.6345L20.5574 18.5243C20.5685 18.3845 20.6235 18.2517 20.7145 18.1449L21.4369 17.2973C22.0739 16.5498 22.0739 15.4503 21.4369 14.7028L20.7145 13.8552C20.6235 13.7484 20.5685 13.6156 20.5574 13.4758L20.4688 12.3656C20.3907 11.3866 19.6133 10.6092 18.6342 10.5311L17.5241 10.4425C17.3842 10.4313 17.2515 10.3763 17.1447 10.2853L16.297 9.56298Z" stroke="#2D2A2E" stroke-linejoin="round"/>
<circle cx="12.6665" cy="13.6667" r="1" fill="#2D2A2E"/>
<circle cx="17.3335" cy="18.3333" r="1" fill="#2D2A2E"/>
<path fill-rule="evenodd" clip-rule="evenodd" d="M17.6492 12.8213C17.9321 13.057 17.9703 13.4774 17.7346 13.7602L13.2902 19.0936C13.0544 19.3764 12.6341 19.4146 12.3512 19.1789C12.0684 18.9432 12.0302 18.5228 12.2659 18.24L16.7103 12.9066C16.946 12.6238 17.3664 12.5856 17.6492 12.8213Z" fill="#2D2A2E"/>
</g>
<defs>
<filter id="filter0_b_162_7354" x="-8" y="-8" width="107" height="48" filterUnits="userSpaceOnUse" color-interpolation-filters="sRGB">
<feFlood flood-opacity="0" result="BackgroundImageFix"/>
<feGaussianBlur in="BackgroundImageFix" stdDeviation="4"/>
<feComposite in2="SourceAlpha" operator="in" result="effect1_backgroundBlur_162_7354"/>
<feBlend mode="normal" in="SourceGraphic" in2="effect1_backgroundBlur_162_7354" result="shape"/>
</filter>
<linearGradient id="paint0_linear_162_7354" x1="88.0957" y1="6.51793e-06" x2="-1.42593" y2="14.702" gradientUnits="userSpaceOnUse">
<stop stop-color="#FCB937"/>
<stop offset="1" stop-color="#FCE300"/>
</linearGradient>
<clipPath id="clip0_162_7354">
<rect width="16" height="16" fill="white" transform="translate(7 8)"/>
</clipPath>
</defs>
</svg>
