<svg width="24" height="22" viewBox="0 0 24 22" fill="none" xmlns="http://www.w3.org/2000/svg">
<path fill-rule="evenodd" clip-rule="evenodd" d="M4.22537 3.29056C2.86071 4.56436 2 6.42859 2 8.80005C2 10.0573 2.46749 11.409 3.20966 12.7538C3.94925 14.0939 4.94193 15.3919 5.94542 16.5322C6.94751 17.671 7.95118 18.6421 8.70498 19.3289C9.08155 19.672 9.39492 19.9434 9.61347 20.1284C9.62252 20.1361 9.6314 20.1436 9.64013 20.151C9.64885 20.1436 9.65774 20.1361 9.66679 20.1284C9.88534 19.9434 10.1987 19.672 10.5753 19.3289C11.3291 18.6421 12.3327 17.671 13.3348 16.5322C14.3383 15.3919 15.331 14.0939 16.0706 12.7538C16.8128 11.409 17.2803 10.0573 17.2803 8.80005C17.2803 6.42859 16.4195 4.56436 15.0549 3.29056C13.6856 2.01243 11.7775 1.30005 9.64013 1.30005C7.50277 1.30005 5.59466 2.01243 4.22537 3.29056ZM9.64013 20.8C9.32814 21.1908 9.32803 21.1907 9.32788 21.1906L9.32745 21.1902L9.32602 21.1891L9.32096 21.185L9.30221 21.1699C9.28592 21.1567 9.26217 21.1374 9.23143 21.1121C9.16997 21.0617 9.08058 20.9876 8.96725 20.8916C8.74063 20.6997 8.41806 20.4203 8.03149 20.0681C7.25902 19.3643 6.22765 18.3666 5.19471 17.1929C4.16317 16.0207 3.12081 14.6624 2.33413 13.2369C1.55002 11.8161 1 10.2928 1 8.80005C1 6.17151 1.96152 4.03574 3.54301 2.55954C5.11986 1.08767 7.28182 0.300049 9.64013 0.300049C11.9984 0.300049 14.1604 1.08767 15.7372 2.55954C17.3187 4.03574 18.2803 6.17151 18.2803 8.80005C18.2803 10.2928 17.7302 11.8161 16.9461 13.2369C16.1594 14.6624 15.1171 16.0207 14.0855 17.1929C13.0526 18.3666 12.0212 19.3643 11.2488 20.0681C10.8622 20.4203 10.5396 20.6997 10.313 20.8916C10.1997 20.9876 10.1103 21.0617 10.0488 21.1121C10.0298 21.1278 10.0134 21.1411 9.99988 21.1522C9.99154 21.159 9.98425 21.1649 9.97805 21.1699L9.9593 21.185L9.95424 21.1891L9.95281 21.1902L9.95237 21.1906C9.95223 21.1907 9.95212 21.1908 9.64013 20.8ZM9.64013 20.8L9.95212 21.1908L9.64013 21.4399L9.32814 21.1908L9.64013 20.8Z" fill="#2D2A2E"/>
<path d="M4.22537 3.29056L4.43007 3.50987L4.22537 3.29056ZM3.20966 12.7538L2.947 12.8987H2.947L3.20966 12.7538ZM5.94542 16.5322L6.17063 16.334L5.94542 16.5322ZM8.70498 19.3289L8.90703 19.1071H8.90703L8.70498 19.3289ZM9.61347 20.1284L9.80733 19.8995H9.80733L9.61347 20.1284ZM9.64013 20.151L9.44656 20.3802L9.64013 20.5436L9.83369 20.3802L9.64013 20.151ZM9.66679 20.1284L9.47293 19.8995H9.47292L9.66679 20.1284ZM10.5753 19.3289L10.3732 19.1071L10.3732 19.1071L10.5753 19.3289ZM13.3348 16.5322L13.5601 16.7304H13.5601L13.3348 16.5322ZM16.0706 12.7538L15.8079 12.6088V12.6088L16.0706 12.7538ZM15.0549 3.29056L15.2596 3.07125V3.07125L15.0549 3.29056ZM9.32788 21.1906L9.13998 21.4244L9.14048 21.4248L9.32788 21.1906ZM9.64013 20.8L9.87456 20.6129L9.64013 20.3193L9.4057 20.6129L9.64013 20.8ZM9.32745 21.1902L9.51536 20.9564L9.51482 20.9559L9.32745 21.1902ZM9.32602 21.1891L9.13821 21.423L9.13865 21.4234L9.32602 21.1891ZM9.32096 21.185L9.13257 21.4185L9.13315 21.419L9.32096 21.185ZM9.30221 21.1699L9.11347 21.4031L9.11381 21.4033L9.30221 21.1699ZM9.23143 21.1121L9.04106 21.344L9.04107 21.344L9.23143 21.1121ZM8.96725 20.8916L9.16111 20.6626L9.16111 20.6626L8.96725 20.8916ZM8.03149 20.0681L7.82944 20.2898H7.82944L8.03149 20.0681ZM5.19471 17.1929L5.41992 16.9947L5.19471 17.1929ZM2.33413 13.2369L2.59679 13.092L2.33413 13.2369ZM3.54301 2.55954L3.33831 2.34023L3.54301 2.55954ZM15.7372 2.55954L15.942 2.34023L15.7372 2.55954ZM16.9461 13.2369L16.6835 13.092L16.6835 13.092L16.9461 13.2369ZM14.0855 17.1929L13.8603 16.9947L14.0855 17.1929ZM11.2488 20.0681L11.4508 20.2898L11.2488 20.0681ZM10.313 20.8916L10.1191 20.6626L10.1191 20.6626L10.313 20.8916ZM10.0488 21.1121L9.85846 20.8803L9.85846 20.8803L10.0488 21.1121ZM9.99988 21.1522L10.1892 21.3849L9.99988 21.1522ZM9.97805 21.1699L10.1664 21.4034L10.1668 21.4031L9.97805 21.1699ZM9.9593 21.185L10.1471 21.4189L10.1477 21.4185L9.9593 21.185ZM9.95424 21.1891L10.1415 21.4234L10.1421 21.423L9.95424 21.1891ZM9.95281 21.1902L9.76551 20.9559L9.7649 20.9564L9.95281 21.1902ZM9.95237 21.1906L10.1402 21.4245L10.1403 21.4244L9.95237 21.1906ZM9.95212 21.1908L10.1393 21.4252L10.3737 21.238L10.1866 21.0036L9.95212 21.1908ZM9.64013 21.4399L9.45293 21.6743L9.64013 21.8238L9.82732 21.6743L9.64013 21.4399ZM9.32814 21.1908L9.09371 21.0036L8.90651 21.238L9.14094 21.4252L9.32814 21.1908ZM2.3 8.80005C2.3 6.50575 3.13045 4.72296 4.43007 3.50987L4.02066 3.07125C2.59097 4.40576 1.7 6.35144 1.7 8.80005H2.3ZM3.47231 12.6088C2.74273 11.2868 2.3 9.9866 2.3 8.80005H1.7C1.7 10.1279 2.19225 11.5311 2.947 12.8987L3.47231 12.6088ZM6.17063 16.334C5.17555 15.2033 4.19778 13.9234 3.47231 12.6088L2.947 12.8987C3.70072 14.2645 4.7083 15.5805 5.72021 16.7304L6.17063 16.334ZM8.90703 19.1071C8.15882 18.4254 7.16347 17.4623 6.17063 16.334L5.72021 16.7304C6.73155 17.8797 7.74353 18.8587 8.50293 19.5506L8.90703 19.1071ZM9.80733 19.8995C9.59121 19.7165 9.28059 19.4475 8.90703 19.1071L8.50293 19.5506C8.8825 19.8965 9.19864 20.1703 9.4196 20.3574L9.80733 19.8995ZM9.83369 19.9218C9.82507 19.9145 9.81628 19.9071 9.80733 19.8995L9.4196 20.3574C9.42876 20.3651 9.43774 20.3727 9.44656 20.3802L9.83369 19.9218ZM9.47292 19.8995C9.46401 19.907 9.45522 19.9145 9.44656 19.9218L9.83369 20.3802C9.84247 20.3728 9.85147 20.3652 9.86066 20.3574L9.47292 19.8995ZM10.3732 19.1071C9.99966 19.4475 9.68905 19.7165 9.47293 19.8995L9.86066 20.3574C10.0816 20.1703 10.3978 19.8965 10.7773 19.5506L10.3732 19.1071ZM13.1096 16.334C12.1168 17.4623 11.1214 18.4254 10.3732 19.1071L10.7773 19.5506C11.5367 18.8587 12.5487 17.8797 13.5601 16.7304L13.1096 16.334ZM15.8079 12.6088C15.0825 13.9234 14.1047 15.2033 13.1096 16.334L13.5601 16.7304C14.572 15.5805 15.5795 14.2645 16.3333 12.8987L15.8079 12.6088ZM16.9803 8.80005C16.9803 9.9866 16.5375 11.2868 15.8079 12.6088L16.3333 12.8987C17.088 11.5311 17.5803 10.1279 17.5803 8.80005H16.9803ZM14.8502 3.50987C16.1498 4.72296 16.9803 6.50575 16.9803 8.80005H17.5803C17.5803 6.35144 16.6893 4.40576 15.2596 3.07125L14.8502 3.50987ZM9.64013 1.60005C11.7112 1.60005 13.5431 2.28983 14.8502 3.50987L15.2596 3.07125C13.8281 1.73502 11.8438 1.00005 9.64013 1.00005V1.60005ZM4.43007 3.50987C5.73713 2.28983 7.56908 1.60005 9.64013 1.60005V1.00005C7.43645 1.00005 5.4522 1.73502 4.02066 3.07125L4.43007 3.50987ZM9.14048 21.4248C9.14048 21.4248 9.14172 21.4258 9.14297 21.4268C9.14423 21.4278 9.14802 21.4307 9.15058 21.4326C9.1572 21.4374 9.16811 21.445 9.1824 21.4529C9.21361 21.4702 9.25517 21.4859 9.30523 21.4897C9.39877 21.4968 9.46495 21.4584 9.48421 21.4466C9.50816 21.432 9.52451 21.4173 9.52976 21.4125C9.53687 21.406 9.54218 21.4006 9.54479 21.3978C9.55006 21.3923 9.55398 21.3878 9.55512 21.3865C9.55679 21.3846 9.55813 21.383 9.55888 21.3821C9.56136 21.3791 9.56413 21.3757 9.56636 21.3729C9.57171 21.3663 9.58186 21.3536 9.60132 21.3293C9.64047 21.2804 9.71858 21.1826 9.87456 20.9872L9.4057 20.6129C9.24969 20.8082 9.17175 20.9058 9.1328 20.9545C9.11322 20.9789 9.10382 20.9907 9.09935 20.9962C9.09668 20.9995 9.09698 20.9991 9.09821 20.9976C9.09864 20.9971 9.09975 20.9958 9.10124 20.9941C9.10221 20.993 9.106 20.9886 9.11118 20.9831C9.11375 20.9805 9.11903 20.975 9.12612 20.9686C9.13134 20.9638 9.14767 20.9491 9.1716 20.9345C9.19086 20.9227 9.25702 20.8843 9.35055 20.8914C9.40061 20.8952 9.44217 20.9109 9.47337 20.9282C9.48767 20.9361 9.49857 20.9437 9.50519 20.9486C9.50775 20.9505 9.51155 20.9534 9.5128 20.9543C9.51405 20.9553 9.51529 20.9563 9.51529 20.9563L9.14048 21.4248ZM9.13954 21.4241L9.13998 21.4244L9.51579 20.9567L9.51535 20.9564L9.13954 21.4241ZM9.13865 21.4234L9.14008 21.4245L9.51482 20.9559L9.51339 20.9548L9.13865 21.4234ZM9.13315 21.419L9.13821 21.423L9.51383 20.9551L9.50877 20.9511L9.13315 21.419ZM9.11381 21.4033L9.13257 21.4185L9.50935 20.9515L9.4906 20.9364L9.11381 21.4033ZM9.04107 21.344C9.07235 21.3697 9.09665 21.3895 9.11347 21.4031L9.49094 20.9367C9.4752 20.9239 9.45198 20.9051 9.42179 20.8803L9.04107 21.344ZM8.77338 21.1205C8.88794 21.2175 8.97849 21.2926 9.04106 21.344L9.4218 20.8803C9.36144 20.8307 9.27322 20.7576 9.16111 20.6626L8.77338 21.1205ZM7.82944 20.2898C8.21901 20.6448 8.54434 20.9266 8.77338 21.1205L9.16111 20.6626C8.93692 20.4728 8.61711 20.1958 8.23353 19.8463L7.82944 20.2898ZM4.9695 17.3911C6.01169 18.5753 7.05137 19.5809 7.82944 20.2898L8.23354 19.8463C7.46667 19.1476 6.44361 18.1579 5.41992 16.9947L4.9695 17.3911ZM2.07148 13.3819C2.87228 14.833 3.92954 16.2093 4.9695 17.3911L5.41992 16.9947C4.3968 15.8321 3.36935 14.4919 2.59679 13.092L2.07148 13.3819ZM0.7 8.80005C0.7 10.3635 1.27478 11.9383 2.07148 13.3819L2.59679 13.092C1.82526 11.694 1.3 10.2222 1.3 8.80005H0.7ZM3.33831 2.34023C1.69174 3.87717 0.7 6.0944 0.7 8.80005H1.3C1.3 6.24861 2.23129 4.19431 3.74772 2.77884L3.33831 2.34023ZM9.64013 4.88162e-05C7.21557 4.88162e-05 4.97744 0.810225 3.33831 2.34023L3.74772 2.77884C5.26228 1.36512 7.34808 0.600049 9.64013 0.600049V4.88162e-05ZM15.942 2.34023C14.3028 0.810225 12.0647 4.88162e-05 9.64013 4.88162e-05V0.600049C11.9322 0.600049 14.018 1.36512 15.5325 2.77884L15.942 2.34023ZM18.5803 8.80005C18.5803 6.0944 17.5885 3.87717 15.942 2.34023L15.5325 2.77884C17.049 4.19431 17.9803 6.24861 17.9803 8.80005H18.5803ZM17.2088 13.3819C18.0055 11.9383 18.5803 10.3635 18.5803 8.80005H17.9803C17.9803 10.2222 17.455 11.694 16.6835 13.092L17.2088 13.3819ZM14.3108 17.3911C15.3507 16.2093 16.408 14.833 17.2088 13.3819L16.6835 13.092C15.9109 14.4919 14.8835 15.8321 13.8603 16.9947L14.3108 17.3911ZM11.4508 20.2898C12.2289 19.5809 13.2686 18.5753 14.3108 17.3911L13.8603 16.9947C12.8367 18.1579 11.8136 19.1476 11.0467 19.8463L11.4508 20.2898ZM10.5069 21.1205C10.7359 20.9266 11.0612 20.6448 11.4508 20.2898L11.0467 19.8463C10.6632 20.1958 10.3433 20.4728 10.1191 20.6626L10.5069 21.1205ZM10.2392 21.344C10.3018 21.2926 10.3923 21.2175 10.5069 21.1205L10.1191 20.6626C10.007 20.7576 9.91882 20.8307 9.85846 20.8803L10.2392 21.344ZM10.1892 21.3849C10.2031 21.3736 10.2198 21.3599 10.2392 21.344L9.85846 20.8803C9.83978 20.8956 9.82376 20.9087 9.81053 20.9195L10.1892 21.3849ZM10.1668 21.4031C10.1732 21.3979 10.1807 21.3918 10.1892 21.3849L9.81053 20.9195C9.80238 20.9261 9.7953 20.9318 9.78931 20.9367L10.1668 21.4031ZM10.1477 21.4185L10.1664 21.4034L9.78966 20.9364L9.77091 20.9515L10.1477 21.4185ZM10.1421 21.423L10.1471 21.4189L9.77147 20.9511L9.76641 20.9551L10.1421 21.423ZM10.1401 21.4246L10.1415 21.4234L9.76694 20.9547L9.76552 20.9559L10.1401 21.4246ZM10.1403 21.4244L10.1407 21.4241L9.7649 20.9564L9.76447 20.9567L10.1403 21.4244ZM9.4057 20.9872C9.56168 21.1826 9.63979 21.2804 9.67894 21.3293C9.6984 21.3536 9.70855 21.3663 9.71389 21.3729C9.71612 21.3757 9.71889 21.3791 9.72137 21.382C9.72211 21.3829 9.72346 21.3845 9.72513 21.3865C9.72626 21.3878 9.73018 21.3923 9.73543 21.3978C9.73803 21.4005 9.74333 21.406 9.75044 21.4125C9.75567 21.4172 9.772 21.4319 9.79592 21.4466C9.8151 21.4583 9.88137 21.4968 9.97508 21.4897C10.0253 21.4859 10.0669 21.4701 10.0982 21.4527C10.1125 21.4448 10.1234 21.4372 10.1301 21.4323C10.1326 21.4304 10.1364 21.4275 10.1377 21.4265C10.1389 21.4255 10.1402 21.4245 10.1402 21.4245L9.76458 20.9566C9.76458 20.9566 9.76582 20.9556 9.76707 20.9546C9.76833 20.9537 9.77213 20.9508 9.77468 20.9489C9.78131 20.944 9.79223 20.9364 9.80655 20.9284C9.83782 20.911 9.87947 20.8952 9.92965 20.8914C10.0234 20.8843 10.0896 20.9229 10.1088 20.9346C10.1327 20.9492 10.149 20.9639 10.1542 20.9686C10.1613 20.9751 10.1666 20.9805 10.1691 20.9832C10.1743 20.9886 10.1781 20.993 10.179 20.9941C10.1805 20.9958 10.1816 20.9971 10.1821 20.9976C10.1833 20.9991 10.1836 20.9995 10.1809 20.9962C10.1764 20.9907 10.167 20.9789 10.1475 20.9545C10.1085 20.9058 10.0306 20.8082 9.87456 20.6129L9.4057 20.9872ZM10.1866 21.0036L9.87456 20.6129L9.4057 20.9872L9.71769 21.378L10.1866 21.0036ZM9.82732 21.6743L10.1393 21.4252L9.76493 20.9563L9.45293 21.2055L9.82732 21.6743ZM9.14094 21.4252L9.45293 21.6743L9.82732 21.2055L9.51533 20.9563L9.14094 21.4252ZM9.4057 20.6129L9.09371 21.0036L9.56257 21.378L9.87456 20.9872L9.4057 20.6129Z" fill="#2D2A2E"/>
<ellipse cx="9.64044" cy="8.80005" rx="3.05255" ry="3" fill="#FAA515"/>
<path d="M17.7804 21.2999C20.858 21.2999 23.3678 18.8456 23.3678 15.8C23.3678 12.7543 20.858 10.3 17.7804 10.3C14.7027 10.3 12.1929 12.7543 12.1929 15.8C12.1929 18.8456 14.7027 21.2999 17.7804 21.2999Z" fill="#2D2A2E" stroke="#FDF2CC"/>
<path fill-rule="evenodd" clip-rule="evenodd" d="M17.145 17.6747C17.145 18.0199 17.4297 18.2997 17.781 18.2997C18.1322 18.2997 18.4169 18.0199 18.4169 17.6747V16.4249H19.6884C20.0396 16.4249 20.3243 16.1451 20.3243 15.7999C20.3243 15.4547 20.0396 15.1749 19.6884 15.1749H18.4169V13.9248C18.4169 13.5796 18.1322 13.2998 17.781 13.2998C17.4297 13.2998 17.145 13.5796 17.145 13.9248V15.1749H15.8728C15.5215 15.1749 15.2368 15.4547 15.2368 15.7999C15.2368 16.1451 15.5215 16.4249 15.8728 16.4249H17.145V17.6747Z" fill="white"/>
<path d="M18.4169 16.4249V16.2249H18.2169V16.4249H18.4169ZM18.4169 15.1749H18.2169V15.3749H18.4169V15.1749ZM17.145 15.1749V15.3749H17.345V15.1749H17.145ZM17.145 16.4249H17.345V16.2249H17.145V16.4249ZM17.781 18.0997C17.5369 18.0997 17.345 17.9062 17.345 17.6747H16.945C16.945 18.1336 17.3226 18.4997 17.781 18.4997V18.0997ZM18.2169 17.6747C18.2169 17.9062 18.025 18.0997 17.781 18.0997V18.4997C18.2394 18.4997 18.6169 18.1336 18.6169 17.6747H18.2169ZM18.2169 16.4249V17.6747H18.6169V16.4249H18.2169ZM19.6884 16.2249H18.4169V16.6249H19.6884V16.2249ZM20.1243 15.7999C20.1243 16.0314 19.9324 16.2249 19.6884 16.2249V16.6249C20.1468 16.6249 20.5243 16.2588 20.5243 15.7999H20.1243ZM19.6884 15.3749C19.9324 15.3749 20.1243 15.5684 20.1243 15.7999H20.5243C20.5243 15.341 20.1468 14.9749 19.6884 14.9749V15.3749ZM18.4169 15.3749H19.6884V14.9749H18.4169V15.3749ZM18.2169 13.9248V15.1749H18.6169V13.9248H18.2169ZM17.781 13.4998C18.025 13.4998 18.2169 13.6933 18.2169 13.9248H18.6169C18.6169 13.4659 18.2394 13.0998 17.781 13.0998V13.4998ZM17.345 13.9248C17.345 13.6933 17.5369 13.4998 17.781 13.4998V13.0998C17.3226 13.0998 16.945 13.4659 16.945 13.9248H17.345ZM17.345 15.1749V13.9248H16.945V15.1749H17.345ZM15.8728 15.3749H17.145V14.9749H15.8728V15.3749ZM15.4368 15.7999C15.4368 15.5684 15.6287 15.3749 15.8728 15.3749V14.9749C15.4143 14.9749 15.0368 15.341 15.0368 15.7999H15.4368ZM15.8728 16.2249C15.6287 16.2249 15.4368 16.0314 15.4368 15.7999H15.0368C15.0368 16.2588 15.4143 16.6249 15.8728 16.6249V16.2249ZM17.145 16.2249H15.8728V16.6249H17.145V16.2249ZM17.345 17.6747V16.4249H16.945V17.6747H17.345Z" fill="#2D2A2E"/>
</svg>
