<svg width="127" height="41" viewBox="0 0 127 41" fill="none" xmlns="http://www.w3.org/2000/svg">
<path d="M121.441 0.367676H4.67081C2.09119 0.367676 0 2.59122 0 5.33411V35.1327C0 37.8756 2.09119 40.0992 4.67081 40.0992H121.441C124.021 40.0992 126.112 37.8756 126.112 35.1327V5.33411C126.112 2.59122 124.021 0.367676 121.441 0.367676Z" fill="#2D2A2E"/>
<path d="M26.3813 19.5057C26.3926 18.594 26.6262 17.7 27.0605 16.907C27.4947 16.1141 28.1154 15.4478 28.8648 14.9703C28.3887 14.2655 27.7607 13.6856 27.0305 13.2764C26.3003 12.8673 25.4882 12.6402 24.6586 12.6133C22.8889 12.4208 21.1732 13.711 20.2714 13.711C19.3521 13.711 17.9636 12.6325 16.4684 12.6643C15.5013 12.6967 14.5588 12.9882 13.7327 13.5104C12.9065 14.0326 12.225 14.7677 11.7545 15.6441C9.71629 19.3017 11.2366 24.6771 13.189 27.6337C14.1659 29.0814 15.3075 30.6986 16.8014 30.6412C18.2632 30.5784 18.8091 29.6751 20.5736 29.6751C22.3218 29.6751 22.834 30.6412 24.3581 30.6047C25.9267 30.5784 26.915 29.1506 27.8576 27.6891C28.5594 26.6576 29.0995 25.5175 29.4578 24.3111C28.5465 23.9116 27.7688 23.2429 27.2217 22.3883C26.6746 21.5338 26.3823 20.5313 26.3813 19.5057Z" fill="white"/>
<path d="M23.5026 10.6679C24.3578 9.60375 24.7792 8.23595 24.6771 6.85498C23.3705 6.99723 22.1635 7.6445 21.2967 8.66783C20.8729 9.16776 20.5483 9.74936 20.3415 10.3794C20.1347 11.0094 20.0497 11.6755 20.0914 12.3396C20.7449 12.3466 21.3915 12.1998 21.9824 11.9102C22.5732 11.6206 23.093 11.1959 23.5026 10.6679Z" fill="white"/>
<path d="M44.8609 26.9749H39.8724L38.6744 30.6413H36.5615L41.2865 17.0767H43.4817L48.2067 30.6413H46.0578L44.8609 26.9749ZM40.3891 25.2831H44.3432L42.3939 19.3328H42.3394L40.3891 25.2831Z" fill="white"/>
<path d="M58.4122 25.6933C58.4122 28.7665 56.8252 30.7411 54.4303 30.7411C53.8236 30.7739 53.2203 30.6291 52.6893 30.3231C52.1584 30.0171 51.7213 29.5623 51.4282 29.0108H51.3829V33.9092H49.4243V20.7479H51.3201V22.3928H51.3561C51.6628 21.8439 52.1072 21.3915 52.6422 21.0836C53.1772 20.7757 53.7827 20.624 54.3943 20.6444C56.8159 20.6444 58.4122 22.6285 58.4122 25.6933ZM56.3991 25.6933C56.3991 23.691 55.4008 22.3747 53.8776 22.3747C52.3812 22.3747 51.3746 23.7187 51.3746 25.6933C51.3746 27.6859 52.3812 29.0204 53.8776 29.0204C55.4008 29.0204 56.3991 27.7137 56.3991 25.6933Z" fill="white"/>
<path d="M68.9132 25.6933C68.9132 28.7665 67.3262 30.741 64.9313 30.741C64.3246 30.7739 63.7213 30.6291 63.1903 30.3231C62.6594 30.0171 62.2223 29.5623 61.9292 29.0108H61.8838V33.9092H59.9253V20.7479H61.821V22.3928H61.8571C62.1637 21.8439 62.6082 21.3915 63.1431 21.0836C63.6781 20.7757 64.2836 20.624 64.8952 20.6444C67.3169 20.6444 68.9132 22.6285 68.9132 25.6933ZM66.9001 25.6933C66.9001 23.691 65.9018 22.3746 64.3786 22.3746C62.8822 22.3746 61.8756 23.7187 61.8756 25.6933C61.8756 27.6859 62.8822 29.0204 64.3786 29.0204C65.9018 29.0204 66.9001 27.7137 66.9001 25.6933H66.9001Z" fill="white"/>
<path d="M75.854 26.8585C75.9991 28.2037 77.2599 29.0869 78.9827 29.0869C80.6335 29.0869 81.8212 28.2036 81.8212 26.9908C81.8212 25.9379 81.1049 25.3075 79.4088 24.8754L77.7127 24.4519C75.3096 23.8503 74.1939 22.6854 74.1939 20.7952C74.1939 18.4547 76.1617 16.8472 78.9559 16.8472C81.7213 16.8472 83.6171 18.4547 83.6809 20.7952H81.7038C81.5855 19.4415 80.5059 18.6244 78.9281 18.6244C77.3504 18.6244 76.2708 19.4511 76.2708 20.6544C76.2708 21.6133 76.9603 22.1777 78.6472 22.6096L80.089 22.9766C82.7742 23.6348 83.8898 24.7527 83.8898 26.7368C83.8898 29.2746 81.9395 30.864 78.8376 30.864C75.9353 30.864 73.9757 29.3119 73.8491 26.8584L75.854 26.8585Z" fill="white"/>
<path d="M88.1144 18.4087V20.7491H89.9288V22.3567H88.1144V27.8088C88.1144 28.6558 88.4777 29.0505 89.2753 29.0505C89.4907 29.0466 89.7058 29.0309 89.9196 29.0035V30.6014C89.561 30.6709 89.1965 30.7024 88.8317 30.6953C86.9 30.6953 86.1466 29.9433 86.1466 28.0253V22.3567H84.7593V20.7491H86.1466V18.4087H88.1144Z" fill="white"/>
<path d="M90.9824 25.6969C90.9824 22.5852 92.7505 20.6299 95.5077 20.6299C98.2742 20.6299 100.034 22.5852 100.034 25.6969C100.034 28.8171 98.2834 30.7639 95.5077 30.7639C92.733 30.7639 90.9824 28.8171 90.9824 25.6969ZM98.0385 25.6969C98.0385 23.5623 97.0947 22.3025 95.5077 22.3025C93.9207 22.3025 92.978 23.5719 92.978 25.6969C92.978 27.8399 93.9207 29.0902 95.5077 29.0902C97.0947 29.0902 98.0384 27.8399 98.0384 25.6969H98.0385Z" fill="white"/>
<path d="M101.648 20.7478H103.516V22.4311H103.562C103.688 21.9053 103.985 21.4407 104.403 21.1154C104.821 20.79 105.334 20.6236 105.857 20.6443C106.083 20.6435 106.308 20.6689 106.528 20.72V22.6188C106.243 22.5286 105.946 22.4871 105.648 22.4962C105.363 22.4842 105.08 22.5362 104.816 22.6486C104.553 22.761 104.316 22.9311 104.122 23.1472C103.929 23.3634 103.782 23.6205 103.693 23.9009C103.604 24.1812 103.575 24.4782 103.607 24.7715V30.6375H101.648L101.648 20.7478Z" fill="white"/>
<path d="M115.557 27.7365C115.294 29.5318 113.607 30.7639 111.449 30.7639C108.673 30.7639 106.95 28.8363 106.95 25.7438C106.95 22.6417 108.682 20.6299 111.366 20.6299C114.006 20.6299 115.666 22.5095 115.666 25.5081V26.2036H108.927V26.3262C108.896 26.6902 108.94 27.0569 109.056 27.4019C109.172 27.7469 109.358 28.0623 109.601 28.3273C109.843 28.5922 110.138 28.8006 110.464 28.9386C110.791 29.0765 111.142 29.1409 111.494 29.1275C111.957 29.1724 112.421 29.0613 112.818 28.8107C113.215 28.5601 113.524 28.1833 113.698 27.7365L115.557 27.7365ZM108.937 24.7848H113.707C113.724 24.4576 113.676 24.1301 113.566 23.8229C113.456 23.5157 113.285 23.2355 113.066 22.9998C112.846 22.7641 112.582 22.578 112.289 22.4533C111.997 22.3285 111.683 22.2677 111.366 22.2748C111.047 22.2728 110.731 22.3363 110.436 22.4617C110.141 22.587 109.873 22.7717 109.647 23.005C109.421 23.2384 109.242 23.5158 109.12 23.8213C108.998 24.1268 108.936 24.4542 108.937 24.7848V24.7848Z" fill="white"/>
<path d="M40.1415 6.86824C40.5521 6.83769 40.9642 6.90199 41.3479 7.05648C41.7316 7.21097 42.0775 7.45181 42.3605 7.76163C42.6436 8.07144 42.8568 8.44251 42.9847 8.84806C43.1127 9.25361 43.1522 9.68354 43.1004 10.1068C43.1004 12.1891 42.0146 13.386 40.1415 13.386H37.8701V6.86824H40.1415ZM38.8468 12.4643H40.0324C40.3258 12.4825 40.6195 12.4326 40.8919 12.3183C41.1644 12.204 41.4089 12.0282 41.6075 11.8037C41.8062 11.5791 41.954 11.3115 42.0403 11.0203C42.1265 10.729 42.1491 10.4215 42.1062 10.1201C42.146 9.81991 42.1211 9.51431 42.0335 9.2252C41.946 8.9361 41.7977 8.67066 41.5995 8.4479C41.4014 8.22514 41.1581 8.05058 40.8871 7.93671C40.6162 7.82285 40.3243 7.77251 40.0324 7.78931H38.8468V12.4643Z" fill="white"/>
<path d="M44.2025 10.9252C44.1726 10.6019 44.2083 10.2758 44.3072 9.96766C44.4061 9.65955 44.5661 9.37626 44.7768 9.13597C44.9875 8.89567 45.2443 8.70368 45.5308 8.57229C45.8173 8.44091 46.1272 8.37305 46.4404 8.37305C46.7537 8.37305 47.0636 8.44091 47.3501 8.57229C47.6366 8.70368 47.8934 8.89567 48.1041 9.13597C48.3148 9.37626 48.4748 9.65955 48.5737 9.96766C48.6726 10.2758 48.7082 10.6019 48.6784 10.9252C48.7088 11.2487 48.6736 11.5753 48.5749 11.8839C48.4763 12.1925 48.3164 12.4764 48.1057 12.7171C47.8949 12.9579 47.6379 13.1503 47.3511 13.2819C47.0643 13.4136 46.7541 13.4816 46.4404 13.4816C46.1268 13.4816 45.8166 13.4136 45.5298 13.2819C45.243 13.1503 44.986 12.9579 44.7752 12.7171C44.5644 12.4764 44.4046 12.1925 44.306 11.8839C44.2073 11.5753 44.1721 11.2487 44.2025 10.9252ZM47.7151 10.9252C47.7151 9.85896 47.253 9.23546 46.442 9.23546C45.6279 9.23546 45.1699 9.85896 45.1699 10.9252C45.1699 11.9999 45.6279 12.6186 46.442 12.6186C47.253 12.6186 47.7151 11.9956 47.7151 10.9252H47.7151Z" fill="white"/>
<path d="M54.63 13.3909H53.6584L52.6776 9.76825H52.6035L51.6268 13.3909H50.6645L49.3564 8.47217H50.3064L51.1565 12.2254H51.2265L52.2021 8.47217H53.1006L54.0763 12.2254H54.1504L54.9964 8.47217H55.9329L54.63 13.3909Z" fill="white"/>
<path d="M57.0317 8.46893H57.9333V9.25031H58.0033C58.122 8.96967 58.3223 8.73441 58.5761 8.57732C58.83 8.42024 59.1248 8.34916 59.4194 8.37398C59.6504 8.35599 59.8822 8.39207 60.0978 8.47957C60.3134 8.56706 60.5073 8.70371 60.6651 8.87941C60.8228 9.05511 60.9404 9.26534 61.0091 9.49453C61.0778 9.72373 61.0959 9.96601 61.062 10.2034V13.3876H60.1255V10.4472C60.1255 9.65675 59.7941 9.26365 59.1014 9.26365C58.9447 9.25608 58.7882 9.28374 58.6427 9.34472C58.4972 9.40571 58.3661 9.49858 58.2585 9.61697C58.1509 9.73536 58.0692 9.87648 58.0191 10.0306C57.969 10.1848 57.9517 10.3484 57.9683 10.5101V13.3876H57.0317L57.0317 8.46893Z" fill="white"/>
<path d="M62.5557 6.54834H63.4922V13.3872H62.5557V6.54834Z" fill="white"/>
<path d="M64.7933 10.9287C64.7635 10.6054 64.7992 10.2792 64.8981 9.97112C64.997 9.663 65.157 9.3797 65.3677 9.1394C65.5784 8.8991 65.8353 8.7071 66.1218 8.57572C66.4083 8.44433 66.7182 8.37646 67.0315 8.37646C67.3448 8.37646 67.6546 8.44433 67.9412 8.57572C68.2277 8.7071 68.4845 8.8991 68.6953 9.1394C68.906 9.3797 69.066 9.663 69.1649 9.97112C69.2638 10.2792 69.2995 10.6054 69.2697 10.9287C69.3001 11.2523 69.2648 11.5788 69.1661 11.8875C69.0675 12.1961 68.9076 12.4799 68.6968 12.7206C68.486 12.9614 68.229 13.1538 67.9422 13.2854C67.6554 13.4171 67.3452 13.4851 67.0315 13.4851C66.7178 13.4851 66.4076 13.4171 66.1208 13.2854C65.834 13.1538 65.577 12.9614 65.3662 12.7206C65.1554 12.4799 64.9955 12.1961 64.8969 11.8875C64.7982 11.5788 64.7629 11.2523 64.7933 10.9287ZM68.3059 10.9287C68.3059 9.86247 67.8438 9.23897 67.0328 9.23897C66.2187 9.23897 65.7607 9.86247 65.7607 10.9287C65.7607 12.0034 66.2187 12.6221 67.0328 12.6221C67.8438 12.6221 68.3059 11.9991 68.3059 10.9287H68.3059Z" fill="white"/>
<path d="M70.2563 11.9957C70.2563 11.1103 70.8924 10.5999 72.0214 10.5273L73.3068 10.4505V10.026C73.3068 9.50645 72.9754 9.2131 72.3353 9.2131C71.8125 9.2131 71.4502 9.41205 71.3463 9.7598H70.4395C70.5353 8.91494 71.302 8.37305 72.3785 8.37305C73.5683 8.37305 74.2393 8.98694 74.2393 10.026V13.3867H73.3377V12.6955H73.2636C73.1132 12.9434 72.902 13.1455 72.6516 13.2812C72.4012 13.4169 72.1205 13.4813 71.8382 13.4677C71.639 13.4892 71.4376 13.4672 71.2471 13.4031C71.0566 13.339 70.8812 13.2342 70.7322 13.0955C70.5831 12.9568 70.4638 12.7873 70.3818 12.5978C70.2999 12.4084 70.2571 12.2033 70.2563 11.9957ZM73.3068 11.5754V11.1642L72.148 11.241C71.4945 11.2863 71.198 11.5167 71.198 11.9503C71.198 12.393 71.5685 12.6506 72.078 12.6506C72.2273 12.6663 72.3781 12.6507 72.5214 12.6047C72.6648 12.5587 72.7977 12.4833 72.9124 12.383C73.027 12.2827 73.121 12.1595 73.1888 12.0207C73.2566 11.882 73.2967 11.7305 73.3068 11.5754Z" fill="white"/>
<path d="M75.4692 10.9257C75.4692 9.37147 76.2401 8.38687 77.4391 8.38687C77.7357 8.37271 78.03 8.44634 78.2877 8.59915C78.5454 8.75196 78.7558 8.97764 78.8944 9.24982H78.9643V6.54834H79.9009V13.3872H79.0035V12.6101H78.9294C78.7801 12.8804 78.5624 13.1033 78.2997 13.2545C78.037 13.4058 77.7394 13.4797 77.4391 13.4682C76.2319 13.4683 75.4692 12.4837 75.4692 10.9257ZM76.4367 10.9257C76.4367 11.969 76.9112 12.5967 77.7047 12.5967C78.494 12.5967 78.9819 11.9599 78.9819 10.93C78.9819 9.90484 78.4889 9.25893 77.7047 9.25893C76.9163 9.25893 76.4367 9.89096 76.4367 10.9257H76.4367Z" fill="white"/>
<path d="M83.7772 10.9252C83.7474 10.6019 83.783 10.2758 83.8819 9.96766C83.9808 9.65955 84.1408 9.37626 84.3515 9.13597C84.5622 8.89567 84.819 8.70368 85.1055 8.57229C85.392 8.44091 85.7019 8.37305 86.0151 8.37305C86.3284 8.37305 86.6383 8.44091 86.9248 8.57229C87.2113 8.70368 87.4681 8.89567 87.6788 9.13597C87.8895 9.37626 88.0495 9.65955 88.1484 9.96766C88.2473 10.2758 88.2829 10.6019 88.2531 10.9252C88.2835 11.2487 88.2482 11.5753 88.1496 11.8839C88.051 12.1925 87.8911 12.4764 87.6804 12.7171C87.4696 12.9579 87.2126 13.1503 86.9258 13.2819C86.639 13.4136 86.3288 13.4816 86.0151 13.4816C85.7015 13.4816 85.3913 13.4136 85.1045 13.2819C84.8177 13.1503 84.5607 12.9579 84.3499 12.7171C84.1391 12.4764 83.9793 12.1925 83.8807 11.8839C83.782 11.5753 83.7468 11.2487 83.7772 10.9252ZM87.2898 10.9252C87.2898 9.85896 86.8277 9.23546 86.0167 9.23546C85.2026 9.23546 84.7447 9.85896 84.7447 10.9252C84.7447 11.9999 85.2026 12.6186 86.0167 12.6186C86.8277 12.6186 87.2898 11.9956 87.2898 10.9252Z" fill="white"/>
<path d="M89.5088 8.46893H90.4104V9.25031H90.4803C90.5991 8.96967 90.7993 8.73441 91.0532 8.57732C91.307 8.42024 91.6018 8.34916 91.8965 8.37398C92.1274 8.35599 92.3593 8.39207 92.5749 8.47957C92.7905 8.56706 92.9844 8.70371 93.1421 8.87941C93.2999 9.05511 93.4175 9.26534 93.4862 9.49453C93.5549 9.72373 93.573 9.96601 93.5391 10.2034V13.3876H92.6025V10.4472C92.6025 9.65675 92.2711 9.26365 91.5785 9.26365C91.4217 9.25608 91.2652 9.28374 91.1197 9.34472C90.9742 9.40571 90.8432 9.49858 90.7355 9.61697C90.6279 9.73536 90.5463 9.87648 90.4962 10.0306C90.4461 10.1848 90.4287 10.3484 90.4453 10.5101V13.3876H89.5088V8.46893Z" fill="white"/>
<path d="M98.8311 7.2417V8.48871H99.8592V9.30637H98.8311V11.8356C98.8311 12.3508 99.0359 12.5764 99.5021 12.5764C99.6215 12.576 99.7407 12.5686 99.8592 12.554V13.3626C99.691 13.3938 99.5206 13.4104 99.3498 13.4122C98.3083 13.4122 97.8935 13.0325 97.8935 12.0841V9.30632H97.1401V8.48867H97.8935V7.2417H98.8311Z" fill="white"/>
<path d="M101.139 6.54834H102.067V9.25892H102.141C102.266 8.97565 102.471 8.73906 102.73 8.58139C102.989 8.42371 103.289 8.35262 103.588 8.3778C103.818 8.36484 104.047 8.40459 104.261 8.49421C104.474 8.58383 104.665 8.7211 104.821 8.89625C104.977 9.07139 105.094 9.28008 105.164 9.50743C105.233 9.73479 105.253 9.9752 105.222 10.2115V13.3872H104.285V10.451C104.285 9.66533 103.932 9.26744 103.27 9.26744C103.109 9.25376 102.947 9.27669 102.796 9.33465C102.644 9.3926 102.507 9.48417 102.393 9.60294C102.279 9.72172 102.192 9.86484 102.137 10.0223C102.082 10.1797 102.061 10.3477 102.075 10.5145V13.3872H101.139L101.139 6.54834Z" fill="white"/>
<path d="M110.683 12.0621C110.556 12.5117 110.28 12.9005 109.904 13.1606C109.528 13.4208 109.076 13.5356 108.626 13.4851C108.314 13.4937 108.003 13.4316 107.716 13.3032C107.429 13.1749 107.172 12.9832 106.963 12.7417C106.755 12.5001 106.599 12.2144 106.508 11.9044C106.417 11.5944 106.392 11.2674 106.434 10.9463C106.393 10.6242 106.418 10.2966 106.509 9.98561C106.601 9.67466 106.755 9.38763 106.963 9.14395C107.17 8.90028 107.426 8.70566 107.712 8.57326C107.998 8.44086 108.309 8.37378 108.622 8.37655C109.943 8.37655 110.739 9.31159 110.739 10.8562V11.1949H107.388V11.2493C107.374 11.4298 107.396 11.6115 107.453 11.7827C107.51 11.9539 107.601 12.1109 107.72 12.2436C107.839 12.3762 107.983 12.4817 108.144 12.5531C108.304 12.6245 108.477 12.6604 108.652 12.6584C108.876 12.6863 109.103 12.6445 109.304 12.5383C109.505 12.4321 109.671 12.2663 109.781 12.0621L110.683 12.0621ZM107.388 10.4769H109.785C109.797 10.3119 109.775 10.146 109.722 9.99015C109.668 9.83426 109.583 9.69173 109.473 9.57173C109.363 9.45172 109.23 9.3569 109.083 9.29336C108.935 9.22981 108.777 9.19894 108.617 9.20274C108.455 9.20063 108.294 9.23215 108.144 9.29544C107.994 9.35874 107.858 9.45253 107.744 9.57128C107.629 9.69003 107.539 9.83134 107.478 9.98689C107.417 10.1424 107.386 10.3091 107.388 10.4769H107.388Z" fill="white"/>
<path d="M121.441 1.16231C122.482 1.16231 123.48 1.60183 124.216 2.3842C124.951 3.16656 125.365 4.22768 125.365 5.33411V35.1327C125.365 36.2391 124.951 37.3003 124.216 38.0826C123.48 38.865 122.482 39.3045 121.441 39.3045H4.67081C3.63024 39.3045 2.63229 38.865 1.89649 38.0826C1.1607 37.3003 0.747331 36.2391 0.747331 35.1327V5.33411C0.747331 4.22768 1.1607 3.16656 1.89649 2.3842C2.63229 1.60183 3.63024 1.16231 4.67081 1.16231H121.441ZM121.441 0.367676H4.67081C3.43204 0.367676 2.244 0.890924 1.36805 1.82231C0.492102 2.7537 0 4.01693 0 5.33411V35.1327C0 36.4499 0.492102 37.7131 1.36805 38.6445C2.244 39.5759 3.43204 40.0992 4.67081 40.0992H121.441C122.68 40.0992 123.868 39.5759 124.744 38.6445C125.62 37.7131 126.112 36.4499 126.112 35.1327V5.33411C126.112 4.01693 125.62 2.7537 124.744 1.82231C123.868 0.890924 122.68 0.367676 121.441 0.367676Z" fill="#A6A6A6"/>
</svg>
