<svg width="606" height="166" viewBox="0 0 606 166" fill="none" xmlns="http://www.w3.org/2000/svg">
<g filter="url(#filter0_b_162_2865)">
<path d="M387.692 27.2548L388.849 26.0988C389.112 25.8363 389.112 25.4125 388.849 25.15C388.586 24.8875 388.162 24.8875 387.899 25.15L386.742 26.306L385.584 25.15C385.322 24.8875 384.897 24.8875 384.635 25.15C384.372 25.4125 384.372 25.8363 384.635 26.0988L385.792 27.2548L384.639 28.4062C384.376 28.6688 384.376 29.0925 384.639 29.355C384.768 29.484 384.944 29.5531 385.114 29.5531C385.285 29.5531 385.46 29.4886 385.589 29.355L386.742 28.2036L387.894 29.355C388.024 29.484 388.199 29.5531 388.369 29.5531C388.54 29.5531 388.715 29.4886 388.844 29.355C389.107 29.0925 389.107 28.6688 388.844 28.4062L387.692 27.2548Z" fill="url(#paint0_linear_162_2865)"/>
</g>
<g filter="url(#filter1_b_162_2865)">
<path d="M106.371 57.1984L107.529 56.0424C107.791 55.7799 107.791 55.3561 107.529 55.0936C107.266 54.8311 106.842 54.8311 106.579 55.0936L105.421 56.2496L104.264 55.0936C104.001 54.8311 103.577 54.8311 103.314 55.0936C103.051 55.3561 103.051 55.7799 103.314 56.0424L104.472 57.1984L103.319 58.3498C103.056 58.6124 103.056 59.0361 103.319 59.2986C103.448 59.4276 103.623 59.4967 103.794 59.4967C103.964 59.4967 104.14 59.4322 104.269 59.2986L105.421 58.1472L106.574 59.2986C106.703 59.4276 106.878 59.4967 107.049 59.4967C107.22 59.4967 107.395 59.4322 107.524 59.2986C107.787 59.0361 107.787 58.6124 107.524 58.3498L106.371 57.1984Z" fill="url(#paint1_linear_162_2865)"/>
</g>
<g filter="url(#filter2_b_162_2865)">
<path d="M303.596 51.2097L304.753 50.0536C305.016 49.7911 305.016 49.3674 304.753 49.1049C304.49 48.8423 304.066 48.8423 303.803 49.1049L302.646 50.2609L301.489 49.1049C301.226 48.8423 300.802 48.8423 300.539 49.1049C300.276 49.3674 300.276 49.7911 300.539 50.0536L301.696 51.2097L300.544 52.3611C300.281 52.6236 300.281 53.0473 300.544 53.3099C300.673 53.4388 300.848 53.5079 301.018 53.5079C301.189 53.5079 301.364 53.4434 301.493 53.3099L302.646 52.1584L303.799 53.3099C303.928 53.4388 304.103 53.5079 304.274 53.5079C304.444 53.5079 304.619 53.4434 304.749 53.3099C305.011 53.0473 305.011 52.6236 304.749 52.3611L303.596 51.2097Z" fill="url(#paint2_linear_162_2865)"/>
</g>
<g filter="url(#filter3_b_162_2865)">
<path d="M3.25408 57.1984L4.41139 56.0424C4.67421 55.7799 4.67421 55.3561 4.41139 55.0936C4.14858 54.8311 3.72439 54.8311 3.46157 55.0936L2.30425 56.2496L1.14695 55.0936C0.884135 54.8311 0.459928 54.8311 0.197112 55.0936C-0.065704 55.3561 -0.065704 55.7799 0.197112 56.0424L1.35443 57.1984L0.201727 58.3498C-0.0610887 58.6124 -0.0610887 59.0361 0.201727 59.2986C0.33083 59.4276 0.50604 59.4967 0.67664 59.4967C0.847239 59.4967 1.02245 59.4322 1.15155 59.2986L2.30425 58.1472L3.45695 59.2986C3.58606 59.4276 3.76127 59.4967 3.93187 59.4967C4.10247 59.4967 4.27768 59.4322 4.40678 59.2986C4.6696 59.0361 4.6696 58.6124 4.40678 58.3498L3.25408 57.1984Z" fill="url(#paint3_linear_162_2865)"/>
</g>
<g filter="url(#filter4_b_162_2865)">
<path d="M448.76 133.056L449.917 131.9C450.18 131.637 450.18 131.214 449.917 130.951C449.654 130.689 449.23 130.689 448.967 130.951L447.81 132.107L446.653 130.951C446.39 130.689 445.966 130.689 445.703 130.951C445.44 131.214 445.44 131.637 445.703 131.9L446.86 133.056L445.708 134.207C445.445 134.47 445.445 134.894 445.708 135.156C445.837 135.285 446.012 135.354 446.182 135.354C446.353 135.354 446.528 135.29 446.657 135.156L447.81 134.005L448.963 135.156C449.092 135.285 449.267 135.354 449.438 135.354C449.608 135.354 449.784 135.29 449.913 135.156C450.175 134.894 450.175 134.47 449.913 134.207L448.76 133.056Z" fill="url(#paint4_linear_162_2865)"/>
</g>
<g filter="url(#filter5_b_162_2865)">
<path d="M136.404 147.03L137.562 145.874C137.825 145.611 137.825 145.187 137.562 144.925C137.299 144.662 136.875 144.662 136.612 144.925L135.455 146.081L134.297 144.925C134.035 144.662 133.61 144.662 133.348 144.925C133.085 145.187 133.085 145.611 133.348 145.874L134.505 147.03L133.352 148.181C133.089 148.444 133.089 148.867 133.352 149.13C133.481 149.259 133.656 149.328 133.827 149.328C133.998 149.328 134.173 149.264 134.302 149.13L135.455 147.979L136.607 149.13C136.736 149.259 136.912 149.328 137.082 149.328C137.253 149.328 137.428 149.264 137.557 149.13C137.82 148.867 137.82 148.444 137.557 148.181L136.404 147.03Z" fill="url(#paint5_linear_162_2865)"/>
</g>
<g filter="url(#filter6_b_162_2865)">
<path d="M538.862 3.29974L540.019 2.14372C540.282 1.88119 540.282 1.45747 540.019 1.19494C539.756 0.932416 539.332 0.932416 539.069 1.19494L537.912 2.35096L536.754 1.19494C536.492 0.932416 536.067 0.932416 535.805 1.19494C535.542 1.45747 535.542 1.88119 535.805 2.14372L536.962 3.29974L535.809 4.45117C535.546 4.71369 535.546 5.13743 535.809 5.39996C535.938 5.52892 536.113 5.598 536.284 5.598C536.455 5.598 536.63 5.53352 536.759 5.39996L537.912 4.24853L539.064 5.39996C539.193 5.52892 539.369 5.598 539.539 5.598C539.71 5.598 539.885 5.53352 540.014 5.39996C540.277 5.13743 540.277 4.71369 540.014 4.45117L538.862 3.29974Z" fill="url(#paint6_linear_162_2865)"/>
</g>
<g filter="url(#filter7_b_162_2865)">
<path d="M238.522 9.28851L239.679 8.13249C239.942 7.86996 239.942 7.44624 239.679 7.18371C239.416 6.92119 238.992 6.92119 238.729 7.18371L237.572 8.33973L236.415 7.18371C236.152 6.92119 235.728 6.92119 235.465 7.18371C235.202 7.44624 235.202 7.86996 235.465 8.13249L236.622 9.28851L235.469 10.4399C235.206 10.7025 235.206 11.1262 235.469 11.3887C235.598 11.5177 235.774 11.5868 235.944 11.5868C236.115 11.5868 236.29 11.5223 236.419 11.3887L237.572 10.2373L238.725 11.3887C238.854 11.5177 239.029 11.5868 239.199 11.5868C239.37 11.5868 239.545 11.5223 239.674 11.3887C239.937 11.1262 239.937 10.7025 239.674 10.4399L238.522 9.28851Z" fill="url(#paint7_linear_162_2865)"/>
</g>
<g opacity="0.9">
<path d="M464.794 103.733C492.733 102.152 514.097 78.2904 512.512 50.4357C510.927 22.5809 486.993 1.28113 459.055 2.86137C431.116 4.44161 409.752 28.3034 411.337 56.1582C412.922 84.013 436.856 105.313 464.794 103.733Z" fill="url(#paint8_linear_162_2865)"/>
<path d="M463.953 88.9249C483.687 87.8088 498.776 70.9548 497.657 51.2806C496.537 31.6064 479.632 16.5621 459.899 17.6783C440.165 18.7944 425.076 35.6483 426.195 55.3225C427.315 74.9968 444.219 90.0411 463.953 88.9249Z" fill="url(#paint9_linear_162_2865)"/>
<path d="M454.865 72.2465L451.118 53.7049L452.345 50.0363L455.328 51.0278C457.085 51.6116 458.688 51.7218 460.135 51.3582C461.594 50.9616 462.721 50.1242 463.517 48.8463L453.82 45.6239L455.046 41.9553L464.693 45.1611C464.815 43.806 464.55 42.5611 463.898 41.4263C463.257 40.2585 462.107 39.3992 460.45 38.8484L456.522 37.5429L457.748 33.8743L480.175 41.3269L478.948 44.9956L471.141 42.4012C471.881 44.0427 472.119 45.7559 471.854 47.5406L477.473 49.4079L476.246 53.0766L470.727 51.2423C469.578 53.578 467.992 55.181 465.97 56.0513C463.959 56.8887 461.644 57.1476 459.025 56.8281L463.716 75.1879L454.865 72.2465Z" fill="url(#paint10_linear_162_2865)"/>
</g>
<g opacity="0.9">
<path d="M356.339 142.479C369.708 152.198 388.449 149.271 398.197 135.942C407.946 122.613 405.01 103.929 391.641 94.2096C378.272 84.4905 359.531 87.417 349.782 100.746C340.034 114.075 342.969 132.76 356.339 142.479Z" fill="url(#paint11_linear_162_2865)"/>
<path d="M361.523 135.389C370.966 142.254 384.203 140.187 391.088 130.772C397.974 121.358 395.9 108.161 386.457 101.296C377.014 94.4314 363.778 96.4985 356.892 105.913C350.007 115.328 352.08 128.525 361.523 135.389Z" fill="url(#paint12_linear_162_2865)"/>
<path d="M364.189 127.389L368.036 115.073L369.974 113.279L371.434 114.846C372.293 115.768 373.216 116.357 374.201 116.612C375.204 116.851 376.153 116.718 377.049 116.213L372.305 111.12L374.244 109.325L378.963 114.392C379.481 113.621 379.731 112.79 379.713 111.898C379.713 110.99 379.308 110.101 378.497 109.23L376.575 107.167L378.514 105.372L389.485 117.151L387.546 118.945L383.727 114.845C383.631 116.069 383.211 117.172 382.466 118.153L385.215 121.104L383.276 122.899L380.576 120C379.122 121.022 377.647 121.464 376.151 121.324C374.673 121.169 373.203 120.568 371.741 119.522L368.519 132.038L364.189 127.389Z" fill="url(#paint13_linear_162_2865)"/>
</g>
<g opacity="0.9">
<path d="M532.205 135.896C544.367 147.778 563.887 147.581 575.805 135.456C587.723 123.33 587.525 103.868 575.363 91.9865C563.201 80.1045 543.68 80.3017 531.763 92.4271C519.845 104.553 520.043 124.014 532.205 135.896Z" fill="url(#paint14_linear_162_2865)"/>
<path d="M538.541 129.442C547.131 137.834 560.919 137.695 569.337 129.131C577.755 120.566 577.615 106.82 569.025 98.4278C560.434 90.0353 546.647 90.1747 538.229 98.739C529.811 107.303 529.951 121.05 538.541 129.442Z" fill="url(#paint15_linear_162_2865)"/>
<path d="M543.749 123.462L547.573 111.218L549.5 109.433L550.951 110.991C551.806 111.909 552.723 112.494 553.703 112.747C554.7 112.985 555.644 112.852 556.534 112.35L551.818 107.287L553.745 105.503L558.437 110.54C558.952 109.774 559.2 108.947 559.183 108.061C559.183 107.158 558.78 106.274 557.974 105.409L556.063 103.357L557.99 101.573L568.897 113.283L566.97 115.067L563.173 110.991C563.078 112.207 562.66 113.304 561.919 114.279L564.652 117.213L562.725 118.997L560.041 116.115C558.595 117.132 557.128 117.571 555.641 117.432C554.172 117.278 552.71 116.68 551.257 115.641L548.054 128.083L543.749 123.462Z" fill="url(#paint16_linear_162_2865)"/>
</g>
<defs>
<filter id="filter0_b_162_2865" x="373.733" y="14.2483" width="26.0191" height="26.0096" filterUnits="userSpaceOnUse" color-interpolation-filters="sRGB">
<feFlood flood-opacity="0" result="BackgroundImageFix"/>
<feGaussianBlur in="BackgroundImageFix" stdDeviation="5.35243"/>
<feComposite in2="SourceAlpha" operator="in" result="effect1_backgroundBlur_162_2865"/>
<feBlend mode="normal" in="SourceGraphic" in2="effect1_backgroundBlur_162_2865" result="shape"/>
</filter>
<filter id="filter1_b_162_2865" x="92.4123" y="44.1919" width="26.0191" height="26.0096" filterUnits="userSpaceOnUse" color-interpolation-filters="sRGB">
<feFlood flood-opacity="0" result="BackgroundImageFix"/>
<feGaussianBlur in="BackgroundImageFix" stdDeviation="5.35243"/>
<feComposite in2="SourceAlpha" operator="in" result="effect1_backgroundBlur_162_2865"/>
<feBlend mode="normal" in="SourceGraphic" in2="effect1_backgroundBlur_162_2865" result="shape"/>
</filter>
<filter id="filter2_b_162_2865" x="289.637" y="38.2031" width="26.0191" height="26.0096" filterUnits="userSpaceOnUse" color-interpolation-filters="sRGB">
<feFlood flood-opacity="0" result="BackgroundImageFix"/>
<feGaussianBlur in="BackgroundImageFix" stdDeviation="5.35243"/>
<feComposite in2="SourceAlpha" operator="in" result="effect1_backgroundBlur_162_2865"/>
<feBlend mode="normal" in="SourceGraphic" in2="effect1_backgroundBlur_162_2865" result="shape"/>
</filter>
<filter id="filter3_b_162_2865" x="-10.7049" y="44.1919" width="26.0191" height="26.0096" filterUnits="userSpaceOnUse" color-interpolation-filters="sRGB">
<feFlood flood-opacity="0" result="BackgroundImageFix"/>
<feGaussianBlur in="BackgroundImageFix" stdDeviation="5.35243"/>
<feComposite in2="SourceAlpha" operator="in" result="effect1_backgroundBlur_162_2865"/>
<feBlend mode="normal" in="SourceGraphic" in2="effect1_backgroundBlur_162_2865" result="shape"/>
</filter>
<filter id="filter4_b_162_2865" x="434.801" y="120.049" width="26.0191" height="26.0096" filterUnits="userSpaceOnUse" color-interpolation-filters="sRGB">
<feFlood flood-opacity="0" result="BackgroundImageFix"/>
<feGaussianBlur in="BackgroundImageFix" stdDeviation="5.35243"/>
<feComposite in2="SourceAlpha" operator="in" result="effect1_backgroundBlur_162_2865"/>
<feBlend mode="normal" in="SourceGraphic" in2="effect1_backgroundBlur_162_2865" result="shape"/>
</filter>
<filter id="filter5_b_162_2865" x="122.446" y="134.023" width="26.0191" height="26.0096" filterUnits="userSpaceOnUse" color-interpolation-filters="sRGB">
<feFlood flood-opacity="0" result="BackgroundImageFix"/>
<feGaussianBlur in="BackgroundImageFix" stdDeviation="5.35243"/>
<feComposite in2="SourceAlpha" operator="in" result="effect1_backgroundBlur_162_2865"/>
<feBlend mode="normal" in="SourceGraphic" in2="effect1_backgroundBlur_162_2865" result="shape"/>
</filter>
<filter id="filter6_b_162_2865" x="524.903" y="-9.70681" width="26.0191" height="26.0096" filterUnits="userSpaceOnUse" color-interpolation-filters="sRGB">
<feFlood flood-opacity="0" result="BackgroundImageFix"/>
<feGaussianBlur in="BackgroundImageFix" stdDeviation="5.35243"/>
<feComposite in2="SourceAlpha" operator="in" result="effect1_backgroundBlur_162_2865"/>
<feBlend mode="normal" in="SourceGraphic" in2="effect1_backgroundBlur_162_2865" result="shape"/>
</filter>
<filter id="filter7_b_162_2865" x="224.563" y="-3.71804" width="26.0191" height="26.0096" filterUnits="userSpaceOnUse" color-interpolation-filters="sRGB">
<feFlood flood-opacity="0" result="BackgroundImageFix"/>
<feGaussianBlur in="BackgroundImageFix" stdDeviation="5.35243"/>
<feComposite in2="SourceAlpha" operator="in" result="effect1_backgroundBlur_162_2865"/>
<feBlend mode="normal" in="SourceGraphic" in2="effect1_backgroundBlur_162_2865" result="shape"/>
</filter>
<linearGradient id="paint0_linear_162_2865" x1="386.166" y1="28.8196" x2="384.738" y2="25.3678" gradientUnits="userSpaceOnUse">
<stop stop-color="#FCB937"/>
<stop offset="1" stop-color="#FCE300"/>
</linearGradient>
<linearGradient id="paint1_linear_162_2865" x1="104.845" y1="58.7632" x2="103.418" y2="55.3114" gradientUnits="userSpaceOnUse">
<stop stop-color="#FCB937"/>
<stop offset="1" stop-color="#FCE300"/>
</linearGradient>
<linearGradient id="paint2_linear_162_2865" x1="302.07" y1="52.7745" x2="300.642" y2="49.3227" gradientUnits="userSpaceOnUse">
<stop stop-color="#FCB937"/>
<stop offset="1" stop-color="#FCE300"/>
</linearGradient>
<linearGradient id="paint3_linear_162_2865" x1="1.7282" y1="58.7632" x2="0.300337" y2="55.3114" gradientUnits="userSpaceOnUse">
<stop stop-color="#FCB937"/>
<stop offset="1" stop-color="#FCE300"/>
</linearGradient>
<linearGradient id="paint4_linear_162_2865" x1="447.234" y1="134.621" x2="445.806" y2="131.169" gradientUnits="userSpaceOnUse">
<stop stop-color="#FCB937"/>
<stop offset="1" stop-color="#FCE300"/>
</linearGradient>
<linearGradient id="paint5_linear_162_2865" x1="134.879" y1="148.595" x2="133.451" y2="145.143" gradientUnits="userSpaceOnUse">
<stop stop-color="#FCB937"/>
<stop offset="1" stop-color="#FCE300"/>
</linearGradient>
<linearGradient id="paint6_linear_162_2865" x1="537.336" y1="4.86455" x2="535.908" y2="1.41276" gradientUnits="userSpaceOnUse">
<stop stop-color="#FCB937"/>
<stop offset="1" stop-color="#FCE300"/>
</linearGradient>
<linearGradient id="paint7_linear_162_2865" x1="236.996" y1="10.8533" x2="235.568" y2="7.40153" gradientUnits="userSpaceOnUse">
<stop stop-color="#FCB937"/>
<stop offset="1" stop-color="#FCE300"/>
</linearGradient>
<linearGradient id="paint8_linear_162_2865" x1="408.956" y1="56.2929" x2="491.011" y2="89.472" gradientUnits="userSpaceOnUse">
<stop stop-color="#FFF9DF"/>
<stop offset="0.593" stop-color="#FFE177"/>
<stop offset="1" stop-color="#FEB137"/>
</linearGradient>
<linearGradient id="paint9_linear_162_2865" x1="438.318" y1="54.6368" x2="483.404" y2="52.0713" gradientUnits="userSpaceOnUse">
<stop stop-color="#FFE177"/>
<stop offset="1" stop-color="#FEB137"/>
</linearGradient>
<linearGradient id="paint10_linear_162_2865" x1="446.203" y1="49.703" x2="497.612" y2="68.2687" gradientUnits="userSpaceOnUse">
<stop stop-color="#FFF9DF"/>
<stop offset="0.364776" stop-color="#FFE177"/>
<stop offset="1" stop-color="#FEB137"/>
</linearGradient>
<linearGradient id="paint11_linear_162_2865" x1="348.643" y1="99.918" x2="397.538" y2="135.678" gradientUnits="userSpaceOnUse">
<stop stop-color="#FFF9DF"/>
<stop offset="0.593" stop-color="#FFE177"/>
<stop offset="1" stop-color="#FEB137"/>
</linearGradient>
<linearGradient id="paint12_linear_162_2865" x1="362.693" y1="110.13" x2="384.223" y2="125.877" gradientUnits="userSpaceOnUse">
<stop stop-color="#FFE177"/>
<stop offset="1" stop-color="#FEB137"/>
</linearGradient>
<linearGradient id="paint13_linear_162_2865" x1="366.409" y1="111.075" x2="391.041" y2="138.988" gradientUnits="userSpaceOnUse">
<stop stop-color="#FFF9DF"/>
<stop offset="0.364776" stop-color="#FFE177"/>
<stop offset="1" stop-color="#FEB137"/>
</linearGradient>
<linearGradient id="paint14_linear_162_2865" x1="530.726" y1="91.4147" x2="575.167" y2="135.095" gradientUnits="userSpaceOnUse">
<stop stop-color="#FFF9DF"/>
<stop offset="0.593" stop-color="#FFE177"/>
<stop offset="1" stop-color="#FEB137"/>
</linearGradient>
<linearGradient id="paint15_linear_162_2865" x1="543.506" y1="103.895" x2="563.075" y2="123.129" gradientUnits="userSpaceOnUse">
<stop stop-color="#FFE177"/>
<stop offset="1" stop-color="#FEB137"/>
</linearGradient>
<linearGradient id="paint16_linear_162_2865" x1="545.956" y1="107.242" x2="570.444" y2="134.992" gradientUnits="userSpaceOnUse">
<stop stop-color="#FFF9DF"/>
<stop offset="0.364776" stop-color="#FFE177"/>
<stop offset="1" stop-color="#FEB137"/>
</linearGradient>
</defs>
</svg>
