<svg width="32" height="32" viewBox="0 0 32 32" fill="none" xmlns="http://www.w3.org/2000/svg">
<g filter="url(#filter0_b_162_3537)">
<circle cx="16" cy="16" r="16" fill="#04A971"/>
</g>
<path d="M23.12 19.0044C22.0267 19.0044 20.9689 18.8267 19.9822 18.5067C19.6711 18.4 19.3244 18.48 19.0844 18.72L17.6889 20.4711C15.1733 19.2711 12.8178 17.0044 11.5644 14.4L13.2978 12.9244C13.5378 12.6756 13.6089 12.3289 13.5111 12.0178C13.1822 11.0311 13.0133 9.97333 13.0133 8.88C13.0133 8.4 12.6133 8 12.1333 8H9.05778C8.57778 8 8 8.21333 8 8.88C8 17.1378 14.8711 24 23.12 24C23.7511 24 24 23.44 24 22.9511V19.8844C24 19.4044 23.6 19.0044 23.12 19.0044Z" fill="white"/>
<mask id="mask0_162_3537" style="mask-type:alpha" maskUnits="userSpaceOnUse" x="8" y="8" width="16" height="16">
<path d="M23.12 19.0044C22.0267 19.0044 20.9689 18.8267 19.9822 18.5067C19.6711 18.4 19.3244 18.48 19.0844 18.72L17.6889 20.4711C15.1733 19.2711 12.8178 17.0044 11.5644 14.4L13.2978 12.9244C13.5378 12.6756 13.6089 12.3289 13.5111 12.0178C13.1822 11.0311 13.0133 9.97333 13.0133 8.88C13.0133 8.4 12.6133 8 12.1333 8H9.05778C8.57778 8 8 8.21333 8 8.88C8 17.1378 14.8711 24 23.12 24C23.7511 24 24 23.44 24 22.9511V19.8844C24 19.4044 23.6 19.0044 23.12 19.0044Z" fill="white"/>
</mask>
<g mask="url(#mask0_162_3537)">
</g>
<defs>
<filter id="filter0_b_162_3537" x="-3.74349" y="-3.74349" width="39.487" height="39.487" filterUnits="userSpaceOnUse" color-interpolation-filters="sRGB">
<feFlood flood-opacity="0" result="BackgroundImageFix"/>
<feGaussianBlur in="BackgroundImageFix" stdDeviation="1.87174"/>
<feComposite in2="SourceAlpha" operator="in" result="effect1_backgroundBlur_162_3537"/>
<feBlend mode="normal" in="SourceGraphic" in2="effect1_backgroundBlur_162_3537" result="shape"/>
</filter>
</defs>
</svg>
