<svg width="30" height="30" viewBox="0 0 30 30" fill="none" xmlns="http://www.w3.org/2000/svg">
<path d="M12.4654 25.0002C13.1892 25.0002 13.776 24.3567 13.776 23.5628C13.776 22.769 13.1892 22.1255 12.4654 22.1255C11.7416 22.1255 11.1548 22.769 11.1548 23.5628C11.1548 24.3567 11.7416 25.0002 12.4654 25.0002Z" fill="#FCD400"/>
<path d="M20.5303 25.0002C21.2541 25.0002 21.8409 24.3567 21.8409 23.5628C21.8409 22.769 21.2541 22.1255 20.5303 22.1255C19.8065 22.1255 19.2197 22.769 19.2197 23.5628C19.2197 24.3567 19.8065 25.0002 20.5303 25.0002Z" fill="#FCD400"/>
<path d="M25 9.23892L23.0397 18.4528H10.5499L8.30957 7.98584H24.1039" stroke="#2D2A2E" stroke-width="1.2" stroke-miterlimit="10" stroke-linecap="round" stroke-linejoin="round"/>
<path d="M3 5H7.1446C7.40224 5 7.61507 5.18428 7.68228 5.45455L8.30957 7.98529" stroke="#2D2A2E" stroke-width="1.2" stroke-miterlimit="10" stroke-linecap="round" stroke-linejoin="round"/>
<path d="M22.9615 21.5359H10.2813C8.83628 21.4991 8.9259 20.1846 8.9259 20.1846C8.88109 18.2312 10.5501 18.4524 10.5501 18.4524" stroke="#2D2A2E" stroke-width="1.2" stroke-miterlimit="10" stroke-linecap="round" stroke-linejoin="round"/>
<path d="M12.4654 25.0002C13.1892 25.0002 13.776 24.3567 13.776 23.5628C13.776 22.769 13.1892 22.1255 12.4654 22.1255C11.7416 22.1255 11.1548 22.769 11.1548 23.5628C11.1548 24.3567 11.7416 25.0002 12.4654 25.0002Z" stroke="#2D2A2E" stroke-width="1.2" stroke-miterlimit="10" stroke-linecap="round" stroke-linejoin="round"/>
<path d="M20.5303 25.0002C21.2541 25.0002 21.8409 24.3567 21.8409 23.5628C21.8409 22.769 21.2541 22.1255 20.5303 22.1255C19.8065 22.1255 19.2197 22.769 19.2197 23.5628C19.2197 24.3567 19.8065 25.0002 20.5303 25.0002Z" stroke="#2D2A2E" stroke-width="1.2" stroke-miterlimit="10" stroke-linecap="round" stroke-linejoin="round"/>
<path d="M12.3535 11.1426L13.2496 15.3072" stroke="#2D2A2E" stroke-width="1.2" stroke-miterlimit="10" stroke-linecap="round" stroke-linejoin="round"/>
<path d="M16.7559 11.0815V15.3691" stroke="#2D2A2E" stroke-width="1.2" stroke-miterlimit="10" stroke-linecap="round" stroke-linejoin="round"/>
<path d="M21.1242 11.1426L20.228 15.3072" stroke="#2D2A2E" stroke-width="1.2" stroke-miterlimit="10" stroke-linecap="round" stroke-linejoin="round"/>
</svg>
