<svg width="24" height="25" viewBox="0 0 24 25" fill="none" xmlns="http://www.w3.org/2000/svg">
<path d="M7.5 6.06055H6C4.34315 6.06055 3 7.40369 3 9.06055V19.0605C3 20.7174 4.34315 22.0605 6 22.0605H14C15.6569 22.0605 17 20.7174 17 19.0605V17.5605" stroke="#2D2A2E" stroke-width="1.6"/>
<path d="M7 5.06055C7 3.40369 8.34315 2.06055 10 2.06055H15.7574C16.553 2.06055 17.3161 2.37662 17.8787 2.93923L20.1213 5.18187C20.6839 5.74448 21 6.50754 21 7.30319V15.0605C21 16.7174 19.6569 18.0605 18 18.0605H10C8.34315 18.0605 7 16.7174 7 15.0605V5.06055Z" stroke="#2D2A2E" stroke-width="1.6"/>
<path d="M16 5.06055V2.06055C16.6403 2.06055 17.2544 2.3149 17.7071 2.76765L19 4.06055L20.2929 5.35344C20.7456 5.80619 21 6.42026 21 7.06055H18C16.8954 7.06055 16 6.16512 16 5.06055Z" stroke="#2D2A2E" stroke-width="1.6"/>
</svg>
