<svg width="24" height="24" viewBox="0 0 24 24" fill="none" xmlns="http://www.w3.org/2000/svg">
<rect width="24" height="24" rx="4" fill="#F2F5F8"/>
<path d="M6 8.11111H18M17.25 8.11111L16.5997 17.5549C16.5728 17.9473 16.4035 18.3146 16.1258 18.5828C15.8482 18.8509 15.4829 19 15.1035 19H8.8965C8.5171 19 8.1518 18.8509 7.87416 18.5828C7.59653 18.3146 7.42719 17.9473 7.40025 17.5549L6.75 8.11111H17.25ZM10.5 11.2222V15.8889V11.2222ZM13.5 11.2222V15.8889V11.2222ZM14.25 8.11111V5.77778C14.25 5.5715 14.171 5.37367 14.0303 5.22781C13.8897 5.08194 13.6989 5 13.5 5H10.5C10.3011 5 10.1103 5.08194 9.96967 5.22781C9.82902 5.37367 9.75 5.5715 9.75 5.77778V8.11111H14.25Z" stroke="#1D1C19" stroke-width="1.05" stroke-linecap="round" stroke-linejoin="round"/>
</svg>
