<svg width="17" height="16" viewBox="0 0 17 16" fill="none" xmlns="http://www.w3.org/2000/svg">
<path fill-rule="evenodd" clip-rule="evenodd" d="M15.3394 7.99988C15.3394 8.27218 15.54 8.67914 15.7343 9.07276L15.7346 9.07333C16.0679 9.75012 16.4455 10.5171 16.1346 11.2665C15.8131 12.0416 14.9847 12.3196 14.2539 12.5649L14.2535 12.565L14.2475 12.5671C13.8667 12.6952 13.4367 12.8399 13.2636 13.013C13.0895 13.1871 12.944 13.6198 12.8155 14.0021L12.815 14.0036C12.5697 14.7345 12.2914 15.563 11.5161 15.8843C10.7676 16.195 10.0003 15.8174 9.32338 15.4841L9.31953 15.4822C8.9271 15.2891 8.52191 15.0898 8.25017 15.0898C7.97753 15.0898 7.57091 15.2901 7.17762 15.4841L7.17634 15.4847C6.6774 15.7302 6.12893 16 5.57513 16C5.37848 16 5.18084 15.9657 4.98419 15.8843C4.20895 15.5627 3.93064 14.7345 3.68567 14.0036L3.68518 14.0021C3.55664 13.6198 3.41114 13.1871 3.23739 13.013C3.0634 12.8393 2.62979 12.6937 2.24749 12.5654C1.51624 12.3201 0.688 12.0418 0.366368 11.2662C0.0558234 10.5176 0.432339 9.75176 0.76464 9.07584L0.765991 9.0731L0.767888 9.06924C0.960945 8.67682 1.16028 8.27163 1.16028 8.00021C1.16028 7.72844 0.960411 7.32286 0.766783 6.92995L0.765658 6.92766L0.76493 6.92619C0.431478 6.24929 0.0539619 5.48294 0.364702 4.73357C0.686666 3.95866 1.51524 3.68036 2.24583 3.43505L2.25165 3.43309C2.63284 3.30492 3.06328 3.1602 3.23605 2.98676C3.40946 2.81369 3.55417 2.38367 3.68233 2.00284L3.68434 1.99687L3.68446 1.99651C3.92974 1.26568 4.20774 0.437324 4.98286 0.115747C5.73211 -0.194885 6.50003 0.18274 7.17662 0.516036C7.56991 0.709682 7.97686 0.909993 8.24917 0.909993C8.52214 0.909993 8.92909 0.709682 9.32272 0.515703L9.32434 0.514904C10.0005 0.182135 10.7668 -0.19497 11.5161 0.115747C12.2917 0.437378 12.5697 1.26595 12.8147 1.99687C12.943 2.37916 13.0886 2.81278 13.2623 2.98643C13.4369 3.16075 13.8705 3.3064 14.2532 3.43472C14.9841 3.68002 15.8123 3.95832 16.134 4.73357C16.4448 5.48295 16.0672 6.24998 15.734 6.92677L15.7337 6.92733L15.7325 6.9297C15.5392 7.32226 15.3394 7.72812 15.3394 7.99988ZM14.5385 9.66302L14.5379 9.66164L14.537 9.65991C14.2763 9.13017 14.0066 8.58213 14.0069 8.00015C14.0069 7.41818 14.2766 6.87014 14.5373 6.3404L14.5382 6.33867C14.7262 5.95805 14.9828 5.43644 14.9032 5.24479C14.8138 5.02948 14.2449 4.83817 13.8296 4.69885C13.2823 4.5152 12.7167 4.32522 12.3208 3.9296C11.9254 3.53421 11.7357 2.96903 11.5522 2.42206L11.5519 2.4211C11.4125 2.00548 11.2216 1.43654 11.0062 1.34722C10.8154 1.26797 10.3033 1.51979 9.92333 1.70662L9.9127 1.71185L9.91189 1.71225C9.38186 1.97309 8.83319 2.24312 8.25055 2.24312C7.66795 2.24312 7.11967 1.97315 6.58907 1.71185C6.2571 1.5482 5.81815 1.33222 5.58384 1.33222C5.54951 1.33222 5.51952 1.33655 5.49485 1.34689C5.27988 1.43588 5.08856 2.00515 4.94925 2.42077L4.94821 2.42386C4.76455 2.97017 4.57487 3.53439 4.18 3.92893C3.78512 4.32414 3.21995 4.51414 2.67321 4.69794L2.6715 4.69852C2.25588 4.83783 1.68694 5.02915 1.59728 5.24446C1.51829 5.43544 1.77526 5.95704 1.96291 6.33767L1.96372 6.33932C2.22477 6.86909 2.49485 7.41716 2.49485 7.99949C2.49485 8.58242 2.22455 9.13103 1.96324 9.6613C1.77559 10.0419 1.51862 10.5632 1.59828 10.7549C1.6876 10.9705 2.25687 11.1618 2.67216 11.3011L2.67528 11.3022C3.22125 11.4858 3.78513 11.6755 4.18 12.07C4.57595 12.466 4.76593 13.0319 4.94958 13.5792C5.0889 13.9945 5.27988 14.5634 5.49485 14.6524C5.68691 14.7321 6.19959 14.4793 6.57932 14.2921L6.58873 14.2875L6.58952 14.2871C7.11922 14.0262 7.66757 13.7562 8.25022 13.7562C8.83287 13.7562 9.38061 14.0259 9.9107 14.287L9.91237 14.2878L9.92671 14.2949C10.3053 14.4812 10.8144 14.7317 11.0056 14.6524C11.2207 14.5635 11.4115 13.9956 11.5511 13.5801L11.5515 13.5789L11.5516 13.5786C11.7352 13.0317 11.9252 12.4659 12.3211 12.0704C12.7164 11.6747 13.282 11.4848 13.8293 11.3011C14.2446 11.1618 14.8135 10.9708 14.9028 10.7555C14.9824 10.5641 14.7261 10.0439 14.5385 9.66302Z" fill="#F8C201"/>
<path d="M11.3239 4.92395C11.0636 4.66364 10.6413 4.66364 10.381 4.92428L5.17589 10.1337C4.91592 10.394 4.91592 10.8163 5.17623 11.0763C5.30655 11.2066 5.47686 11.2712 5.64751 11.2712C5.81816 11.2712 5.9888 11.2063 6.11912 11.0759L11.3242 5.86651C11.5842 5.60587 11.5842 5.18392 11.3239 4.92395Z" fill="#FAA515"/>
<path fill-rule="evenodd" clip-rule="evenodd" d="M4.1189 6.03095C4.1189 5.04173 4.92381 4.23682 5.91303 4.23682C6.90226 4.23682 7.70684 5.04173 7.70684 6.03095C7.70684 7.02051 6.90226 7.82542 5.91303 7.82542C4.92381 7.82542 4.1189 7.02051 4.1189 6.03095ZM5.45176 6.03086C5.45176 6.28517 5.65874 6.49214 5.91271 6.49214C6.16668 6.49214 6.37332 6.28517 6.37332 6.03086C6.37332 5.77689 6.16668 5.56991 5.91271 5.56991C5.6584 5.56991 5.45176 5.77655 5.45176 6.03086Z" fill="#FAA515"/>
<path fill-rule="evenodd" clip-rule="evenodd" d="M8.79321 9.96912C8.79321 8.97956 9.59779 8.17432 10.587 8.17432C11.5762 8.17432 12.3812 8.97923 12.3812 9.96912C12.3812 10.958 11.5762 11.7629 10.587 11.7629C9.59779 11.7629 8.79321 10.9583 8.79321 9.96912ZM10.1264 9.96925C10.1264 10.2232 10.333 10.4299 10.587 10.4299C10.841 10.4299 11.0479 10.2232 11.0479 9.96925C11.0479 9.71461 10.8413 9.50764 10.587 9.50764C10.333 9.50764 10.1264 9.71461 10.1264 9.96925Z" fill="#FAA515"/>
</svg>
