<svg width="108" height="82" viewBox="0 0 108 82" fill="none" xmlns="http://www.w3.org/2000/svg">
<path d="M68.1733 78.1373C89.6172 78.1373 107.001 60.8695 107.001 39.5686C107.001 18.2678 89.6172 1 68.1733 1C46.7294 1 29.3457 18.2678 29.3457 39.5686C29.3457 60.8695 46.7294 78.1373 68.1733 78.1373Z" fill="#FCD400" stroke="#2D2A2E" stroke-width="0.665313" stroke-miterlimit="10"/>
<path d="M50.4434 39.2103C50.4434 39.2103 53.4506 44.2095 59.1194 47.4459C64.9881 50.7923 72.8311 51.2849 78.8248 48.1624C83.3648 45.8012 88.5712 40.9242 89.5709 33.519" stroke="#2D2A2E" stroke-width="1.63313" stroke-miterlimit="10" stroke-linecap="round" stroke-linejoin="round"/>
<path d="M50.8437 19.6941C51.7517 18.9409 52.9846 18.599 54.1633 18.8391C54.7298 18.9531 55.3462 19.2015 55.9294 19.7063L56.0043 19.7633L56.046 19.6778C56.3292 18.9694 56.7707 18.4768 57.2206 18.1227C58.3118 17.2637 59.8279 17.0805 61.1358 17.5853C63.6224 18.546 63.1434 21.5626 63.1434 21.5626C62.5728 25.0271 58.316 28.8904 58.316 28.8904L58.266 28.9352L58.2077 28.9189C58.2077 28.9189 52.6139 27.3638 50.4938 24.5304C50.4938 24.5304 48.9319 22.4176 50.094 20.5449C50.094 20.5449 50.523 19.9057 50.8437 19.6981" fill="#FF4444"/>
<path d="M50.8437 19.6941C51.7517 18.9409 52.9846 18.599 54.1633 18.8391C54.7298 18.9531 55.3462 19.2015 55.9294 19.7063L56.0043 19.7633L56.046 19.6778C56.3292 18.9694 56.7707 18.4768 57.2206 18.1227C58.3118 17.2637 59.8279 17.0805 61.1358 17.5853C63.6224 18.546 63.1434 21.5626 63.1434 21.5626C62.5728 25.0271 58.316 28.8904 58.316 28.8904L58.266 28.9352L58.2077 28.9189C58.2077 28.9189 52.6139 27.3638 50.4938 24.5304C50.4938 24.5304 48.9319 22.4176 50.094 20.5449C50.094 20.5449 50.523 19.9057 50.8437 19.6981" stroke="#2D2A2E" stroke-width="0.816565" stroke-miterlimit="10" stroke-linecap="round" stroke-linejoin="round"/>
<path d="M82.8078 17.4061C81.829 16.7384 80.5711 16.5064 79.4215 16.8524C78.8717 17.0193 78.2803 17.3206 77.7471 17.8742L77.6805 17.9353L77.6305 17.8539C77.2806 17.174 76.7975 16.7221 76.3185 16.4087C75.1481 15.6515 73.6236 15.6026 72.3699 16.2255C69.9874 17.4061 70.7455 20.3657 70.7455 20.3657C71.641 23.765 76.2435 27.2294 76.2435 27.2294L76.2977 27.2701L76.3518 27.2497C76.3518 27.2497 81.779 25.198 83.62 22.1854C83.62 22.1854 84.9778 19.9382 83.645 18.1836C83.645 18.1836 83.1577 17.5893 82.8203 17.4061" fill="#FF4444"/>
<path d="M82.8078 17.4061C81.829 16.7384 80.5711 16.5064 79.4215 16.8524C78.8717 17.0193 78.2803 17.3206 77.7471 17.8742L77.6805 17.9353L77.6305 17.8539C77.2806 17.174 76.7975 16.7221 76.3185 16.4087C75.1481 15.6515 73.6236 15.6026 72.3699 16.2255C69.9874 17.4061 70.7455 20.3657 70.7455 20.3657C71.641 23.765 76.2435 27.2294 76.2435 27.2294L76.2977 27.2701L76.3518 27.2497C76.3518 27.2497 81.779 25.198 83.62 22.1854C83.62 22.1854 84.9778 19.9382 83.645 18.1836C83.645 18.1836 83.1577 17.5893 82.8203 17.4061" stroke="#2D2A2E" stroke-width="0.816565" stroke-miterlimit="10" stroke-linecap="round" stroke-linejoin="round"/>
<path d="M31.9225 56.679C31.9225 56.6749 31.9266 56.6708 31.9266 56.6668L31.9225 56.679C32.6847 49.9903 28.3363 47.1284 25.8039 46.0415C25.6414 45.9641 25.479 45.899 25.3082 45.842C24.571 45.5611 24.0753 45.4552 24.0753 45.4552C21.0389 44.0507 22.1052 39.764 22.7425 37.9035C22.9007 37.4394 23.1465 37.012 23.4755 36.6375C24.0753 35.9535 24.1461 35.2615 24.0503 34.7119C23.9337 34.0564 23.4839 33.5028 22.9049 33.1486C19.8893 31.3045 16.678 31.9762 14.458 32.9084C11.7631 34.0402 9.84713 36.5153 9.79715 39.3813C9.69302 45.0156 15.7325 49.8316 15.7325 49.8316C11.8089 50.1247 9.31399 50.7842 7.77288 51.3989C6.28592 51.9933 5.10301 53.1454 4.47407 54.5865C2.04579 60.1271 7.46049 62.4598 7.46049 62.4598C5.17799 70.268 12.2379 71.2409 12.2379 71.2409C12.3795 81.6952 22.4342 78.5606 22.4342 78.5606C31.4185 76.4681 31.9183 74.0296 31.9183 74.0296C35.3421 72.1488 36.9082 67.9678 36.9082 67.9678C39.324 59.2315 31.9974 56.7075 31.9225 56.679Z" fill="#FCD400"/>
<path d="M12.8848 51.8303C12.8848 51.8303 6.84536 47.0143 6.94949 41.3801C6.99948 38.5141 8.91545 36.0389 11.6103 34.9072C13.8303 33.9749 17.0417 33.3032 20.0573 35.1474C20.6362 35.5016 21.086 36.0552 21.2027 36.7107C21.2985 37.2602 21.2277 37.9523 20.6279 38.6362C20.303 39.0067 20.0531 39.4382 19.8948 39.9023C19.2575 41.7668 18.1913 46.0536 21.2277 47.454C21.2277 47.454 30.1411 49.3348 29.0707 58.6737C29.0707 58.6737 36.4888 61.1814 34.0605 69.9666C34.0605 69.9666 32.4903 74.1475 29.0707 76.0283C29.0707 76.0283 28.5708 78.4669 19.5866 80.5594C19.5866 80.5594 9.53189 83.694 9.39028 73.2397C9.39028 73.2397 2.33033 72.2627 4.61284 64.4586C4.61284 64.4586 -0.80187 62.1259 1.62642 56.5853C2.25952 55.1441 3.43826 53.992 4.92523 53.3977C6.46217 52.783 8.96127 52.1194 12.8848 51.8303Z" stroke="#2D2A2E" stroke-width="0.816565" stroke-miterlimit="10" stroke-linecap="round" stroke-linejoin="round"/>
<path d="M16.0137 48.5735C16.0137 48.5735 20.2746 46.7009 23.0028 48.0565" stroke="#2D2A2E" stroke-width="0.816565" stroke-miterlimit="10" stroke-linecap="round" stroke-linejoin="round"/>
<path d="M4.62305 64.4545C4.62305 64.4545 12.5743 65.4722 18.7346 60.7825C19.4094 60.2695 19.9758 59.6263 20.3174 58.8569C20.8547 57.6641 21.1254 55.8443 19.1844 54.1467C18.7554 53.7722 18.2598 53.4628 17.7183 53.2796C17.1935 53.1046 16.4479 52.9458 15.5274 52.9906C14.8443 53.0231 14.1987 53.304 13.6823 53.7437C12.691 54.5864 10.4043 56.0357 6.62232 55.6774" stroke="#2D2A2E" stroke-width="0.816565" stroke-miterlimit="10" stroke-linecap="round" stroke-linejoin="round"/>
<path d="M9.41211 73.2358C9.41211 73.2358 20.6081 72.332 23.5362 68.2488C23.8569 67.801 24.0735 67.284 24.2151 66.7507C24.6358 65.1426 24.5858 62.2074 19.3169 61.0269" stroke="#2D2A2E" stroke-width="0.816565" stroke-miterlimit="10" stroke-linecap="round" stroke-linejoin="round"/>
<path d="M24.4258 66.2254C24.4258 66.2254 29.1158 65.9852 29.9488 71.5299C29.9488 71.5299 30.4361 74.1109 29.0824 76.0243" stroke="#2D2A2E" stroke-width="0.816565" stroke-miterlimit="10" stroke-linecap="round" stroke-linejoin="round"/>
<path d="M25.9785 62.5494C25.9785 62.5494 28.0772 61.8411 29.0849 58.6616" stroke="#2D2A2E" stroke-width="0.816565" stroke-miterlimit="10" stroke-linecap="round" stroke-linejoin="round"/>
</svg>
