<svg width="30" height="30" viewBox="0 0 30 30" fill="none" xmlns="http://www.w3.org/2000/svg">
<path d="M13.2109 26.9836C13.2109 26.9836 16.8374 27.1393 16.8143 24.5522H13.2109V26.9836Z" fill="#FCD400"/>
<path d="M5.44727 14.3361C5.44727 8.52729 9.74354 4 15.1023 4C20.4611 4 24.8036 8.71892 24.8036 14.5278" stroke="black" stroke-width="0.9" stroke-miterlimit="10" stroke-linecap="round" stroke-linejoin="round"/>
<path d="M6.71882 21.5941C4.66307 21.5941 3 19.9413 3 17.9052C3 15.8691 4.66307 14.2163 6.71882 14.2163V21.5941Z" stroke="black" stroke-width="0.9" stroke-miterlimit="10" stroke-linecap="round" stroke-linejoin="round"/>
<path d="M23.2812 21.5941C25.337 21.5941 27.0001 19.9413 27.0001 17.9052C27.0001 15.8691 25.337 14.2163 23.2812 14.2163V21.5941Z" stroke="black" stroke-width="0.9" stroke-miterlimit="10" stroke-linecap="round" stroke-linejoin="round"/>
<path d="M13.2094 26.9836C13.2094 26.9836 16.8358 27.1393 16.8127 24.5523H13.2094V26.9836ZM13.2094 26.9836C7.4348 27.3429 6.71875 21.606 6.71875 21.606" stroke="black" stroke-width="0.9" stroke-miterlimit="10" stroke-linecap="round" stroke-linejoin="round"/>
<path d="M7.98828 11.1744C8.87756 8.20414 11.7186 6.09619 15.1025 6.09619C18.4402 6.09619 21.2698 8.22809 22.2053 11.1505" stroke="black" stroke-width="0.9" stroke-miterlimit="10" stroke-linecap="round" stroke-linejoin="round"/>
</svg>
