<svg width="24" height="24" viewBox="0 0 24 24" fill="none" xmlns="http://www.w3.org/2000/svg">
<rect width="24" height="24" fill="white"/>
<path d="M12 20C16.4183 20 20 16.4183 20 12C20 7.58172 16.4183 4 12 4C7.58172 4 4 7.58172 4 12C4 16.4183 7.58172 20 12 20Z" fill="#FDF2CC" stroke="#2D2A2E" stroke-linecap="round" stroke-linejoin="round"/>
<path d="M9.67188 9.59992C9.85996 9.06525 10.2312 8.6144 10.7198 8.32722C11.2085 8.04005 11.783 7.93507 12.3416 8.03089C12.9002 8.12671 13.4069 8.41714 13.7719 8.85074C14.1369 9.28434 14.3367 9.83314 14.3359 10.3999C14.3359 11.9999 11.9359 12.7999 11.9359 12.7999" stroke="#2D2A2E" stroke-linecap="round" stroke-linejoin="round"/>
<path d="M12 16H12.0083" stroke="#2D2A2E" stroke-linecap="round" stroke-linejoin="round"/>
</svg>
