<svg width="79" height="30" viewBox="0 0 79 30" fill="none" xmlns="http://www.w3.org/2000/svg">
<rect width="79" height="30" rx="6" fill="#F2F5F8"/>
<path d="M41.56 11.66V20H40.192V16.352H36.268V20H34.9V11.66H36.268V15.236H40.192V11.66H41.56ZM46.2529 20.108C45.6289 20.108 45.0649 19.968 44.5609 19.688C44.0569 19.4 43.6609 19 43.3729 18.488C43.0849 17.968 42.9409 17.368 42.9409 16.688C42.9409 16.016 43.0889 15.42 43.3849 14.9C43.6809 14.38 44.0849 13.98 44.5969 13.7C45.1089 13.42 45.6809 13.28 46.3129 13.28C46.9449 13.28 47.5169 13.42 48.0289 13.7C48.5409 13.98 48.9449 14.38 49.2409 14.9C49.5369 15.42 49.6849 16.016 49.6849 16.688C49.6849 17.36 49.5329 17.956 49.2289 18.476C48.9249 18.996 48.5089 19.4 47.9809 19.688C47.4609 19.968 46.8849 20.108 46.2529 20.108ZM46.2529 18.92C46.6049 18.92 46.9329 18.836 47.2369 18.668C47.5489 18.5 47.8009 18.248 47.9929 17.912C48.1849 17.576 48.2809 17.168 48.2809 16.688C48.2809 16.208 48.1889 15.804 48.0049 15.476C47.8209 15.14 47.5769 14.888 47.2729 14.72C46.9689 14.552 46.6409 14.468 46.2889 14.468C45.9369 14.468 45.6089 14.552 45.3049 14.72C45.0089 14.888 44.7729 15.14 44.5969 15.476C44.4209 15.804 44.3329 16.208 44.3329 16.688C44.3329 17.4 44.5129 17.952 44.8729 18.344C45.2409 18.728 45.7009 18.92 46.2529 18.92ZM59.0653 13.28C59.5853 13.28 60.0493 13.388 60.4573 13.604C60.8733 13.82 61.1973 14.14 61.4293 14.564C61.6693 14.988 61.7893 15.5 61.7893 16.1V20H60.4333V16.304C60.4333 15.712 60.2853 15.26 59.9893 14.948C59.6933 14.628 59.2893 14.468 58.7773 14.468C58.2653 14.468 57.8573 14.628 57.5533 14.948C57.2573 15.26 57.1093 15.712 57.1093 16.304V20H55.7533V16.304C55.7533 15.712 55.6053 15.26 55.3093 14.948C55.0133 14.628 54.6093 14.468 54.0973 14.468C53.5853 14.468 53.1773 14.628 52.8733 14.948C52.5773 15.26 52.4293 15.712 52.4293 16.304V20H51.0613V13.388H52.4293V14.144C52.6533 13.872 52.9373 13.66 53.2813 13.508C53.6253 13.356 53.9933 13.28 54.3853 13.28C54.9133 13.28 55.3853 13.392 55.8013 13.616C56.2173 13.84 56.5373 14.164 56.7613 14.588C56.9613 14.188 57.2733 13.872 57.6973 13.64C58.1213 13.4 58.5773 13.28 59.0653 13.28ZM69.614 16.532C69.614 16.78 69.598 17.004 69.566 17.204H64.514C64.554 17.732 64.75 18.156 65.102 18.476C65.454 18.796 65.886 18.956 66.398 18.956C67.134 18.956 67.654 18.648 67.958 18.032H69.434C69.234 18.64 68.87 19.14 68.342 19.532C67.822 19.916 67.174 20.108 66.398 20.108C65.766 20.108 65.198 19.968 64.694 19.688C64.198 19.4 63.806 19 63.518 18.488C63.238 17.968 63.098 17.368 63.098 16.688C63.098 16.008 63.234 15.412 63.506 14.9C63.786 14.38 64.174 13.98 64.67 13.7C65.174 13.42 65.75 13.28 66.398 13.28C67.022 13.28 67.578 13.416 68.066 13.688C68.554 13.96 68.934 14.344 69.206 14.84C69.478 15.328 69.614 15.892 69.614 16.532ZM68.186 16.1C68.178 15.596 67.998 15.192 67.646 14.888C67.294 14.584 66.858 14.432 66.338 14.432C65.866 14.432 65.462 14.584 65.126 14.888C64.79 15.184 64.59 15.588 64.526 16.1H68.186Z" fill="#6D7E8B"/>
<path d="M20.5 23.3334V24.0001C20.8682 24.0001 21.1667 23.7016 21.1667 23.3334H20.5ZM15.5 23.3334H14.8333C14.8333 23.7016 15.1318 24.0001 15.5 24.0001V23.3334ZM17.1667 17.3334H18.8333V16.0001H17.1667V17.3334ZM19.8333 18.3334V23.3334H21.1667V18.3334H19.8333ZM20.5 22.6667H15.5V24.0001H20.5V22.6667ZM16.1667 23.3334V18.3334H14.8333V23.3334H16.1667ZM18.8333 17.3334C19.3856 17.3334 19.8333 17.7811 19.8333 18.3334H21.1667C21.1667 17.0448 20.122 16.0001 18.8333 16.0001V17.3334ZM17.1667 16.0001C15.878 16.0001 14.8333 17.0447 14.8333 18.3334H16.1667C16.1667 17.7811 16.6144 17.3334 17.1667 17.3334V16.0001Z" fill="#8D9DA8"/>
<path fill-rule="evenodd" clip-rule="evenodd" d="M9.66675 14.4468C9.66675 13.7381 9.96755 13.0626 10.4943 12.5885L16.3277 7.33854C17.2784 6.48286 18.7217 6.48286 19.6725 7.33854L25.5058 12.5885C26.0326 13.0626 26.3334 13.7381 26.3334 14.4468V20.8334C26.3334 22.2141 25.2141 23.3334 23.8334 23.3334H21.3334L21.3288 23.3334H14.6714L14.6667 23.3334H12.1667C10.786 23.3334 9.66675 22.2141 9.66675 20.8334V14.4468Z" stroke="#8D9DA8" stroke-width="1.33333"/>
</svg>
