<svg width="1440" height="549" viewBox="0 0 1440 549" fill="none" xmlns="http://www.w3.org/2000/svg">
<rect y="-1" width="1440" height="473" fill="#FCD400"/>
<mask id="mask0_4_17" style="mask-type:alpha" maskUnits="userSpaceOnUse" x="0" y="-1" width="1440" height="473">
<rect y="-1" width="1440" height="473" fill="#FCD400"/>
</mask>
<g mask="url(#mask0_4_17)">
<path d="M904.5 -1.23709L1327.5 -1.23714L1464.5 -1.23715L1532.41 325.078L1433.01 483.472L1233.28 489.619L1220.79 438.953C1204.51 372.977 1160.12 317.461 1099.34 287.079C1033.87 254.354 982.845 198.533 956.122 130.394L904.5 -1.23709Z" fill="#2D2A2E"/>
</g>
<path d="M1349.7 139.03C1357.59 139.03 1363.98 132.637 1363.98 124.752C1363.98 116.867 1357.59 110.474 1349.7 110.474C1341.82 110.474 1335.43 116.867 1335.43 124.752C1335.43 132.637 1341.82 139.03 1349.7 139.03Z" fill="white"/>
<path d="M1364.34 145.758H1419C1419 145.758 1417.21 138.849 1411.41 141.079C1411.41 141.079 1409.18 133.274 1400.92 137.056C1400.92 137.056 1389.31 121.226 1375.49 141.298C1375.49 141.298 1369.02 136.595 1364.34 145.758Z" fill="#3F3B41"/>
<path d="M1207.92 173.924H1240.12C1240.12 173.924 1239.06 170.794 1235.65 171.804C1235.65 171.804 1234.34 168.268 1229.47 169.981C1229.47 169.981 1222.63 162.809 1214.49 171.903C1214.49 171.903 1210.68 169.772 1207.92 173.924Z" fill="#4F4752"/>
<path d="M1100.96 159.937H1137.84C1137.84 159.937 1136.63 156.352 1132.72 157.51C1132.72 157.51 1131.22 153.459 1125.64 155.421C1125.64 155.421 1117.81 147.207 1108.49 157.623C1108.49 157.623 1104.12 155.182 1100.96 159.937Z" fill="#4F4752"/>
<path d="M1010.94 86.1839H1029.38C1029.38 86.1839 1028.78 84.1353 1026.82 84.7966C1026.82 84.7966 1026.07 82.4821 1023.28 83.6034C1023.28 83.6034 1019.36 78.9097 1014.7 84.8613C1014.7 84.8613 1012.52 83.4669 1010.94 86.1839Z" fill="#4F4752"/>
<path opacity="0.7" d="M1317.13 134.077H1349.59C1349.59 134.077 1348.52 129.898 1345.08 131.247C1345.08 131.247 1343.76 126.525 1338.85 128.812C1338.85 128.812 1331.96 119.237 1323.75 131.379C1323.75 131.379 1319.91 128.534 1317.13 134.077Z" fill="#3F3B41"/>
<path d="M904.5 -50.2924L901.837 -39.6397C889.103 11.2967 835.019 39.9525 785.722 21.8824L776.429 18.4757C741.573 5.6991 703.351 5.48947 668.358 17.883V17.883C657.066 21.8821 644.571 20.552 634.374 14.2653L584 -16.7924" stroke="white" stroke-width="2"/>
<path d="M-67.0518 74.571L-107.676 159.951L-17.9582 264.953L-1.76685 183.476C4.12893 153.807 24.8639 129.254 53.1265 118.473L73.7913 110.591C120.322 92.8426 147.932 44.7952 139.837 -4.34323V-4.34323" stroke="#2D2A2E" stroke-width="2"/>
<path d="M129.471 252.517L134.013 261.81C134.362 262.525 134.331 263.368 133.915 264.052C132.486 266.406 128.41 271.498 119.971 271.484C119.081 271.476 118.289 270.959 117.902 270.166L113.17 260.485L129.471 252.517Z" fill="#FDF2CC"/>
<path d="M127.748 270.224C131.354 268.462 133.381 265.757 134.277 264.28C134.763 263.464 134.819 262.475 134.401 261.62L129.669 251.939L112.591 260.286L117.513 270.356C117.969 271.288 118.946 271.908 119.967 271.91C123.115 271.93 125.697 271.226 127.748 270.224ZM129.272 253.096L133.624 262C133.913 262.59 133.876 263.263 133.538 263.832C132.219 266.017 128.244 271.079 119.967 271.043C119.255 271.045 118.602 270.613 118.29 269.976L113.748 260.684L129.272 253.096Z" fill="#2D2A2E"/>
<path d="M123.332 260.638C118.827 262.841 114.229 262.692 113.062 260.306C111.896 257.92 114.603 254.201 119.109 251.998C123.615 249.796 128.213 249.945 129.379 252.331C130.545 254.717 127.838 258.436 123.332 260.638Z" fill="#FDF2CC"/>
<path d="M123.515 261.011C128.301 258.672 131.051 254.767 129.76 252.125C128.469 249.484 123.713 249.247 118.912 251.594C114.11 253.941 111.375 257.839 112.666 260.48C113.958 263.122 118.728 263.351 123.515 261.011ZM119.299 252.387C123.51 250.328 127.95 250.392 128.99 252.521C130.031 254.649 127.354 258.191 123.142 260.25C118.931 262.308 114.492 262.245 113.451 260.116C112.41 257.987 115.088 254.445 119.299 252.387Z" fill="#2D2A2E"/>
<path d="M122.017 258.066C119.795 259.153 117.54 259.108 116.982 257.967C116.424 256.825 117.774 255.019 119.997 253.933C122.22 252.846 124.474 252.891 125.032 254.032C125.59 255.174 124.24 256.98 122.017 258.066Z" fill="#2D2A2E"/>
<path d="M147.776 246.958L152.318 256.25C152.668 256.965 152.637 257.808 152.221 258.493C150.792 260.847 146.716 265.939 138.276 265.925C137.387 265.917 136.595 265.399 136.207 264.607L131.475 254.925L147.776 246.958Z" fill="#FDF2CC"/>
<path d="M146.054 264.664C149.659 262.902 151.687 260.197 152.582 258.72C153.069 257.905 153.125 256.915 152.707 256.06L147.975 246.379L130.897 254.727L135.819 264.796C136.275 265.729 137.251 266.349 138.273 266.35C141.421 266.371 144.003 265.667 146.054 264.664ZM147.578 247.536L151.93 256.44C152.219 257.03 152.181 257.703 151.844 258.273C150.525 260.458 146.549 265.52 138.273 265.484C137.561 265.485 136.907 265.054 136.596 264.417L132.054 255.124L147.578 247.536Z" fill="#2D2A2E"/>
<path d="M141.638 255.079C137.133 257.281 132.535 257.132 131.368 254.747C130.202 252.361 132.909 248.641 137.415 246.439C141.921 244.237 146.519 244.385 147.685 246.771C148.851 249.157 146.144 252.876 141.638 255.079Z" fill="#FDF2CC"/>
<path d="M141.829 255.467C146.615 253.128 149.365 249.223 148.074 246.581C146.783 243.94 142.027 243.703 137.226 246.05C132.424 248.398 129.689 252.295 130.98 254.937C132.272 257.578 137.042 257.807 141.829 255.467ZM137.605 246.827C141.817 244.769 146.256 244.832 147.297 246.961C148.337 249.09 145.66 252.632 141.449 254.69C137.238 256.749 132.798 256.686 131.757 254.557C130.717 252.428 133.394 248.886 137.605 246.827Z" fill="#2D2A2E"/>
<path d="M140.556 252.393C138.333 253.479 136.079 253.435 135.521 252.293C134.963 251.152 136.313 249.346 138.536 248.259C140.759 247.173 143.013 247.217 143.571 248.359C144.129 249.5 142.779 251.306 140.556 252.393Z" fill="#2D2A2E"/>
<path d="M138.103 261.197L142.645 270.489C142.994 271.204 142.963 272.047 142.547 272.732C141.118 275.086 137.042 280.178 128.603 280.164C127.713 280.156 126.921 279.638 126.534 278.846L121.802 269.165L138.103 261.197Z" fill="#FDF2CC"/>
<path d="M136.381 278.903C139.986 277.141 142.014 274.437 142.909 272.959C143.396 272.144 143.451 271.154 143.033 270.299L138.301 260.618L121.223 268.966L126.145 279.036C126.601 279.968 127.578 280.588 128.599 280.589C131.747 280.61 134.314 279.914 136.381 278.903ZM137.904 261.775L142.256 270.679C142.545 271.27 142.508 271.942 142.17 272.512C140.851 274.697 136.876 279.759 128.599 279.723C127.887 279.724 127.234 279.293 126.922 278.656L122.38 269.363L137.904 261.775Z" fill="#2D2A2E"/>
<path d="M131.964 269.318C127.459 271.52 122.861 271.372 121.695 268.986C120.528 266.6 123.236 262.88 127.741 260.678C132.247 258.476 136.845 258.624 138.011 261.01C139.177 263.396 136.47 267.116 131.964 269.318Z" fill="#FDF2CC"/>
<path d="M132.147 269.691C136.933 267.351 139.683 263.447 138.392 260.805C137.101 258.163 132.345 257.927 127.544 260.274C122.742 262.621 120.007 266.518 121.299 269.16C122.59 271.802 127.361 272.03 132.147 269.691ZM127.931 261.067C132.142 259.008 136.582 259.071 137.623 261.2C138.663 263.329 135.986 266.871 131.775 268.93C127.563 270.988 123.124 270.925 122.083 268.796C121.042 266.667 123.72 263.125 127.931 261.067Z" fill="#2D2A2E"/>
<path d="M130.997 266.865C128.774 267.951 126.52 267.907 125.962 266.765C125.404 265.624 126.753 263.818 128.976 262.731C131.199 261.645 133.453 261.689 134.011 262.831C134.569 263.972 133.22 265.778 130.997 266.865Z" fill="#2D2A2E"/>
<path d="M119.21 269.141L119.335 269.081C119.63 268.936 119.757 268.566 119.613 268.271L118.291 265.567C118.147 265.272 117.776 265.145 117.481 265.289L117.357 265.35C117.062 265.494 116.935 265.864 117.079 266.159L118.401 268.863C118.545 269.159 118.915 269.286 119.21 269.141Z" fill="#2D2A2E"/>
<path d="M116.924 264.464L117.049 264.403C117.344 264.259 117.471 263.889 117.327 263.593C117.182 263.298 116.812 263.171 116.517 263.315L116.393 263.376C116.097 263.52 115.97 263.891 116.115 264.186C116.266 264.497 116.629 264.608 116.924 264.464Z" fill="#2D2A2E"/>
<path d="M128.639 278.741L128.763 278.68C129.059 278.536 129.186 278.166 129.041 277.87L127.72 275.166C127.575 274.871 127.205 274.744 126.91 274.888L126.786 274.949C126.49 275.094 126.363 275.464 126.508 275.759L127.829 278.463C127.981 278.774 128.344 278.885 128.639 278.741Z" fill="#2D2A2E"/>
<path d="M126.36 274.079L126.484 274.018C126.78 273.874 126.907 273.504 126.762 273.209C126.618 272.913 126.248 272.786 125.953 272.931L125.828 272.991C125.533 273.136 125.406 273.506 125.55 273.801C125.702 274.112 126.065 274.223 126.36 274.079Z" fill="#2D2A2E"/>
<path d="M147.823 250.4L147.698 250.461C147.403 250.605 147.276 250.976 147.42 251.271L148.742 253.975C148.886 254.27 149.256 254.397 149.552 254.253L149.676 254.192C149.971 254.048 150.098 253.677 149.954 253.382L148.632 250.678C148.488 250.383 148.118 250.256 147.823 250.4Z" fill="#2D2A2E"/>
<path d="M150.101 255.062L149.977 255.123C149.681 255.267 149.554 255.637 149.699 255.933C149.843 256.228 150.213 256.355 150.508 256.211L150.633 256.15C150.928 256.006 151.055 255.635 150.911 255.34C150.766 255.045 150.396 254.918 150.101 255.062Z" fill="#2D2A2E"/>
<path d="M161.598 277.281L115.201 290.045C113.945 290.39 112.652 289.636 112.346 288.38C112.04 287.124 112.825 285.854 114.097 285.58L161.12 275.359C161.639 275.24 162.162 275.561 162.289 276.096C162.424 276.608 162.102 277.131 161.598 277.281Z" fill="#FDF2CC"/>
<path d="M161.966 277.602C162.556 277.313 162.887 276.651 162.715 275.984C162.537 275.225 161.79 274.761 161.031 274.94L114.007 285.161C113.279 285.325 112.664 285.76 112.256 286.383C111.856 287.022 111.741 287.771 111.92 288.492C112.099 289.213 112.55 289.82 113.196 290.197C113.843 290.575 114.584 290.674 115.313 290.472L161.71 277.708C161.803 277.662 161.888 277.64 161.966 277.602ZM113.767 286.126C113.906 286.058 114.038 286.012 114.193 285.975L161.217 275.754C161.511 275.687 161.811 275.868 161.878 276.162C161.945 276.457 161.78 276.749 161.478 276.839L115.081 289.603C114.593 289.746 114.075 289.672 113.636 289.405C113.198 289.138 112.884 288.733 112.757 288.236C112.63 287.74 112.712 287.238 112.979 286.8C113.191 286.523 113.456 286.278 113.767 286.126Z" fill="#2D2A2E"/>
<path d="M153.267 276.309L105.867 284.539C104.588 284.759 103.374 283.89 103.184 282.596C103.003 281.318 103.903 280.127 105.196 279.977L152.975 274.334C153.502 274.269 153.993 274.645 154.081 275.179C154.154 275.722 153.794 276.206 153.267 276.309Z" fill="#FDF2CC"/>
<path d="M153.721 276.607C154.265 276.341 154.595 275.756 154.5 275.129C154.391 274.355 153.692 273.83 152.925 273.916L105.146 279.558C104.403 279.652 103.75 280.01 103.295 280.617C102.834 281.208 102.649 281.934 102.759 282.67C102.868 283.406 103.264 284.059 103.864 284.498C104.463 284.936 105.204 285.113 105.948 284.98L153.348 276.751C153.465 276.713 153.596 276.668 153.721 276.607ZM104.634 280.598C104.82 280.507 105.022 280.447 105.239 280.418L153.018 274.775C153.328 274.739 153.589 274.958 153.632 275.245C153.684 275.547 153.473 275.824 153.17 275.875L105.77 284.105C105.274 284.193 104.757 284.08 104.358 283.775C103.943 283.477 103.668 283.034 103.595 282.53C103.523 282.027 103.643 281.525 103.964 281.118C104.144 280.895 104.385 280.72 104.634 280.598Z" fill="#2D2A2E"/>
<path d="M266.99 406.486C266.99 406.486 266.491 408.533 266.648 410.468C266.707 411.294 267.225 412.014 267.966 412.352L287.41 421.228C288.191 421.585 289.113 421.473 289.793 420.937C290.559 420.319 291.561 419.397 292.472 418.143L266.981 406.506L266.99 406.486Z" fill="#FDF2CC"/>
<path d="M287.191 421.709L267.747 412.833C266.805 412.403 266.173 411.51 266.107 410.487C265.957 408.483 266.436 406.427 266.473 406.347L266.627 405.692L293.34 417.886L292.945 418.432C291.978 419.757 290.899 420.74 290.172 421.328C289.3 422.018 288.172 422.157 287.191 421.709ZM267.402 407.28C267.261 408.014 267.108 409.25 267.208 410.409C267.259 411.038 267.643 411.576 268.224 411.841L287.668 420.717C288.268 420.991 288.964 420.898 289.472 420.476C290.046 420.012 290.867 419.274 291.641 418.32L267.411 407.26L267.402 407.28Z" fill="black"/>
<path d="M268.51 404.64C268.51 404.64 265.644 405.195 265.128 406.483C264.649 407.692 267.383 407.852 270.022 408.379C270.022 408.379 266.996 410.555 272.505 410.359C272.505 410.359 272.844 414.071 275.806 412.035C275.806 412.035 279.417 418.596 281.909 414.991C281.909 414.991 284.466 419.038 285.694 416.719C285.694 416.719 290.076 420.582 292.409 419.978C292.79 419.885 293.095 419.589 293.19 419.221C293.366 418.624 293.378 417.589 291.947 416.379L268.51 404.64Z" fill="black"/>
<path d="M270.351 402.092C270.351 402.092 268.337 402.262 267.849 403.491C267.551 404.25 267.662 405.172 269.4 406.401C269.4 406.401 277.084 412.256 288.06 415.935C289.485 416.417 292.728 417.583 293.977 415.588C294.425 414.873 294.7 413.474 292.49 412.538L270.351 402.092Z" fill="#FDF2CC"/>
<path d="M281.157 413.776C273.888 410.458 269.131 406.883 269.081 406.836C267.454 405.682 266.871 404.521 267.359 403.292C267.946 401.793 270.086 401.56 270.332 401.551L270.479 401.546L292.739 412.046C293.838 412.5 294.511 413.146 294.765 413.915C294.964 414.538 294.852 415.261 294.47 415.886C293.035 418.182 289.655 417.051 288.04 416.507L287.911 416.473C285.488 415.632 283.219 414.718 281.157 413.776ZM270.262 402.657C269.723 402.725 268.62 403.02 268.368 403.68C268.251 403.989 267.971 404.708 269.729 405.946C269.82 406.012 277.491 411.788 288.248 415.417L288.377 415.451C289.723 415.896 292.525 416.861 293.513 415.279C293.615 415.108 293.827 414.697 293.682 414.219C293.528 413.762 293.041 413.346 292.271 413.018L292.251 413.009L292.231 413L270.262 402.657Z" fill="black"/>
<path d="M273.599 404.253L276.506 409.282C276.905 409.997 277.726 410.372 278.539 410.234L283.964 409.323L273.599 404.253Z" fill="black"/>
<path d="M286.183 410.239L287.792 413.66C288.153 414.405 289.022 414.729 289.778 414.397L294.124 412.509L286.183 410.239Z" fill="black"/>
<path d="M269.778 402.605C273.927 405.177 282.977 410.373 292.121 412.974C293.902 413.473 295.681 412.228 295.822 410.381C296.131 406.577 295.151 400.347 287.031 396.084C283.007 393.981 274.773 392.351 269.203 398.616C268.134 399.846 268.398 401.758 269.778 402.605Z" fill="#FDF2CC"/>
<path d="M281.77 409.677C276.684 407.355 272.268 404.783 269.509 403.088C268.714 402.604 268.172 401.776 268.041 400.844C267.909 399.913 268.191 398.977 268.816 398.246C271.364 395.368 274.795 393.789 278.701 393.66C281.574 393.568 284.801 394.291 287.32 395.611C295.891 400.104 296.691 406.833 296.396 410.449C296.305 411.496 295.777 412.441 294.892 413.054C294.037 413.655 292.969 413.821 291.984 413.541C288.46 412.513 284.974 411.139 281.77 409.677ZM270.086 402.141C274.538 404.899 283.335 409.907 292.281 412.466C292.967 412.659 293.672 412.545 294.269 412.14C294.865 411.735 295.236 411.081 295.299 410.36C295.637 406.28 294.411 400.59 286.803 396.584C283.25 394.721 275.106 392.842 269.64 398.985C269.233 399.453 269.048 400.07 269.129 400.688C269.219 401.285 269.553 401.825 270.086 402.141Z" fill="black"/>
<path d="M280.561 405.011C280.976 405.055 281.95 405.307 282.176 406.402C282.2 406.509 282.114 406.591 282.015 406.595C281.591 406.57 280.56 406.39 280.38 405.195C280.377 405.096 280.442 405.005 280.561 405.011Z" fill="black"/>
<path d="M284.25 398.202C284.373 398.621 284.526 399.61 283.613 400.234C283.536 400.296 283.407 400.261 283.383 400.153C283.231 399.745 283.008 398.748 284.03 398.101C284.117 398.069 284.217 398.114 284.25 398.202Z" fill="black"/>
<path d="M280.088 400.585C279.804 400.891 279.059 401.567 278.02 401.141C277.92 401.095 277.896 400.988 277.962 400.897C278.216 400.553 278.938 399.818 280.031 400.341C280.131 400.387 280.165 400.523 280.088 400.585Z" fill="black"/>
<path d="M274.136 397.989C274.268 398.388 274.471 399.376 273.579 400.057C273.502 400.119 273.373 400.084 273.34 399.997C273.179 399.608 272.907 398.613 273.897 397.928C273.994 397.875 274.103 397.901 274.136 397.989Z" fill="black"/>
<path d="M278.688 395.542C279.023 395.816 279.738 396.529 279.361 397.567C279.315 397.667 279.208 397.691 279.128 397.654C278.775 397.42 278.002 396.729 278.464 395.609C278.481 395.52 278.597 395.476 278.688 395.542Z" fill="black"/>
<path d="M287.527 399.504C287.761 399.151 288.423 398.389 289.518 398.695C289.627 398.721 289.67 398.837 289.605 398.928C289.391 399.29 288.75 400.111 287.614 399.737C287.505 399.712 287.461 399.595 287.527 399.504Z" fill="black"/>
<path d="M291.533 407.479C291.577 407.064 291.788 406.071 292.893 405.825C293 405.802 293.082 405.888 293.086 405.986C293.061 406.41 292.91 407.43 291.726 407.64C291.618 407.663 291.527 407.597 291.533 407.479Z" fill="black"/>
<path d="M286.74 402.605C287.121 402.779 287.987 403.32 287.84 404.438C287.823 404.527 287.717 404.6 287.637 404.563C287.248 404.41 286.334 403.92 286.518 402.722C286.535 402.632 286.66 402.569 286.74 402.605Z" fill="black"/>
<path d="M2.86995 354.561L9.22106 361.269L15.9358 368.366L23.775 376.641C23.9591 376.84 23.9581 377.149 23.7626 377.345C23.6688 377.435 23.5368 377.497 23.4073 377.487C23.2823 377.49 23.1518 377.439 23.0496 377.35L14.8441 369.459L7.79949 362.692L1.13876 356.29C0.643685 355.81 0.641811 355.026 1.12658 354.543C1.61929 354.044 2.40762 354.054 2.86995 354.561Z" fill="#FDF2CC"/>
<path d="M23.6892 377.764C23.6023 377.795 23.5111 377.814 23.4108 377.808C23.1901 377.818 22.9877 377.722 22.8215 377.572L0.910612 356.513C0.607515 356.215 0.439884 355.827 0.430011 355.411C0.43254 354.989 0.585879 354.598 0.883093 354.295C1.18477 354.004 1.57277 353.837 1.99844 353.851C2.41965 353.854 2.80758 354.037 3.09828 354.338L23.9989 376.406C24.3154 376.74 24.3024 377.249 23.9849 377.574C23.9035 377.659 23.8008 377.724 23.6892 377.764ZM1.68977 354.551C1.56573 354.596 1.46303 354.661 1.36925 354.75C1.1941 354.925 1.10774 355.153 1.1092 355.39C1.11066 355.628 1.20788 355.859 1.37852 356.022L23.2938 377.094C23.332 377.122 23.3702 377.15 23.4243 377.145C23.466 377.144 23.5156 377.126 23.5483 377.1C23.6218 377.032 23.6233 376.919 23.5593 376.858L2.65868 354.791C2.49597 354.611 2.26429 354.512 2.02665 354.514C1.89716 354.504 1.789 354.515 1.68977 354.551Z" fill="#2D2A2E"/>
<path d="M11.051 352.611L15.6938 360.607L20.5975 369.056L26.3141 378.907C26.4575 379.15 26.3686 379.448 26.1384 379.587C26.0233 379.656 25.8903 379.676 25.7688 379.65C25.6473 379.623 25.5327 379.539 25.4508 379.428L19.2861 369.85L13.9919 361.64L8.98348 353.874C8.60699 353.295 8.79312 352.527 9.36866 352.18C9.93974 351.82 10.7072 352.006 11.051 352.611Z" fill="#FDF2CC"/>
<path d="M26.138 379.937C25.9892 379.991 25.8269 380.007 25.6716 379.965C25.4578 379.916 25.2713 379.787 25.1502 379.606L8.68291 354.052C8.45771 353.698 8.3769 353.279 8.47965 352.864C8.58239 352.449 8.82454 352.109 9.17781 351.884C9.53554 351.671 9.95924 351.603 10.3745 351.706C10.7773 351.813 11.1211 352.067 11.3339 352.425L26.5846 378.726C26.8108 379.12 26.6808 379.616 26.2903 379.854C26.2372 379.901 26.1876 379.919 26.138 379.937ZM9.69421 352.385C9.63219 352.407 9.58258 352.425 9.52503 352.46C9.31962 352.59 9.17819 352.781 9.12558 353.024C9.0685 353.254 9.11607 353.503 9.24603 353.709L25.7134 379.263C25.7392 379.296 25.7774 379.324 25.8235 379.336C25.8696 379.347 25.9113 379.346 25.9565 379.316C26.0388 379.272 26.0696 379.163 26.0136 379.085L10.7628 352.785C10.6453 352.575 10.4498 352.421 10.2067 352.368C10.0346 352.318 9.85546 352.327 9.69421 352.385Z" fill="#2D2A2E"/>
<path d="M24.1058 370.707C24.1058 370.707 22.8115 374.157 18.6398 372.492C17.2631 371.937 14.8194 370.869 12.7409 373.074C10.4465 375.497 12.4604 378.485 13.6937 379.148L25.1174 375.037L24.1058 370.707Z" fill="#FDF2CC"/>
<path d="M25.4896 375.253L13.6441 379.516L13.5216 379.448C12.6683 378.984 11.641 377.687 11.397 376.192C11.2052 374.958 11.5784 373.815 12.477 372.847C14.6617 370.548 17.2464 371.579 18.64 372.142L18.7536 372.185C20.0459 372.701 21.1607 372.762 22.089 372.344C23.3353 371.797 23.7864 370.598 23.7944 370.581L24.183 369.559L25.4896 375.253ZM13.7186 378.789L24.7206 374.829L23.9689 371.611C23.6419 372.065 23.1254 372.615 22.3494 372.951C21.2598 373.427 19.9659 373.374 18.5094 372.791L18.3958 372.748C16.973 372.182 14.8383 371.311 12.9587 373.29C12.1856 374.1 11.8784 375.038 12.0405 376.072C12.2626 377.351 13.1173 378.402 13.7186 378.789Z" fill="#2D2A2E"/>
<path d="M15.9449 379.837C15.7752 379.716 11.7177 376.889 13.1523 374.257C14.3636 372.056 16.9607 373.083 18.3498 373.634C18.5309 373.708 18.6951 373.775 18.8256 373.827C22.0934 375.004 24.9092 372.59 24.9419 372.564L25.375 373.067C25.2485 373.182 22.2406 375.764 18.6027 374.453C18.4554 374.394 18.2788 374.332 18.0977 374.257C16.3509 373.568 14.5823 373.014 13.7189 374.586C12.5597 376.698 16.2609 379.275 16.2991 379.303L15.9449 379.837Z" fill="#2D2A2E"/>
<path d="M16.4338 377.769C15.4222 377.489 14.7123 376.918 14.5031 376.181C14.3627 375.713 14.4511 375.219 14.7359 374.92C15.5204 374.063 16.6966 374.607 17.3882 374.932C17.5231 374.996 17.6412 375.051 17.7379 375.086C19.829 375.875 20.5098 375.392 20.5098 375.392L20.9507 375.878C20.8525 375.955 19.9807 376.647 17.4982 375.705C17.3846 375.662 17.2497 375.598 17.0979 375.527C16.3096 375.166 15.6279 374.907 15.2052 375.367C15.0752 375.512 15.0518 375.759 15.1118 376.003C15.2656 376.509 15.7969 376.934 16.5857 377.14L16.4338 377.769Z" fill="#2D2A2E"/>
<path d="M21.3044 377.249C21.3044 377.249 21.657 361.683 33.4297 359.983C36.3718 359.554 41.5 361.463 41.1379 369.061L21.3044 377.249Z" fill="#FDF2CC"/>
<path d="M20.9659 377.749L20.9788 377.24C20.9794 377.086 21.0845 373.252 22.6423 369.132C24.7306 363.646 28.439 360.364 33.38 359.65C34.8719 359.436 37.1109 359.779 38.8794 361.384C40.1707 362.558 41.6632 364.837 41.4633 369.07L41.4558 369.283L20.9659 377.749ZM31.0332 360.915C27.523 362.178 24.9255 365.004 23.2609 369.372C22.0679 372.519 21.748 375.563 21.6551 376.745L40.8198 368.839C40.9269 365.789 40.1026 363.381 38.4408 361.878C36.8384 360.423 34.8212 360.112 33.4747 360.303C32.6104 360.432 31.8022 360.638 31.0332 360.915Z" fill="#2D2A2E"/>
<path d="M24.0745 377.317L23.4172 377.204C24.2478 372.309 25.7182 368.376 27.6966 365.814C29.5901 363.368 31.8441 362.234 34.2284 362.553C38.9634 363.175 39.8576 370.292 39.8982 370.6L39.2413 370.682C39.2314 370.616 38.3645 363.769 34.144 363.214C32.0107 362.931 29.9631 363.976 28.2234 366.227C26.3096 368.695 24.8744 372.532 24.0745 377.317Z" fill="#2D2A2E"/>
<path d="M25.2319 379.17L24.5834 379.082C25.4013 372.945 27.3015 368.493 29.9366 366.55C31.1334 365.671 32.4883 365.309 33.8323 365.54C38.0354 366.241 38.9951 372.957 39.0392 373.235L38.3868 373.33C38.3769 373.263 37.4568 366.813 33.731 366.193C32.5379 365.992 31.3982 366.29 30.3245 367.083C27.8496 368.926 26.0333 373.222 25.2319 379.17Z" fill="#2D2A2E"/>
<path d="M26.7123 378.652L26.0594 378.55C26.6442 375.076 27.6998 372.286 29.0912 370.468C30.4463 368.706 32.0742 367.896 33.7977 368.13C37.211 368.583 37.8573 373.688 37.8791 373.905L37.2222 373.987C37.2168 373.933 36.612 369.177 33.7008 368.795C30.5421 368.349 27.7901 372.225 26.7123 378.652Z" fill="#2D2A2E"/>
<path d="M28.4828 354.996C28.5934 355.265 28.4674 355.576 28.1821 355.679L28.1236 355.672L27.8691 355.665C27.6855 355.661 27.5203 355.553 27.433 355.388C27.0347 354.593 25.6061 352.375 22.5583 353.444C21.5368 353.797 20.0875 354.753 20.1656 356.994C20.166 357.19 20.0663 357.38 19.8892 357.472L19.7944 357.52C19.7696 357.529 19.7572 357.534 19.7324 357.543L19.4099 357.659C19.0998 357.77 18.757 357.557 18.7323 357.216C18.6139 355.914 18.8285 353.007 22.6984 351.964C24.2979 351.543 27.1204 351.872 28.4828 354.996Z" fill="#FCD400"/>
<path d="M31.5407 358.589C31.5407 358.589 30.8833 358.825 29.8588 358.704C29.8588 358.704 29.8383 356.428 31.6275 354.859L32.3602 355.338C32.3433 355.33 31.3951 356.666 31.5407 358.589Z" fill="#FCD400"/>
<path d="M43.3243 367.196C43.7062 368.529 43.9089 369.871 43.9529 371.2C43.9811 371.863 43.9677 372.526 43.9125 373.19C43.4007 379.749 39.1304 385.713 32.544 388.083C25.9577 390.453 18.8619 388.566 14.2926 383.85C13.8268 383.373 13.3938 382.87 12.9935 382.342C12.1804 381.289 11.4939 380.121 10.926 378.855L43.3243 367.196Z" fill="#FDF2CC"/>
<path d="M32.6559 388.393C26.1564 390.732 18.8606 389.029 14.0522 384.076C13.582 383.587 13.132 383.076 12.7273 382.536C11.884 381.438 11.1886 380.245 10.6207 378.979L10.4753 378.653L43.531 366.757L43.6267 367.101C44.0086 368.435 44.2203 369.801 44.2697 371.185C44.29 371.864 44.281 372.539 44.2303 373.216C43.7095 380.1 39.1554 386.054 32.6559 388.393ZM11.3852 379.04C11.8951 380.145 12.5325 381.177 13.2557 382.135C13.6515 382.651 14.0801 383.142 14.5291 383.61C19.1499 388.392 26.1813 390.023 32.4327 387.773C38.6841 385.523 43.0641 379.786 43.5784 373.157C43.6256 372.509 43.6435 371.858 43.6198 371.208C43.5788 370.004 43.3958 368.795 43.0888 367.631L11.3852 379.04Z" fill="#2D2A2E"/>
<path d="M43.9531 371.2C43.9813 371.863 43.9678 372.526 43.9127 373.19L14.2928 383.85C13.827 383.373 13.394 382.87 12.9937 382.342L43.9531 371.2Z" fill="#FDF2CC"/>
<path d="M44.2227 373.429L14.2059 384.231L14.0521 384.076C13.5818 383.587 13.1319 383.077 12.7272 382.536L12.4558 382.171L44.2587 370.726L44.282 371.18C44.3147 371.855 44.2933 372.535 44.2426 373.212L44.2227 373.429ZM14.392 383.464L43.6026 372.952C43.6299 372.522 43.6449 372.096 43.6429 371.662L13.5393 382.496C13.8141 382.831 14.0969 383.15 14.392 383.464Z" fill="#2D2A2E"/>
<path d="M21.7114 363.625L21.7967 363.707C22.0527 363.951 22.4491 363.962 22.719 363.739L25.4827 361.414C25.7933 361.148 25.8196 360.676 25.521 360.391L24.9575 359.837C24.6713 359.548 24.188 359.568 23.9246 359.887L21.6267 362.689C21.4163 362.961 21.451 363.369 21.7114 363.625Z" fill="#FCD400"/>
<path d="M9.28818 372.201L8.32849 369.534L10.0784 369.297L10.5658 371.741L9.28818 372.201Z" fill="#FCD400"/>
<line x1="61" y1="471.5" x2="269" y2="471.5" stroke="black"/>
<path d="M149.655 534.28C151.196 535.297 154.987 538.071 165.619 537.362C165.619 537.362 176.251 538.163 179.703 532.986L179.641 524.202L152.275 523.833L149.1 532.369C148.823 533.078 149.039 533.879 149.655 534.28Z" fill="black"/>
<path d="M208.209 508.424C208.209 508.424 213.109 512.399 222.416 506.205C225.837 503.955 230.459 497.175 230.028 491.998L223.279 487.283L206.514 498.038L208.209 508.424Z" fill="white"/>
<path d="M212.77 510.427C209.565 510.427 207.87 509.102 207.747 509.009L207.531 508.824L205.682 497.637L223.31 486.327L230.768 491.566L230.799 491.936C231.261 497.514 226.392 504.479 222.848 506.852C218.626 509.626 215.236 510.427 212.77 510.427ZM208.918 507.961C209.935 508.578 214.311 510.643 221.985 505.558C225.067 503.493 229.443 497.298 229.289 492.429L223.279 488.207L207.377 498.408L208.918 507.961Z" fill="black"/>
<path d="M117.635 379.481V363.086C117.635 363.086 131.534 364.442 121.117 340.774L101.702 346.938L104.476 361.145L102.226 378.557L117.635 379.481Z" fill="white"/>
<path d="M118.406 380.313L101.363 379.327L103.705 361.206L100.809 346.444L121.549 339.849L121.826 340.497C126.11 350.297 126.911 357.169 124.138 360.991C122.381 363.394 119.731 363.857 118.406 363.918V380.313ZM103.12 377.879L116.865 378.68V362.254L117.697 362.347C117.82 362.347 121.056 362.624 122.905 360.066C124.538 357.816 125.432 352.824 120.686 341.76L102.596 347.523L105.277 361.206L103.12 377.879Z" fill="black"/>
<path d="M111.318 349.896C111.318 349.896 109.469 346.29 107.157 348.663C106.202 349.68 106.109 352.485 109.653 353.687C109.653 353.687 110.239 360.004 103.86 360.652C103.86 360.652 95.847 352.608 98.5898 343.486C98.5898 343.486 87.6186 346.26 85.8003 336.275C85.2456 333.285 87.1871 327.584 93.7821 327.029C97.0489 326.752 102.997 328.354 103.12 336.182C103.12 336.182 116.865 328.416 123.09 342.715C123.059 342.685 118.128 349.619 111.318 349.896Z" fill="black"/>
<path d="M76.7706 445.401C76.7706 445.401 76.7706 455.848 114.214 448.113C114.214 448.113 125.247 445.309 127.682 433.382L77.7876 438.066L76.7706 445.401Z" fill="white"/>
<path d="M91.3166 451.75C83.8278 451.75 79.9448 450.301 77.9416 448.668C76.0617 447.127 76.0001 445.586 76.0001 445.432V445.339L77.1095 437.388L128.637 432.55L128.421 433.567C125.894 445.832 114.492 448.883 114.368 448.914H114.338C104.26 450.948 96.8022 451.75 91.3166 451.75ZM77.541 445.432C77.5718 445.648 77.7567 446.572 79.0202 447.558C81.7014 449.654 89.8066 452.397 114.029 447.373C114.615 447.219 124.014 444.569 126.696 434.245L78.4655 438.775L77.541 445.432Z" fill="black"/>
<path d="M167.221 525.62C167.221 525.62 170.58 538.071 178.5 539.427C188.424 541.122 191.259 546.392 191.475 547.624H152.767L155.449 526.052L167.221 525.62Z" fill="white"/>
<path d="M192.431 548.395H151.905L154.802 525.312L167.838 524.85L167.992 525.435C168.023 525.558 171.32 537.423 178.655 538.687C188.671 540.413 191.907 545.744 192.276 547.501L192.431 548.395ZM153.631 546.854H190.335C189.287 545.005 186.051 541.522 178.347 540.197C170.981 538.933 167.437 529.01 166.636 526.421L156.127 526.791L153.631 546.854Z" fill="black"/>
<path d="M223.587 491.535C223.587 491.535 232.74 500.195 241.339 496.805C250.707 493.138 255.823 495.696 256.686 496.59L224.235 517.731L212.647 496.62L223.587 491.535Z" fill="white"/>
<path d="M223.988 518.809L211.599 496.251L223.711 490.611L224.08 490.981C224.142 491.042 230.367 496.805 237.116 496.805C238.411 496.805 239.736 496.59 241.03 496.066C250.584 492.306 256.069 494.833 257.21 496.035L257.857 496.713L223.988 518.809ZM213.726 496.929L224.512 516.59L255.268 496.559C253.388 495.665 248.796 494.679 241.616 497.514C233.572 500.658 225.344 494.093 223.433 492.429L213.726 496.929Z" fill="black"/>
<path d="M84.783 436.094C84.783 436.094 78.8044 467.652 98.9285 471.442C119.053 475.233 153.199 464.847 153.199 464.847L149.747 531.506C149.747 531.506 156.99 527.315 164.756 527.747C172.922 528.209 178.963 531.815 178.963 531.815L187.16 436.217L84.783 436.094Z" fill="white"/>
<path d="M179.641 533.078L178.593 532.431C178.532 532.4 172.615 528.887 164.725 528.455C157.298 528.055 150.241 532.092 150.148 532.123L148.916 532.832L148.977 531.414L152.367 465.833C146.358 467.559 117.112 475.572 98.7748 472.151C94.1213 471.288 90.4231 468.884 87.8036 465.063C80.5922 454.492 83.8589 436.679 84.013 435.909L84.1363 435.293L187.993 435.416L187.931 436.248L179.641 533.078ZM163.616 526.915C164.016 526.915 164.417 526.915 164.787 526.945C171.135 527.284 176.19 529.503 178.285 530.551L186.298 436.957L85.3998 436.834C84.8759 440.1 82.9344 455.232 89.0672 464.2C91.4401 467.682 94.7993 469.84 99.0521 470.641C118.776 474.339 152.614 464.169 152.953 464.046L154.001 463.738L150.58 530.15C152.891 529.072 158.007 526.915 163.616 526.915Z" fill="black"/>
<path d="M103.305 368.14C103.305 368.14 97.3878 370.082 91.0085 372.27C82.9958 375.044 77.5718 382.563 77.4485 391.038L76.7706 445.093C76.7706 445.093 87.526 439.083 101.733 438.22C108.267 437.82 128.237 436.772 128.237 436.772L127.651 405.184L138.037 416.34L150.056 401.239L131.411 380.221C129.993 377.91 128.083 375.968 125.802 374.52L118.159 369.25C118.159 369.219 115.694 378.896 103.305 368.14Z" fill="black"/>
<path d="M76.0001 446.418L76.7089 391.007C76.8322 382.224 82.4719 374.396 90.7619 371.53C97.0796 369.342 103.027 367.401 103.089 367.37L103.49 367.247L103.829 367.524C108.266 371.376 111.934 373.01 114.461 372.239C116.741 371.53 117.419 369.034 117.419 369.034L117.697 367.986L118.59 368.603L126.233 373.873C128.545 375.352 130.579 377.386 132.027 379.759L151.073 401.208L138.098 417.511L128.452 407.156L129.038 437.481L128.298 437.512C128.113 437.512 108.266 438.59 101.795 438.96C87.9574 439.792 77.2636 445.678 77.1712 445.74L76.0001 446.418ZM103.151 369.003C101.702 369.496 96.6173 371.161 91.2858 373.01C83.6121 375.66 78.3731 382.933 78.2498 391.069L77.5718 443.86C80.7461 442.288 90.1456 438.19 101.702 437.481C107.465 437.142 123.768 436.248 127.466 436.063L126.85 403.211L138.037 415.199L149.1 401.3L130.825 380.714L130.794 380.652C129.438 378.464 127.589 376.554 125.432 375.198L118.56 370.483C118.067 371.53 116.988 373.164 114.954 373.78C111.903 374.674 107.928 373.071 103.151 369.003Z" fill="black"/>
<path d="M189.256 424.753L230.275 491.844C230.275 491.844 226.053 491.042 218.533 495.881C212.524 499.764 208.209 507.931 208.209 507.931C208.209 507.931 172.799 458.622 159.856 436.094L124.415 436.156L175.326 419.637C180.627 417.911 186.39 420.038 189.256 424.753Z" fill="white"/>
<path d="M208.333 509.379L207.593 508.362C207.254 507.869 172.43 459.331 159.425 436.834L119.546 436.895L175.142 418.867C180.781 417.048 186.853 419.298 189.934 424.352L231.847 492.891L230.152 492.583C230.121 492.583 226.084 491.936 218.965 496.528C213.202 500.257 208.949 508.208 208.918 508.3L208.333 509.379ZM160.318 435.323L160.534 435.724C172.306 456.187 203.094 499.456 208.148 506.513C209.565 504.14 213.264 498.377 218.133 495.264C223.279 491.936 226.977 491.196 228.888 491.073L188.609 425.215C185.897 420.777 180.535 418.805 175.604 420.408L129.346 435.416L160.318 435.323Z" fill="black"/>
<path d="M126.976 390.411L125.44 390.536L126.867 408.167L128.403 408.043L126.976 390.411Z" fill="white"/>
<path d="M158.068 342.654L145.495 342.87C145.063 342.87 144.724 343.209 144.632 343.671L140.903 367.555C140.81 368.14 141.211 368.633 141.735 368.633L154.308 368.418C154.74 368.418 155.079 368.079 155.171 367.616L158.9 343.732C158.993 343.178 158.592 342.654 158.068 342.654Z" fill="black"/>
<path d="M139.454 394.89L150.734 368.202L147.128 362.377L143.307 361.484C142.321 361.299 141.612 360.467 141.581 359.481C141.488 356.83 141.55 352.084 145.063 350.944H151.443C152.244 350.944 153.014 351.345 153.477 352.023L155.695 354.58C155.695 354.58 155.695 349.865 160.318 350.882L159.763 363.425C159.763 363.425 156.466 398.065 152.244 408.758C150.641 412.796 142.136 423.921 135.664 413.751C133.198 409.745 139.454 394.89 139.454 394.89Z" fill="white"/>
<path d="M141.797 418.651C139.239 418.651 136.989 417.141 135.078 414.121C132.397 409.93 138.098 396.123 138.745 394.582L149.871 368.264L146.666 363.055L143.152 362.223C141.827 361.977 140.872 360.836 140.841 359.48C140.78 357.323 140.595 351.591 144.847 350.173L144.971 350.143H151.473C152.521 350.143 153.507 350.667 154.124 351.529L155.264 352.824C155.48 352.115 155.911 351.314 156.62 350.759C157.606 349.958 158.931 349.742 160.534 350.112L161.15 350.266L160.565 363.518C160.441 364.935 157.205 398.404 152.983 409.067C151.781 412.087 147.313 418.22 142.413 418.682C142.228 418.651 142.012 418.651 141.797 418.651ZM140.163 395.168C138.468 399.205 134.462 410.299 136.373 413.289C138.098 416.001 140.101 417.295 142.29 417.079C146.635 416.648 150.641 410.792 151.597 408.45C155.695 398.095 158.962 364.319 159.085 363.364L159.609 351.499C158.777 351.406 158.13 351.56 157.637 351.961C156.589 352.793 156.558 354.55 156.558 354.55L156.527 356.584L152.922 352.423C152.614 351.961 152.09 351.684 151.535 351.684H145.279C142.567 352.67 142.351 356.337 142.444 359.45C142.474 360.097 142.906 360.621 143.522 360.713H143.553L147.683 361.699L151.658 368.14L140.163 395.168Z" fill="black"/>
<path d="M156.691 345.84C156.881 345.151 156.556 344.46 155.965 344.298C155.374 344.135 154.742 344.562 154.552 345.251C154.362 345.94 154.688 346.631 155.278 346.794C155.869 346.956 156.502 346.529 156.691 345.84Z" fill="white"/>
<path d="M79.1743 402.163L96.2782 399.236L96.7405 404.012L121.826 383.272L125.093 376.523C125.555 375.506 126.357 374.458 126.973 373.996L135.14 365.398C135.91 364.596 137.297 365.243 137.112 366.353C136.742 368.911 134.986 372.855 132.181 376.276C132.181 376.276 135.879 380.899 134.647 384.289L128.175 391.069L99.9764 425.184C98.7128 426.694 97.1719 427.958 95.4153 428.79C92.6417 430.115 88.7895 430.732 85.9542 426.479C81.0233 419.113 79.1743 402.163 79.1743 402.163Z" fill="white"/>
<path d="M91.5323 430.578C89.0668 430.578 86.9404 429.345 85.3378 426.941C80.3453 419.483 78.4963 402.965 78.4346 402.256L78.3422 401.547L96.987 398.342L97.3877 402.502L121.21 382.81L124.384 376.215C124.877 375.167 125.709 374.027 126.449 373.441L134.554 364.904C135.14 364.288 136.033 364.134 136.804 364.504C137.574 364.874 137.975 365.675 137.882 366.507C137.482 369.373 135.633 373.164 133.167 376.338C134.123 377.694 136.496 381.515 135.386 384.597L135.325 384.751L128.76 391.624L100.593 425.739C99.2059 427.403 97.6034 428.698 95.7543 429.561C94.2442 430.208 92.8266 430.578 91.5323 430.578ZM80.0372 402.811C80.4686 406.108 82.4102 419.791 86.6014 426.109C88.6354 429.16 91.5015 429.838 95.0763 428.143C96.7097 427.372 98.1581 426.232 99.3909 424.722L127.62 390.545L133.969 383.888C134.708 381.454 132.52 377.94 131.565 376.769L131.164 376.276L131.565 375.783C134.4 372.301 136.003 368.479 136.342 366.23C136.372 365.983 136.218 365.891 136.126 365.829C136.033 365.798 135.849 365.737 135.664 365.921L127.466 374.55L127.435 374.581C126.973 374.951 126.202 375.876 125.771 376.831L122.443 383.734L96.1241 405.492L95.6002 400.099L80.0372 402.811Z" fill="black"/>
<path d="M94.5966 388.996L93.0614 389.129L94.0682 400.765L95.6034 400.633L94.5966 388.996Z" fill="white"/>
<path d="M254.944 314.835C242.19 297.471 223.447 288.207 209.961 283.51C195.268 278.383 183.461 277.349 183.332 277.349L183.505 275.194C183.634 275.194 195.655 276.228 210.607 281.442C224.395 286.268 243.612 295.747 256.668 313.543L254.944 314.835Z" fill="black"/>
<path d="M244.79 321.512C227.08 299.149 203.253 289.627 202.994 289.541L203.77 287.516C204.028 287.602 228.373 297.383 246.427 320.176L244.79 321.512Z" fill="black"/>
<path d="M22.0111 336.508L19.943 335.862C20.0723 335.388 23.6916 324.228 33.7311 311.302C43.0381 299.367 59.7992 283.726 87.0307 277.004L87.5478 279.115C60.9626 285.708 44.5462 300.961 35.4546 312.595C25.6306 325.133 22.0542 336.379 22.0111 336.508Z" fill="black"/>
<path d="M43.8139 314.878L42.1335 313.542C52.4746 300.573 67.6846 292.473 68.3309 292.171L69.3219 294.067C69.1496 294.11 53.8534 302.253 43.8139 314.878Z" fill="black"/>
<path d="M266.68 467.942L265 466.607C277.151 451.095 278.529 428.215 278.573 428L280.727 428.129C280.641 429.12 279.219 451.957 266.68 467.942Z" fill="black"/>
<path d="M20.1154 423.847C11.4116 412.084 10.0328 396.788 9.98975 396.142L12.1441 395.969C12.1441 396.142 13.5229 411.309 21.8389 422.555L20.1154 423.847Z" fill="black"/>
<path d="M1142.39 470.025C1158.32 470.025 1171.23 457.11 1171.23 441.179C1171.23 425.248 1158.32 412.333 1142.39 412.333C1126.46 412.333 1113.54 425.248 1113.54 441.179C1113.54 457.11 1126.46 470.025 1142.39 470.025Z" fill="black"/>
<path d="M1142.39 470.607C1126.15 470.607 1112.96 457.396 1112.96 441.179C1112.96 424.938 1126.17 411.75 1142.39 411.75C1158.63 411.75 1171.82 424.961 1171.82 441.179C1171.82 457.419 1158.61 470.607 1142.39 470.607ZM1142.39 412.915C1126.8 412.915 1114.13 425.59 1114.13 441.179C1114.13 456.767 1126.8 469.442 1142.39 469.442C1157.98 469.442 1170.65 456.767 1170.65 441.179C1170.65 425.59 1157.98 412.915 1142.39 412.915Z" fill="black"/>
<path d="M1142.39 459.192C1152.34 459.192 1160.4 451.128 1160.4 441.18C1160.4 431.233 1152.34 423.169 1142.39 423.169C1132.44 423.169 1124.38 431.233 1124.38 441.18C1124.38 451.128 1132.44 459.192 1142.39 459.192Z" fill="white"/>
<path d="M1142.39 459.774C1132.14 459.774 1123.79 451.432 1123.79 441.18C1123.79 430.927 1132.14 422.586 1142.39 422.586C1152.64 422.586 1160.98 430.927 1160.98 441.18C1160.98 451.432 1152.64 459.774 1142.39 459.774ZM1142.39 423.751C1132.76 423.751 1124.96 431.58 1124.96 441.18C1124.96 450.803 1132.79 458.609 1142.39 458.609C1152.01 458.609 1159.82 450.78 1159.82 441.18C1159.82 431.556 1151.99 423.751 1142.39 423.751Z" fill="black"/>
<path d="M1142.39 449.17C1146.8 449.17 1150.38 445.592 1150.38 441.178C1150.38 436.764 1146.8 433.186 1142.39 433.186C1137.97 433.186 1134.4 436.764 1134.4 441.178C1134.4 445.592 1137.97 449.17 1142.39 449.17Z" fill="black"/>
<path d="M1142.39 449.754C1137.66 449.754 1133.81 445.909 1133.81 441.179C1133.81 436.449 1137.66 432.604 1142.39 432.604C1147.12 432.604 1150.96 436.449 1150.96 441.179C1150.96 445.909 1147.12 449.754 1142.39 449.754ZM1142.39 433.769C1138.31 433.769 1134.98 437.101 1134.98 441.179C1134.98 445.257 1138.31 448.589 1142.39 448.589C1146.47 448.589 1149.8 445.257 1149.8 441.179C1149.8 437.101 1146.47 433.769 1142.39 433.769Z" fill="black"/>
<path d="M1310.9 470.025C1326.83 470.025 1339.75 457.11 1339.75 441.179C1339.75 425.248 1326.83 412.333 1310.9 412.333C1294.97 412.333 1282.05 425.248 1282.05 441.179C1282.05 457.11 1294.97 470.025 1310.9 470.025Z" fill="black"/>
<path d="M1310.9 470.607C1294.66 470.607 1281.47 457.396 1281.47 441.179C1281.47 424.938 1294.68 411.75 1310.9 411.75C1327.14 411.75 1340.33 424.961 1340.33 441.179C1340.33 457.419 1327.12 470.607 1310.9 470.607ZM1310.9 412.915C1295.31 412.915 1282.64 425.59 1282.64 441.179C1282.64 456.767 1295.31 469.442 1310.9 469.442C1326.49 469.442 1339.16 456.767 1339.16 441.179C1339.16 425.59 1326.49 412.915 1310.9 412.915Z" fill="black"/>
<path d="M1310.9 459.192C1320.85 459.192 1328.91 451.128 1328.91 441.18C1328.91 431.233 1320.85 423.169 1310.9 423.169C1300.95 423.169 1292.89 431.233 1292.89 441.18C1292.89 451.128 1300.95 459.192 1310.9 459.192Z" fill="white"/>
<path d="M1310.9 459.774C1300.65 459.774 1292.31 451.432 1292.31 441.18C1292.31 430.927 1300.65 422.586 1310.9 422.586C1321.15 422.586 1329.49 430.927 1329.49 441.18C1329.49 451.432 1321.15 459.774 1310.9 459.774ZM1310.9 423.751C1301.28 423.751 1293.47 431.58 1293.47 441.18C1293.47 450.803 1301.3 458.609 1310.9 458.609C1320.5 458.609 1328.33 450.78 1328.33 441.18C1328.33 431.556 1320.5 423.751 1310.9 423.751Z" fill="black"/>
<path d="M1310.9 449.17C1315.31 449.17 1318.89 445.592 1318.89 441.178C1318.89 436.764 1315.31 433.186 1310.9 433.186C1306.49 433.186 1302.91 436.764 1302.91 441.178C1302.91 445.592 1306.49 449.17 1310.9 449.17Z" fill="black"/>
<path d="M1310.9 449.754C1306.17 449.754 1302.33 445.909 1302.33 441.179C1302.33 436.449 1306.17 432.604 1310.9 432.604C1315.63 432.604 1319.47 436.449 1319.47 441.179C1319.47 445.909 1315.61 449.754 1310.9 449.754ZM1310.9 433.769C1306.82 433.769 1303.49 437.101 1303.49 441.179C1303.49 445.257 1306.82 448.589 1310.9 448.589C1314.98 448.589 1318.31 445.257 1318.31 441.179C1318.31 437.101 1314.98 433.769 1310.9 433.769Z" fill="black"/>
<path d="M1221.61 312.674L1231.24 326.095L1252.07 328.495L1256.61 328.192C1257.26 328.146 1257.89 328.286 1258.47 328.565L1261.64 330.15C1262.67 330.406 1264.44 336.231 1264.44 336.231L1249.27 336.091L1225.18 336.72C1224.8 336.278 1214.02 321.295 1214.02 321.295L1221.61 312.674Z" fill="white"/>
<path d="M1224.92 337.303L1224.73 337.094C1224.36 336.651 1214.65 323.16 1213.55 321.622L1213.27 321.249L1221.66 311.742L1231.56 325.56L1252.09 327.913L1256.59 327.61C1257.33 327.564 1258.08 327.703 1258.75 328.053L1261.9 329.614C1262.99 330.033 1264.18 333.342 1265.02 336.068L1265.25 336.837L1249.29 336.697L1224.92 337.303ZM1214.76 321.319C1217.7 325.397 1224.31 334.554 1225.48 336.115L1249.27 335.509L1263.65 335.649C1262.9 333.365 1261.95 331.035 1261.48 330.709H1261.46L1258.22 329.101C1257.73 328.868 1257.19 328.752 1256.66 328.798L1252.07 329.101H1252.02L1230.93 326.655L1221.59 313.606L1214.76 321.319Z" fill="black"/>
<path d="M1208.7 294.431C1208.7 294.431 1216.81 304.311 1225.18 315.472L1222.38 319.014L1206.16 299.254L1208.7 294.431Z" fill="#F5BF00"/>
<path d="M1222.38 319.945L1205.46 299.324L1208.59 293.382L1209.14 294.058C1209.21 294.151 1217.35 304.077 1225.64 315.098L1225.92 315.448L1222.38 319.945ZM1206.86 299.184L1222.38 318.081L1224.45 315.448C1217.53 306.244 1210.78 297.856 1208.82 295.479L1206.86 299.184Z" fill="black"/>
<path d="M1280.54 346.134C1286.07 346.134 1290.56 341.648 1290.56 336.115C1290.56 330.581 1286.07 326.095 1280.54 326.095C1275.01 326.095 1270.52 330.581 1270.52 336.115C1270.52 341.648 1275.01 346.134 1280.54 346.134Z" fill="white"/>
<path d="M1280.54 346.718C1274.69 346.718 1269.94 341.964 1269.94 336.116C1269.94 330.267 1274.69 325.514 1280.54 325.514C1286.39 325.514 1291.14 330.267 1291.14 336.116C1291.14 341.964 1286.36 346.718 1280.54 346.718ZM1280.54 326.679C1275.34 326.679 1271.1 330.897 1271.1 336.116C1271.1 341.335 1275.32 345.553 1280.54 345.553C1285.76 345.553 1289.98 341.335 1289.98 336.116C1289.98 330.897 1285.73 326.679 1280.54 326.679Z" fill="black"/>
<path d="M1225.55 431.649C1225.55 431.649 1227.58 434.678 1236.2 434.189C1236.2 434.189 1243.42 433.047 1244.94 431.277L1243.54 425.079L1226.44 425.451L1225.55 431.649Z" fill="black"/>
<path d="M1238.92 426.732C1238.92 426.732 1241.32 435.61 1246.96 436.565C1254.02 437.777 1256.05 441.528 1256.21 442.413H1228.62L1230.53 427.035L1238.92 426.732Z" fill="white"/>
<path d="M1256.91 442.997H1227.95L1230.02 426.477L1239.37 426.127L1239.48 426.57C1239.51 426.663 1241.86 435.098 1247.06 435.983C1254.21 437.218 1256.54 441.04 1256.8 442.274L1256.91 442.997ZM1229.28 441.832H1255.3C1254.58 440.62 1252.46 438.104 1246.85 437.148C1241.6 436.24 1239.06 429.203 1238.48 427.339L1231.05 427.618L1229.28 441.832Z" fill="black"/>
<path d="M1195.52 352.356L1237.74 356.503C1243.07 357.016 1247.06 362.538 1246.82 367.897L1244.35 430.134C1244.35 430.134 1240.37 427.967 1235.03 427.967C1230.47 427.967 1225.92 430.6 1225.92 430.6L1221.5 372.348L1207.42 371.975L1195.52 352.356Z" fill="white"/>
<path d="M1225.41 431.556L1220.94 372.908L1207.07 372.535L1194.4 351.657L1237.81 355.921C1240.49 356.178 1243 357.646 1244.84 360.022C1246.59 362.306 1247.55 365.172 1247.43 367.921L1244.91 431.09L1244.1 430.647C1244.05 430.624 1240.16 428.55 1235.06 428.55C1230.7 428.55 1226.27 431.066 1226.23 431.09L1225.41 431.556ZM1207.77 371.393L1222.05 371.766L1226.46 429.645C1228 428.876 1231.49 427.361 1235.06 427.361C1239.11 427.361 1242.37 428.573 1243.84 429.202L1246.26 367.851C1246.5 362.562 1242.49 357.529 1237.71 357.063L1196.63 353.032L1207.77 371.393Z" fill="black"/>
<path d="M1211.73 431.254C1211.73 431.254 1214.9 434.166 1223.52 433.654C1223.52 433.654 1230.75 432.768 1232.26 430.997L1231.38 424.03L1213.39 425.032L1211.73 431.254Z" fill="black"/>
<path d="M1225.74 426.732C1225.74 426.732 1228.14 435.61 1233.77 436.565C1240.83 437.777 1242.86 441.528 1243.03 442.413H1215.44L1217.35 427.035L1225.74 426.732Z" fill="white"/>
<path d="M1243.75 442.997H1214.78L1216.86 426.477L1226.2 426.127L1226.32 426.57C1226.34 426.663 1228.69 435.098 1233.89 435.983C1241.04 437.218 1243.37 441.04 1243.63 442.274L1243.75 442.997ZM1216.11 441.832H1242.14C1241.42 440.62 1239.3 438.104 1233.68 437.148C1228.44 436.24 1225.9 429.203 1225.32 427.339L1217.88 427.618L1216.11 441.832Z" fill="black"/>
<path d="M1185.99 430.157L1142.69 432.348C1137.64 432.604 1133.7 436.845 1133.81 441.924C1133.95 447.004 1138.1 451.035 1143.18 451.012L1198.43 450.849L1185.99 430.157Z" fill="white"/>
<path d="M1143.16 451.618C1140.57 451.618 1138.1 450.616 1136.24 448.822C1134.37 447.005 1133.3 444.582 1133.23 441.972C1133.16 439.362 1134.09 436.869 1135.86 434.958C1137.63 433.048 1140.03 431.929 1142.64 431.789L1186.29 429.576L1199.47 451.455L1143.2 451.618C1143.18 451.618 1143.18 451.618 1143.16 451.618ZM1185.66 430.764L1142.71 432.931C1137.91 433.164 1134.28 437.125 1134.4 441.902C1134.51 446.609 1138.45 450.43 1143.16 450.43H1143.18L1197.4 450.267L1185.66 430.764Z" fill="black"/>
<path d="M1297.78 411.471L1313.39 437.405C1314.56 439.339 1313.98 441.856 1312.07 443.067C1310.15 444.279 1307.64 443.766 1306.38 441.902L1289.67 417.343L1297.78 411.471Z" fill="white"/>
<path d="M1309.8 444.302C1308.29 444.302 1306.8 443.58 1305.89 442.205L1288.86 417.203L1297.94 410.633L1313.88 437.102C1315.23 439.339 1314.56 442.159 1312.37 443.557C1311.58 444.069 1310.69 444.302 1309.8 444.302ZM1290.47 417.483L1306.85 441.576C1307.94 443.184 1310.08 443.626 1311.74 442.578C1313.39 441.529 1313.91 439.386 1312.88 437.708L1297.6 412.31L1290.47 417.483Z" fill="black"/>
<path d="M1132.93 383.37C1132.93 383.37 1141.81 366.384 1162.82 366.64H1205.7C1211.83 366.64 1216.88 371.51 1217.02 377.638C1217.18 384.093 1215.04 391.595 1205.39 394.764L1132.93 383.37Z" fill="black"/>
<path d="M1205.44 395.37L1132.02 383.812L1132.39 383.09C1132.49 382.904 1134.72 378.71 1139.59 374.469C1144.09 370.554 1151.76 365.917 1162.82 366.057H1205.67C1208.8 366.057 1211.76 367.246 1213.99 369.436C1216.23 371.603 1217.51 374.515 1217.58 377.638C1217.74 383.859 1215.76 391.968 1205.56 395.323L1205.44 395.37ZM1133.86 382.927L1205.35 394.181C1212.92 391.642 1216.65 386.096 1216.44 377.684C1216.3 371.929 1211.48 367.246 1205.7 367.246H1162.82C1152.15 367.129 1144.74 371.58 1140.41 375.331C1136.84 378.407 1134.7 381.552 1133.86 382.927Z" fill="black"/>
<path d="M1265.77 454.438H1197.47C1193.95 454.438 1190.64 452.69 1188.69 449.778L1175.87 430.881L1100.1 418.974C1100.1 418.974 1100.77 386.773 1127.22 381.716C1142.55 378.78 1171.45 379.06 1189.69 382.602C1194.14 383.464 1203.23 384.932 1206.21 391.433C1207.19 393.576 1207.31 396.023 1206.68 398.283C1205.39 402.873 1202.85 417.926 1214.5 441.902H1263.41C1263.41 441.902 1270.5 431.766 1275.58 415.805C1275.58 415.805 1282.17 375.262 1258.36 344.854C1258.36 344.854 1248.17 325.608 1280.66 324.746C1281.56 324.723 1282.31 325.445 1282.31 326.354V345.6C1282.31 346.555 1281.47 347.301 1280.52 347.184L1277.86 346.882C1277.86 346.882 1300.41 379.829 1302.44 399.332C1302.44 399.332 1331.82 397.304 1337.16 416.807C1337.16 416.807 1309.04 411.751 1292.31 426.943L1275.95 449.265C1273.57 452.527 1269.8 454.438 1265.77 454.438Z" fill="#F5BF00"/>
<path d="M1265.77 455.019H1197.47C1193.74 455.019 1190.3 453.179 1188.2 450.103L1175.55 431.416L1099.54 419.463V418.973C1099.54 418.647 1100.28 386.282 1127.13 381.156C1143.02 378.127 1171.72 378.523 1189.81 382.041L1190.44 382.158C1195.1 383.043 1203.79 384.721 1206.77 391.199C1207.77 393.389 1207.96 395.975 1207.26 398.445C1206.63 400.682 1205.7 405.529 1206.35 412.775C1207.14 421.606 1210.03 431.206 1214.9 441.319H1263.13C1264.23 439.664 1270.47 429.994 1275.04 415.664C1275.16 414.942 1276.62 405.016 1275.34 391.758C1274.13 379.129 1270.12 360.814 1257.91 345.226L1257.87 345.133C1257.73 344.853 1254.42 338.469 1257.8 332.69C1260.92 327.355 1268.61 324.489 1280.66 324.162C1281.26 324.139 1281.82 324.372 1282.24 324.791C1282.66 325.211 1282.89 325.77 1282.89 326.353V345.599C1282.89 346.228 1282.64 346.811 1282.17 347.23C1281.7 347.65 1281.08 347.836 1280.47 347.766L1279.07 347.603C1282.89 353.335 1300.83 381.133 1302.98 398.725C1304.94 398.655 1311.25 398.562 1317.96 400.193C1328.66 402.779 1335.51 408.465 1337.74 416.666L1337.98 417.552L1337.07 417.389C1337 417.365 1329.98 416.13 1321.04 416.76C1312.83 417.342 1301.28 419.626 1292.77 427.338L1276.44 449.614C1273.95 453.016 1269.96 455.019 1265.77 455.019ZM1100.73 418.484L1176.22 430.344L1189.18 449.451C1191.04 452.2 1194.16 453.854 1197.5 453.854H1265.79C1269.61 453.854 1273.25 452.014 1275.51 448.938L1291.91 426.569L1291.96 426.523C1300.72 418.554 1312.58 416.177 1321.01 415.595C1328.24 415.082 1334.18 415.781 1336.39 416.084C1334.01 408.698 1327.77 403.734 1317.77 401.311C1309.92 399.401 1302.61 399.89 1302.54 399.89L1301.98 399.936L1301.91 399.377C1299.93 380.224 1277.65 347.533 1277.42 347.184L1276.69 346.135L1280.61 346.578C1280.91 346.601 1281.19 346.531 1281.4 346.321C1281.61 346.135 1281.75 345.855 1281.75 345.552V326.306C1281.75 326.026 1281.63 325.77 1281.45 325.584C1281.24 325.397 1280.98 325.281 1280.7 325.281C1269.08 325.584 1261.71 328.263 1258.82 333.226C1255.91 338.213 1258.61 343.945 1258.89 344.504C1264.35 351.471 1268.66 359.58 1271.68 368.55C1274.11 375.75 1275.74 383.509 1276.51 391.641C1277.84 405.482 1276.21 415.758 1276.18 415.851L1276.16 415.944C1271.06 432.045 1263.9 442.227 1263.86 442.274L1263.69 442.437H1214.16L1213.99 442.111C1208.96 431.765 1205.98 421.909 1205.16 412.845C1204.49 405.412 1205.46 400.426 1206.12 398.096C1206.72 395.882 1206.58 393.599 1205.67 391.641C1202.95 385.7 1194.65 384.115 1190.18 383.253L1189.55 383.137C1171.89 379.711 1142.81 379.292 1127.31 382.251C1116.57 384.302 1108.81 391.082 1104.29 402.383C1101.4 409.676 1100.82 416.597 1100.73 418.484Z" fill="black"/>
<path d="M1102.85 414.92L1101.71 414.687C1105.04 399.099 1117.97 392.202 1120.53 390.967C1129.04 386.889 1146.19 386.376 1171.54 389.382C1184.91 390.99 1191.65 397.141 1191.55 407.697H1190.39C1190.46 397.817 1184.07 392.062 1171.4 390.547C1140.11 386.819 1126.73 389.289 1121.05 392.015C1118.55 393.18 1106.06 399.868 1102.85 414.92Z" fill="white"/>
<path d="M1151.9 409.933L1135.17 408.512C1134.82 408.488 1134.56 408.185 1134.58 407.836C1134.61 407.486 1134.91 407.23 1135.26 407.253L1151.99 408.675C1152.34 408.698 1152.59 409.001 1152.57 409.35C1152.55 409.7 1152.25 409.956 1151.9 409.933Z" fill="white"/>
<path d="M1151.9 413.219L1135.17 411.797C1134.82 411.774 1134.56 411.471 1134.58 411.121C1134.61 410.772 1134.91 410.516 1135.26 410.539L1151.99 411.96C1152.34 411.984 1152.59 412.287 1152.57 412.636C1152.55 412.986 1152.25 413.242 1151.9 413.219Z" fill="white"/>
<path d="M1151.9 416.503L1135.17 415.105C1134.82 415.082 1134.56 414.779 1134.58 414.43C1134.61 414.08 1134.91 413.824 1135.26 413.847L1151.99 415.269C1152.34 415.292 1152.59 415.595 1152.57 415.944C1152.55 416.27 1152.25 416.55 1151.9 416.503Z" fill="white"/>
<path d="M1111.05 391.573L1109.28 390.081C1107.9 388.916 1106.93 387.355 1106.48 385.608L1103.22 372.792L1106.67 371.907L1109.93 384.722C1110.19 385.747 1110.77 386.679 1111.59 387.355L1113.36 388.846C1114.1 389.476 1114.2 390.594 1113.57 391.34C1112.91 392.109 1111.8 392.202 1111.05 391.573Z" fill="white"/>
<path d="M1112.19 392.573C1111.63 392.573 1111.1 392.387 1110.68 392.014L1108.91 390.523C1107.41 389.265 1106.39 387.634 1105.92 385.746L1102.52 372.372L1107.09 371.207L1110.47 384.581C1110.7 385.49 1111.21 386.306 1111.94 386.911L1113.71 388.403C1114.71 389.241 1114.82 390.733 1113.99 391.711C1113.59 392.201 1113.01 392.48 1112.38 392.55C1112.33 392.573 1112.26 392.573 1112.19 392.573ZM1103.92 373.21L1107.04 385.467C1107.46 387.098 1108.37 388.542 1109.65 389.638L1111.42 391.129C1111.66 391.338 1111.98 391.432 1112.28 391.408C1112.61 391.385 1112.89 391.222 1113.1 390.989C1113.52 390.476 1113.45 389.731 1112.96 389.311L1111.19 387.82C1110.28 387.051 1109.65 386.049 1109.35 384.884L1106.23 372.628L1103.92 373.21Z" fill="black"/>
<path d="M1143.32 383.325L1141.29 379.76C1139.31 376.264 1135.63 374.121 1131.62 374.121H1072.51C1071.53 374.121 1070.74 373.329 1070.74 372.35C1070.74 371.371 1071.53 370.579 1072.51 370.579H1131.65C1136.94 370.579 1141.81 373.422 1144.39 378.012L1146.42 381.577C1146.91 382.439 1146.61 383.511 1145.74 384C1144.88 384.49 1143.79 384.187 1143.32 383.325Z" fill="white"/>
<path d="M1144.86 384.815C1144.04 384.815 1143.23 384.396 1142.81 383.627L1140.78 380.062C1138.92 376.776 1135.4 374.726 1131.62 374.726H1072.51C1071.2 374.726 1070.16 373.677 1070.16 372.372C1070.16 371.067 1071.2 370.019 1072.51 370.019H1131.65C1137.12 370.019 1142.2 372.978 1144.9 377.755L1146.93 381.32C1147.56 382.462 1147.16 383.883 1146.05 384.535C1145.65 384.722 1145.25 384.815 1144.86 384.815ZM1143.81 383.044C1144.14 383.627 1144.86 383.813 1145.44 383.487C1146.02 383.161 1146.21 382.438 1145.88 381.856L1143.86 378.291C1141.36 373.887 1136.68 371.137 1131.6 371.137H1072.51C1071.86 371.137 1071.32 371.673 1071.32 372.326C1071.32 372.978 1071.86 373.514 1072.51 373.514H1131.65C1135.86 373.514 1139.76 375.798 1141.83 379.456L1143.81 383.044Z" fill="black"/>
<path d="M1166.39 349.934C1166.39 349.934 1165.62 369.437 1208.98 354.245L1209.24 348.839L1171.96 341.057L1166.39 349.934Z" fill="white"/>
<path d="M1181.93 360.605C1176.76 360.605 1172.73 359.556 1169.91 357.483C1165.67 354.36 1165.78 350.073 1165.81 349.887V349.723L1171.68 340.38L1209.82 348.349L1209.54 354.64L1209.17 354.78C1198.5 358.531 1189.55 360.488 1182.61 360.605C1182.37 360.605 1182.16 360.605 1181.93 360.605ZM1166.97 350.096C1167 350.842 1167.25 354.104 1170.63 356.574C1175.01 359.789 1185.15 361.91 1208.42 353.801L1208.63 349.304L1172.24 341.708L1166.97 350.096Z" fill="black"/>
<path d="M1211.66 309.065L1214.53 296.063C1214.53 296.063 1225.15 301.282 1223.94 279.38L1206.67 278.494L1204.65 290.611L1197.68 303.776L1211.66 309.065Z" fill="white"/>
<path d="M1212.1 309.856L1196.87 304.101L1204.11 290.447L1206.21 277.911L1224.5 278.843L1224.52 279.356C1225.01 288.373 1223.59 294.059 1220.28 296.249C1218.21 297.624 1216.02 297.204 1214.95 296.855L1212.1 309.856ZM1198.52 303.472L1211.27 308.295L1214.13 295.224L1214.81 295.55C1214.9 295.596 1217.42 296.785 1219.68 295.27C1221.66 293.942 1223.9 290.214 1223.41 279.938L1207.19 279.123L1205.23 290.82L1198.52 303.472Z" fill="black"/>
<path d="M1266.65 332.179L1255.77 333.763C1254.09 333.996 1252.95 335.557 1253.18 337.211C1253.42 338.889 1254.98 340.031 1256.63 339.798L1267.51 338.213C1269.19 337.98 1270.33 336.419 1270.1 334.765C1269.87 333.087 1268.31 331.946 1266.65 332.179Z" fill="white"/>
<path d="M1256.19 340.404C1254.42 340.404 1252.86 339.099 1252.6 337.282C1252.32 335.301 1253.7 333.461 1255.68 333.158L1266.56 331.573C1268.54 331.294 1270.38 332.668 1270.68 334.649C1270.82 335.604 1270.59 336.56 1270.01 337.352C1269.43 338.121 1268.59 338.633 1267.61 338.773L1256.73 340.358C1256.54 340.381 1256.38 340.404 1256.19 340.404ZM1266.72 332.762L1255.84 334.346C1254.49 334.532 1253.56 335.791 1253.74 337.142C1253.93 338.494 1255.19 339.426 1256.54 339.239L1267.42 337.655C1268.07 337.561 1268.66 337.212 1269.05 336.699C1269.45 336.187 1269.61 335.511 1269.52 334.859C1269.33 333.484 1268.07 332.552 1266.72 332.762Z" fill="black"/>
<path d="M1183.54 336.278C1183.54 336.278 1171.49 363.89 1184.63 372.488C1195.21 379.408 1216.14 376.099 1216.14 376.099L1212.43 430.017C1212.43 430.017 1216.16 427.524 1222.96 427.641C1229.72 427.757 1231.75 429.784 1231.75 429.784L1241.72 366.709C1242.47 359.836 1240.83 354.43 1233.54 353.195L1210.31 350.911L1208 344.923L1183.54 336.278Z" fill="white"/>
<path d="M1211.78 431.113L1211.85 429.925L1215.51 376.729C1211.66 377.265 1193.98 379.245 1184.31 372.931C1178.74 369.273 1176.76 361.7 1178.58 351.028C1179.95 343.083 1182.96 336.092 1183 336.022L1183.21 335.533L1208.45 344.387L1210.71 350.306L1233.63 352.566C1240.35 353.731 1243.19 358.345 1242.3 366.733V366.756L1232.17 430.95L1231.35 430.134C1231.33 430.111 1229.32 428.27 1222.96 428.154C1216.44 428.037 1212.8 430.414 1212.76 430.437L1211.78 431.113ZM1216.77 375.378L1213.08 428.946C1214.64 428.2 1218 426.919 1222.96 427.012C1227.62 427.082 1230.14 428.084 1231.3 428.736L1241.14 366.593C1241.95 358.857 1239.53 354.78 1233.47 353.731L1209.89 351.401L1207.56 345.32L1183.86 337.001C1182.35 340.753 1173.33 364.38 1184.94 371.976C1195.21 378.686 1215.83 375.517 1216.04 375.494L1216.77 375.378Z" fill="black"/>
<path d="M1220.1 315.728L1228.72 328.893L1250.76 331.153L1254.98 330.734C1255.54 330.687 1256.1 330.757 1256.61 330.944L1259.36 331.922C1260.03 332.085 1261.2 335.114 1261.97 337.235C1262.32 338.237 1261.57 339.262 1260.52 339.262L1247.5 339.145L1224.31 341.406C1221.68 341.662 1219.12 340.543 1217.49 338.446C1213.97 333.903 1208.17 326.353 1208.17 326.353L1220.1 315.728Z" fill="white"/>
<path d="M1223.57 342.034C1221.03 342.034 1218.63 340.869 1217.05 338.819C1213.53 334.275 1207.72 326.726 1207.72 326.726L1207.4 326.306L1220.21 314.842L1229.04 328.357L1250.76 330.594L1254.93 330.197C1255.56 330.128 1256.21 330.221 1256.82 330.43L1259.55 331.409C1259.94 331.502 1260.64 331.805 1262.53 337.071C1262.76 337.724 1262.67 338.423 1262.25 338.982C1261.85 339.541 1261.2 339.867 1260.52 339.867L1247.52 339.751L1224.36 342.011C1224.11 342.011 1223.83 342.034 1223.57 342.034ZM1208.98 326.423C1210.26 328.077 1214.95 334.182 1217.95 338.096C1219.45 340.03 1221.8 341.056 1224.25 340.823L1247.48 338.562H1247.5L1260.52 338.679C1260.83 338.679 1261.11 338.539 1261.29 338.283C1261.48 338.027 1261.53 337.724 1261.41 337.421C1259.92 333.227 1259.29 332.551 1259.17 332.481L1256.42 331.502C1255.98 331.339 1255.51 331.293 1255.05 331.339L1250.76 331.759H1250.71L1228.39 329.475L1220 316.636L1208.98 326.423Z" fill="black"/>
<path d="M1209.78 350.727C1209.78 350.727 1197.52 345.274 1183.26 345.903C1171.28 346.439 1167.23 348.536 1167.23 348.536L1194.91 300.56C1195.82 299.046 1197.12 297.787 1198.71 296.995C1200.83 295.97 1203.83 295.527 1207.14 298.3C1213.39 303.543 1223.38 319.271 1223.38 319.271L1212.43 331.9L1209.78 350.727Z" fill="#F5BF00"/>
<path d="M1210.24 351.588L1209.54 351.285C1209.43 351.239 1197.24 345.879 1183.31 346.509C1171.58 347.021 1167.55 349.048 1167.51 349.072L1165.74 349.98L1194.42 300.28C1195.42 298.602 1196.84 297.297 1198.47 296.482C1200.62 295.433 1203.93 294.827 1207.54 297.857C1213.78 303.099 1223.48 318.315 1223.9 318.944L1224.13 319.317L1213.01 332.132L1210.24 351.588ZM1185.57 345.274C1196.89 345.274 1206.65 348.839 1209.31 349.91L1211.9 331.643L1222.66 319.223C1221.12 316.847 1212.36 303.449 1206.79 298.765C1204.28 296.645 1201.64 296.249 1198.99 297.53C1197.54 298.229 1196.31 299.394 1195.42 300.862L1168.56 347.417C1170.7 346.742 1175.2 345.693 1183.24 345.32C1184.03 345.297 1184.8 345.274 1185.57 345.274Z" fill="black"/>
<path d="M1207.72 325.046L1206.8 325.767L1212.55 333.075L1213.46 332.355L1207.72 325.046Z" fill="black"/>
<path d="M1265.77 447.052H1209.22V445.886H1265.14L1274.34 431.953L1275.32 432.605L1265.77 447.052Z" fill="white"/>
<path d="M1258.41 344.282L1258.29 345.441L1277.81 347.468L1277.93 346.309L1258.41 344.282Z" fill="white"/>
<path d="M1292.8 427.036L1291.86 426.36C1299.79 415.455 1301.37 399.448 1301.39 399.285L1302.56 399.401C1302.51 399.564 1300.9 415.898 1292.8 427.036Z" fill="white"/>
<path d="M1119.48 399.728C1119.18 399.239 1119.32 398.586 1119.83 398.307C1121.19 397.561 1122.61 396.978 1124.1 396.559C1124.66 396.419 1125.22 396.769 1125.33 397.328C1125.45 397.864 1125.12 398.376 1124.59 398.516C1123.28 398.866 1122.02 399.378 1120.84 400.054C1120.37 400.31 1119.79 400.171 1119.48 399.728Z" fill="white"/>
<path d="M1110.68 411.005C1110.12 410.818 1109.84 410.189 1110.07 409.653C1110.72 408.139 1112.19 405.156 1114.78 402.337C1115.17 401.917 1115.83 401.917 1116.25 402.313C1116.62 402.709 1116.64 403.315 1116.27 403.711C1113.89 406.298 1112.54 409.071 1111.94 410.422C1111.73 410.935 1111.19 411.168 1110.68 411.005Z" fill="white"/>
<path d="M1135.59 313.818V366.781C1135.59 368.808 1133.93 370.462 1131.9 370.462H1069.46C1067.43 370.462 1065.78 368.808 1065.78 366.781V313.818C1065.78 311.791 1067.43 310.136 1069.46 310.136H1131.93C1133.96 310.136 1135.59 311.791 1135.59 313.818Z" fill="white"/>
<path d="M1096.26 343.107L1104.45 343.046C1106.49 343.031 1108.15 344.669 1108.17 346.704C1108.18 348.739 1106.54 350.401 1104.51 350.416L1096.31 350.477C1094.28 350.492 1092.61 348.854 1092.6 346.819C1092.58 344.783 1094.22 343.121 1096.26 343.107Z" fill="#F5BF00"/>
<path d="M1096.28 350.476C1098.32 350.476 1099.97 348.825 1099.97 346.79C1099.97 344.754 1098.32 343.103 1096.28 343.103C1094.25 343.103 1092.6 344.754 1092.6 346.79C1092.6 348.825 1094.25 350.476 1096.28 350.476Z" fill="#2D2A2E"/>
<path d="M1104.85 341.901L1096.66 341.962C1094.62 341.976 1092.96 340.338 1092.94 338.303C1092.93 336.268 1094.57 334.606 1096.6 334.591L1104.8 334.53C1106.83 334.516 1108.5 336.154 1108.51 338.189C1108.53 340.224 1106.89 341.886 1104.85 341.901Z" fill="#F5BF00"/>
<path d="M1104.83 341.9C1106.86 341.9 1108.51 340.25 1108.51 338.214C1108.51 336.178 1106.86 334.528 1104.83 334.528C1102.79 334.528 1101.14 336.178 1101.14 338.214C1101.14 340.25 1102.79 341.9 1104.83 341.9Z" fill="#2D2A2E"/>
<path d="M1090.57 355.213C1090.53 355.073 1090.44 354.97 1090.35 354.896C1090.2 354.779 1090.03 354.768 1089.89 354.768C1089.74 354.768 1089.54 354.792 1089.38 354.938C1089.26 355.047 1089.16 355.232 1089.16 355.42C1089.16 355.548 1089.21 355.683 1089.34 355.793C1089.41 355.867 1089.59 355.965 1089.68 356.008L1090.04 356.179C1090.23 356.264 1090.41 356.375 1090.56 356.526C1090.79 356.765 1090.84 356.977 1090.84 357.241C1090.84 357.479 1090.79 357.851 1090.49 358.163C1090.15 358.517 1089.73 358.552 1089.44 358.552C1089.11 358.552 1088.84 358.491 1088.6 358.248C1088.42 358.065 1088.29 357.797 1088.26 357.503L1088.71 357.381C1088.72 357.588 1088.8 357.779 1088.93 357.912C1089.1 358.094 1089.31 358.126 1089.51 358.126C1089.7 358.126 1089.95 358.094 1090.14 357.9C1090.3 357.742 1090.36 357.503 1090.36 357.309C1090.36 357.066 1090.25 356.888 1090.14 356.791C1090.06 356.717 1089.87 356.608 1089.75 356.547L1089.42 356.394C1089.31 356.345 1089.07 356.222 1088.94 356.081C1088.83 355.965 1088.71 355.771 1088.71 355.454C1088.71 355.167 1088.79 354.911 1089.02 354.685C1089.28 354.436 1089.58 354.344 1089.92 354.344C1090.1 354.344 1090.37 354.368 1090.59 354.514C1090.75 354.617 1090.89 354.789 1090.96 354.977L1090.57 355.213Z" fill="#2D2A2E"/>
<path d="M1092.87 354.409C1093.29 354.409 1093.65 354.518 1093.86 354.721C1094.02 354.879 1094.14 355.147 1094.14 355.489C1094.14 355.886 1093.98 356.185 1093.81 356.355C1093.64 356.519 1093.31 356.71 1092.66 356.71H1092.31L1092.09 358.479H1091.64L1092.14 354.41H1092.87V354.409ZM1092.35 356.281H1092.74C1092.96 356.281 1093.26 356.257 1093.47 356.061C1093.59 355.952 1093.69 355.768 1093.69 355.5C1093.69 355.225 1093.58 355.066 1093.46 354.981C1093.3 354.854 1093.05 354.835 1092.87 354.835H1092.53L1092.35 356.281Z" fill="#2D2A2E"/>
<path d="M1097.18 354.994H1095.56L1095.43 356.024H1097.01L1096.93 356.61H1095.36L1095.2 357.891H1096.83L1096.75 358.477H1094.51L1095.01 354.409H1097.25L1097.18 354.994Z" fill="#2D2A2E"/>
<path d="M1100.35 354.994H1098.73L1098.61 356.024H1100.18L1100.11 356.61H1098.53L1098.37 357.891H1100L1099.92 358.477H1097.68L1098.18 354.409H1100.42L1100.35 354.994Z" fill="#2D2A2E"/>
<path d="M1102.48 354.409C1102.9 354.409 1103.58 354.47 1104.03 354.928C1104.3 355.195 1104.52 355.642 1104.52 356.281C1104.52 357.214 1104.1 357.722 1103.89 357.915C1103.42 358.361 1102.78 358.477 1102.04 358.477H1100.79L1101.29 354.409H1102.48ZM1101.83 357.685H1102.11C1102.39 357.685 1102.82 357.666 1103.15 357.373C1103.38 357.166 1103.56 356.787 1103.56 356.305C1103.56 355.945 1103.44 355.659 1103.27 355.487C1103.07 355.299 1102.74 355.201 1102.42 355.201H1102.13L1101.83 357.685Z" fill="#2D2A2E"/>
<path d="M1106.02 356.58L1104.83 354.409H1105.9L1106.57 355.672L1107.54 354.409H1108.68L1106.96 356.58L1106.73 358.477H1105.79L1106.02 356.58Z" fill="#2D2A2E"/>
<path d="M1110.67 356.697L1110.45 358.479H1109.42L1109.65 356.667L1108.61 354.411H1109.75L1110.03 355.064C1110.2 355.454 1110.21 355.48 1110.25 355.613C1110.27 355.644 1110.28 355.692 1110.3 355.748C1110.35 355.644 1110.4 355.559 1110.5 355.424L1111.2 354.412H1112.45L1110.67 356.697Z" fill="#2D2A2E"/>
<path d="M1135.59 313.818V323.325H1065.78V313.818C1065.78 311.791 1067.43 310.136 1069.46 310.136H1131.93C1133.96 310.136 1135.59 311.791 1135.59 313.818Z" fill="#0D1D28"/>
<path d="M1255.33 339.797C1256.87 339.797 1258.12 338.546 1258.12 337.001C1258.12 335.457 1256.87 334.205 1255.33 334.205C1253.78 334.205 1252.53 335.457 1252.53 337.001C1252.53 338.546 1253.78 339.797 1255.33 339.797Z" fill="white"/>
<path d="M1255.33 340.379C1253.46 340.379 1251.95 338.865 1251.95 337C1251.95 335.136 1253.46 333.622 1255.33 333.622C1257.19 333.622 1258.71 335.136 1258.71 337C1258.68 338.865 1257.17 340.379 1255.33 340.379ZM1255.33 334.787C1254.12 334.787 1253.11 335.766 1253.11 337C1253.11 338.212 1254.09 339.214 1255.33 339.214C1256.54 339.214 1257.54 338.235 1257.54 337C1257.52 335.789 1256.54 334.787 1255.33 334.787Z" fill="black"/>
<path d="M1279.72 325.211H1278.56V346.741H1279.72V325.211Z" fill="white"/>
<path d="M1210.29 279.775C1210.29 279.775 1228.53 278.027 1226.46 278.027C1226.46 278.027 1224.2 263.348 1208.94 267.682C1203.97 269.08 1196.54 276.303 1201.92 287.068C1202.55 288.303 1203.97 289.328 1205.63 289.118C1205.65 289.118 1210.38 289.375 1210.29 279.775Z" fill="#2D2A2E"/>
<path d="M1205.21 289.724C1203.44 289.724 1202.01 288.536 1201.41 287.324C1198.57 281.639 1199.38 277.258 1200.57 274.556C1202.34 270.525 1205.98 267.915 1208.77 267.123C1213.62 265.748 1217.7 266.097 1220.91 268.171C1225.34 271.014 1226.67 276.163 1226.97 277.585C1227.16 277.724 1227.2 277.911 1227.2 278.027C1227.23 278.587 1226.76 278.657 1225.99 278.75C1225.57 278.796 1224.94 278.89 1224.13 278.959C1222.78 279.099 1220.89 279.309 1218.51 279.542C1215.32 279.868 1212.1 280.171 1210.87 280.288C1210.85 284.156 1210.01 286.905 1208.4 288.466C1207.21 289.608 1205.98 289.678 1205.7 289.678C1205.51 289.724 1205.37 289.724 1205.21 289.724ZM1214.2 267.472C1212.62 267.472 1210.92 267.728 1209.1 268.241C1206.56 268.963 1203.27 271.34 1201.64 275.022C1200.08 278.54 1200.36 282.618 1202.46 286.788C1202.95 287.767 1204.11 288.722 1205.58 288.536H1205.63H1205.67C1205.7 288.536 1206.65 288.559 1207.61 287.604C1208.59 286.649 1209.75 284.505 1209.68 279.775V279.239L1210.22 279.192C1215.58 278.68 1223.43 277.888 1225.78 277.585C1225.43 276.07 1224.1 271.55 1220.28 269.103C1218.54 268.031 1216.51 267.472 1214.2 267.472Z" fill="black"/>
<path d="M1209.96 279.238L1225.78 277.141C1226.64 277.024 1227.46 277.444 1227.86 278.213C1228.53 279.494 1227.72 281.055 1226.27 281.219C1222.38 281.685 1215.34 282.011 1209.96 279.238Z" fill="white"/>
<path d="M1221.26 282.105C1217.63 282.105 1213.32 281.592 1209.7 279.751L1208.05 278.889L1225.71 276.559C1226.81 276.419 1227.88 276.978 1228.39 277.934C1228.81 278.703 1228.81 279.611 1228.42 280.404C1228.02 281.173 1227.25 281.709 1226.39 281.802C1225.01 281.965 1223.24 282.105 1221.26 282.105ZM1212.1 279.542C1217.07 281.359 1222.94 281.056 1226.23 280.66C1226.71 280.59 1227.13 280.31 1227.37 279.868C1227.6 279.425 1227.6 278.936 1227.37 278.493C1227.09 277.957 1226.48 277.654 1225.88 277.724L1212.1 279.542Z" fill="black"/>
<path d="M1201.9 278.47C1201.6 278.447 1201.39 278.168 1201.46 277.865C1201.67 276.863 1202.3 274.672 1204.11 272.482C1204.3 272.249 1204.63 272.226 1204.83 272.436C1205.04 272.622 1205.07 272.925 1204.88 273.135C1203.2 275.162 1202.62 277.212 1202.43 278.074C1202.39 278.331 1202.16 278.494 1201.9 278.47Z" fill="white"/>
<path d="M1331.87 412.893C1328.52 409.584 1324.6 407.463 1321.62 406.182C1321.18 405.995 1320.97 405.483 1321.13 405.04C1321.32 404.574 1321.85 404.364 1322.29 404.551C1325.44 405.879 1329.54 408.116 1333.11 411.634C1333.46 411.984 1333.46 412.566 1333.11 412.916C1332.76 413.242 1332.2 413.242 1331.87 412.893Z" fill="white"/>
<path d="M1317.4 404.667C1316.87 404.504 1316.4 404.388 1316.05 404.294C1315.58 404.178 1315.3 403.735 1315.4 403.269C1315.49 402.757 1315.98 402.454 1316.49 402.57C1316.87 402.663 1317.36 402.78 1317.94 402.966C1318.4 403.106 1318.68 403.619 1318.52 404.085C1318.36 404.551 1317.87 404.807 1317.4 404.667Z" fill="white"/>
<path d="M1172.95 296.404H1136.44V297.415H1172.95V296.404Z" fill="white"/>
<path d="M1172.97 309.533H1159.98V310.544H1172.97V309.533Z" fill="white"/>
<path d="M1131.92 253H1098.17V254.35H1131.92V253Z" fill="#2D2A2E"/>
<path d="M1146.88 253.986H1086.62V255.336H1146.88V253.986Z" fill="white"/>
<path d="M1022.48 307.484H963.643V308.952H1022.48V307.484Z" fill="#2D2A2E"/>
<path d="M956.435 306.134H913V307.603H956.435V306.134Z" fill="#2D2A2E"/>
<path d="M1035.27 391.407H1005.64V392.875H1035.27V391.407Z" fill="#2D2A2E"/>
<path d="M1020.63 407.358H979.56V408.826H1020.63V407.358Z" fill="#2D2A2E"/>
</svg>
