<svg width="1440" height="314" viewBox="0 0 1440 314" fill="none" xmlns="http://www.w3.org/2000/svg">
<rect y="80" width="1440" height="234" fill="url(#paint0_linear_4_19)"/>
<path d="M1407.5 37.7076L1404.84 48.3603C1392.1 99.2967 1338.02 127.952 1288.72 109.882L1279.43 106.476C1244.57 93.6991 1206.35 93.4895 1171.36 105.883V105.883C1160.07 109.882 1147.57 108.552 1137.37 102.265L1087 71.2076" stroke="white" stroke-width="2"/>
<path d="M-44.4827 121.427L-67.4895 170.05L-6.82307 234.537L0.539257 188.713C3.38351 171.01 16.0669 156.475 33.2216 151.26L47.2923 146.982C74.875 138.596 91.2131 110.24 84.6352 82.1715V82.1715" stroke="#2D2A2E" stroke-width="2"/>
<path opacity="0.4" d="M208.362 263.772C203.925 268.182 196.87 272.072 189.459 271.133C178.255 269.715 174.308 276.21 156.32 268.402C153.69 267.272 151.174 265.904 148.818 264.323C147.667 263.546 146.565 262.71 145.521 261.819C136.302 253.971 133.916 243.725 136.762 235.101C140.509 223.762 151.709 222.053 158.853 221.282C165.998 220.511 177.855 211.313 195.591 218.872C198.304 220.016 200.892 221.422 203.305 223.06C208.797 226.817 213.725 232.3 215.532 238.179C215.667 238.62 215.788 239.065 215.894 239.513C217.967 248.26 214.413 257.759 208.362 263.772Z" fill="#FFF5BE"/>
<path d="M161.799 251.079H156V265H161.799V251.079Z" fill="#FDF2CC" stroke="#263238" stroke-width="0.578786" stroke-miterlimit="10"/>
<path d="M170.349 246.86H164.549V264.999H170.349V246.86Z" fill="#FDF2CC" stroke="#263238" stroke-width="0.578786" stroke-miterlimit="10"/>
<path d="M178.897 251.079H173.098V265H178.897V251.079Z" fill="#FDF2CC" stroke="#263238" stroke-width="0.578786" stroke-miterlimit="10"/>
<path d="M187.451 245.944H181.651V264.999H187.451V245.944Z" fill="#FDF2CC" stroke="#263238" stroke-width="0.578786" stroke-miterlimit="10"/>
<path d="M196 238.974H190.201V265H196V238.974Z" fill="#FDF2CC" stroke="#263238" stroke-width="0.578786" stroke-miterlimit="10"/>
<path d="M188.305 227.946L190.568 228.921L175.178 243.809L167.828 239.766L156.182 246.902V249.054L167.874 241.89L175.479 246.073L191.83 230.251L192.704 232.567L195.939 225L188.305 227.946Z" fill="#263238" stroke="#263238" stroke-width="0.578786" stroke-linecap="round" stroke-linejoin="round"/>
<path d="M574.287 122.456V142H570.367V133.684H561.995V142H558.075V122.456H561.995V130.492H570.367V122.456H574.287ZM580.133 124.64C579.442 124.64 578.864 124.425 578.397 123.996C577.949 123.548 577.725 122.997 577.725 122.344C577.725 121.691 577.949 121.149 578.397 120.72C578.864 120.272 579.442 120.048 580.133 120.048C580.824 120.048 581.393 120.272 581.841 120.72C582.308 121.149 582.541 121.691 582.541 122.344C582.541 122.997 582.308 123.548 581.841 123.996C581.393 124.425 580.824 124.64 580.133 124.64ZM582.065 126.488V142H578.145V126.488H582.065ZM592.014 126.236C593.171 126.236 594.189 126.469 595.066 126.936C595.943 127.384 596.634 127.972 597.138 128.7V126.488H601.086V142.112C601.086 143.549 600.797 144.828 600.218 145.948C599.639 147.087 598.771 147.983 597.614 148.636C596.457 149.308 595.057 149.644 593.414 149.644C591.211 149.644 589.401 149.131 587.982 148.104C586.582 147.077 585.789 145.677 585.602 143.904H589.494C589.699 144.613 590.138 145.173 590.81 145.584C591.501 146.013 592.331 146.228 593.302 146.228C594.441 146.228 595.365 145.883 596.074 145.192C596.783 144.52 597.138 143.493 597.138 142.112V139.704C596.634 140.432 595.934 141.039 595.038 141.524C594.161 142.009 593.153 142.252 592.014 142.252C590.707 142.252 589.513 141.916 588.43 141.244C587.347 140.572 586.489 139.629 585.854 138.416C585.238 137.184 584.93 135.775 584.93 134.188C584.93 132.62 585.238 131.229 585.854 130.016C586.489 128.803 587.338 127.869 588.402 127.216C589.485 126.563 590.689 126.236 592.014 126.236ZM597.138 134.244C597.138 133.292 596.951 132.48 596.578 131.808C596.205 131.117 595.701 130.595 595.066 130.24C594.431 129.867 593.75 129.68 593.022 129.68C592.294 129.68 591.622 129.857 591.006 130.212C590.39 130.567 589.886 131.089 589.494 131.78C589.121 132.452 588.934 133.255 588.934 134.188C588.934 135.121 589.121 135.943 589.494 136.652C589.886 137.343 590.39 137.875 591.006 138.248C591.641 138.621 592.313 138.808 593.022 138.808C593.75 138.808 594.431 138.631 595.066 138.276C595.701 137.903 596.205 137.38 596.578 136.708C596.951 136.017 597.138 135.196 597.138 134.244ZM613.65 126.264C614.826 126.264 615.872 126.525 616.786 127.048C617.701 127.552 618.41 128.308 618.914 129.316C619.437 130.305 619.698 131.5 619.698 132.9V142H615.778V133.432C615.778 132.2 615.47 131.257 614.854 130.604C614.238 129.932 613.398 129.596 612.334 129.596C611.252 129.596 610.393 129.932 609.758 130.604C609.142 131.257 608.834 132.2 608.834 133.432V142H604.914V121.28H608.834V128.42C609.338 127.748 610.01 127.225 610.85 126.852C611.69 126.46 612.624 126.264 613.65 126.264ZM627.346 121.28V142H623.426V121.28H627.346ZM646.059 126.488L636.455 149.336H632.283L635.643 141.608L629.427 126.488H633.823L637.827 137.324L641.887 126.488H646.059ZM659.408 129.708V137.212C659.408 137.735 659.529 138.117 659.772 138.36C660.033 138.584 660.463 138.696 661.06 138.696H662.88V142H660.416C657.112 142 655.46 140.395 655.46 137.184V129.708H653.612V126.488H655.46V122.652H659.408V126.488H662.88V129.708H659.408ZM669.62 128.896C670.124 128.075 670.777 127.431 671.58 126.964C672.401 126.497 673.334 126.264 674.38 126.264V130.38H673.344C672.112 130.38 671.178 130.669 670.544 131.248C669.928 131.827 669.62 132.835 669.62 134.272V142H665.7V126.488H669.62V128.896ZM676.012 134.188C676.012 132.62 676.32 131.229 676.936 130.016C677.571 128.803 678.42 127.869 679.484 127.216C680.567 126.563 681.771 126.236 683.096 126.236C684.253 126.236 685.261 126.469 686.12 126.936C686.997 127.403 687.697 127.991 688.22 128.7V126.488H692.168V142H688.22V139.732C687.716 140.46 687.016 141.067 686.12 141.552C685.243 142.019 684.225 142.252 683.068 142.252C681.761 142.252 680.567 141.916 679.484 141.244C678.42 140.572 677.571 139.629 676.936 138.416C676.32 137.184 676.012 135.775 676.012 134.188ZM688.22 134.244C688.22 133.292 688.033 132.48 687.66 131.808C687.287 131.117 686.783 130.595 686.148 130.24C685.513 129.867 684.832 129.68 684.104 129.68C683.376 129.68 682.704 129.857 682.088 130.212C681.472 130.567 680.968 131.089 680.576 131.78C680.203 132.452 680.016 133.255 680.016 134.188C680.016 135.121 680.203 135.943 680.576 136.652C680.968 137.343 681.472 137.875 682.088 138.248C682.723 138.621 683.395 138.808 684.104 138.808C684.832 138.808 685.513 138.631 686.148 138.276C686.783 137.903 687.287 137.38 687.66 136.708C688.033 136.017 688.22 135.196 688.22 134.244ZM697.984 124.64C697.294 124.64 696.715 124.425 696.248 123.996C695.8 123.548 695.576 122.997 695.576 122.344C695.576 121.691 695.8 121.149 696.248 120.72C696.715 120.272 697.294 120.048 697.984 120.048C698.675 120.048 699.244 120.272 699.692 120.72C700.159 121.149 700.392 121.691 700.392 122.344C700.392 122.997 700.159 123.548 699.692 123.996C699.244 124.425 698.675 124.64 697.984 124.64ZM699.916 126.488V142H695.996V126.488H699.916ZM712.385 126.264C714.233 126.264 715.727 126.852 716.865 128.028C718.004 129.185 718.573 130.809 718.573 132.9V142H714.653V133.432C714.653 132.2 714.345 131.257 713.729 130.604C713.113 129.932 712.273 129.596 711.209 129.596C710.127 129.596 709.268 129.932 708.633 130.604C708.017 131.257 707.709 132.2 707.709 133.432V142H703.789V126.488H707.709V128.42C708.232 127.748 708.895 127.225 709.697 126.852C710.519 126.46 711.415 126.264 712.385 126.264ZM736.721 133.908C736.721 134.468 736.684 134.972 736.609 135.42H725.269C725.362 136.54 725.754 137.417 726.445 138.052C727.136 138.687 727.985 139.004 728.993 139.004C730.449 139.004 731.485 138.379 732.101 137.128H736.329C735.881 138.621 735.022 139.853 733.753 140.824C732.484 141.776 730.925 142.252 729.077 142.252C727.584 142.252 726.24 141.925 725.045 141.272C723.869 140.6 722.945 139.657 722.273 138.444C721.62 137.231 721.293 135.831 721.293 134.244C721.293 132.639 721.62 131.229 722.273 130.016C722.926 128.803 723.841 127.869 725.017 127.216C726.193 126.563 727.546 126.236 729.077 126.236C730.552 126.236 731.868 126.553 733.025 127.188C734.201 127.823 735.106 128.728 735.741 129.904C736.394 131.061 736.721 132.396 736.721 133.908ZM732.661 132.788C732.642 131.78 732.278 130.977 731.569 130.38C730.86 129.764 729.992 129.456 728.965 129.456C727.994 129.456 727.173 129.755 726.501 130.352C725.848 130.931 725.446 131.743 725.297 132.788H732.661ZM738.574 134.188C738.574 132.62 738.882 131.229 739.498 130.016C740.133 128.803 740.992 127.869 742.074 127.216C743.157 126.563 744.361 126.236 745.686 126.236C746.694 126.236 747.656 126.46 748.57 126.908C749.485 127.337 750.213 127.916 750.754 128.644V121.28H754.73V142H750.754V139.704C750.269 140.469 749.588 141.085 748.71 141.552C747.833 142.019 746.816 142.252 745.658 142.252C744.352 142.252 743.157 141.916 742.074 141.244C740.992 140.572 740.133 139.629 739.498 138.416C738.882 137.184 738.574 135.775 738.574 134.188ZM750.782 134.244C750.782 133.292 750.596 132.48 750.222 131.808C749.849 131.117 749.345 130.595 748.71 130.24C748.076 129.867 747.394 129.68 746.666 129.68C745.938 129.68 745.266 129.857 744.65 130.212C744.034 130.567 743.53 131.089 743.138 131.78C742.765 132.452 742.578 133.255 742.578 134.188C742.578 135.121 742.765 135.943 743.138 136.652C743.53 137.343 744.034 137.875 744.65 138.248C745.285 138.621 745.957 138.808 746.666 138.808C747.394 138.808 748.076 138.631 748.71 138.276C749.345 137.903 749.849 137.38 750.222 136.708C750.596 136.017 750.782 135.196 750.782 134.244ZM779.483 128.504C779.483 129.549 779.231 130.529 778.727 131.444C778.241 132.359 777.467 133.096 776.403 133.656C775.357 134.216 774.032 134.496 772.427 134.496H769.151V142H765.231V122.456H772.427C773.939 122.456 775.227 122.717 776.291 123.24C777.355 123.763 778.148 124.481 778.671 125.396C779.212 126.311 779.483 127.347 779.483 128.504ZM772.259 131.332C773.341 131.332 774.144 131.089 774.667 130.604C775.189 130.1 775.451 129.4 775.451 128.504C775.451 126.6 774.387 125.648 772.259 125.648H769.151V131.332H772.259ZM781.258 134.188C781.258 132.62 781.566 131.229 782.182 130.016C782.817 128.803 783.666 127.869 784.73 127.216C785.813 126.563 787.017 126.236 788.342 126.236C789.499 126.236 790.507 126.469 791.366 126.936C792.243 127.403 792.943 127.991 793.466 128.7V126.488H797.414V142H793.466V139.732C792.962 140.46 792.262 141.067 791.366 141.552C790.489 142.019 789.471 142.252 788.314 142.252C787.007 142.252 785.813 141.916 784.73 141.244C783.666 140.572 782.817 139.629 782.182 138.416C781.566 137.184 781.258 135.775 781.258 134.188ZM793.466 134.244C793.466 133.292 793.279 132.48 792.906 131.808C792.533 131.117 792.029 130.595 791.394 130.24C790.759 129.867 790.078 129.68 789.35 129.68C788.622 129.68 787.95 129.857 787.334 130.212C786.718 130.567 786.214 131.089 785.822 131.78C785.449 132.452 785.262 133.255 785.262 134.188C785.262 135.121 785.449 135.943 785.822 136.652C786.214 137.343 786.718 137.875 787.334 138.248C787.969 138.621 788.641 138.808 789.35 138.808C790.078 138.808 790.759 138.631 791.394 138.276C792.029 137.903 792.533 137.38 792.906 136.708C793.279 136.017 793.466 135.196 793.466 134.244ZM805.163 128.896C805.667 128.075 806.32 127.431 807.123 126.964C807.944 126.497 808.877 126.264 809.923 126.264V130.38H808.887C807.655 130.38 806.721 130.669 806.087 131.248C805.471 131.827 805.163 132.835 805.163 134.272V142H801.243V126.488H805.163V128.896ZM817.127 129.708V137.212C817.127 137.735 817.248 138.117 817.491 138.36C817.752 138.584 818.182 138.696 818.779 138.696H820.599V142H818.135C814.831 142 813.179 140.395 813.179 137.184V129.708H811.331V126.488H813.179V122.652H817.127V126.488H820.599V129.708H817.127ZM832.014 126.264C833.862 126.264 835.356 126.852 836.494 128.028C837.633 129.185 838.202 130.809 838.202 132.9V142H834.282V133.432C834.282 132.2 833.974 131.257 833.358 130.604C832.742 129.932 831.902 129.596 830.838 129.596C829.756 129.596 828.897 129.932 828.262 130.604C827.646 131.257 827.338 132.2 827.338 133.432V142H823.418V126.488H827.338V128.42C827.861 127.748 828.524 127.225 829.326 126.852C830.148 126.46 831.044 126.264 832.014 126.264ZM856.35 133.908C856.35 134.468 856.313 134.972 856.238 135.42H844.898C844.991 136.54 845.383 137.417 846.074 138.052C846.765 138.687 847.614 139.004 848.622 139.004C850.078 139.004 851.114 138.379 851.73 137.128H855.958C855.51 138.621 854.651 139.853 853.382 140.824C852.113 141.776 850.554 142.252 848.706 142.252C847.213 142.252 845.869 141.925 844.674 141.272C843.498 140.6 842.574 139.657 841.902 138.444C841.249 137.231 840.922 135.831 840.922 134.244C840.922 132.639 841.249 131.229 841.902 130.016C842.555 128.803 843.47 127.869 844.646 127.216C845.822 126.563 847.175 126.236 848.706 126.236C850.181 126.236 851.497 126.553 852.654 127.188C853.83 127.823 854.735 128.728 855.37 129.904C856.023 131.061 856.35 132.396 856.35 133.908ZM852.29 132.788C852.271 131.78 851.907 130.977 851.198 130.38C850.489 129.764 849.621 129.456 848.594 129.456C847.623 129.456 846.802 129.755 846.13 130.352C845.477 130.931 845.075 131.743 844.926 132.788H852.29ZM863.131 128.896C863.635 128.075 864.289 127.431 865.091 126.964C865.913 126.497 866.846 126.264 867.891 126.264V130.38H866.855C865.623 130.38 864.69 130.669 864.055 131.248C863.439 131.827 863.131 132.835 863.131 134.272V142H859.211V126.488H863.131V128.896ZM876.468 142.252C875.198 142.252 874.06 142.028 873.052 141.58C872.044 141.113 871.241 140.488 870.644 139.704C870.065 138.92 869.748 138.052 869.692 137.1H873.64C873.714 137.697 874.004 138.192 874.508 138.584C875.03 138.976 875.674 139.172 876.44 139.172C877.186 139.172 877.765 139.023 878.176 138.724C878.605 138.425 878.82 138.043 878.82 137.576C878.82 137.072 878.558 136.699 878.036 136.456C877.532 136.195 876.72 135.915 875.6 135.616C874.442 135.336 873.49 135.047 872.744 134.748C872.016 134.449 871.381 133.992 870.84 133.376C870.317 132.76 870.056 131.929 870.056 130.884C870.056 130.025 870.298 129.241 870.784 128.532C871.288 127.823 871.997 127.263 872.912 126.852C873.845 126.441 874.937 126.236 876.188 126.236C878.036 126.236 879.51 126.703 880.612 127.636C881.713 128.551 882.32 129.792 882.432 131.36H878.68C878.624 130.744 878.362 130.259 877.896 129.904C877.448 129.531 876.841 129.344 876.076 129.344C875.366 129.344 874.816 129.475 874.424 129.736C874.05 129.997 873.864 130.361 873.864 130.828C873.864 131.351 874.125 131.752 874.648 132.032C875.17 132.293 875.982 132.564 877.084 132.844C878.204 133.124 879.128 133.413 879.856 133.712C880.584 134.011 881.209 134.477 881.732 135.112C882.273 135.728 882.553 136.549 882.572 137.576C882.572 138.472 882.32 139.275 881.816 139.984C881.33 140.693 880.621 141.253 879.688 141.664C878.773 142.056 877.7 142.252 876.468 142.252Z" fill="#2D2A2E"/>
<path opacity="0.9" d="M503.709 174.848L500.477 186H498.845L496.253 177.024L493.565 186L491.949 186.016L488.829 174.848H490.381L492.813 184.304L495.501 174.848H497.133L499.693 184.272L502.141 174.848H503.709ZM513.302 181.28C513.302 181.557 513.286 181.851 513.254 182.16H506.246C506.3 183.024 506.593 183.701 507.126 184.192C507.67 184.672 508.326 184.912 509.094 184.912C509.724 184.912 510.246 184.768 510.662 184.48C511.089 184.181 511.388 183.787 511.558 183.296H513.126C512.892 184.139 512.422 184.827 511.718 185.36C511.014 185.883 510.14 186.144 509.094 186.144C508.262 186.144 507.516 185.957 506.854 185.584C506.204 185.211 505.692 184.683 505.318 184C504.945 183.307 504.758 182.507 504.758 181.6C504.758 180.693 504.94 179.899 505.302 179.216C505.665 178.533 506.172 178.011 506.822 177.648C507.484 177.275 508.241 177.088 509.094 177.088C509.926 177.088 510.662 177.269 511.302 177.632C511.942 177.995 512.433 178.496 512.774 179.136C513.126 179.765 513.302 180.48 513.302 181.28ZM511.798 180.976C511.798 180.421 511.676 179.947 511.43 179.552C511.185 179.147 510.849 178.843 510.422 178.64C510.006 178.427 509.542 178.32 509.03 178.32C508.294 178.32 507.665 178.555 507.142 179.024C506.63 179.493 506.337 180.144 506.262 180.976H511.798ZM515.448 174.848H517.064L515.528 178.48H514.504L515.448 174.848ZM521.988 184.656L524.708 177.232H526.26L522.82 186H521.124L517.684 177.232H519.252L521.988 184.656ZM535.693 181.28C535.693 181.557 535.677 181.851 535.645 182.16H528.637C528.69 183.024 528.984 183.701 529.517 184.192C530.061 184.672 530.717 184.912 531.485 184.912C532.114 184.912 532.637 184.768 533.053 184.48C533.48 184.181 533.778 183.787 533.949 183.296H535.517C535.282 184.139 534.813 184.827 534.109 185.36C533.405 185.883 532.53 186.144 531.485 186.144C530.653 186.144 529.906 185.957 529.245 185.584C528.594 185.211 528.082 184.683 527.709 184C527.336 183.307 527.149 182.507 527.149 181.6C527.149 180.693 527.33 179.899 527.693 179.216C528.056 178.533 528.562 178.011 529.213 177.648C529.874 177.275 530.632 177.088 531.485 177.088C532.317 177.088 533.053 177.269 533.693 177.632C534.333 177.995 534.824 178.496 535.165 179.136C535.517 179.765 535.693 180.48 535.693 181.28ZM534.189 180.976C534.189 180.421 534.066 179.947 533.821 179.552C533.576 179.147 533.24 178.843 532.813 178.64C532.397 178.427 531.933 178.32 531.421 178.32C530.685 178.32 530.056 178.555 529.533 179.024C529.021 179.493 528.728 180.144 528.653 180.976H534.189ZM546.232 177.072C546.894 177.072 547.491 177.216 548.024 177.504C548.558 177.781 548.974 178.203 549.272 178.768C549.582 179.333 549.736 180.021 549.736 180.832V186H548.296V181.04C548.296 180.165 548.078 179.499 547.64 179.04C547.203 178.571 546.606 178.336 545.848 178.336C545.08 178.336 544.467 178.576 544.008 179.056C543.56 179.536 543.336 180.235 543.336 181.152V186H541.88V174.16H543.336V178.48C543.624 178.032 544.019 177.685 544.52 177.44C545.032 177.195 545.603 177.072 546.232 177.072ZM552.867 175.808C552.589 175.808 552.355 175.712 552.163 175.52C551.971 175.328 551.875 175.093 551.875 174.816C551.875 174.539 551.971 174.304 552.163 174.112C552.355 173.92 552.589 173.824 552.867 173.824C553.133 173.824 553.357 173.92 553.539 174.112C553.731 174.304 553.827 174.539 553.827 174.816C553.827 175.093 553.731 175.328 553.539 175.52C553.357 175.712 553.133 175.808 552.867 175.808ZM553.571 177.232V186H552.115V177.232H553.571ZM559.668 177.088C560.426 177.088 561.087 177.253 561.652 177.584C562.228 177.915 562.655 178.331 562.932 178.832V177.232H564.404V186.192C564.404 186.992 564.234 187.701 563.892 188.32C563.551 188.949 563.06 189.44 562.42 189.792C561.791 190.144 561.055 190.32 560.212 190.32C559.06 190.32 558.1 190.048 557.332 189.504C556.564 188.96 556.111 188.219 555.972 187.28H557.412C557.572 187.813 557.903 188.24 558.404 188.56C558.906 188.891 559.508 189.056 560.212 189.056C561.012 189.056 561.663 188.805 562.164 188.304C562.676 187.803 562.932 187.099 562.932 186.192V184.352C562.644 184.864 562.218 185.291 561.652 185.632C561.087 185.973 560.426 186.144 559.668 186.144C558.89 186.144 558.18 185.952 557.54 185.568C556.911 185.184 556.415 184.645 556.052 183.952C555.69 183.259 555.508 182.469 555.508 181.584C555.508 180.688 555.69 179.904 556.052 179.232C556.415 178.549 556.911 178.021 557.54 177.648C558.18 177.275 558.89 177.088 559.668 177.088ZM562.932 181.6C562.932 180.939 562.799 180.363 562.532 179.872C562.266 179.381 561.903 179.008 561.444 178.752C560.996 178.485 560.5 178.352 559.956 178.352C559.412 178.352 558.916 178.48 558.468 178.736C558.02 178.992 557.663 179.365 557.396 179.856C557.13 180.347 556.996 180.923 556.996 181.584C556.996 182.256 557.13 182.843 557.396 183.344C557.663 183.835 558.02 184.213 558.468 184.48C558.916 184.736 559.412 184.864 559.956 184.864C560.5 184.864 560.996 184.736 561.444 184.48C561.903 184.213 562.266 183.835 562.532 183.344C562.799 182.843 562.932 182.261 562.932 181.6ZM571.217 177.072C571.878 177.072 572.475 177.216 573.009 177.504C573.542 177.781 573.958 178.203 574.257 178.768C574.566 179.333 574.721 180.021 574.721 180.832V186H573.281V181.04C573.281 180.165 573.062 179.499 572.625 179.04C572.187 178.571 571.59 178.336 570.833 178.336C570.065 178.336 569.451 178.576 568.993 179.056C568.545 179.536 568.321 180.235 568.321 181.152V186H566.865V174.16H568.321V178.48C568.609 178.032 569.003 177.685 569.505 177.44C570.017 177.195 570.587 177.072 571.217 177.072ZM578.555 174.16V186H577.099V174.16H578.555ZM588.589 177.232L583.309 190.128H581.805L583.533 185.904L579.997 177.232H581.613L584.365 184.336L587.085 177.232H588.589ZM596.094 178.432V183.6C596.094 184.027 596.185 184.331 596.366 184.512C596.547 184.683 596.862 184.768 597.31 184.768H598.382V186H597.07C596.259 186 595.651 185.813 595.246 185.44C594.841 185.067 594.638 184.453 594.638 183.6V178.432H593.502V177.232H594.638V175.024H596.094V177.232H598.382V178.432H596.094ZM601.602 178.656C601.858 178.155 602.221 177.765 602.69 177.488C603.17 177.211 603.751 177.072 604.434 177.072V178.576H604.05C602.418 178.576 601.602 179.461 601.602 181.232V186H600.146V177.232H601.602V178.656ZM605.571 181.584C605.571 180.688 605.752 179.904 606.115 179.232C606.477 178.549 606.973 178.021 607.603 177.648C608.243 177.275 608.952 177.088 609.731 177.088C610.499 177.088 611.165 177.253 611.731 177.584C612.296 177.915 612.717 178.331 612.995 178.832V177.232H614.467V186H612.995V184.368C612.707 184.88 612.275 185.307 611.699 185.648C611.133 185.979 610.472 186.144 609.715 186.144C608.936 186.144 608.232 185.952 607.603 185.568C606.973 185.184 606.477 184.645 606.115 183.952C605.752 183.259 605.571 182.469 605.571 181.584ZM612.995 181.6C612.995 180.939 612.861 180.363 612.595 179.872C612.328 179.381 611.965 179.008 611.507 178.752C611.059 178.485 610.563 178.352 610.019 178.352C609.475 178.352 608.979 178.48 608.531 178.736C608.083 178.992 607.725 179.365 607.459 179.856C607.192 180.347 607.059 180.923 607.059 181.584C607.059 182.256 607.192 182.843 607.459 183.344C607.725 183.835 608.083 184.213 608.531 184.48C608.979 184.736 609.475 184.864 610.019 184.864C610.563 184.864 611.059 184.736 611.507 184.48C611.965 184.213 612.328 183.835 612.595 183.344C612.861 182.843 612.995 182.261 612.995 181.6ZM617.679 175.808C617.402 175.808 617.167 175.712 616.975 175.52C616.783 175.328 616.687 175.093 616.687 174.816C616.687 174.539 616.783 174.304 616.975 174.112C617.167 173.92 617.402 173.824 617.679 173.824C617.946 173.824 618.17 173.92 618.351 174.112C618.543 174.304 618.639 174.539 618.639 174.816C618.639 175.093 618.543 175.328 618.351 175.52C618.17 175.712 617.946 175.808 617.679 175.808ZM618.383 177.232V186H616.927V177.232H618.383ZM625.137 177.072C626.203 177.072 627.067 177.397 627.729 178.048C628.39 178.688 628.721 179.616 628.721 180.832V186H627.281V181.04C627.281 180.165 627.062 179.499 626.625 179.04C626.187 178.571 625.59 178.336 624.833 178.336C624.065 178.336 623.451 178.576 622.993 179.056C622.545 179.536 622.321 180.235 622.321 181.152V186H620.865V177.232H622.321V178.48C622.609 178.032 622.998 177.685 623.489 177.44C623.99 177.195 624.539 177.072 625.137 177.072ZM639.099 181.28C639.099 181.557 639.083 181.851 639.051 182.16H632.043C632.097 183.024 632.39 183.701 632.923 184.192C633.467 184.672 634.123 184.912 634.891 184.912C635.521 184.912 636.043 184.768 636.459 184.48C636.886 184.181 637.185 183.787 637.355 183.296H638.923C638.689 184.139 638.219 184.827 637.515 185.36C636.811 185.883 635.937 186.144 634.891 186.144C634.059 186.144 633.313 185.957 632.651 185.584C632.001 185.211 631.489 184.683 631.115 184C630.742 183.307 630.555 182.507 630.555 181.6C630.555 180.693 630.737 179.899 631.099 179.216C631.462 178.533 631.969 178.011 632.619 177.648C633.281 177.275 634.038 177.088 634.891 177.088C635.723 177.088 636.459 177.269 637.099 177.632C637.739 177.995 638.23 178.496 638.571 179.136C638.923 179.765 639.099 180.48 639.099 181.28ZM637.595 180.976C637.595 180.421 637.473 179.947 637.227 179.552C636.982 179.147 636.646 178.843 636.219 178.64C635.803 178.427 635.339 178.32 634.827 178.32C634.091 178.32 633.462 178.555 632.939 179.024C632.427 179.493 632.134 180.144 632.059 180.976H637.595ZM640.477 181.584C640.477 180.688 640.658 179.904 641.021 179.232C641.384 178.549 641.88 178.021 642.509 177.648C643.149 177.275 643.864 177.088 644.653 177.088C645.336 177.088 645.97 177.248 646.557 177.568C647.144 177.877 647.592 178.288 647.901 178.8V174.16H649.373V186H647.901V184.352C647.613 184.875 647.186 185.307 646.621 185.648C646.056 185.979 645.394 186.144 644.637 186.144C643.858 186.144 643.149 185.952 642.509 185.568C641.88 185.184 641.384 184.645 641.021 183.952C640.658 183.259 640.477 182.469 640.477 181.584ZM647.901 181.6C647.901 180.939 647.768 180.363 647.501 179.872C647.234 179.381 646.872 179.008 646.413 178.752C645.965 178.485 645.469 178.352 644.925 178.352C644.381 178.352 643.885 178.48 643.437 178.736C642.989 178.992 642.632 179.365 642.365 179.856C642.098 180.347 641.965 180.923 641.965 181.584C641.965 182.256 642.098 182.843 642.365 183.344C642.632 183.835 642.989 184.213 643.437 184.48C643.885 184.736 644.381 184.864 644.925 184.864C645.469 184.864 645.965 184.736 646.413 184.48C646.872 184.213 647.234 183.835 647.501 183.344C647.768 182.843 647.901 182.261 647.901 181.6ZM657.555 178.848C657.843 178.347 658.27 177.931 658.835 177.6C659.411 177.259 660.078 177.088 660.835 177.088C661.614 177.088 662.318 177.275 662.947 177.648C663.587 178.021 664.089 178.549 664.451 179.232C664.814 179.904 664.995 180.688 664.995 181.584C664.995 182.469 664.814 183.259 664.451 183.952C664.089 184.645 663.587 185.184 662.947 185.568C662.318 185.952 661.614 186.144 660.835 186.144C660.089 186.144 659.427 185.979 658.851 185.648C658.286 185.307 657.854 184.885 657.555 184.384V190.16H656.099V177.232H657.555V178.848ZM663.507 181.584C663.507 180.923 663.374 180.347 663.107 179.856C662.841 179.365 662.478 178.992 662.019 178.736C661.571 178.48 661.075 178.352 660.531 178.352C659.998 178.352 659.502 178.485 659.043 178.752C658.595 179.008 658.233 179.387 657.955 179.888C657.689 180.379 657.555 180.949 657.555 181.6C657.555 182.261 657.689 182.843 657.955 183.344C658.233 183.835 658.595 184.213 659.043 184.48C659.502 184.736 659.998 184.864 660.531 184.864C661.075 184.864 661.571 184.736 662.019 184.48C662.478 184.213 662.841 183.835 663.107 183.344C663.374 182.843 663.507 182.256 663.507 181.584ZM666.368 181.584C666.368 180.688 666.549 179.904 666.912 179.232C667.274 178.549 667.77 178.021 668.4 177.648C669.04 177.275 669.749 177.088 670.528 177.088C671.296 177.088 671.962 177.253 672.528 177.584C673.093 177.915 673.514 178.331 673.792 178.832V177.232H675.264V186H673.792V184.368C673.504 184.88 673.072 185.307 672.496 185.648C671.93 185.979 671.269 186.144 670.512 186.144C669.733 186.144 669.029 185.952 668.4 185.568C667.77 185.184 667.274 184.645 666.912 183.952C666.549 183.259 666.368 182.469 666.368 181.584ZM673.792 181.6C673.792 180.939 673.658 180.363 673.392 179.872C673.125 179.381 672.762 179.008 672.304 178.752C671.856 178.485 671.36 178.352 670.816 178.352C670.272 178.352 669.776 178.48 669.328 178.736C668.88 178.992 668.522 179.365 668.256 179.856C667.989 180.347 667.856 180.923 667.856 181.584C667.856 182.256 667.989 182.843 668.256 183.344C668.522 183.835 668.88 184.213 669.328 184.48C669.776 184.736 670.272 184.864 670.816 184.864C671.36 184.864 671.856 184.736 672.304 184.48C672.762 184.213 673.125 183.835 673.392 183.344C673.658 182.843 673.792 182.261 673.792 181.6ZM679.18 178.656C679.436 178.155 679.799 177.765 680.268 177.488C680.748 177.211 681.33 177.072 682.012 177.072V178.576H681.628C679.996 178.576 679.18 179.461 679.18 181.232V186H677.724V177.232H679.18V178.656ZM685.469 178.432V183.6C685.469 184.027 685.56 184.331 685.741 184.512C685.922 184.683 686.237 184.768 686.685 184.768H687.757V186H686.445C685.634 186 685.026 185.813 684.621 185.44C684.216 185.067 684.013 184.453 684.013 183.6V178.432H682.877V177.232H684.013V175.024H685.469V177.232H687.757V178.432H685.469ZM693.793 177.072C694.86 177.072 695.724 177.397 696.385 178.048C697.046 178.688 697.377 179.616 697.377 180.832V186H695.937V181.04C695.937 180.165 695.718 179.499 695.281 179.04C694.844 178.571 694.246 178.336 693.489 178.336C692.721 178.336 692.108 178.576 691.649 179.056C691.201 179.536 690.977 180.235 690.977 181.152V186H689.521V177.232H690.977V178.48C691.265 178.032 691.654 177.685 692.145 177.44C692.646 177.195 693.196 177.072 693.793 177.072ZM707.755 181.28C707.755 181.557 707.739 181.851 707.707 182.16H700.699C700.753 183.024 701.046 183.701 701.579 184.192C702.123 184.672 702.779 184.912 703.547 184.912C704.177 184.912 704.699 184.768 705.115 184.48C705.542 184.181 705.841 183.787 706.011 183.296H707.579C707.345 184.139 706.875 184.827 706.171 185.36C705.467 185.883 704.593 186.144 703.547 186.144C702.715 186.144 701.969 185.957 701.307 185.584C700.657 185.211 700.145 184.683 699.771 184C699.398 183.307 699.211 182.507 699.211 181.6C699.211 180.693 699.393 179.899 699.755 179.216C700.118 178.533 700.625 178.011 701.275 177.648C701.937 177.275 702.694 177.088 703.547 177.088C704.379 177.088 705.115 177.269 705.755 177.632C706.395 177.995 706.886 178.496 707.227 179.136C707.579 179.765 707.755 180.48 707.755 181.28ZM706.251 180.976C706.251 180.421 706.129 179.947 705.883 179.552C705.638 179.147 705.302 178.843 704.875 178.64C704.459 178.427 703.995 178.32 703.483 178.32C702.747 178.32 702.118 178.555 701.595 179.024C701.083 179.493 700.79 180.144 700.715 180.976H706.251ZM711.133 178.656C711.389 178.155 711.752 177.765 712.221 177.488C712.701 177.211 713.283 177.072 713.965 177.072V178.576H713.581C711.949 178.576 711.133 179.461 711.133 181.232V186H709.677V177.232H711.133V178.656ZM718.75 186.144C718.078 186.144 717.475 186.032 716.942 185.808C716.409 185.573 715.987 185.253 715.678 184.848C715.369 184.432 715.198 183.957 715.166 183.424H716.67C716.713 183.861 716.915 184.219 717.278 184.496C717.651 184.773 718.137 184.912 718.734 184.912C719.289 184.912 719.726 184.789 720.046 184.544C720.366 184.299 720.526 183.989 720.526 183.616C720.526 183.232 720.355 182.949 720.014 182.768C719.673 182.576 719.145 182.389 718.43 182.208C717.779 182.037 717.246 181.867 716.83 181.696C716.425 181.515 716.073 181.253 715.774 180.912C715.486 180.56 715.342 180.101 715.342 179.536C715.342 179.088 715.475 178.677 715.742 178.304C716.009 177.931 716.387 177.637 716.878 177.424C717.369 177.2 717.929 177.088 718.558 177.088C719.529 177.088 720.313 177.333 720.91 177.824C721.507 178.315 721.827 178.987 721.87 179.84H720.414C720.382 179.381 720.195 179.013 719.854 178.736C719.523 178.459 719.075 178.32 718.51 178.32C717.987 178.32 717.571 178.432 717.262 178.656C716.953 178.88 716.798 179.173 716.798 179.536C716.798 179.824 716.889 180.064 717.07 180.256C717.262 180.437 717.497 180.587 717.774 180.704C718.062 180.811 718.457 180.933 718.958 181.072C719.587 181.243 720.099 181.413 720.494 181.584C720.889 181.744 721.225 181.989 721.502 182.32C721.79 182.651 721.939 183.083 721.95 183.616C721.95 184.096 721.817 184.528 721.55 184.912C721.283 185.296 720.905 185.6 720.414 185.824C719.934 186.037 719.379 186.144 718.75 186.144ZM724.469 186.096C724.192 186.096 723.957 186 723.765 185.808C723.573 185.616 723.477 185.381 723.477 185.104C723.477 184.827 723.573 184.592 723.765 184.4C723.957 184.208 724.192 184.112 724.469 184.112C724.736 184.112 724.96 184.208 725.141 184.4C725.333 184.592 725.429 184.827 725.429 185.104C725.429 185.381 725.333 185.616 725.141 185.808C724.96 186 724.736 186.096 724.469 186.096ZM735.166 186.112C734.43 186.112 733.769 185.984 733.182 185.728C732.606 185.461 732.153 185.099 731.822 184.64C731.492 184.171 731.321 183.632 731.31 183.024H732.862C732.916 183.547 733.129 183.989 733.502 184.352C733.886 184.704 734.441 184.88 735.166 184.88C735.86 184.88 736.404 184.709 736.798 184.368C737.204 184.016 737.406 183.568 737.406 183.024C737.406 182.597 737.289 182.251 737.054 181.984C736.82 181.717 736.526 181.515 736.174 181.376C735.822 181.237 735.348 181.088 734.75 180.928C734.014 180.736 733.422 180.544 732.974 180.352C732.537 180.16 732.158 179.861 731.838 179.456C731.529 179.04 731.374 178.485 731.374 177.792C731.374 177.184 731.529 176.645 731.838 176.176C732.148 175.707 732.58 175.344 733.134 175.088C733.7 174.832 734.345 174.704 735.07 174.704C736.116 174.704 736.969 174.965 737.63 175.488C738.302 176.011 738.681 176.704 738.766 177.568H737.166C737.113 177.141 736.889 176.768 736.494 176.448C736.1 176.117 735.577 175.952 734.926 175.952C734.318 175.952 733.822 176.112 733.438 176.432C733.054 176.741 732.862 177.179 732.862 177.744C732.862 178.149 732.974 178.48 733.198 178.736C733.433 178.992 733.716 179.189 734.046 179.328C734.388 179.456 734.862 179.605 735.47 179.776C736.206 179.979 736.798 180.181 737.246 180.384C737.694 180.576 738.078 180.88 738.398 181.296C738.718 181.701 738.878 182.256 738.878 182.96C738.878 183.504 738.734 184.016 738.446 184.496C738.158 184.976 737.732 185.365 737.166 185.664C736.601 185.963 735.934 186.112 735.166 186.112ZM741.773 175.808C741.496 175.808 741.261 175.712 741.069 175.52C740.877 175.328 740.781 175.093 740.781 174.816C740.781 174.539 740.877 174.304 741.069 174.112C741.261 173.92 741.496 173.824 741.773 173.824C742.04 173.824 742.264 173.92 742.445 174.112C742.637 174.304 742.733 174.539 742.733 174.816C742.733 175.093 742.637 175.328 742.445 175.52C742.264 175.712 742.04 175.808 741.773 175.808ZM742.477 177.232V186H741.021V177.232H742.477ZM748.575 177.088C749.332 177.088 749.993 177.253 750.559 177.584C751.135 177.915 751.561 178.331 751.839 178.832V177.232H753.311V186.192C753.311 186.992 753.14 187.701 752.799 188.32C752.457 188.949 751.967 189.44 751.327 189.792C750.697 190.144 749.961 190.32 749.119 190.32C747.967 190.32 747.007 190.048 746.239 189.504C745.471 188.96 745.017 188.219 744.879 187.28H746.319C746.479 187.813 746.809 188.24 747.311 188.56C747.812 188.891 748.415 189.056 749.119 189.056C749.919 189.056 750.569 188.805 751.071 188.304C751.583 187.803 751.839 187.099 751.839 186.192V184.352C751.551 184.864 751.124 185.291 750.559 185.632C749.993 185.973 749.332 186.144 748.575 186.144C747.796 186.144 747.087 185.952 746.447 185.568C745.817 185.184 745.321 184.645 744.959 183.952C744.596 183.259 744.415 182.469 744.415 181.584C744.415 180.688 744.596 179.904 744.959 179.232C745.321 178.549 745.817 178.021 746.447 177.648C747.087 177.275 747.796 177.088 748.575 177.088ZM751.839 181.6C751.839 180.939 751.705 180.363 751.439 179.872C751.172 179.381 750.809 179.008 750.351 178.752C749.903 178.485 749.407 178.352 748.863 178.352C748.319 178.352 747.823 178.48 747.375 178.736C746.927 178.992 746.569 179.365 746.303 179.856C746.036 180.347 745.903 180.923 745.903 181.584C745.903 182.256 746.036 182.843 746.303 183.344C746.569 183.835 746.927 184.213 747.375 184.48C747.823 184.736 748.319 184.864 748.863 184.864C749.407 184.864 749.903 184.736 750.351 184.48C750.809 184.213 751.172 183.835 751.439 183.344C751.705 182.843 751.839 182.261 751.839 181.6ZM760.043 177.072C761.11 177.072 761.974 177.397 762.635 178.048C763.296 178.688 763.627 179.616 763.627 180.832V186H762.187V181.04C762.187 180.165 761.968 179.499 761.531 179.04C761.094 178.571 760.496 178.336 759.739 178.336C758.971 178.336 758.358 178.576 757.899 179.056C757.451 179.536 757.227 180.235 757.227 181.152V186H755.771V177.232H757.227V178.48C757.515 178.032 757.904 177.685 758.395 177.44C758.896 177.195 759.446 177.072 760.043 177.072ZM772.085 179.52V180.752H765.701V179.52H772.085ZM782.594 177.232V186H781.138V184.704C780.861 185.152 780.471 185.504 779.97 185.76C779.479 186.005 778.935 186.128 778.338 186.128C777.655 186.128 777.042 185.989 776.498 185.712C775.954 185.424 775.522 184.997 775.202 184.432C774.893 183.867 774.738 183.179 774.738 182.368V177.232H776.178V182.176C776.178 183.04 776.397 183.707 776.834 184.176C777.271 184.635 777.869 184.864 778.626 184.864C779.405 184.864 780.018 184.624 780.466 184.144C780.914 183.664 781.138 182.965 781.138 182.048V177.232H782.594ZM786.508 178.848C786.796 178.347 787.223 177.931 787.788 177.6C788.364 177.259 789.031 177.088 789.788 177.088C790.567 177.088 791.271 177.275 791.9 177.648C792.54 178.021 793.042 178.549 793.404 179.232C793.767 179.904 793.948 180.688 793.948 181.584C793.948 182.469 793.767 183.259 793.404 183.952C793.042 184.645 792.54 185.184 791.9 185.568C791.271 185.952 790.567 186.144 789.788 186.144C789.042 186.144 788.38 185.979 787.804 185.648C787.239 185.307 786.807 184.885 786.508 184.384V190.16H785.052V177.232H786.508V178.848ZM792.46 181.584C792.46 180.923 792.327 180.347 792.06 179.856C791.794 179.365 791.431 178.992 790.972 178.736C790.524 178.48 790.028 178.352 789.484 178.352C788.951 178.352 788.455 178.485 787.996 178.752C787.548 179.008 787.186 179.387 786.908 179.888C786.642 180.379 786.508 180.949 786.508 181.6C786.508 182.261 786.642 182.843 786.908 183.344C787.186 183.835 787.548 184.213 787.996 184.48C788.455 184.736 788.951 184.864 789.484 184.864C790.028 184.864 790.524 184.736 790.972 184.48C791.431 184.213 791.794 183.835 792.06 183.344C792.327 182.843 792.46 182.256 792.46 181.584ZM800.882 175.808C800.605 175.808 800.37 175.712 800.178 175.52C799.986 175.328 799.89 175.093 799.89 174.816C799.89 174.539 799.986 174.304 800.178 174.112C800.37 173.92 800.605 173.824 800.882 173.824C801.149 173.824 801.373 173.92 801.554 174.112C801.746 174.304 801.842 174.539 801.842 174.816C801.842 175.093 801.746 175.328 801.554 175.52C801.373 175.712 801.149 175.808 800.882 175.808ZM801.586 177.232V186H800.13V177.232H801.586ZM808.34 177.072C809.407 177.072 810.271 177.397 810.932 178.048C811.593 178.688 811.924 179.616 811.924 180.832V186H810.484V181.04C810.484 180.165 810.265 179.499 809.828 179.04C809.391 178.571 808.793 178.336 808.036 178.336C807.268 178.336 806.655 178.576 806.196 179.056C805.748 179.536 805.524 180.235 805.524 181.152V186H804.068V177.232H805.524V178.48C805.812 178.032 806.201 177.685 806.692 177.44C807.193 177.195 807.743 177.072 808.34 177.072ZM829.112 177.072C829.795 177.072 830.403 177.216 830.936 177.504C831.469 177.781 831.891 178.203 832.2 178.768C832.509 179.333 832.664 180.021 832.664 180.832V186H831.224V181.04C831.224 180.165 831.005 179.499 830.568 179.04C830.141 178.571 829.56 178.336 828.824 178.336C828.067 178.336 827.464 178.581 827.016 179.072C826.568 179.552 826.344 180.251 826.344 181.168V186H824.904V181.04C824.904 180.165 824.685 179.499 824.248 179.04C823.821 178.571 823.24 178.336 822.504 178.336C821.747 178.336 821.144 178.581 820.696 179.072C820.248 179.552 820.024 180.251 820.024 181.168V186H818.568V177.232H820.024V178.496C820.312 178.037 820.696 177.685 821.176 177.44C821.667 177.195 822.205 177.072 822.792 177.072C823.528 177.072 824.179 177.237 824.744 177.568C825.309 177.899 825.731 178.384 826.008 179.024C826.253 178.405 826.659 177.925 827.224 177.584C827.789 177.243 828.419 177.072 829.112 177.072ZM835.804 175.808C835.527 175.808 835.292 175.712 835.1 175.52C834.908 175.328 834.812 175.093 834.812 174.816C834.812 174.539 834.908 174.304 835.1 174.112C835.292 173.92 835.527 173.824 835.804 173.824C836.071 173.824 836.295 173.92 836.476 174.112C836.668 174.304 836.764 174.539 836.764 174.816C836.764 175.093 836.668 175.328 836.476 175.52C836.295 175.712 836.071 175.808 835.804 175.808ZM836.508 177.232V186H835.052V177.232H836.508ZM843.262 177.072C844.328 177.072 845.192 177.397 845.854 178.048C846.515 178.688 846.846 179.616 846.846 180.832V186H845.406V181.04C845.406 180.165 845.187 179.499 844.75 179.04C844.312 178.571 843.715 178.336 842.958 178.336C842.19 178.336 841.576 178.576 841.118 179.056C840.67 179.536 840.446 180.235 840.446 181.152V186H838.99V177.232H840.446V178.48C840.734 178.032 841.123 177.685 841.614 177.44C842.115 177.195 842.664 177.072 843.262 177.072ZM857 177.232V186H855.544V184.704C855.267 185.152 854.878 185.504 854.376 185.76C853.886 186.005 853.342 186.128 852.744 186.128C852.062 186.128 851.448 185.989 850.904 185.712C850.36 185.424 849.928 184.997 849.608 184.432C849.299 183.867 849.144 183.179 849.144 182.368V177.232H850.584V182.176C850.584 183.04 850.803 183.707 851.24 184.176C851.678 184.635 852.275 184.864 853.032 184.864C853.811 184.864 854.424 184.624 854.872 184.144C855.32 183.664 855.544 182.965 855.544 182.048V177.232H857ZM861.235 178.432V183.6C861.235 184.027 861.325 184.331 861.507 184.512C861.688 184.683 862.003 184.768 862.451 184.768H863.523V186H862.211C861.4 186 860.792 185.813 860.387 185.44C859.981 185.067 859.779 184.453 859.779 183.6V178.432H858.643V177.232H859.779V175.024H861.235V177.232H863.523V178.432H861.235ZM873.287 181.28C873.287 181.557 873.271 181.851 873.239 182.16H866.231C866.284 183.024 866.577 183.701 867.111 184.192C867.655 184.672 868.311 184.912 869.079 184.912C869.708 184.912 870.231 184.768 870.647 184.48C871.073 184.181 871.372 183.787 871.543 183.296H873.111C872.876 184.139 872.407 184.827 871.703 185.36C870.999 185.883 870.124 186.144 869.079 186.144C868.247 186.144 867.5 185.957 866.839 185.584C866.188 185.211 865.676 184.683 865.303 184C864.929 183.307 864.743 182.507 864.743 181.6C864.743 180.693 864.924 179.899 865.287 179.216C865.649 178.533 866.156 178.011 866.807 177.648C867.468 177.275 868.225 177.088 869.079 177.088C869.911 177.088 870.647 177.269 871.287 177.632C871.927 177.995 872.417 178.496 872.759 179.136C873.111 179.765 873.287 180.48 873.287 181.28ZM871.783 180.976C871.783 180.421 871.66 179.947 871.415 179.552C871.169 179.147 870.833 178.843 870.407 178.64C869.991 178.427 869.527 178.32 869.015 178.32C868.279 178.32 867.649 178.555 867.127 179.024C866.615 179.493 866.321 180.144 866.247 180.976H871.783ZM878.313 186.144C877.641 186.144 877.038 186.032 876.505 185.808C875.971 185.573 875.55 185.253 875.241 184.848C874.931 184.432 874.761 183.957 874.729 183.424H876.233C876.275 183.861 876.478 184.219 876.841 184.496C877.214 184.773 877.699 184.912 878.297 184.912C878.851 184.912 879.289 184.789 879.609 184.544C879.929 184.299 880.089 183.989 880.089 183.616C880.089 183.232 879.918 182.949 879.577 182.768C879.235 182.576 878.707 182.389 877.993 182.208C877.342 182.037 876.809 181.867 876.393 181.696C875.987 181.515 875.635 181.253 875.337 180.912C875.049 180.56 874.905 180.101 874.905 179.536C874.905 179.088 875.038 178.677 875.305 178.304C875.571 177.931 875.95 177.637 876.441 177.424C876.931 177.2 877.491 177.088 878.121 177.088C879.091 177.088 879.875 177.333 880.473 177.824C881.07 178.315 881.39 178.987 881.433 179.84H879.977C879.945 179.381 879.758 179.013 879.417 178.736C879.086 178.459 878.638 178.32 878.073 178.32C877.55 178.32 877.134 178.432 876.825 178.656C876.515 178.88 876.361 179.173 876.361 179.536C876.361 179.824 876.451 180.064 876.633 180.256C876.825 180.437 877.059 180.587 877.337 180.704C877.625 180.811 878.019 180.933 878.521 181.072C879.15 181.243 879.662 181.413 880.057 181.584C880.451 181.744 880.787 181.989 881.065 182.32C881.353 182.651 881.502 183.083 881.513 183.616C881.513 184.096 881.379 184.528 881.113 184.912C880.846 185.296 880.467 185.6 879.977 185.824C879.497 186.037 878.942 186.144 878.313 186.144ZM885.072 183.984L883.28 188.288H882.304L883.472 183.984H885.072ZM892.461 178.864C892.76 178.341 893.197 177.915 893.773 177.584C894.349 177.253 895.005 177.088 895.741 177.088C896.531 177.088 897.24 177.275 897.869 177.648C898.499 178.021 898.995 178.549 899.357 179.232C899.72 179.904 899.901 180.688 899.901 181.584C899.901 182.469 899.72 183.259 899.357 183.952C898.995 184.645 898.493 185.184 897.853 185.568C897.224 185.952 896.52 186.144 895.741 186.144C894.984 186.144 894.317 185.979 893.741 185.648C893.176 185.317 892.749 184.896 892.461 184.384V186H891.005V174.16H892.461V178.864ZM898.413 181.584C898.413 180.923 898.28 180.347 898.013 179.856C897.747 179.365 897.384 178.992 896.925 178.736C896.477 178.48 895.981 178.352 895.437 178.352C894.904 178.352 894.408 178.485 893.949 178.752C893.501 179.008 893.139 179.387 892.861 179.888C892.595 180.379 892.461 180.949 892.461 181.6C892.461 182.261 892.595 182.843 892.861 183.344C893.139 183.835 893.501 184.213 893.949 184.48C894.408 184.736 894.904 184.864 895.437 184.864C895.981 184.864 896.477 184.736 896.925 184.48C897.384 184.213 897.747 183.835 898.013 183.344C898.28 182.843 898.413 182.256 898.413 181.584ZM909.594 177.232V186H908.138V184.704C907.861 185.152 907.471 185.504 906.97 185.76C906.479 186.005 905.935 186.128 905.338 186.128C904.655 186.128 904.042 185.989 903.498 185.712C902.954 185.424 902.522 184.997 902.202 184.432C901.893 183.867 901.738 183.179 901.738 182.368V177.232H903.178V182.176C903.178 183.04 903.397 183.707 903.834 184.176C904.271 184.635 904.869 184.864 905.626 184.864C906.405 184.864 907.018 184.624 907.466 184.144C907.914 183.664 908.138 182.965 908.138 182.048V177.232H909.594ZM919.604 177.232L914.324 190.128H912.82L914.548 185.904L911.012 177.232H912.628L915.38 184.336L918.1 177.232H919.604ZM929.158 186.144C928.336 186.144 927.59 185.957 926.918 185.584C926.256 185.211 925.734 184.683 925.35 184C924.976 183.307 924.79 182.507 924.79 181.6C924.79 180.704 924.982 179.915 925.366 179.232C925.76 178.539 926.294 178.011 926.966 177.648C927.638 177.275 928.39 177.088 929.222 177.088C930.054 177.088 930.806 177.275 931.478 177.648C932.15 178.011 932.678 178.533 933.062 179.216C933.456 179.899 933.654 180.693 933.654 181.6C933.654 182.507 933.451 183.307 933.046 184C932.651 184.683 932.112 185.211 931.43 185.584C930.747 185.957 929.99 186.144 929.158 186.144ZM929.158 184.864C929.68 184.864 930.171 184.741 930.63 184.496C931.088 184.251 931.456 183.883 931.734 183.392C932.022 182.901 932.166 182.304 932.166 181.6C932.166 180.896 932.027 180.299 931.75 179.808C931.472 179.317 931.11 178.955 930.662 178.72C930.214 178.475 929.728 178.352 929.206 178.352C928.672 178.352 928.182 178.475 927.734 178.72C927.296 178.955 926.944 179.317 926.678 179.808C926.411 180.299 926.278 180.896 926.278 181.6C926.278 182.315 926.406 182.917 926.662 183.408C926.928 183.899 927.28 184.267 927.718 184.512C928.155 184.747 928.635 184.864 929.158 184.864ZM943.344 177.232V186H941.888V184.704C941.611 185.152 941.221 185.504 940.72 185.76C940.229 186.005 939.685 186.128 939.088 186.128C938.405 186.128 937.792 185.989 937.248 185.712C936.704 185.424 936.272 184.997 935.952 184.432C935.643 183.867 935.488 183.179 935.488 182.368V177.232H936.928V182.176C936.928 183.04 937.147 183.707 937.584 184.176C938.021 184.635 938.619 184.864 939.376 184.864C940.155 184.864 940.768 184.624 941.216 184.144C941.664 183.664 941.888 182.965 941.888 182.048V177.232H943.344ZM947.258 178.656C947.514 178.155 947.877 177.765 948.346 177.488C948.826 177.211 949.408 177.072 950.09 177.072V178.576H949.706C948.074 178.576 947.258 179.461 947.258 181.232V186H945.802V177.232H947.258V178.656ZM510.352 211.144C509.68 211.144 509.077 211.032 508.544 210.808C508.01 210.573 507.589 210.253 507.28 209.848C506.97 209.432 506.8 208.957 506.768 208.424H508.272C508.314 208.861 508.517 209.219 508.88 209.496C509.253 209.773 509.738 209.912 510.336 209.912C510.89 209.912 511.328 209.789 511.648 209.544C511.968 209.299 512.128 208.989 512.128 208.616C512.128 208.232 511.957 207.949 511.616 207.768C511.274 207.576 510.746 207.389 510.032 207.208C509.381 207.037 508.848 206.867 508.432 206.696C508.026 206.515 507.674 206.253 507.376 205.912C507.088 205.56 506.944 205.101 506.944 204.536C506.944 204.088 507.077 203.677 507.344 203.304C507.61 202.931 507.989 202.637 508.48 202.424C508.97 202.2 509.53 202.088 510.16 202.088C511.13 202.088 511.914 202.333 512.512 202.824C513.109 203.315 513.429 203.987 513.472 204.84H512.016C511.984 204.381 511.797 204.013 511.456 203.736C511.125 203.459 510.677 203.32 510.112 203.32C509.589 203.32 509.173 203.432 508.864 203.656C508.554 203.88 508.4 204.173 508.4 204.536C508.4 204.824 508.49 205.064 508.672 205.256C508.864 205.437 509.098 205.587 509.376 205.704C509.664 205.811 510.058 205.933 510.56 206.072C511.189 206.243 511.701 206.413 512.096 206.584C512.49 206.744 512.826 206.989 513.104 207.32C513.392 207.651 513.541 208.083 513.552 208.616C513.552 209.096 513.418 209.528 513.152 209.912C512.885 210.296 512.506 210.6 512.016 210.824C511.536 211.037 510.981 211.144 510.352 211.144ZM523.383 202.232V211H521.927V209.704C521.65 210.152 521.26 210.504 520.759 210.76C520.268 211.005 519.724 211.128 519.127 211.128C518.444 211.128 517.831 210.989 517.287 210.712C516.743 210.424 516.311 209.997 515.991 209.432C515.682 208.867 515.527 208.179 515.527 207.368V202.232H516.967V207.176C516.967 208.04 517.186 208.707 517.623 209.176C518.06 209.635 518.658 209.864 519.415 209.864C520.194 209.864 520.807 209.624 521.255 209.144C521.703 208.664 521.927 207.965 521.927 207.048V202.232H523.383ZM527.297 203.864C527.596 203.341 528.033 202.915 528.609 202.584C529.185 202.253 529.841 202.088 530.577 202.088C531.367 202.088 532.076 202.275 532.705 202.648C533.335 203.021 533.831 203.549 534.193 204.232C534.556 204.904 534.737 205.688 534.737 206.584C534.737 207.469 534.556 208.259 534.193 208.952C533.831 209.645 533.329 210.184 532.689 210.568C532.06 210.952 531.356 211.144 530.577 211.144C529.82 211.144 529.153 210.979 528.577 210.648C528.012 210.317 527.585 209.896 527.297 209.384V211H525.841V199.16H527.297V203.864ZM533.249 206.584C533.249 205.923 533.116 205.347 532.849 204.856C532.583 204.365 532.22 203.992 531.761 203.736C531.313 203.48 530.817 203.352 530.273 203.352C529.74 203.352 529.244 203.485 528.785 203.752C528.337 204.008 527.975 204.387 527.697 204.888C527.431 205.379 527.297 205.949 527.297 206.6C527.297 207.261 527.431 207.843 527.697 208.344C527.975 208.835 528.337 209.213 528.785 209.48C529.244 209.736 529.74 209.864 530.273 209.864C530.817 209.864 531.313 209.736 531.761 209.48C532.22 209.213 532.583 208.835 532.849 208.344C533.116 207.843 533.249 207.256 533.249 206.584ZM539.758 211.144C539.086 211.144 538.483 211.032 537.95 210.808C537.417 210.573 536.995 210.253 536.686 209.848C536.377 209.432 536.206 208.957 536.174 208.424H537.678C537.721 208.861 537.923 209.219 538.286 209.496C538.659 209.773 539.145 209.912 539.742 209.912C540.297 209.912 540.734 209.789 541.054 209.544C541.374 209.299 541.534 208.989 541.534 208.616C541.534 208.232 541.363 207.949 541.022 207.768C540.681 207.576 540.153 207.389 539.438 207.208C538.787 207.037 538.254 206.867 537.838 206.696C537.433 206.515 537.081 206.253 536.782 205.912C536.494 205.56 536.35 205.101 536.35 204.536C536.35 204.088 536.483 203.677 536.75 203.304C537.017 202.931 537.395 202.637 537.886 202.424C538.377 202.2 538.937 202.088 539.566 202.088C540.537 202.088 541.321 202.333 541.918 202.824C542.515 203.315 542.835 203.987 542.878 204.84H541.422C541.39 204.381 541.203 204.013 540.862 203.736C540.531 203.459 540.083 203.32 539.518 203.32C538.995 203.32 538.579 203.432 538.27 203.656C537.961 203.88 537.806 204.173 537.806 204.536C537.806 204.824 537.897 205.064 538.078 205.256C538.27 205.437 538.505 205.587 538.782 205.704C539.07 205.811 539.465 205.933 539.966 206.072C540.595 206.243 541.107 206.413 541.502 206.584C541.897 206.744 542.233 206.989 542.51 207.32C542.798 207.651 542.947 208.083 542.958 208.616C542.958 209.096 542.825 209.528 542.558 209.912C542.291 210.296 541.913 210.6 541.422 210.824C540.942 211.037 540.387 211.144 539.758 211.144ZM544.469 206.6C544.469 205.693 544.651 204.904 545.013 204.232C545.376 203.549 545.877 203.021 546.517 202.648C547.168 202.275 547.909 202.088 548.741 202.088C549.819 202.088 550.704 202.349 551.397 202.872C552.101 203.395 552.565 204.12 552.789 205.048H551.221C551.072 204.515 550.779 204.093 550.341 203.784C549.915 203.475 549.381 203.32 548.741 203.32C547.909 203.32 547.237 203.608 546.725 204.184C546.213 204.749 545.957 205.555 545.957 206.6C545.957 207.656 546.213 208.472 546.725 209.048C547.237 209.624 547.909 209.912 548.741 209.912C549.381 209.912 549.915 209.763 550.341 209.464C550.768 209.165 551.061 208.739 551.221 208.184H552.789C552.555 209.08 552.085 209.8 551.381 210.344C550.677 210.877 549.797 211.144 548.741 211.144C547.909 211.144 547.168 210.957 546.517 210.584C545.877 210.211 545.376 209.683 545.013 209C544.651 208.317 544.469 207.517 544.469 206.6ZM556.188 203.656C556.444 203.155 556.807 202.765 557.276 202.488C557.756 202.211 558.337 202.072 559.02 202.072V203.576H558.636C557.004 203.576 556.188 204.461 556.188 206.232V211H554.732V202.232H556.188V203.656ZM561.453 200.808C561.175 200.808 560.941 200.712 560.749 200.52C560.557 200.328 560.461 200.093 560.461 199.816C560.461 199.539 560.557 199.304 560.749 199.112C560.941 198.92 561.175 198.824 561.453 198.824C561.719 198.824 561.943 198.92 562.125 199.112C562.317 199.304 562.413 199.539 562.413 199.816C562.413 200.093 562.317 200.328 562.125 200.52C561.943 200.712 561.719 200.808 561.453 200.808ZM562.157 202.232V211H560.701V202.232H562.157ZM566.094 203.848C566.382 203.347 566.809 202.931 567.374 202.6C567.95 202.259 568.617 202.088 569.374 202.088C570.153 202.088 570.857 202.275 571.486 202.648C572.126 203.021 572.628 203.549 572.99 204.232C573.353 204.904 573.534 205.688 573.534 206.584C573.534 207.469 573.353 208.259 572.99 208.952C572.628 209.645 572.126 210.184 571.486 210.568C570.857 210.952 570.153 211.144 569.374 211.144C568.628 211.144 567.966 210.979 567.39 210.648C566.825 210.307 566.393 209.885 566.094 209.384V215.16H564.638V202.232H566.094V203.848ZM572.046 206.584C572.046 205.923 571.913 205.347 571.646 204.856C571.38 204.365 571.017 203.992 570.558 203.736C570.11 203.48 569.614 203.352 569.07 203.352C568.537 203.352 568.041 203.485 567.582 203.752C567.134 204.008 566.772 204.387 566.494 204.888C566.228 205.379 566.094 205.949 566.094 206.6C566.094 207.261 566.228 207.843 566.494 208.344C566.772 208.835 567.134 209.213 567.582 209.48C568.041 209.736 568.537 209.864 569.07 209.864C569.614 209.864 570.11 209.736 570.558 209.48C571.017 209.213 571.38 208.835 571.646 208.344C571.913 207.843 572.046 207.256 572.046 206.584ZM577.227 203.432V208.6C577.227 209.027 577.317 209.331 577.499 209.512C577.68 209.683 577.995 209.768 578.443 209.768H579.515V211H578.203C577.392 211 576.784 210.813 576.379 210.44C575.973 210.067 575.771 209.453 575.771 208.6V203.432H574.635V202.232H575.771V200.024H577.227V202.232H579.515V203.432H577.227ZM582.031 200.808C581.754 200.808 581.519 200.712 581.327 200.52C581.135 200.328 581.039 200.093 581.039 199.816C581.039 199.539 581.135 199.304 581.327 199.112C581.519 198.92 581.754 198.824 582.031 198.824C582.298 198.824 582.522 198.92 582.703 199.112C582.895 199.304 582.991 199.539 582.991 199.816C582.991 200.093 582.895 200.328 582.703 200.52C582.522 200.712 582.298 200.808 582.031 200.808ZM582.735 202.232V211H581.279V202.232H582.735ZM589.04 211.144C588.219 211.144 587.472 210.957 586.8 210.584C586.139 210.211 585.616 209.683 585.232 209C584.859 208.307 584.672 207.507 584.672 206.6C584.672 205.704 584.864 204.915 585.248 204.232C585.643 203.539 586.176 203.011 586.848 202.648C587.52 202.275 588.272 202.088 589.104 202.088C589.936 202.088 590.688 202.275 591.36 202.648C592.032 203.011 592.56 203.533 592.944 204.216C593.339 204.899 593.536 205.693 593.536 206.6C593.536 207.507 593.334 208.307 592.928 209C592.534 209.683 591.995 210.211 591.312 210.584C590.63 210.957 589.872 211.144 589.04 211.144ZM589.04 209.864C589.563 209.864 590.054 209.741 590.512 209.496C590.971 209.251 591.339 208.883 591.616 208.392C591.904 207.901 592.048 207.304 592.048 206.6C592.048 205.896 591.91 205.299 591.632 204.808C591.355 204.317 590.992 203.955 590.544 203.72C590.096 203.475 589.611 203.352 589.088 203.352C588.555 203.352 588.064 203.475 587.616 203.72C587.179 203.955 586.827 204.317 586.56 204.808C586.294 205.299 586.16 205.896 586.16 206.6C586.16 207.315 586.288 207.917 586.544 208.408C586.811 208.899 587.163 209.267 587.6 209.512C588.038 209.747 588.518 209.864 589.04 209.864ZM599.723 202.072C600.789 202.072 601.653 202.397 602.315 203.048C602.976 203.688 603.307 204.616 603.307 205.832V211H601.867V206.04C601.867 205.165 601.648 204.499 601.211 204.04C600.773 203.571 600.176 203.336 599.419 203.336C598.651 203.336 598.037 203.576 597.579 204.056C597.131 204.536 596.907 205.235 596.907 206.152V211H595.451V202.232H596.907V203.48C597.195 203.032 597.584 202.685 598.075 202.44C598.576 202.195 599.125 202.072 599.723 202.072ZM611.407 203.848C611.695 203.347 612.121 202.931 612.687 202.6C613.263 202.259 613.929 202.088 614.687 202.088C615.465 202.088 616.169 202.275 616.799 202.648C617.439 203.021 617.94 203.549 618.303 204.232C618.665 204.904 618.847 205.688 618.847 206.584C618.847 207.469 618.665 208.259 618.303 208.952C617.94 209.645 617.439 210.184 616.799 210.568C616.169 210.952 615.465 211.144 614.687 211.144C613.94 211.144 613.279 210.979 612.703 210.648C612.137 210.307 611.705 209.885 611.407 209.384V215.16H609.951V202.232H611.407V203.848ZM617.359 206.584C617.359 205.923 617.225 205.347 616.959 204.856C616.692 204.365 616.329 203.992 615.871 203.736C615.423 203.48 614.927 203.352 614.383 203.352C613.849 203.352 613.353 203.485 612.895 203.752C612.447 204.008 612.084 204.387 611.807 204.888C611.54 205.379 611.407 205.949 611.407 206.6C611.407 207.261 611.54 207.843 611.807 208.344C612.084 208.835 612.447 209.213 612.895 209.48C613.353 209.736 613.849 209.864 614.383 209.864C614.927 209.864 615.423 209.736 615.871 209.48C616.329 209.213 616.692 208.835 616.959 208.344C617.225 207.843 617.359 207.256 617.359 206.584ZM622.219 199.16V211H620.763V199.16H622.219ZM624.157 206.584C624.157 205.688 624.338 204.904 624.701 204.232C625.063 203.549 625.559 203.021 626.189 202.648C626.829 202.275 627.538 202.088 628.317 202.088C629.085 202.088 629.751 202.253 630.317 202.584C630.882 202.915 631.303 203.331 631.581 203.832V202.232H633.053V211H631.581V209.368C631.293 209.88 630.861 210.307 630.285 210.648C629.719 210.979 629.058 211.144 628.301 211.144C627.522 211.144 626.818 210.952 626.189 210.568C625.559 210.184 625.063 209.645 624.701 208.952C624.338 208.259 624.157 207.469 624.157 206.584ZM631.581 206.6C631.581 205.939 631.447 205.363 631.181 204.872C630.914 204.381 630.551 204.008 630.093 203.752C629.645 203.485 629.149 203.352 628.605 203.352C628.061 203.352 627.565 203.48 627.117 203.736C626.669 203.992 626.311 204.365 626.045 204.856C625.778 205.347 625.645 205.923 625.645 206.584C625.645 207.256 625.778 207.843 626.045 208.344C626.311 208.835 626.669 209.213 627.117 209.48C627.565 209.736 628.061 209.864 628.605 209.864C629.149 209.864 629.645 209.736 630.093 209.48C630.551 209.213 630.914 208.835 631.181 208.344C631.447 207.843 631.581 207.261 631.581 206.6ZM639.785 202.072C640.852 202.072 641.716 202.397 642.377 203.048C643.039 203.688 643.369 204.616 643.369 205.832V211H641.929V206.04C641.929 205.165 641.711 204.499 641.273 204.04C640.836 203.571 640.239 203.336 639.481 203.336C638.713 203.336 638.1 203.576 637.641 204.056C637.193 204.536 636.969 205.235 636.969 206.152V211H635.513V202.232H636.969V203.48C637.257 203.032 637.647 202.685 638.137 202.44C638.639 202.195 639.188 202.072 639.785 202.072ZM648.852 211.144C648.18 211.144 647.577 211.032 647.044 210.808C646.51 210.573 646.089 210.253 645.78 209.848C645.47 209.432 645.3 208.957 645.268 208.424H646.772C646.814 208.861 647.017 209.219 647.38 209.496C647.753 209.773 648.238 209.912 648.836 209.912C649.39 209.912 649.828 209.789 650.148 209.544C650.468 209.299 650.628 208.989 650.628 208.616C650.628 208.232 650.457 207.949 650.116 207.768C649.774 207.576 649.246 207.389 648.532 207.208C647.881 207.037 647.348 206.867 646.932 206.696C646.526 206.515 646.174 206.253 645.876 205.912C645.588 205.56 645.444 205.101 645.444 204.536C645.444 204.088 645.577 203.677 645.844 203.304C646.11 202.931 646.489 202.637 646.98 202.424C647.47 202.2 648.03 202.088 648.66 202.088C649.63 202.088 650.414 202.333 651.012 202.824C651.609 203.315 651.929 203.987 651.972 204.84H650.516C650.484 204.381 650.297 204.013 649.956 203.736C649.625 203.459 649.177 203.32 648.612 203.32C648.089 203.32 647.673 203.432 647.364 203.656C647.054 203.88 646.9 204.173 646.9 204.536C646.9 204.824 646.99 205.064 647.172 205.256C647.364 205.437 647.598 205.587 647.876 205.704C648.164 205.811 648.558 205.933 649.06 206.072C649.689 206.243 650.201 206.413 650.596 206.584C650.99 206.744 651.326 206.989 651.604 207.32C651.892 207.651 652.041 208.083 652.052 208.616C652.052 209.096 651.918 209.528 651.652 209.912C651.385 210.296 651.006 210.6 650.516 210.824C650.036 211.037 649.481 211.144 648.852 211.144ZM666.933 211L665.477 209.528C664.933 210.093 664.351 210.515 663.733 210.792C663.114 211.059 662.415 211.192 661.637 211.192C660.869 211.192 660.186 211.053 659.589 210.776C659.002 210.499 658.543 210.104 658.213 209.592C657.893 209.08 657.733 208.483 657.733 207.8C657.733 207.021 657.951 206.339 658.389 205.752C658.837 205.155 659.493 204.685 660.357 204.344C660.015 203.939 659.77 203.565 659.621 203.224C659.471 202.883 659.397 202.509 659.397 202.104C659.397 201.635 659.514 201.213 659.749 200.84C659.994 200.456 660.341 200.157 660.789 199.944C661.237 199.731 661.754 199.624 662.341 199.624C662.917 199.624 663.418 199.736 663.845 199.96C664.271 200.184 664.591 200.499 664.805 200.904C665.018 201.299 665.114 201.741 665.093 202.232H663.637C663.647 201.795 663.525 201.453 663.269 201.208C663.013 200.952 662.682 200.824 662.277 200.824C661.85 200.824 661.503 200.947 661.237 201.192C660.981 201.427 660.853 201.731 660.853 202.104C660.853 202.424 660.938 202.733 661.109 203.032C661.29 203.331 661.589 203.699 662.005 204.136L665.333 207.48L665.621 207.032L666.709 205.208H668.277L666.965 207.48C666.783 207.8 666.57 208.136 666.325 208.488L668.837 211H666.933ZM661.637 209.944C662.213 209.944 662.73 209.832 663.189 209.608C663.658 209.384 664.101 209.037 664.517 208.568L661.237 205.272C659.871 205.795 659.189 206.621 659.189 207.752C659.189 208.381 659.413 208.904 659.861 209.32C660.319 209.736 660.911 209.944 661.637 209.944ZM675.922 203.864C676.221 203.341 676.658 202.915 677.234 202.584C677.81 202.253 678.466 202.088 679.202 202.088C679.992 202.088 680.701 202.275 681.33 202.648C681.96 203.021 682.456 203.549 682.818 204.232C683.181 204.904 683.362 205.688 683.362 206.584C683.362 207.469 683.181 208.259 682.818 208.952C682.456 209.645 681.954 210.184 681.314 210.568C680.685 210.952 679.981 211.144 679.202 211.144C678.445 211.144 677.778 210.979 677.202 210.648C676.637 210.317 676.21 209.896 675.922 209.384V211H674.466V199.16H675.922V203.864ZM681.874 206.584C681.874 205.923 681.741 205.347 681.474 204.856C681.208 204.365 680.845 203.992 680.386 203.736C679.938 203.48 679.442 203.352 678.898 203.352C678.365 203.352 677.869 203.485 677.41 203.752C676.962 204.008 676.6 204.387 676.322 204.888C676.056 205.379 675.922 205.949 675.922 206.6C675.922 207.261 676.056 207.843 676.322 208.344C676.6 208.835 676.962 209.213 677.41 209.48C677.869 209.736 678.365 209.864 678.898 209.864C679.442 209.864 679.938 209.736 680.386 209.48C680.845 209.213 681.208 208.835 681.474 208.344C681.741 207.843 681.874 207.256 681.874 206.584ZM686.735 203.656C686.991 203.155 687.354 202.765 687.823 202.488C688.303 202.211 688.884 202.072 689.567 202.072V203.576H689.183C687.551 203.576 686.735 204.461 686.735 206.232V211H685.279V202.232H686.735V203.656ZM692 200.808C691.722 200.808 691.488 200.712 691.296 200.52C691.104 200.328 691.008 200.093 691.008 199.816C691.008 199.539 691.104 199.304 691.296 199.112C691.488 198.92 691.722 198.824 692 198.824C692.266 198.824 692.49 198.92 692.672 199.112C692.864 199.304 692.96 199.539 692.96 199.816C692.96 200.093 692.864 200.328 692.672 200.52C692.49 200.712 692.266 200.808 692 200.808ZM692.704 202.232V211H691.248V202.232H692.704ZM699.457 202.072C700.524 202.072 701.388 202.397 702.049 203.048C702.71 203.688 703.041 204.616 703.041 205.832V211H701.601V206.04C701.601 205.165 701.382 204.499 700.945 204.04C700.508 203.571 699.91 203.336 699.153 203.336C698.385 203.336 697.772 203.576 697.313 204.056C696.865 204.536 696.641 205.235 696.641 206.152V211H695.185V202.232H696.641V203.48C696.929 203.032 697.318 202.685 697.809 202.44C698.31 202.195 698.86 202.072 699.457 202.072ZM709.036 202.088C709.793 202.088 710.454 202.253 711.02 202.584C711.596 202.915 712.022 203.331 712.3 203.832V202.232H713.772V211.192C713.772 211.992 713.601 212.701 713.26 213.32C712.918 213.949 712.428 214.44 711.788 214.792C711.158 215.144 710.422 215.32 709.58 215.32C708.428 215.32 707.468 215.048 706.7 214.504C705.932 213.96 705.478 213.219 705.34 212.28H706.78C706.94 212.813 707.27 213.24 707.772 213.56C708.273 213.891 708.876 214.056 709.58 214.056C710.38 214.056 711.03 213.805 711.532 213.304C712.044 212.803 712.3 212.099 712.3 211.192V209.352C712.012 209.864 711.585 210.291 711.02 210.632C710.454 210.973 709.793 211.144 709.036 211.144C708.257 211.144 707.548 210.952 706.908 210.568C706.278 210.184 705.782 209.645 705.42 208.952C705.057 208.259 704.876 207.469 704.876 206.584C704.876 205.688 705.057 204.904 705.42 204.232C705.782 203.549 706.278 203.021 706.908 202.648C707.548 202.275 708.257 202.088 709.036 202.088ZM712.3 206.6C712.3 205.939 712.166 205.363 711.9 204.872C711.633 204.381 711.27 204.008 710.812 203.752C710.364 203.485 709.868 203.352 709.324 203.352C708.78 203.352 708.284 203.48 707.836 203.736C707.388 203.992 707.03 204.365 706.764 204.856C706.497 205.347 706.364 205.923 706.364 206.584C706.364 207.256 706.497 207.843 706.764 208.344C707.03 208.835 707.388 209.213 707.836 209.48C708.284 209.736 708.78 209.864 709.324 209.864C709.868 209.864 710.364 209.736 710.812 209.48C711.27 209.213 711.633 208.835 711.9 208.344C712.166 207.843 712.3 207.261 712.3 206.6ZM728.05 202.232L722.77 215.128H721.266L722.994 210.904L719.458 202.232H721.074L723.826 209.336L726.546 202.232H728.05ZM733.337 211.144C732.516 211.144 731.769 210.957 731.097 210.584C730.436 210.211 729.913 209.683 729.529 209C729.156 208.307 728.969 207.507 728.969 206.6C728.969 205.704 729.161 204.915 729.545 204.232C729.94 203.539 730.473 203.011 731.145 202.648C731.817 202.275 732.569 202.088 733.401 202.088C734.233 202.088 734.985 202.275 735.657 202.648C736.329 203.011 736.857 203.533 737.241 204.216C737.636 204.899 737.833 205.693 737.833 206.6C737.833 207.507 737.631 208.307 737.225 209C736.831 209.683 736.292 210.211 735.609 210.584C734.927 210.957 734.169 211.144 733.337 211.144ZM733.337 209.864C733.86 209.864 734.351 209.741 734.809 209.496C735.268 209.251 735.636 208.883 735.913 208.392C736.201 207.901 736.345 207.304 736.345 206.6C736.345 205.896 736.207 205.299 735.929 204.808C735.652 204.317 735.289 203.955 734.841 203.72C734.393 203.475 733.908 203.352 733.385 203.352C732.852 203.352 732.361 203.475 731.913 203.72C731.476 203.955 731.124 204.317 730.857 204.808C730.591 205.299 730.457 205.896 730.457 206.6C730.457 207.315 730.585 207.917 730.841 208.408C731.108 208.899 731.46 209.267 731.897 209.512C732.335 209.747 732.815 209.864 733.337 209.864ZM747.524 202.232V211H746.068V209.704C745.79 210.152 745.401 210.504 744.9 210.76C744.409 211.005 743.865 211.128 743.268 211.128C742.585 211.128 741.972 210.989 741.428 210.712C740.884 210.424 740.452 209.997 740.132 209.432C739.822 208.867 739.668 208.179 739.668 207.368V202.232H741.108V207.176C741.108 208.04 741.326 208.707 741.764 209.176C742.201 209.635 742.798 209.864 743.556 209.864C744.334 209.864 744.948 209.624 745.396 209.144C745.844 208.664 746.068 207.965 746.068 207.048V202.232H747.524ZM751.438 203.656C751.694 203.155 752.057 202.765 752.526 202.488C753.006 202.211 753.587 202.072 754.27 202.072V203.576H753.886C752.254 203.576 751.438 204.461 751.438 206.232V211H749.982V202.232H751.438V203.656ZM764.04 211.144C763.219 211.144 762.472 210.957 761.8 210.584C761.139 210.211 760.616 209.683 760.232 209C759.859 208.307 759.672 207.507 759.672 206.6C759.672 205.704 759.864 204.915 760.248 204.232C760.643 203.539 761.176 203.011 761.848 202.648C762.52 202.275 763.272 202.088 764.104 202.088C764.936 202.088 765.688 202.275 766.36 202.648C767.032 203.011 767.56 203.533 767.944 204.216C768.339 204.899 768.536 205.693 768.536 206.6C768.536 207.507 768.334 208.307 767.928 209C767.534 209.683 766.995 210.211 766.312 210.584C765.63 210.957 764.872 211.144 764.04 211.144ZM764.04 209.864C764.563 209.864 765.054 209.741 765.512 209.496C765.971 209.251 766.339 208.883 766.616 208.392C766.904 207.901 767.048 207.304 767.048 206.6C767.048 205.896 766.91 205.299 766.632 204.808C766.355 204.317 765.992 203.955 765.544 203.72C765.096 203.475 764.611 203.352 764.088 203.352C763.555 203.352 763.064 203.475 762.616 203.72C762.179 203.955 761.827 204.317 761.56 204.808C761.294 205.299 761.16 205.896 761.16 206.6C761.16 207.315 761.288 207.917 761.544 208.408C761.811 208.899 762.163 209.267 762.6 209.512C763.038 209.747 763.518 209.864 764.04 209.864ZM774.723 202.072C775.789 202.072 776.653 202.397 777.315 203.048C777.976 203.688 778.307 204.616 778.307 205.832V211H776.867V206.04C776.867 205.165 776.648 204.499 776.211 204.04C775.773 203.571 775.176 203.336 774.419 203.336C773.651 203.336 773.037 203.576 772.579 204.056C772.131 204.536 771.907 205.235 771.907 206.152V211H770.451V202.232H771.907V203.48C772.195 203.032 772.584 202.685 773.075 202.44C773.576 202.195 774.125 202.072 774.723 202.072ZM782.141 199.16V211H780.685V199.16H782.141ZM785.375 200.808C785.097 200.808 784.863 200.712 784.671 200.52C784.479 200.328 784.383 200.093 784.383 199.816C784.383 199.539 784.479 199.304 784.671 199.112C784.863 198.92 785.097 198.824 785.375 198.824C785.641 198.824 785.865 198.92 786.047 199.112C786.239 199.304 786.335 199.539 786.335 199.816C786.335 200.093 786.239 200.328 786.047 200.52C785.865 200.712 785.641 200.808 785.375 200.808ZM786.079 202.232V211H784.623V202.232H786.079ZM792.832 202.072C793.899 202.072 794.763 202.397 795.424 203.048C796.085 203.688 796.416 204.616 796.416 205.832V211H794.976V206.04C794.976 205.165 794.757 204.499 794.32 204.04C793.883 203.571 793.285 203.336 792.528 203.336C791.76 203.336 791.147 203.576 790.688 204.056C790.24 204.536 790.016 205.235 790.016 206.152V211H788.56V202.232H790.016V203.48C790.304 203.032 790.693 202.685 791.184 202.44C791.685 202.195 792.235 202.072 792.832 202.072ZM806.795 206.28C806.795 206.557 806.779 206.851 806.747 207.16H799.739C799.792 208.024 800.085 208.701 800.619 209.192C801.163 209.672 801.819 209.912 802.587 209.912C803.216 209.912 803.739 209.768 804.155 209.48C804.581 209.181 804.88 208.787 805.051 208.296H806.619C806.384 209.139 805.915 209.827 805.211 210.36C804.507 210.883 803.632 211.144 802.587 211.144C801.755 211.144 801.008 210.957 800.347 210.584C799.696 210.211 799.184 209.683 798.811 209C798.437 208.307 798.251 207.507 798.251 206.6C798.251 205.693 798.432 204.899 798.795 204.216C799.157 203.533 799.664 203.011 800.315 202.648C800.976 202.275 801.733 202.088 802.587 202.088C803.419 202.088 804.155 202.269 804.795 202.632C805.435 202.995 805.925 203.496 806.267 204.136C806.619 204.765 806.795 205.48 806.795 206.28ZM805.291 205.976C805.291 205.421 805.168 204.947 804.923 204.552C804.677 204.147 804.341 203.843 803.915 203.64C803.499 203.427 803.035 203.32 802.523 203.32C801.787 203.32 801.157 203.555 800.635 204.024C800.123 204.493 799.829 205.144 799.755 205.976H805.291ZM814.438 203.864C814.737 203.341 815.174 202.915 815.75 202.584C816.326 202.253 816.982 202.088 817.718 202.088C818.507 202.088 819.217 202.275 819.846 202.648C820.475 203.021 820.971 203.549 821.334 204.232C821.697 204.904 821.878 205.688 821.878 206.584C821.878 207.469 821.697 208.259 821.334 208.952C820.971 209.645 820.47 210.184 819.83 210.568C819.201 210.952 818.497 211.144 817.718 211.144C816.961 211.144 816.294 210.979 815.718 210.648C815.153 210.317 814.726 209.896 814.438 209.384V211H812.982V199.16H814.438V203.864ZM820.39 206.584C820.39 205.923 820.257 205.347 819.99 204.856C819.723 204.365 819.361 203.992 818.902 203.736C818.454 203.48 817.958 203.352 817.414 203.352C816.881 203.352 816.385 203.485 815.926 203.752C815.478 204.008 815.115 204.387 814.838 204.888C814.571 205.379 814.438 205.949 814.438 206.6C814.438 207.261 814.571 207.843 814.838 208.344C815.115 208.835 815.478 209.213 815.926 209.48C816.385 209.736 816.881 209.864 817.414 209.864C817.958 209.864 818.454 209.736 818.902 209.48C819.361 209.213 819.723 208.835 819.99 208.344C820.257 207.843 820.39 207.256 820.39 206.584ZM831.571 202.232V211H830.115V209.704C829.837 210.152 829.448 210.504 828.947 210.76C828.456 211.005 827.912 211.128 827.315 211.128C826.632 211.128 826.019 210.989 825.475 210.712C824.931 210.424 824.499 209.997 824.179 209.432C823.869 208.867 823.715 208.179 823.715 207.368V202.232H825.155V207.176C825.155 208.04 825.373 208.707 825.811 209.176C826.248 209.635 826.845 209.864 827.603 209.864C828.381 209.864 828.995 209.624 829.443 209.144C829.891 208.664 830.115 207.965 830.115 207.048V202.232H831.571ZM837.133 211.144C836.461 211.144 835.858 211.032 835.325 210.808C834.792 210.573 834.37 210.253 834.061 209.848C833.752 209.432 833.581 208.957 833.549 208.424H835.053C835.096 208.861 835.298 209.219 835.661 209.496C836.034 209.773 836.52 209.912 837.117 209.912C837.672 209.912 838.109 209.789 838.429 209.544C838.749 209.299 838.909 208.989 838.909 208.616C838.909 208.232 838.738 207.949 838.397 207.768C838.056 207.576 837.528 207.389 836.813 207.208C836.162 207.037 835.629 206.867 835.213 206.696C834.808 206.515 834.456 206.253 834.157 205.912C833.869 205.56 833.725 205.101 833.725 204.536C833.725 204.088 833.858 203.677 834.125 203.304C834.392 202.931 834.77 202.637 835.261 202.424C835.752 202.2 836.312 202.088 836.941 202.088C837.912 202.088 838.696 202.333 839.293 202.824C839.89 203.315 840.21 203.987 840.253 204.84H838.797C838.765 204.381 838.578 204.013 838.237 203.736C837.906 203.459 837.458 203.32 836.893 203.32C836.37 203.32 835.954 203.432 835.645 203.656C835.336 203.88 835.181 204.173 835.181 204.536C835.181 204.824 835.272 205.064 835.453 205.256C835.645 205.437 835.88 205.587 836.157 205.704C836.445 205.811 836.84 205.933 837.341 206.072C837.97 206.243 838.482 206.413 838.877 206.584C839.272 206.744 839.608 206.989 839.885 207.32C840.173 207.651 840.322 208.083 840.333 208.616C840.333 209.096 840.2 209.528 839.933 209.912C839.666 210.296 839.288 210.6 838.797 210.824C838.317 211.037 837.762 211.144 837.133 211.144ZM843.14 200.808C842.863 200.808 842.628 200.712 842.436 200.52C842.244 200.328 842.148 200.093 842.148 199.816C842.148 199.539 842.244 199.304 842.436 199.112C842.628 198.92 842.863 198.824 843.14 198.824C843.407 198.824 843.631 198.92 843.812 199.112C844.004 199.304 844.1 199.539 844.1 199.816C844.1 200.093 844.004 200.328 843.812 200.52C843.631 200.712 843.407 200.808 843.14 200.808ZM843.844 202.232V211H842.388V202.232H843.844ZM850.598 202.072C851.664 202.072 852.528 202.397 853.19 203.048C853.851 203.688 854.182 204.616 854.182 205.832V211H852.742V206.04C852.742 205.165 852.523 204.499 852.086 204.04C851.648 203.571 851.051 203.336 850.294 203.336C849.526 203.336 848.912 203.576 848.454 204.056C848.006 204.536 847.782 205.235 847.782 206.152V211H846.326V202.232H847.782V203.48C848.07 203.032 848.459 202.685 848.95 202.44C849.451 202.195 850 202.072 850.598 202.072ZM864.56 206.28C864.56 206.557 864.544 206.851 864.512 207.16H857.504C857.557 208.024 857.851 208.701 858.384 209.192C858.928 209.672 859.584 209.912 860.352 209.912C860.981 209.912 861.504 209.768 861.92 209.48C862.347 209.181 862.645 208.787 862.816 208.296H864.384C864.149 209.139 863.68 209.827 862.976 210.36C862.272 210.883 861.397 211.144 860.352 211.144C859.52 211.144 858.773 210.957 858.112 210.584C857.461 210.211 856.949 209.683 856.576 209C856.203 208.307 856.016 207.507 856.016 206.6C856.016 205.693 856.197 204.899 856.56 204.216C856.923 203.533 857.429 203.011 858.08 202.648C858.741 202.275 859.499 202.088 860.352 202.088C861.184 202.088 861.92 202.269 862.56 202.632C863.2 202.995 863.691 203.496 864.032 204.136C864.384 204.765 864.56 205.48 864.56 206.28ZM863.056 205.976C863.056 205.421 862.933 204.947 862.688 204.552C862.443 204.147 862.107 203.843 861.68 203.64C861.264 203.427 860.8 203.32 860.288 203.32C859.552 203.32 858.923 203.555 858.4 204.024C857.888 204.493 857.595 205.144 857.52 205.976H863.056ZM869.586 211.144C868.914 211.144 868.311 211.032 867.778 210.808C867.245 210.573 866.823 210.253 866.514 209.848C866.205 209.432 866.034 208.957 866.002 208.424H867.506C867.549 208.861 867.751 209.219 868.114 209.496C868.487 209.773 868.973 209.912 869.57 209.912C870.125 209.912 870.562 209.789 870.882 209.544C871.202 209.299 871.362 208.989 871.362 208.616C871.362 208.232 871.191 207.949 870.85 207.768C870.509 207.576 869.981 207.389 869.266 207.208C868.615 207.037 868.082 206.867 867.666 206.696C867.261 206.515 866.909 206.253 866.61 205.912C866.322 205.56 866.178 205.101 866.178 204.536C866.178 204.088 866.311 203.677 866.578 203.304C866.845 202.931 867.223 202.637 867.714 202.424C868.205 202.2 868.765 202.088 869.394 202.088C870.365 202.088 871.149 202.333 871.746 202.824C872.343 203.315 872.663 203.987 872.706 204.84H871.25C871.218 204.381 871.031 204.013 870.69 203.736C870.359 203.459 869.911 203.32 869.346 203.32C868.823 203.32 868.407 203.432 868.098 203.656C867.789 203.88 867.634 204.173 867.634 204.536C867.634 204.824 867.725 205.064 867.906 205.256C868.098 205.437 868.333 205.587 868.61 205.704C868.898 205.811 869.293 205.933 869.794 206.072C870.423 206.243 870.935 206.413 871.33 206.584C871.725 206.744 872.061 206.989 872.338 207.32C872.626 207.651 872.775 208.083 872.786 208.616C872.786 209.096 872.653 209.528 872.386 209.912C872.119 210.296 871.741 210.6 871.25 210.824C870.77 211.037 870.215 211.144 869.586 211.144ZM877.945 211.144C877.273 211.144 876.671 211.032 876.137 210.808C875.604 210.573 875.183 210.253 874.873 209.848C874.564 209.432 874.393 208.957 874.361 208.424H875.865C875.908 208.861 876.111 209.219 876.473 209.496C876.847 209.773 877.332 209.912 877.929 209.912C878.484 209.912 878.921 209.789 879.241 209.544C879.561 209.299 879.721 208.989 879.721 208.616C879.721 208.232 879.551 207.949 879.209 207.768C878.868 207.576 878.34 207.389 877.625 207.208C876.975 207.037 876.441 206.867 876.025 206.696C875.62 206.515 875.268 206.253 874.969 205.912C874.681 205.56 874.537 205.101 874.537 204.536C874.537 204.088 874.671 203.677 874.937 203.304C875.204 202.931 875.583 202.637 876.073 202.424C876.564 202.2 877.124 202.088 877.753 202.088C878.724 202.088 879.508 202.333 880.105 202.824C880.703 203.315 881.023 203.987 881.065 204.84H879.609C879.577 204.381 879.391 204.013 879.049 203.736C878.719 203.459 878.271 203.32 877.705 203.32C877.183 203.32 876.767 203.432 876.457 203.656C876.148 203.88 875.993 204.173 875.993 204.536C875.993 204.824 876.084 205.064 876.265 205.256C876.457 205.437 876.692 205.587 876.969 205.704C877.257 205.811 877.652 205.933 878.153 206.072C878.783 206.243 879.295 206.413 879.689 206.584C880.084 206.744 880.42 206.989 880.697 207.32C880.985 207.651 881.135 208.083 881.145 208.616C881.145 209.096 881.012 209.528 880.745 209.912C880.479 210.296 880.1 210.6 879.609 210.824C879.129 211.037 878.575 211.144 877.945 211.144ZM889.242 203.432V208.6C889.242 209.027 889.333 209.331 889.514 209.512C889.696 209.683 890.01 209.768 890.458 209.768H891.53V211H890.218C889.408 211 888.8 210.813 888.394 210.44C887.989 210.067 887.786 209.453 887.786 208.6V203.432H886.65V202.232H887.786V200.024H889.242V202.232H891.53V203.432H889.242ZM897.119 211.144C896.297 211.144 895.551 210.957 894.879 210.584C894.217 210.211 893.695 209.683 893.311 209C892.937 208.307 892.751 207.507 892.751 206.6C892.751 205.704 892.943 204.915 893.327 204.232C893.721 203.539 894.255 203.011 894.927 202.648C895.599 202.275 896.351 202.088 897.183 202.088C898.015 202.088 898.767 202.275 899.439 202.648C900.111 203.011 900.639 203.533 901.023 204.216C901.417 204.899 901.615 205.693 901.615 206.6C901.615 207.507 901.412 208.307 901.007 209C900.612 209.683 900.073 210.211 899.391 210.584C898.708 210.957 897.951 211.144 897.119 211.144ZM897.119 209.864C897.641 209.864 898.132 209.741 898.591 209.496C899.049 209.251 899.417 208.883 899.695 208.392C899.983 207.901 900.127 207.304 900.127 206.6C900.127 205.896 899.988 205.299 899.711 204.808C899.433 204.317 899.071 203.955 898.623 203.72C898.175 203.475 897.689 203.352 897.167 203.352C896.633 203.352 896.143 203.475 895.695 203.72C895.257 203.955 894.905 204.317 894.639 204.808C894.372 205.299 894.239 205.896 894.239 206.6C894.239 207.315 894.367 207.917 894.623 208.408C894.889 208.899 895.241 209.267 895.679 209.512C896.116 209.747 896.596 209.864 897.119 209.864ZM909.251 199.16V211H907.795V199.16H909.251ZM912.484 200.808C912.207 200.808 911.972 200.712 911.78 200.52C911.588 200.328 911.492 200.093 911.492 199.816C911.492 199.539 911.588 199.304 911.78 199.112C911.972 198.92 912.207 198.824 912.484 198.824C912.751 198.824 912.975 198.92 913.156 199.112C913.348 199.304 913.444 199.539 913.444 199.816C913.444 200.093 913.348 200.328 913.156 200.52C912.975 200.712 912.751 200.808 912.484 200.808ZM913.188 202.232V211H911.732V202.232H913.188ZM919.238 203.432H917.398V211H915.942V203.432H914.806V202.232H915.942V201.608C915.942 200.627 916.192 199.912 916.694 199.464C917.206 199.005 918.022 198.776 919.141 198.776V199.992C918.502 199.992 918.048 200.12 917.782 200.376C917.526 200.621 917.398 201.032 917.398 201.608V202.232H919.238V203.432ZM928.935 206.28C928.935 206.557 928.919 206.851 928.887 207.16H921.879C921.932 208.024 922.226 208.701 922.759 209.192C923.303 209.672 923.959 209.912 924.727 209.912C925.356 209.912 925.879 209.768 926.295 209.48C926.722 209.181 927.02 208.787 927.191 208.296H928.759C928.524 209.139 928.055 209.827 927.351 210.36C926.647 210.883 925.772 211.144 924.727 211.144C923.895 211.144 923.148 210.957 922.487 210.584C921.836 210.211 921.324 209.683 920.951 209C920.578 208.307 920.391 207.507 920.391 206.6C920.391 205.693 920.572 204.899 920.935 204.216C921.298 203.533 921.804 203.011 922.455 202.648C923.116 202.275 923.874 202.088 924.727 202.088C925.559 202.088 926.295 202.269 926.935 202.632C927.575 202.995 928.066 203.496 928.407 204.136C928.759 204.765 928.935 205.48 928.935 206.28ZM927.431 205.976C927.431 205.421 927.308 204.947 927.063 204.552C926.818 204.147 926.482 203.843 926.055 203.64C925.639 203.427 925.175 203.32 924.663 203.32C923.927 203.32 923.298 203.555 922.775 204.024C922.263 204.493 921.97 205.144 921.895 205.976H927.431ZM931.321 211.096C931.044 211.096 930.809 211 930.617 210.808C930.425 210.616 930.329 210.381 930.329 210.104C930.329 209.827 930.425 209.592 930.617 209.4C930.809 209.208 931.044 209.112 931.321 209.112C931.588 209.112 931.812 209.208 931.993 209.4C932.185 209.592 932.281 209.827 932.281 210.104C932.281 210.381 932.185 210.616 931.993 210.808C931.812 211 931.588 211.096 931.321 211.096Z" fill="#2D2A2E"/>
<path opacity="0.4" d="M372.362 174.772C367.925 179.182 360.87 183.072 353.46 182.133C342.255 180.715 338.308 187.21 320.32 179.402C317.69 178.272 315.174 176.904 312.818 175.323C311.667 174.546 310.565 173.71 309.521 172.819C300.302 164.971 297.916 154.725 300.762 146.101C304.509 134.762 315.709 133.053 322.853 132.282C329.998 131.511 341.855 122.313 359.591 129.872C362.304 131.016 364.892 132.422 367.305 134.06C372.797 137.817 377.725 143.3 379.532 149.179C379.667 149.62 379.788 150.065 379.894 150.513C381.967 159.26 378.413 168.759 372.362 174.772Z" fill="#FFF5BE"/>
<path d="M361 138.656H323V173H361V138.656Z" fill="#FDF2CC" stroke="#263238" stroke-width="0.833333" stroke-miterlimit="10"/>
<path d="M361 138.656H323V147.442H361V138.656Z" fill="url(#paint1_linear_4_19)" stroke="#263238" stroke-width="0.833333" stroke-linecap="round" stroke-linejoin="round"/>
<path d="M330.378 152.801H325.945V157.273H330.378V152.801Z" fill="url(#paint2_linear_4_19)" stroke="#263238" stroke-width="0.833333" stroke-linecap="round" stroke-linejoin="round"/>
<path d="M339.562 152.801H335.128V157.273H339.562V152.801Z" fill="url(#paint3_linear_4_19)" stroke="#263238" stroke-width="0.833333" stroke-linecap="round" stroke-linejoin="round"/>
<path d="M348.745 152.801H344.311V157.273H348.745V152.801Z" fill="url(#paint4_linear_4_19)" stroke="#263238" stroke-width="0.833333" stroke-linecap="round" stroke-linejoin="round"/>
<path d="M357.928 152.801H353.495V157.273H357.928V152.801Z" fill="url(#paint5_linear_4_19)" stroke="#263238" stroke-width="0.833333" stroke-linecap="round" stroke-linejoin="round"/>
<path d="M330.378 162.064H325.945V166.536H330.378V162.064Z" fill="url(#paint6_linear_4_19)" stroke="#263238" stroke-width="0.833333" stroke-linecap="round" stroke-linejoin="round"/>
<path d="M339.562 162.064H335.128V166.536H339.562V162.064Z" fill="url(#paint7_linear_4_19)" stroke="#263238" stroke-width="0.833333" stroke-linecap="round" stroke-linejoin="round"/>
<path d="M348.745 162.064H344.311V166.536H348.745V162.064Z" fill="url(#paint8_linear_4_19)" stroke="#263238" stroke-width="0.833333" stroke-linecap="round" stroke-linejoin="round"/>
<path d="M357.928 162.064H353.495V166.536H357.928V162.064Z" fill="url(#paint9_linear_4_19)" stroke="#263238" stroke-width="0.833333" stroke-linecap="round" stroke-linejoin="round"/>
<path d="M331.169 133H328.003V141.626H331.169V133Z" fill="#263238"/>
<path d="M339.086 133H335.92V141.626H339.086V133Z" fill="#263238"/>
<path d="M346.995 133H343.828V141.626H346.995V133Z" fill="#263238"/>
<path d="M354.912 133H351.745V141.626H354.912V133Z" fill="#263238"/>
<path opacity="0.4" d="M1106.75 257.826C1102.73 261.818 1096.35 265.34 1089.64 264.49C1079.49 263.206 1075.92 269.086 1059.64 262.018C1057.26 260.995 1054.98 259.756 1052.85 258.324C1051.8 257.621 1050.81 256.864 1049.86 256.058C1041.52 248.953 1039.36 239.678 1041.93 231.871C1045.32 221.606 1055.46 220.059 1061.93 219.361C1068.4 218.663 1079.13 210.336 1095.19 217.179C1097.64 218.215 1099.99 219.487 1102.17 220.97C1107.14 224.371 1111.6 229.335 1113.24 234.657C1113.36 235.056 1113.47 235.459 1113.57 235.865C1115.45 243.783 1112.23 252.382 1106.75 257.826Z" fill="#FFF5BE"/>
<path d="M1081.74 259.699C1091.21 257.537 1097.14 248.108 1094.98 238.638C1092.81 229.168 1083.38 223.244 1073.92 225.406C1064.45 227.568 1058.52 236.997 1060.68 246.467C1062.85 255.937 1072.27 261.861 1081.74 259.699Z" fill="url(#paint10_linear_4_19)" stroke="#263238" stroke-width="0.615396" stroke-miterlimit="10"/>
<path d="M1080.25 258.327C1088.91 256.985 1094.84 248.877 1093.5 240.216C1092.16 231.556 1084.05 225.623 1075.39 226.966C1066.73 228.308 1060.8 236.417 1062.14 245.077C1063.48 253.737 1071.59 259.67 1080.25 258.327Z" fill="#FDF2CC" stroke="#263238" stroke-width="0.615396" stroke-miterlimit="10"/>
<path d="M1077.5 253.7V251.617C1076.85 251.638 1076.21 251.517 1075.61 251.262C1075.02 251.008 1074.49 250.626 1074.05 250.145C1073.29 249.219 1072.88 247.837 1072.82 245.999L1075.98 245.46C1075.99 246.092 1076.07 246.72 1076.21 247.335C1076.3 247.762 1076.5 248.156 1076.81 248.471C1076.94 248.595 1077.09 248.692 1077.26 248.755C1077.43 248.819 1077.61 248.848 1077.79 248.84C1077.98 248.862 1078.16 248.831 1078.33 248.752C1078.5 248.673 1078.64 248.548 1078.74 248.393C1078.92 248.079 1079.01 247.722 1079 247.361C1079.03 246.674 1078.84 245.994 1078.47 245.415C1078.06 244.835 1077.57 244.311 1077.03 243.858L1075.12 242.229C1074.71 241.845 1074.32 241.433 1073.96 240.997C1073.61 240.567 1073.34 240.083 1073.15 239.563C1072.93 238.95 1072.83 238.304 1072.84 237.656C1072.81 237.062 1072.9 236.468 1073.11 235.91C1073.31 235.353 1073.63 234.843 1074.04 234.412C1074.92 233.607 1076.06 233.146 1077.25 233.114V231.064H1078.33V233.062C1079.02 233.073 1079.71 233.26 1080.31 233.607C1080.79 233.915 1081.19 234.341 1081.46 234.846C1081.74 235.344 1081.93 235.88 1082.05 236.436C1082.16 236.987 1082.24 237.547 1082.27 238.11L1079.07 238.577C1079.06 238.085 1079.02 237.595 1078.93 237.111C1078.89 236.748 1078.75 236.404 1078.53 236.111C1078.42 235.988 1078.28 235.894 1078.12 235.836C1077.97 235.779 1077.8 235.76 1077.64 235.781C1077.45 235.778 1077.26 235.821 1077.1 235.907C1076.93 235.993 1076.79 236.119 1076.68 236.274C1076.47 236.582 1076.35 236.949 1076.36 237.325C1076.33 237.916 1076.5 238.5 1076.85 238.979C1077.19 239.413 1077.57 239.819 1077.97 240.192L1079.83 241.801C1080.32 242.25 1080.78 242.736 1081.2 243.254C1081.62 243.782 1081.95 244.368 1082.2 244.993C1082.47 245.689 1082.6 246.429 1082.59 247.173C1082.6 247.921 1082.43 248.662 1082.1 249.334C1081.78 249.966 1081.3 250.502 1080.7 250.884C1080.05 251.296 1079.32 251.541 1078.56 251.598V253.7H1077.5Z" fill="#263238"/>
<path opacity="0.4" d="M1281.26 191.003C1277.16 195.079 1270.64 198.673 1263.79 197.806C1253.44 196.495 1249.79 202.497 1233.17 195.282C1230.74 194.238 1228.41 192.974 1226.24 191.512C1225.17 190.795 1224.16 190.022 1223.19 189.199C1214.67 181.947 1212.47 172.48 1215.1 164.511C1218.56 154.033 1228.91 152.454 1235.51 151.741C1242.11 151.029 1253.07 142.53 1269.46 149.515C1271.96 150.572 1274.35 151.87 1276.58 153.384C1281.66 156.856 1286.21 161.922 1287.88 167.354C1288.01 167.762 1288.12 168.173 1288.22 168.587C1290.13 176.67 1286.85 185.447 1281.26 191.003Z" fill="#FFF5BE"/>
<path d="M1257.87 186.097C1265.06 182.703 1268.14 174.124 1264.75 166.934C1261.35 159.745 1252.77 156.668 1245.58 160.061C1238.39 163.455 1235.32 172.035 1238.71 179.224C1242.1 186.414 1250.68 189.491 1257.87 186.097Z" fill="url(#paint11_linear_4_19)" stroke="#263238" stroke-width="0.536913" stroke-miterlimit="10"/>
<path d="M1252.94 184.876C1259.44 184.209 1264.17 178.396 1263.5 171.894C1262.84 165.391 1257.02 160.66 1250.52 161.328C1244.02 161.995 1239.29 167.808 1239.96 174.311C1240.62 180.813 1246.44 185.544 1252.94 184.876Z" fill="#FDF2CC" stroke="#263238" stroke-width="0.536913" stroke-miterlimit="10"/>
<path d="M1255.43 180.883C1259.73 178.838 1261.56 173.696 1259.51 169.396C1257.47 165.097 1252.33 163.27 1248.03 165.315C1243.73 167.36 1241.9 172.503 1243.95 176.802C1245.99 181.101 1251.13 182.929 1255.43 180.883Z" fill="url(#paint12_linear_4_19)" stroke="#263238" stroke-width="0.536913" stroke-miterlimit="10"/>
<path d="M1257.17 173.092C1257.17 172.015 1256.85 170.963 1256.25 170.068C1255.65 169.172 1254.8 168.475 1253.81 168.063C1252.81 167.651 1251.72 167.543 1250.66 167.753C1249.61 167.963 1248.64 168.481 1247.87 169.243C1247.11 170.004 1246.59 170.974 1246.38 172.03C1246.17 173.086 1246.28 174.181 1246.69 175.175C1247.11 176.17 1247.8 177.02 1248.7 177.619C1249.59 178.217 1250.65 178.536 1251.72 178.536C1252.44 178.537 1253.15 178.397 1253.81 178.123C1254.47 177.85 1255.07 177.449 1255.57 176.943C1256.08 176.438 1256.48 175.837 1256.75 175.176C1257.03 174.516 1257.17 173.807 1257.17 173.092Z" fill="#FDF2CC" stroke="#263238" stroke-width="0.536913" stroke-miterlimit="10"/>
<path d="M1254.25 173.092C1254.25 172.593 1254.1 172.104 1253.83 171.688C1253.55 171.272 1253.15 170.948 1252.69 170.756C1252.23 170.564 1251.72 170.513 1251.23 170.61C1250.74 170.706 1250.29 170.947 1249.94 171.299C1249.59 171.652 1249.35 172.102 1249.25 172.592C1249.15 173.082 1249.2 173.59 1249.39 174.052C1249.58 174.513 1249.9 174.908 1250.32 175.186C1250.74 175.463 1251.22 175.612 1251.72 175.612C1252.39 175.612 1253.03 175.346 1253.51 174.874C1253.98 174.402 1254.25 173.761 1254.25 173.092Z" fill="url(#paint13_linear_4_19)" stroke="#263238" stroke-width="0.536913" stroke-miterlimit="10"/>
<path d="M1252.77 169.145L1251.73 173.092L1255.45 173.909L1252.77 169.145Z" fill="#263238" stroke="#263238" stroke-width="0.536913" stroke-miterlimit="10"/>
<path d="M1254.36 171.343L1270.73 162.421" stroke="#263238" stroke-width="1.07383" stroke-miterlimit="10"/>
<path d="M1265.48 165.357L1265.72 161.078L1273.42 156.68V161.564L1265.48 165.357Z" fill="#263238" stroke="#263238" stroke-width="0.536913" stroke-miterlimit="10"/>
<path d="M1276.72 163.888L1273.35 161.403L1265.44 165.556L1269.26 167.761L1276.72 163.888Z" fill="#263238" stroke="#263238" stroke-width="0.536913" stroke-miterlimit="10"/>
<defs>
<linearGradient id="paint0_linear_4_19" x1="1145.85" y1="606.5" x2="-51.6395" y2="-38.7318" gradientUnits="userSpaceOnUse">
<stop stop-color="#FCC537"/>
<stop offset="1" stop-color="#FCE300"/>
</linearGradient>
<linearGradient id="paint1_linear_4_19" x1="359.787" y1="138.656" x2="323.651" y2="147.682" gradientUnits="userSpaceOnUse">
<stop stop-color="#FCB937"/>
<stop offset="1" stop-color="#FCE300"/>
</linearGradient>
<linearGradient id="paint2_linear_4_19" x1="330.236" y1="152.801" x2="325.772" y2="153.056" gradientUnits="userSpaceOnUse">
<stop stop-color="#FCB937"/>
<stop offset="1" stop-color="#FCE300"/>
</linearGradient>
<linearGradient id="paint3_linear_4_19" x1="339.42" y1="152.801" x2="334.956" y2="153.056" gradientUnits="userSpaceOnUse">
<stop stop-color="#FCB937"/>
<stop offset="1" stop-color="#FCE300"/>
</linearGradient>
<linearGradient id="paint4_linear_4_19" x1="348.603" y1="152.801" x2="344.139" y2="153.056" gradientUnits="userSpaceOnUse">
<stop stop-color="#FCB937"/>
<stop offset="1" stop-color="#FCE300"/>
</linearGradient>
<linearGradient id="paint5_linear_4_19" x1="357.787" y1="152.801" x2="353.323" y2="153.056" gradientUnits="userSpaceOnUse">
<stop stop-color="#FCB937"/>
<stop offset="1" stop-color="#FCE300"/>
</linearGradient>
<linearGradient id="paint6_linear_4_19" x1="330.236" y1="162.064" x2="325.772" y2="162.319" gradientUnits="userSpaceOnUse">
<stop stop-color="#FCB937"/>
<stop offset="1" stop-color="#FCE300"/>
</linearGradient>
<linearGradient id="paint7_linear_4_19" x1="339.42" y1="162.064" x2="334.956" y2="162.319" gradientUnits="userSpaceOnUse">
<stop stop-color="#FCB937"/>
<stop offset="1" stop-color="#FCE300"/>
</linearGradient>
<linearGradient id="paint8_linear_4_19" x1="348.603" y1="162.064" x2="344.139" y2="162.319" gradientUnits="userSpaceOnUse">
<stop stop-color="#FCB937"/>
<stop offset="1" stop-color="#FCE300"/>
</linearGradient>
<linearGradient id="paint9_linear_4_19" x1="357.787" y1="162.064" x2="353.323" y2="162.319" gradientUnits="userSpaceOnUse">
<stop stop-color="#FCB937"/>
<stop offset="1" stop-color="#FCE300"/>
</linearGradient>
<linearGradient id="paint10_linear_4_19" x1="1089.97" y1="221.742" x2="1055.89" y2="231.619" gradientUnits="userSpaceOnUse">
<stop stop-color="#FCB937"/>
<stop offset="1" stop-color="#FCE300"/>
</linearGradient>
<linearGradient id="paint11_linear_4_19" x1="1257.77" y1="154.309" x2="1232.27" y2="168.198" gradientUnits="userSpaceOnUse">
<stop stop-color="#FCB937"/>
<stop offset="1" stop-color="#FCE300"/>
</linearGradient>
<linearGradient id="paint12_linear_4_19" x1="1255.31" y1="161.849" x2="1240.07" y2="170.211" gradientUnits="userSpaceOnUse">
<stop stop-color="#FCB937"/>
<stop offset="1" stop-color="#FCE300"/>
</linearGradient>
<linearGradient id="paint13_linear_4_19" x1="1254.09" y1="170.562" x2="1249" y2="170.856" gradientUnits="userSpaceOnUse">
<stop stop-color="#FCB937"/>
<stop offset="1" stop-color="#FCE300"/>
</linearGradient>
</defs>
</svg>
