<svg width="16" height="16" viewBox="0 0 16 16" fill="none" xmlns="http://www.w3.org/2000/svg">
<path d="M16 8C16 12.4183 12.4183 16 8 16C3.58172 16 0 12.4183 0 8C0 3.58172 3.58172 0 8 0C12.4183 0 16 3.58172 16 8Z" fill="#04A971"/>
<path d="M4 4.00094V6.50065H4.291M4.291 6.50065C4.62292 5.67981 5.21784 4.99228 5.98251 4.54581C6.74719 4.09934 7.6384 3.91916 8.51648 4.03351C9.39457 4.14786 10.2099 4.55027 10.8347 5.17769C11.4595 5.80511 11.8584 6.62206 11.969 7.50053M4.291 6.50065H6.5M12 12V9.50029H11.7095M11.7095 9.50029C11.3771 10.3207 10.782 11.0076 10.0174 11.4537C9.25282 11.8998 8.36187 12.0798 7.48405 11.9654C6.60623 11.8511 5.7911 11.449 5.16627 10.822C4.54144 10.195 4.14218 9.37853 4.031 8.50041M11.7095 9.50029H9.5" stroke="white" stroke-linecap="round" stroke-linejoin="round"/>
</svg>
