<svg width="16" height="16" viewBox="0 0 16 16" fill="none" xmlns="http://www.w3.org/2000/svg">
<rect width="16" height="16" rx="4" fill="#FFD077"/>
<path d="M7.99996 5.69231C8.74342 5.69231 9.34611 5.08961 9.34611 4.34615C9.34611 3.60269 8.74342 3 7.99996 3C7.2565 3 6.6538 3.60269 6.6538 4.34615C6.6538 5.08961 7.2565 5.69231 7.99996 5.69231Z" fill="white"/>
<path d="M5 8C5 7.36275 5.51659 6.84615 6.15385 6.84615H8.57688C9.00171 6.84615 9.34611 7.19055 9.34611 7.61539V11.8462C9.34611 12.4834 8.82952 13 8.19227 13C7.55501 13 7.03842 12.4834 7.03842 11.8462V9.15385H6.15385C5.51659 9.15385 5 8.63725 5 8Z" fill="white"/>
</svg>
