<svg width="15" height="16" viewBox="0 0 15 16" fill="none" xmlns="http://www.w3.org/2000/svg">
<path d="M4.3879 7.72536C4.23352 7.97648 4.03615 8.17697 3.79597 8.3263L3.77783 13.561C4.53247 14.0544 5.07215 14.3432 5.39687 14.4274C5.70544 14.5076 6.35378 14.5394 7.34152 14.5227L4.3879 7.72536ZM4.3879 7.72536C4.81401 7.03187 5.47378 5.80929 6.36738 4.05779V1.43137C6.77554 1.15466 7.19277 1.15248 7.61907 1.42465C8.37371 1.90639 8.7797 2.68897 8.83684 3.77202L4.3879 7.72536ZM13.0763 8.2687L13.0625 8.27575L13.0754 8.28432C13.4467 8.53147 13.6916 8.95364 13.6916 9.43312C13.6916 9.96217 13.3937 10.4213 12.9568 10.6526L12.9611 10.6606L12.9653 10.6686L12.981 10.6983C12.9983 10.7322 13.0142 10.767 13.0287 10.8024L12.9531 10.665C13.0596 10.8587 13.1202 11.0813 13.1202 11.318C13.1202 11.9695 12.6614 12.5139 12.0494 12.6458L12.0513 12.6547L12.0532 12.6636L12.069 12.7366C12.0741 12.7639 12.0785 12.7914 12.0821 12.8192L12.0425 12.6568C12.0708 12.7728 12.0862 12.894 12.0862 13.019C12.0862 13.8447 11.4285 14.5136 10.6177 14.5136H8.43249L7.34152 14.5136L7.34137 14.5136C6.35337 14.5303 5.70631 14.4985 5.39915 14.4186C5.07666 14.335 4.53952 14.0479 3.78692 13.5561L3.80502 8.33135C4.04452 8.18152 4.24145 7.98088 4.39562 7.7301C4.82195 7.03628 5.48186 5.81341 6.37546 4.06191L6.37645 4.06242V4.05779V1.43618C6.57801 1.30044 6.78131 1.23234 6.98647 1.23125C7.193 1.23015 7.4022 1.29695 7.61419 1.43229C8.36577 1.91208 8.77069 2.69154 8.82777 3.77223L8.82088 5.93573L8.82995 5.93576L8.83901 5.93579L11.676 5.94482H12.517C13.1957 5.94482 13.746 6.49526 13.746 7.17412C13.746 7.6516 13.4738 8.06515 13.0763 8.2687Z" fill="#FDF2CC" stroke="#1C2A38" stroke-width="0.0181347"/>
<path fill-rule="evenodd" clip-rule="evenodd" d="M7.02257 14.7699C6.43791 14.7699 5.67057 14.7518 5.33551 14.6647C4.82413 14.5319 3.76328 13.8442 3.64392 13.7662L3.53271 13.6934L3.55176 8.19015L3.66677 8.11848C3.66931 8.11685 3.9826 7.91726 4.17924 7.59719C4.75665 6.65748 5.93052 4.37398 6.12263 3.99894V1.30174L6.2302 1.2288C6.26466 1.2054 6.58013 1 7.01659 1C7.27708 1 7.52416 1.07349 7.75091 1.21828C8.97503 1.99977 9.0777 3.68776 9.08151 3.75925L9.08169 3.77304L9.07571 5.69092H12.5171C13.3349 5.69092 14.0001 6.35646 14.0001 7.17424C14.0001 7.61334 13.8093 8.01959 13.4862 8.29757C13.7783 8.59895 13.9457 9.00412 13.9457 9.43324C13.9457 9.96179 13.6926 10.4497 13.2727 10.7545C13.3394 10.934 13.3743 11.1254 13.3743 11.3181C13.3743 11.9927 12.9469 12.594 12.3299 12.8274C12.3368 12.891 12.3403 12.9551 12.3403 13.0191C12.3403 13.9834 11.5675 14.7679 10.6178 14.7679H7.34184C7.34184 14.7679 7.21377 14.7699 7.02257 14.7699ZM4.02341 13.4278C4.39221 13.6622 5.12889 14.1049 5.4585 14.1906C5.67782 14.2474 6.24779 14.28 7.02257 14.28C7.21123 14.28 7.33658 14.278 7.33767 14.278H10.6178C11.2975 14.278 11.8505 13.7132 11.8505 13.0191C11.8505 12.9161 11.838 12.813 11.8136 12.713L11.7538 12.4685L11.9998 12.4153C12.5124 12.3048 12.8845 11.8434 12.8845 11.3181C12.8845 11.1294 12.8368 10.9429 12.7466 10.7787L12.6269 10.5606L12.8466 10.4443C13.2224 10.2452 13.4559 9.85782 13.4559 9.43324C13.4559 9.04984 13.2649 8.69366 12.9449 8.48083L12.5969 8.24948L12.9688 8.05897C13.3028 7.88786 13.5103 7.54892 13.5103 7.17424C13.5103 6.62645 13.0648 6.18082 12.5171 6.18082H8.58446L8.5919 3.77957C8.58483 3.67941 8.46601 2.25597 7.48751 1.63125C7.34057 1.53744 7.18221 1.4899 7.01659 1.4899C6.84951 1.4899 6.70511 1.53799 6.61242 1.57881V4.11688L6.58575 4.16931C6.53079 4.27691 5.23356 6.81697 4.59665 7.85375C4.42051 8.14044 4.18087 8.34746 4.04065 8.45361L4.02341 13.4278Z" fill="#1C2A38" stroke="#1C2A38" stroke-width="0.466667"/>
<g filter="url(#filter0_i_162_7142)">
<path d="M4.20913 14.3329C4.20913 14.7015 3.93321 15.0001 3.5929 15.0001H0.616231C0.275916 15.0001 0 14.7015 0 14.3329V8.04675C0 7.67824 0.275916 7.37939 0.616231 7.37939H3.5929C3.93321 7.37939 4.20913 7.67824 4.20913 8.04675V8.30495V14.3329Z" fill="url(#paint0_linear_162_7142)"/>
</g>
<path d="M2.69849 13.085C2.4077 13.085 2.17188 13.3207 2.17188 13.6114C2.17188 13.9021 2.4077 14.1379 2.69849 14.1379C2.98928 14.1379 3.22511 13.9021 3.22511 13.6114C3.22511 13.3207 2.98928 13.085 2.69849 13.085Z" fill="white"/>
<defs>
<filter id="filter0_i_162_7142" x="-0.7" y="7.37939" width="4.90898" height="8.55394" filterUnits="userSpaceOnUse" color-interpolation-filters="sRGB">
<feFlood flood-opacity="0" result="BackgroundImageFix"/>
<feBlend mode="normal" in="SourceGraphic" in2="BackgroundImageFix" result="shape"/>
<feColorMatrix in="SourceAlpha" type="matrix" values="0 0 0 0 0 0 0 0 0 0 0 0 0 0 0 0 0 0 127 0" result="hardAlpha"/>
<feOffset dx="-0.7" dy="0.933333"/>
<feGaussianBlur stdDeviation="1.16667"/>
<feComposite in2="hardAlpha" operator="arithmetic" k2="-1" k3="1"/>
<feColorMatrix type="matrix" values="0 0 0 0 0 0 0 0 0 0 0 0 0 0 0 0 0 0 0.1 0"/>
<feBlend mode="normal" in2="shape" result="effect1_innerShadow_162_7142"/>
</filter>
<linearGradient id="paint0_linear_162_7142" x1="4.07479" y1="7.3794" x2="-0.173313" y2="7.5149" gradientUnits="userSpaceOnUse">
<stop stop-color="#FCB937"/>
<stop offset="1" stop-color="#FCE300"/>
</linearGradient>
</defs>
</svg>
