<svg width="18" height="26" viewBox="0 0 18 26" fill="none" xmlns="http://www.w3.org/2000/svg">
<path d="M8.99884 20.1023C5.9146 20.1023 2.63672 21.1358 2.63672 23.0509C2.63672 24.9661 5.91467 25.9997 8.99884 25.9997C12.083 25.9997 15.361 24.9661 15.361 23.0509C15.361 21.1358 12.083 20.1023 8.99884 20.1023Z" fill="#0D1D28"/>
<path fill-rule="evenodd" clip-rule="evenodd" d="M0 9.11449C0 4.08876 4.0374 0 9 0C13.9626 0 18 4.08876 18 9.11449C18 12.2348 16.5343 15.5898 13.6436 19.0862C11.5154 21.6604 9.41768 23.3146 9.32943 23.3838C9.23243 23.4598 9.11621 23.4978 9 23.4978C8.88378 23.4978 8.7675 23.4598 8.67057 23.3838C8.58224 23.3146 6.48472 21.6604 4.35643 19.0862C1.46569 15.5898 0 12.2348 0 9.11449ZM9.00037 12.5323C10.8643 12.5323 12.3753 11.0021 12.3753 9.11453C12.3753 7.22694 10.8643 5.69664 9.00037 5.69664C7.13649 5.69664 5.62549 7.22694 5.62549 9.11453C5.62549 11.0021 7.13649 12.5323 9.00037 12.5323Z" fill="#FCD341"/>
<path d="M8.99884 24.6386C6.30275 24.6386 3.45875 23.8488 2.78563 22.3706C2.68877 22.5833 2.63672 22.8104 2.63672 23.0514C2.63672 24.9667 5.91467 26.0001 8.99884 26.0001C12.083 26.0001 15.361 24.9666 15.361 23.0514C15.361 22.8104 15.3089 22.5834 15.2121 22.3706C14.539 23.8488 11.695 24.6386 8.99884 24.6386Z" fill="#6C634D"/>
<path d="M9.00014 0C8.65738 0 8.31927 0.0201842 7.9864 0.0581568C12.4735 0.569878 15.9726 4.43581 15.9726 9.11449C15.9726 12.2348 14.5069 15.5898 11.6162 19.0862C10.1965 20.8033 8.79144 22.11 7.98633 22.8111C8.38824 23.1611 8.64132 23.3607 8.67071 23.3837C8.76764 23.4598 8.88393 23.4977 9.00014 23.4977C9.11636 23.4977 9.23257 23.4598 9.32957 23.3837C9.41783 23.3145 11.5155 21.6603 13.6437 19.0861C16.5344 15.5897 18.0001 12.2347 18.0001 9.11442C18.0001 4.08876 13.9627 0 9.00014 0Z" fill="#FABF27"/>
</svg>
