<svg width="30" height="30" viewBox="0 0 30 30" fill="none" xmlns="http://www.w3.org/2000/svg">
<path d="M15.4965 15.4035C17.515 15.4035 19.1512 13.8097 19.1512 11.8436C19.1512 9.87751 17.515 8.28369 15.4965 8.28369C13.4781 8.28369 11.8418 9.87751 11.8418 11.8436C11.8418 13.8097 13.4781 15.4035 15.4965 15.4035Z" fill="#FCD400"/>
<path d="M7.07202 7.5378C8.024 5.85378 9.56686 4.46819 11.4818 3.71145C12.5213 3.29577 13.6264 3.06129 14.7535 3.00799C15.0052 2.99734 15.2568 2.99734 15.4976 3.00799C15.7492 2.99734 15.99 2.99734 16.2416 3.00799C17.3687 3.06129 18.4739 3.30643 19.5134 3.71145C21.5924 4.5428 23.2447 6.10958 24.1638 7.99611C26.2757 12.3447 24.0435 17.2582 21.286 20.9247C20.4653 22.0119 19.5571 23.0457 18.6489 24.0796C17.7407 25.1135 16.7559 26.1367 15.596 26.9787C15.5632 27 15.5304 27 15.4976 27C15.4647 27 15.4319 27 15.3991 26.9787C14.2064 26.158 13.2544 25.1135 12.3462 24.0796C11.438 23.0457 10.5298 22.0119 9.70911 20.9247C7.27993 17.6846 5.24467 13.4639 6.27324 9.53092" stroke="#2D2A2E" stroke-width="0.9" stroke-miterlimit="10" stroke-linecap="round" stroke-linejoin="round"/>
<path d="M15.4965 15.4035C17.515 15.4035 19.1512 13.8097 19.1512 11.8436C19.1512 9.87751 17.515 8.28369 15.4965 8.28369C13.4781 8.28369 11.8418 9.87751 11.8418 11.8436C11.8418 13.8097 13.4781 15.4035 15.4965 15.4035Z" stroke="#2D2A2E" stroke-width="0.9" stroke-miterlimit="10" stroke-linecap="round" stroke-linejoin="round"/>
</svg>
