<svg width="16" height="16" viewBox="0 0 16 16" fill="none" xmlns="http://www.w3.org/2000/svg">
<path d="M6 10.6667H3.33333C2.97971 10.6667 2.64057 10.5263 2.39052 10.2762C2.14048 10.0262 2 9.68704 2 9.33342V4.00008C2 3.64646 2.14048 3.30732 2.39052 3.05727C2.64057 2.80722 2.97971 2.66675 3.33333 2.66675H12.6667C13.0203 2.66675 13.3594 2.80722 13.6095 3.05727C13.8595 3.30732 14 3.64646 14 4.00008V9.33342C14 9.68704 13.8595 10.0262 13.6095 10.2762C13.3594 10.5263 13.0203 10.6667 12.6667 10.6667H9.33333L6 14.0001V10.6667Z" fill="#0F88F8"/>
</svg>
