<svg width="30" height="30" viewBox="0 0 30 30" fill="none" xmlns="http://www.w3.org/2000/svg">
<path d="M17.6544 23.1006C17.6544 24.7 16.4318 26.0002 14.9375 26.0002C13.4433 26.0002 12.2207 24.7 12.2207 23.1006" fill="#FCD400"/>
<path d="M17.6544 23.1006C17.6544 24.7 16.4318 26.0002 14.9375 26.0002C13.4433 26.0002 12.2207 24.7 12.2207 23.1006" stroke="#2D2A2E" stroke-width="1.2"/>
<path d="M13.1087 6.93056C12.9833 6.66227 12.9102 6.36303 12.9102 6.05346C12.9102 4.91838 13.8402 4 14.9896 4C16.139 4 17.069 4.91838 17.069 6.05346C17.069 6.34239 17.0063 6.61068 16.9018 6.85833" stroke="#2D2A2E" stroke-width="1.2" stroke-miterlimit="10" stroke-linecap="round" stroke-linejoin="round"/>
<path d="M13.748 6.96155C6.59016 7.84897 8.14712 17.0741 8.14712 17.0741C8.5442 19.3133 6.8305 19.2513 6.8305 19.2513C5.9632 19.2513 5.24219 20.0356 5.24219 20.892V21.2635C5.24219 22.12 5.95275 22.8217 6.82005 22.8217H23.1107C23.978 22.8217 24.6885 22.12 24.6885 21.2635V20.892C24.6885 20.0356 23.978 19.3339 23.1107 19.3339C23.1107 19.3339 21.4283 19.5506 21.6896 16.7542C21.6896 16.7542 23.0689 8.06567 16.3395 7.00282" stroke="#2D2A2E" stroke-width="1.2" stroke-miterlimit="10" stroke-linecap="round" stroke-linejoin="round"/>
<path d="M17.6544 23.1006C17.6544 24.7 16.4318 26.0002 14.9375 26.0002C13.4433 26.0002 12.2207 24.7 12.2207 23.1006" stroke="#2D2A2E" stroke-width="1.2" stroke-miterlimit="10" stroke-linecap="round" stroke-linejoin="round"/>
<path d="M5 12.4308C5 12.4308 5.30303 9.03585 8.28111 6.57996" stroke="#2D2A2E" stroke-width="1.2" stroke-miterlimit="10" stroke-linecap="round" stroke-linejoin="round"/>
<path d="M24.9999 12.4308C24.9999 12.4308 24.6968 9.03585 21.7188 6.57996" stroke="#2D2A2E" stroke-width="1.2" stroke-miterlimit="10" stroke-linecap="round" stroke-linejoin="round"/>
</svg>
