<svg width="24" height="25" viewBox="0 0 24 25" fill="none" xmlns="http://www.w3.org/2000/svg">
<path d="M14.9204 21.8367C14.9204 23.5815 13.5755 24.9999 11.9319 24.9999C10.2882 24.9999 8.94336 23.5815 8.94336 21.8367" fill="black"/>
<path d="M9.92005 4.197C9.78212 3.90431 9.70166 3.57786 9.70166 3.24015C9.70166 2.00188 10.7246 1 11.989 1C13.2534 1 14.2764 2.00188 14.2764 3.24015C14.2764 3.55535 14.2074 3.84803 14.0925 4.1182" stroke="black" stroke-width="0.9" stroke-miterlimit="10" stroke-linecap="round" stroke-linejoin="round"/>
<path d="M10.6219 4.23071C2.74838 5.19882 4.46103 15.2626 4.46103 15.2626C4.89781 17.7054 3.01275 17.6378 3.01275 17.6378C2.05873 17.6378 1.26562 18.4934 1.26562 19.4277V19.833C1.26562 20.7673 2.04723 21.5328 3.00126 21.5328H20.9208C21.8748 21.5328 22.6564 20.7673 22.6564 19.833V19.4277C22.6564 18.4934 21.8748 17.7279 20.9208 17.7279C20.9208 17.7279 19.0702 17.9643 19.3576 14.9136C19.3576 14.9136 20.8748 5.43522 13.4725 4.27574" stroke="black" stroke-width="0.9" stroke-miterlimit="10" stroke-linecap="round" stroke-linejoin="round"/>
<path d="M1 10.1969C1 10.1969 1.33333 6.49338 4.6092 3.81421" stroke="black" stroke-width="0.9" stroke-miterlimit="10" stroke-linecap="round" stroke-linejoin="round"/>
<path d="M22.9998 10.1969C22.9998 10.1969 22.6665 6.49338 19.3906 3.81421" stroke="black" stroke-width="0.9" stroke-miterlimit="10" stroke-linecap="round" stroke-linejoin="round"/>
</svg>
