<svg width="30" height="30" viewBox="0 0 30 30" fill="none" xmlns="http://www.w3.org/2000/svg">
<path d="M17.9204 23.8368C17.9204 25.5816 16.5755 27 14.9319 27C13.2882 27 11.9434 25.5816 11.9434 23.8368" fill="#FCD400"/>
<path d="M12.9201 6.197C12.7821 5.90431 12.7017 5.57786 12.7017 5.24015C12.7017 4.00188 13.7246 3 14.989 3C16.2534 3 17.2764 4.00188 17.2764 5.24015C17.2764 5.55535 17.2074 5.84803 17.0925 6.1182" stroke="#D2D9DE" stroke-width="0.9" stroke-miterlimit="10" stroke-linecap="round" stroke-linejoin="round"/>
<path d="M13.6219 6.23071C5.74838 7.19882 7.46103 17.2626 7.46103 17.2626C7.89781 19.7054 6.01275 19.6378 6.01275 19.6378C5.05873 19.6378 4.26562 20.4934 4.26562 21.4277V21.833C4.26562 22.7673 5.04723 23.5328 6.00126 23.5328H23.9208C24.8748 23.5328 25.6564 22.7673 25.6564 21.833V21.4277C25.6564 20.4934 24.8748 19.7279 23.9208 19.7279C23.9208 19.7279 22.0702 19.9643 22.3576 16.9136C22.3576 16.9136 23.8748 7.43522 16.4725 6.27574" stroke="#D2D9DE" stroke-width="0.9" stroke-miterlimit="10" stroke-linecap="round" stroke-linejoin="round"/>
<path d="M4 12.1969C4 12.1969 4.33333 8.49338 7.6092 5.81421" stroke="#D2D9DE" stroke-width="0.9" stroke-miterlimit="10" stroke-linecap="round" stroke-linejoin="round"/>
<path d="M25.9998 12.1969C25.9998 12.1969 25.6665 8.49338 22.3906 5.81421" stroke="#D2D9DE" stroke-width="0.9" stroke-miterlimit="10" stroke-linecap="round" stroke-linejoin="round"/>
</svg>
