<svg width="30" height="30" viewBox="0 0 30 30" fill="none" xmlns="http://www.w3.org/2000/svg">
<path d="M18.9724 6.00951H7.57171C6.93725 6.00951 6.42969 5.47357 6.42969 4.80364V4.20587C6.42969 3.53594 6.93725 3 7.57171 3H18.9627" fill="#FCD400"/>
<path d="M18.9724 6.00951H7.57171C6.93725 6.00951 6.42969 5.47357 6.42969 4.80364V4.20587C6.42969 3.53594 6.93725 3 7.57171 3H18.9627C19.7533 3 20.3877 3.68023 20.3877 4.50476C20.3975 5.33958 19.763 6.00951 18.9724 6.00951Z" stroke="#2D2A2E" stroke-width="0.9" stroke-miterlimit="10" stroke-linecap="round" stroke-linejoin="round"/>
<path d="M21.256 17.7589V12.3067L19.5967 5.88574" stroke="#2D2A2E" stroke-width="0.9" stroke-miterlimit="10" stroke-linecap="round" stroke-linejoin="round"/>
<path d="M7.65935 6.04053L6 12.3069V23.1288C6 23.6956 6.43924 24.1594 6.97609 24.1594H15.39" stroke="#2D2A2E" stroke-width="0.9" stroke-miterlimit="10" stroke-linecap="round" stroke-linejoin="round"/>
<path d="M19.5381 17.2746V12.9871" stroke="#2D2A2E" stroke-width="0.9" stroke-miterlimit="10" stroke-linecap="round" stroke-linejoin="round"/>
<path d="M19.2747 3C19.2747 3 18.1815 4.39138 19.2747 6.01982L17.8105 12.5542V17.8208" stroke="#2D2A2E" stroke-width="0.9" stroke-miterlimit="10" stroke-linecap="round" stroke-linejoin="round"/>
<path d="M8.28418 9.16333H17.0006" stroke="#2D2A2E" stroke-width="0.9" stroke-miterlimit="10" stroke-linecap="round" stroke-linejoin="round"/>
<path d="M23.7938 20.8614C24.1256 21.9745 24.0671 23.2215 23.54 24.3553C22.4565 26.6949 19.7723 27.6637 17.5566 26.5196C15.3409 25.3756 14.4233 22.5413 15.5068 20.2017C16.5903 17.8621 19.2745 16.8933 21.4902 18.0374C22.1832 18.3981 22.7494 18.9237 23.1691 19.5421" stroke="#2D2A2E" stroke-width="0.9" stroke-miterlimit="10" stroke-linecap="round" stroke-linejoin="round"/>
<path d="M17.6152 22.057L18.9622 23.469L21.4415 21.0779" stroke="#2D2A2E" stroke-width="0.9" stroke-miterlimit="10" stroke-linecap="round" stroke-linejoin="round"/>
</svg>
