<svg width="30" height="30" viewBox="0 0 30 30" fill="none" xmlns="http://www.w3.org/2000/svg">
<path d="M20.1202 5.2194H9.87207L11.0235 3H18.9688L20.1202 5.2194Z" fill="#FCD400"/>
<path d="M20.7031 4.33813H22.6624C23.9521 4.33813 24.9999 5.26289 24.9999 6.39435V24.9329" stroke="#2D2A2E" stroke-miterlimit="10" stroke-linecap="round" stroke-linejoin="round"/>
<path d="M22.6522 27H7.3375C6.04785 27 5 26.0752 5 24.9438V6.39435C5 5.25201 6.04785 4.33813 7.3375 4.33813H9.19317" stroke="#2D2A2E" stroke-miterlimit="10" stroke-linecap="round" stroke-linejoin="round"/>
<path d="M13.625 9.60376H21.7544" stroke="#2D2A2E" stroke-miterlimit="10" stroke-linecap="round" stroke-linejoin="round"/>
<path d="M13.625 15.0435H19.463" stroke="#2D2A2E" stroke-miterlimit="10" stroke-linecap="round" stroke-linejoin="round"/>
<path d="M13.625 20.4832H17.1946" stroke="#2D2A2E" stroke-miterlimit="10" stroke-linecap="round" stroke-linejoin="round"/>
<path d="M7.30273 9.36446L8.88026 10.8658L11.805 8.3418" stroke="#2D2A2E" stroke-miterlimit="10" stroke-linecap="round" stroke-linejoin="round"/>
<path d="M7.30273 14.8042L8.88026 16.3055L11.805 13.7815" stroke="#2D2A2E" stroke-miterlimit="10" stroke-linecap="round" stroke-linejoin="round"/>
<path d="M7.30273 20.2439L8.88026 21.7452L11.805 19.2212" stroke="#2D2A2E" stroke-miterlimit="10" stroke-linecap="round" stroke-linejoin="round"/>
<path d="M20.1191 5.7194C20.2934 5.7194 20.4552 5.62859 20.5459 5.47974C20.6367 5.3309 20.6434 5.14551 20.5636 4.99051L19.7345 3.38036L19.7346 3.38034L19.7319 3.37538C19.4462 2.8354 18.8691 2.5 18.2537 2.5H11.7363C11.1208 2.5 10.5438 2.8354 10.258 3.37538L10.258 3.37537L10.2567 3.37786L9.41614 4.98801C9.33522 5.14301 9.34115 5.32901 9.43177 5.47854C9.52239 5.62807 9.68453 5.7194 9.85938 5.7194H20.1191Z" stroke="#2D2A2E" stroke-miterlimit="10" stroke-linecap="round" stroke-linejoin="round"/>
</svg>
