<svg width="30" height="30" viewBox="0 0 30 30" fill="none" xmlns="http://www.w3.org/2000/svg">
<path d="M11.2511 8.80484C10.5444 7.27356 11.2101 5.49208 12.7362 4.81151C14.2623 4.13094 16.0752 4.78148 16.7819 6.31276L11.2511 8.80484Z" fill="#FCD400"/>
<path d="M11.2511 8.80484C10.5444 7.27356 11.2101 5.49208 12.7362 4.81151C14.2623 4.13094 16.0752 4.78148 16.7819 6.31276L11.2511 8.80484Z" stroke="black" stroke-miterlimit="10" stroke-linecap="round" stroke-linejoin="round"/>
<path d="M23.9528 14.98V20.5046C23.9528 22.166 22.5803 23.5071 20.8801 23.5071H18.9443" stroke="black" stroke-miterlimit="10" stroke-linecap="round" stroke-linejoin="round"/>
<path d="M11.109 23.5071H9.11173C7.41152 23.5071 6.03906 22.166 6.03906 20.5046V14.98" stroke="black" stroke-miterlimit="10" stroke-linecap="round" stroke-linejoin="round"/>
<path d="M17.7761 20.6646C18.4316 21.3352 18.8311 22.2459 18.8311 23.2468C18.8311 25.3185 17.1104 26.9999 14.9902 26.9999C12.8701 26.9999 11.1494 25.3185 11.1494 23.2468C11.1494 21.1751 12.8701 19.4937 14.9902 19.4937C15.656 19.4937 16.2808 19.6538 16.8236 19.944" stroke="black" stroke-miterlimit="10" stroke-linecap="round" stroke-linejoin="round"/>
<path d="M15 20.6636V23.2457L16.7719 24.3366" stroke="black" stroke-miterlimit="10" stroke-linecap="round" stroke-linejoin="round"/>
<path d="M4 12.2377L24.0543 3" stroke="black" stroke-miterlimit="10" stroke-linecap="round" stroke-linejoin="round"/>
<path d="M10.6472 11.3669C9.78687 11.3669 9.78687 12.668 10.6472 12.668C11.5076 12.668 11.5076 11.3669 10.6472 11.3669Z" stroke="black" stroke-miterlimit="10" stroke-linecap="round" stroke-linejoin="round"/>
<path d="M13.0938 12.4279L15.4392 10.126" stroke="black" stroke-miterlimit="10" stroke-linecap="round" stroke-linejoin="round"/>
<path d="M19.5372 12.1276C19.5372 12.1276 17.7653 12.2177 18.0214 10.3061C18.0214 10.3061 18.2365 9.28525 19.4451 8.81486C19.4451 8.81486 19.6089 7.5438 20.9712 7.47374C20.9712 7.47374 22.1593 7.40368 22.7123 8.78483C22.7123 8.78483 24.177 9.05506 23.9004 10.7565C23.9004 10.7565 23.7058 12.2277 22.3846 12.1176H19.5372V12.1276Z" stroke="black" stroke-miterlimit="10" stroke-linecap="round" stroke-linejoin="round"/>
<path d="M4.08203 14.98H6.0383H24.0441H26.0004" stroke="black" stroke-miterlimit="10" stroke-linecap="round" stroke-linejoin="round"/>
</svg>
