<svg width="79" height="30" viewBox="0 0 79 30" fill="none" xmlns="http://www.w3.org/2000/svg">
<rect width="79" height="30" rx="6" fill="#F2F5F8"/>
<path d="M24.7141 18.8808L21.1783 22.4167C21.0236 22.5715 20.84 22.6942 20.6379 22.778C20.4358 22.8618 20.2191 22.9049 20.0003 22.9049C19.7815 22.9049 19.5649 22.8618 19.3628 22.778C19.1607 22.6942 18.9771 22.5715 18.8224 22.4167L15.2858 18.8808C14.3534 17.9485 13.7185 16.7606 13.4613 15.4674C13.2041 14.1742 13.3362 12.8338 13.8408 11.6156C14.3454 10.3975 15.1998 9.35628 16.2962 8.62376C17.3925 7.89123 18.6814 7.50024 19.9999 7.50024C21.3184 7.50024 22.6074 7.89123 23.7037 8.62376C24.8 9.35628 25.6545 10.3975 26.1591 11.6156C26.6637 12.8338 26.7957 14.1742 26.5385 15.4674C26.2813 16.7606 25.6464 17.9485 24.7141 18.8808V18.8808Z" stroke="#6D7E8B" stroke-width="1.33" stroke-linecap="round" stroke-linejoin="round"/>
<path d="M22.5 14.1667C22.5 14.8298 22.2366 15.4657 21.7678 15.9345C21.2989 16.4034 20.663 16.6667 20 16.6667C19.337 16.6667 18.7011 16.4034 18.2322 15.9345C17.7634 15.4657 17.5 14.8298 17.5 14.1667C17.5 13.5037 17.7634 12.8678 18.2322 12.399C18.7011 11.9301 19.337 11.6667 20 11.6667C20.663 11.6667 21.2989 11.9301 21.7678 12.399C22.2366 12.8678 22.5 13.5037 22.5 14.1667V14.1667Z" stroke="#6D7E8B" stroke-width="1.33" stroke-linecap="round" stroke-linejoin="round"/>
<path d="M40.704 19.084C39.928 19.084 39.212 18.904 38.556 18.544C37.908 18.176 37.392 17.668 37.008 17.02C36.632 16.364 36.444 15.628 36.444 14.812C36.444 13.996 36.632 13.264 37.008 12.616C37.392 11.968 37.908 11.464 38.556 11.104C39.212 10.736 39.928 10.552 40.704 10.552C41.488 10.552 42.204 10.736 42.852 11.104C43.508 11.464 44.024 11.968 44.4 12.616C44.776 13.264 44.964 13.996 44.964 14.812C44.964 15.628 44.776 16.364 44.4 17.02C44.024 17.668 43.508 18.176 42.852 18.544C42.204 18.904 41.488 19.084 40.704 19.084ZM40.704 17.896C41.256 17.896 41.748 17.772 42.18 17.524C42.612 17.268 42.948 16.908 43.188 16.444C43.436 15.972 43.56 15.428 43.56 14.812C43.56 14.196 43.436 13.656 43.188 13.192C42.948 12.728 42.612 12.372 42.18 12.124C41.748 11.876 41.256 11.752 40.704 11.752C40.152 11.752 39.66 11.876 39.228 12.124C38.796 12.372 38.456 12.728 38.208 13.192C37.968 13.656 37.848 14.196 37.848 14.812C37.848 15.428 37.968 15.972 38.208 16.444C38.456 16.908 38.796 17.268 39.228 17.524C39.66 17.772 40.152 17.896 40.704 17.896ZM47.9302 13.504V17.164C47.9302 17.412 47.9862 17.592 48.0982 17.704C48.2182 17.808 48.4182 17.86 48.6982 17.86H49.5382V19H48.4582C47.8422 19 47.3702 18.856 47.0422 18.568C46.7142 18.28 46.5502 17.812 46.5502 17.164V13.504H45.7702V12.388H46.5502V10.744H47.9302V12.388H49.5382V13.504H47.9302ZM54.243 12.28C54.747 12.28 55.195 12.388 55.587 12.604C55.987 12.82 56.299 13.14 56.523 13.564C56.755 13.988 56.871 14.5 56.871 15.1V19H55.515V15.304C55.515 14.712 55.367 14.26 55.071 13.948C54.775 13.628 54.371 13.468 53.859 13.468C53.347 13.468 52.939 13.628 52.635 13.948C52.339 14.26 52.191 14.712 52.191 15.304V19H50.823V10.12H52.191V13.156C52.423 12.876 52.715 12.66 53.067 12.508C53.427 12.356 53.819 12.28 54.243 12.28ZM64.7 15.532C64.7 15.78 64.684 16.004 64.652 16.204H59.6C59.64 16.732 59.836 17.156 60.188 17.476C60.54 17.796 60.972 17.956 61.484 17.956C62.22 17.956 62.74 17.648 63.044 17.032H64.52C64.32 17.64 63.956 18.14 63.428 18.532C62.908 18.916 62.26 19.108 61.484 19.108C60.852 19.108 60.284 18.968 59.78 18.688C59.284 18.4 58.892 18 58.604 17.488C58.324 16.968 58.184 16.368 58.184 15.688C58.184 15.008 58.32 14.412 58.592 13.9C58.872 13.38 59.26 12.98 59.756 12.7C60.26 12.42 60.836 12.28 61.484 12.28C62.108 12.28 62.664 12.416 63.152 12.688C63.64 12.96 64.02 13.344 64.292 13.84C64.564 14.328 64.7 14.892 64.7 15.532ZM63.272 15.1C63.264 14.596 63.084 14.192 62.732 13.888C62.38 13.584 61.944 13.432 61.424 13.432C60.952 13.432 60.548 13.584 60.212 13.888C59.876 14.184 59.676 14.588 59.612 15.1H63.272ZM67.4382 13.348C67.6382 13.012 67.9022 12.752 68.2302 12.568C68.5662 12.376 68.9622 12.28 69.4182 12.28V13.696H69.0702C68.5342 13.696 68.1262 13.832 67.8462 14.104C67.5742 14.376 67.4382 14.848 67.4382 15.52V19H66.0702V12.388H67.4382V13.348Z" fill="#6D7E8B"/>
</svg>
