<svg width="30" height="30" viewBox="0 0 30 30" fill="none" xmlns="http://www.w3.org/2000/svg">
<path d="M15.3284 22.4224C19.1072 22.4224 22.1705 19.266 22.1705 15.3723C22.1705 11.4787 19.1072 8.32227 15.3284 8.32227C11.5496 8.32227 8.48633 11.4787 8.48633 15.3723C8.48633 19.266 11.5496 22.4224 15.3284 22.4224Z" fill="#FCD400"/>
<path d="M18.9627 13.7465H17.5942C17.5268 13.3625 17.3774 13.0178 17.151 12.7211L18.6206 12.7254L18.9723 11.5647H12.6024L12.2266 12.9131H14.0383C14.9682 12.9131 15.5127 13.2272 15.7343 13.7465H12.5735L12.2266 14.8898H15.7825C15.5802 15.492 14.9875 15.8585 14.0383 15.8585H12.3711L12.3759 16.8272L15.7488 20.5014H17.7581V20.4228L14.7128 17.041L14.7707 17.0236C16.5246 16.8141 17.3822 16.033 17.5894 14.8898H18.6206L18.9627 13.7465Z" fill="#2D2A2E" stroke="#FCD400" stroke-width="0.6"/>
<path d="M15.3284 22.4224C19.1072 22.4224 22.1705 19.266 22.1705 15.3723C22.1705 11.4787 19.1072 8.32227 15.3284 8.32227C11.5496 8.32227 8.48633 11.4787 8.48633 15.3723C8.48633 19.266 11.5496 22.4224 15.3284 22.4224Z" stroke="#2D2A2E" stroke-width="0.9" stroke-miterlimit="10"/>
<path d="M3.54102 12.6318C4.6107 7.14067 9.31344 3 14.9606 3C20.6559 3 25.3876 7.21018 26.3994 12.7708" stroke="#2D2A2E" stroke-width="0.9" stroke-miterlimit="10" stroke-linecap="round" stroke-linejoin="round"/>
<path d="M23.9043 11.5195L26.487 13.0487L27.9999 10.7649" stroke="#2D2A2E" stroke-width="0.9" stroke-miterlimit="10" stroke-linecap="round" stroke-linejoin="round"/>
<path d="M26.3611 17.418C25.2722 22.8892 20.5791 27.0001 14.9512 27.0001C9.34261 27.0001 4.66878 22.919 3.56055 17.4875" stroke="#2D2A2E" stroke-width="0.9" stroke-miterlimit="10" stroke-linecap="round" stroke-linejoin="round"/>
<path d="M6.09563 18.5995L3.51297 17.0703L2 19.3541" stroke="#2D2A2E" stroke-width="0.9" stroke-miterlimit="10" stroke-linecap="round" stroke-linejoin="round"/>
</svg>
