<svg width="127" height="41" viewBox="0 0 127 41" fill="none" xmlns="http://www.w3.org/2000/svg">
<path d="M122.329 0.367676H5.559C2.97938 0.367676 0.888184 2.59122 0.888184 5.33411V35.1327C0.888184 37.8756 2.97938 40.0992 5.559 40.0992H122.329C124.909 40.0992 127 37.8756 127 35.1327V5.33411C127 2.59122 124.909 0.367676 122.329 0.367676Z" fill="#2D2A2E"/>
<path d="M122.329 1.16231C123.37 1.16231 124.368 1.60183 125.104 2.3842C125.839 3.16656 126.253 4.22768 126.253 5.33411V35.1327C126.253 36.2392 125.839 37.3003 125.104 38.0826C124.368 38.865 123.37 39.3045 122.329 39.3045H5.559C4.51843 39.3045 3.52047 38.865 2.78468 38.0826C2.04888 37.3003 1.63551 36.2392 1.63551 35.1327V5.33411C1.63551 4.22768 2.04888 3.16656 2.78468 2.3842C3.52047 1.60183 4.51843 1.16231 5.559 1.16231H122.329ZM122.329 0.367676H5.559C4.32022 0.367676 3.13218 0.890924 2.25623 1.82231C1.38029 2.7537 0.888184 4.01693 0.888184 5.33411V35.1327C0.888184 36.4499 1.38029 37.7131 2.25623 38.6445C3.13218 39.5759 4.32022 40.0992 5.559 40.0992H122.329C123.568 40.0992 124.756 39.5759 125.632 38.6445C126.508 37.7131 127 36.4499 127 35.1327V5.33411C127 4.01693 126.508 2.7537 125.632 1.82231C124.756 0.890924 123.568 0.367676 122.329 0.367676Z" fill="#A6A6A6"/>
<path d="M45.186 10.5378C45.2013 10.9021 45.1472 11.2659 45.0267 11.6073C44.9063 11.9487 44.7222 12.2607 44.4854 12.5244C44.22 12.8157 43.8997 13.0442 43.5456 13.1948C43.1914 13.3454 42.8113 13.4149 42.4302 13.3985C42.0469 13.4076 41.6659 13.3329 41.3108 13.1792C40.9557 13.0254 40.634 12.7958 40.3657 12.5045C39.8214 11.9125 39.5166 11.1175 39.5166 10.2895C39.5166 9.46157 39.8214 8.66651 40.3657 8.07448C40.7819 7.64209 41.3089 7.35011 41.8807 7.23524C42.4524 7.12037 43.0434 7.18773 43.5792 7.42884C43.9161 7.57608 44.2166 7.80379 44.4573 8.09435L43.9622 8.62079C43.7767 8.38317 43.5417 8.1948 43.2757 8.07066C43.0098 7.94652 42.7203 7.89001 42.4302 7.90562C42.064 7.90832 41.7041 8.00633 41.3817 8.19111C41.0594 8.37588 40.7846 8.64179 40.5812 8.96559C40.3779 9.28938 40.2522 9.66121 40.2152 10.0486C40.1782 10.4359 40.231 10.827 40.369 11.1877C40.5069 11.5484 40.7259 11.8676 41.0067 12.1175C41.2875 12.3674 41.6216 12.5404 41.9798 12.6213C42.338 12.7022 42.7093 12.6886 43.0614 12.5817C43.4135 12.4748 43.7356 12.2778 43.9996 12.0079C44.2849 11.6752 44.4504 11.246 44.4667 10.7961H42.4302V10.0809H45.1486C45.1699 10.2323 45.1824 10.3849 45.186 10.5378Z" fill="white" stroke="white" stroke-width="0.19309" stroke-miterlimit="10"/>
<path d="M49.4643 8.05632H46.942V9.94357H49.2401V10.6587H46.942V12.546H49.4643V13.281H46.2134V7.32129H49.4643V8.05632Z" fill="white" stroke="white" stroke-width="0.19309" stroke-miterlimit="10"/>
<path d="M52.5284 13.281H51.8091V8.05632H50.2397V7.32129H54.1352V8.05632H52.5284V13.281Z" fill="white" stroke="white" stroke-width="0.19309" stroke-miterlimit="10"/>
<path d="M56.8818 13.281V7.32129H57.6011V13.281H56.8818Z" fill="white" stroke="white" stroke-width="0.19309" stroke-miterlimit="10"/>
<path d="M60.796 13.281H60.0767V8.05632H58.5073V7.32129H62.3561V8.05632H60.796V13.281Z" fill="white" stroke="white" stroke-width="0.19309" stroke-miterlimit="10"/>
<path d="M69.6522 12.5055C69.3824 12.7926 69.062 13.0204 68.7094 13.1758C68.3567 13.3312 67.9788 13.4112 67.597 13.4112C67.2153 13.4112 66.8373 13.3312 66.4847 13.1758C66.1321 13.0204 65.8117 12.7926 65.5419 12.5055C65.0138 11.9086 64.7197 11.1199 64.7197 10.3004C64.7197 9.48089 65.0138 8.69223 65.5419 8.09532C65.8059 7.80011 66.1252 7.56712 66.4792 7.41142C66.8332 7.25571 67.2141 7.18077 67.597 7.19143C67.9795 7.18499 68.3591 7.26187 68.7125 7.41732C69.066 7.57277 69.3858 7.80351 69.6522 8.09532C69.9208 8.38584 70.1319 8.73066 70.2731 9.10939C70.4143 9.48813 70.4827 9.89311 70.4742 10.3004C70.4865 10.7082 70.4199 11.1144 70.2785 11.4937C70.137 11.873 69.9239 12.2174 69.6522 12.5055ZM66.0743 12.0089C66.2733 12.2233 66.5104 12.3936 66.7718 12.5098C67.0332 12.626 67.3137 12.6858 67.597 12.6858C67.8803 12.6858 68.1608 12.626 68.4222 12.5098C68.6836 12.3936 68.9207 12.2233 69.1197 12.0089C69.5228 11.5431 69.7465 10.9333 69.7465 10.3004C69.7465 9.66749 69.5228 9.05769 69.1197 8.59196C68.9207 8.37753 68.6836 8.20727 68.4222 8.09106C68.1608 7.97485 67.8803 7.91501 67.597 7.91501C67.3137 7.91501 67.0332 7.97485 66.7718 8.09106C66.5104 8.20727 66.2733 8.37753 66.0743 8.59196C65.6713 9.05769 65.4475 9.66749 65.4475 10.3004C65.4475 10.9333 65.6713 11.5431 66.0743 12.0089Z" fill="white" stroke="white" stroke-width="0.19309" stroke-miterlimit="10"/>
<path d="M71.4922 13.281V7.32129H72.361L75.0887 11.9599V10.8077V7.32129H75.808V13.281H75.0607L72.2115 8.42384V9.56612V13.281H71.4922Z" fill="white" stroke="white" stroke-width="0.19309" stroke-miterlimit="10"/>
<path d="M64.5422 21.9718C63.7551 21.9737 62.9863 22.2238 62.3329 22.6904C61.6794 23.157 61.1708 23.8191 60.8714 24.593C60.5719 25.367 60.4949 26.218 60.6503 27.0384C60.8057 27.8588 61.1863 28.6118 61.7442 29.2022C62.302 29.7926 63.012 30.1938 63.7843 30.3552C64.5566 30.5165 65.3566 30.4307 66.0831 30.1086C66.8095 29.7866 67.4298 29.2427 67.8656 28.5457C68.3013 27.8488 68.5329 27.0301 68.5311 26.1932C68.5387 25.6349 68.4406 25.0807 68.2426 24.5636C68.0446 24.0464 67.7507 23.577 67.3785 23.1831C67.0064 22.7892 66.5634 22.479 66.0762 22.2709C65.5889 22.0628 65.0672 21.961 64.5422 21.9718ZM64.5422 28.7559C64.0598 28.7918 63.5783 28.6725 63.1605 28.4136C62.7427 28.1547 62.4078 27.7681 62.1993 27.3042C61.9909 26.8402 61.9185 26.3202 61.9916 25.812C62.0647 25.3037 62.28 24.8305 62.6094 24.454C62.9387 24.0775 63.367 23.8151 63.8385 23.7008C64.3101 23.5866 64.803 23.6258 65.2533 23.8134C65.7035 24.001 66.0903 24.3282 66.3633 24.7527C66.6364 25.1771 66.783 25.679 66.7842 26.1932C66.7992 26.519 66.7528 26.8448 66.6475 27.1512C66.5423 27.4576 66.3804 27.7385 66.1715 27.9773C65.9625 28.2162 65.7107 28.4081 65.4309 28.5418C65.1511 28.6756 64.8489 28.7483 64.5422 28.7559ZM55.8358 21.9718C55.0487 21.9737 54.2799 22.2238 53.6265 22.6904C52.9731 23.157 52.4644 23.8191 52.165 24.593C51.8655 25.367 51.7885 26.218 51.9439 27.0384C52.0993 27.8588 52.4799 28.6118 53.0378 29.2022C53.5956 29.7926 54.3056 30.1938 55.0779 30.3552C55.8502 30.5165 56.6502 30.4307 57.3767 30.1086C58.1031 29.7866 58.7234 29.2427 59.1592 28.5457C59.5949 27.8488 59.8265 27.0301 59.8247 26.1932C59.8323 25.6349 59.7342 25.0807 59.5362 24.5636C59.3382 24.0464 59.0443 23.577 58.6721 23.1831C58.3 22.7892 57.857 22.479 57.3698 22.2709C56.8825 22.0628 56.3608 21.961 55.8358 21.9718ZM55.8358 28.7559C55.3534 28.7918 54.8719 28.6725 54.4541 28.4136C54.0363 28.1547 53.7014 27.7681 53.4929 27.3042C53.2845 26.8402 53.2121 26.3202 53.2852 25.812C53.3583 25.3037 53.5736 24.8305 53.903 24.454C54.2324 24.0775 54.6606 23.8151 55.1321 23.7008C55.6037 23.5866 56.0966 23.6258 56.5469 23.8134C56.9971 24.001 57.3839 24.3282 57.6569 24.7527C57.93 25.1771 58.0766 25.679 58.0778 26.1932C58.0928 26.519 58.0464 26.8448 57.9411 27.1512C57.8359 27.4576 57.674 27.7385 57.4651 27.9773C57.2561 28.2162 57.0043 28.4081 56.7245 28.5418C56.4447 28.6756 56.1425 28.7483 55.8358 28.7559ZM45.4853 23.273V25.0609H49.5208C49.4576 25.903 49.1283 26.6976 48.5867 27.3156C48.1819 27.7542 47.695 28.0975 47.1575 28.3233C46.62 28.5492 46.044 28.6526 45.4666 28.6268C44.2773 28.6268 43.1368 28.1245 42.2959 27.2303C41.455 26.3362 40.9826 25.1235 40.9826 23.859C40.9826 22.5945 41.455 21.3818 42.2959 20.4877C43.1368 19.5935 44.2773 19.0912 45.4666 19.0912C46.6067 19.0732 47.7075 19.5336 48.5306 20.3726L49.717 19.1111C49.1602 18.5256 48.4992 18.0641 47.7725 17.7536C47.0459 17.4432 46.2683 17.2901 45.4853 17.3033C44.6548 17.2689 43.8263 17.4132 43.0495 17.7274C42.2728 18.0416 41.5636 18.5194 40.9646 19.132C40.3656 19.7446 39.8891 20.4794 39.5636 21.2925C39.2381 22.1057 39.0703 22.9803 39.0703 23.864C39.0703 24.7477 39.2381 25.6223 39.5636 26.4354C39.8891 27.2485 40.3656 27.9834 40.9646 28.596C41.5636 29.2086 42.2728 29.6863 43.0495 30.0005C43.8263 30.3147 44.6548 30.459 45.4853 30.4246C46.2844 30.4586 47.0812 30.3124 47.8234 29.9957C48.5656 29.679 49.2364 29.1989 49.7917 28.587C50.7727 27.4412 51.2954 25.9342 51.249 24.3854C51.2524 24.0127 51.2242 23.6404 51.165 23.273H45.4853ZM87.8122 24.6636C87.5686 23.9015 87.113 23.236 86.5058 22.7553C85.8985 22.2746 85.1683 22.0014 84.4118 21.9718C83.9008 21.9707 83.3951 22.0811 82.9258 22.2961C82.4565 22.5111 82.0337 22.8262 81.6835 23.2218C81.3333 23.6175 81.0631 24.0853 80.8897 24.5964C80.7162 25.1075 80.6432 25.651 80.6752 26.1932C80.6672 27.0999 80.9353 27.9851 81.4394 28.7164C81.9436 29.4478 82.6567 29.9861 83.4723 30.2509C84.2879 30.5158 85.1622 30.493 85.9646 30.1859C86.767 29.8789 87.4545 29.3041 87.9243 28.5473L86.5697 27.554C86.3678 27.9119 86.0814 28.2074 85.7389 28.4113C85.3965 28.6151 85.0098 28.7202 84.6173 28.7162C84.2124 28.734 83.812 28.6211 83.4685 28.3924C83.1251 28.1637 82.8547 27.8299 82.693 27.4348L88.0084 25.1006L87.8122 24.6636ZM82.394 26.074C82.3751 25.7655 82.4142 25.456 82.5092 25.1638C82.6041 24.8716 82.753 24.6024 82.947 24.3721C83.141 24.1417 83.3762 23.9549 83.639 23.8224C83.9017 23.69 84.1867 23.6146 84.4772 23.6007C84.7782 23.5812 85.0779 23.6566 85.3388 23.8173C85.5997 23.9781 85.8102 24.2172 85.9439 24.5046L82.394 26.074ZM78.0782 30.1664H79.8251V17.7503H78.0782V30.1664ZM75.2197 22.9154H75.1543C74.8933 22.5994 74.5712 22.347 74.2101 22.1756C73.8489 22.0042 73.4572 21.9177 73.0617 21.9221C72.0409 21.9747 71.0782 22.443 70.3732 23.2298C69.6682 24.0167 69.275 25.0618 69.275 26.1485C69.275 27.2353 69.6682 28.2804 70.3732 29.0672C71.0782 29.8541 72.0409 30.3223 73.0617 30.375C73.4578 30.3834 73.8507 30.2988 74.2124 30.1271C74.5742 29.9554 74.8958 29.7008 75.1543 29.3817H75.2197V29.9876C75.2197 31.6066 74.4069 32.4708 73.0991 32.4708C72.6622 32.4606 72.238 32.3126 71.8804 32.0455C71.5228 31.7785 71.2479 31.4044 71.0907 30.9709L69.5773 31.6364C69.8571 32.3836 70.3436 33.023 70.9724 33.4699C71.6012 33.9168 72.3428 34.1503 73.0991 34.1395C75.1449 34.1395 76.8358 32.8582 76.8358 29.7393V22.2201H75.2197V22.9154ZM73.2112 28.7559C72.5992 28.7153 72.0247 28.4282 71.6047 27.953C71.1848 27.4778 70.951 26.8503 70.951 26.1982C70.951 25.5461 71.1848 24.9186 71.6047 24.4434C72.0247 23.9682 72.5992 23.6811 73.2112 23.6405C73.5104 23.6542 73.8039 23.7318 74.0742 23.8686C74.3446 24.0054 74.5864 24.1986 74.7851 24.4368C74.9838 24.6749 75.1354 24.9532 75.2309 25.2549C75.3265 25.5567 75.3639 25.8758 75.3411 26.1932C75.3666 26.5118 75.331 26.8325 75.2366 27.136C75.1422 27.4395 74.9909 27.7195 74.7918 27.9591C74.5927 28.1986 74.35 28.3928 74.0783 28.5297C73.8066 28.6667 73.5116 28.7436 73.2112 28.7559ZM95.9954 17.7503H91.8104V30.1664H93.5573V25.4582H95.9954C96.4933 25.4962 96.9932 25.4248 97.464 25.2483C97.9347 25.0719 98.3662 24.7942 98.7316 24.4326C99.097 24.071 99.3884 23.6333 99.5876 23.1467C99.7869 22.66 99.8897 22.135 99.8897 21.6042C99.8897 21.0735 99.7869 20.5485 99.5876 20.0618C99.3884 19.5752 99.097 19.1375 98.7316 18.7759C98.3662 18.4143 97.9347 18.1366 97.464 17.9601C96.9932 17.7837 96.4933 17.7123 95.9954 17.7503ZM95.9954 23.71H93.5573V19.4786H96.0328C96.2953 19.4786 96.5553 19.5336 96.7978 19.6404C97.0404 19.7472 97.2608 19.9038 97.4464 20.1012C97.632 20.2986 97.7793 20.5329 97.8797 20.7908C97.9802 21.0487 98.0319 21.3251 98.0319 21.6042C98.0319 21.8834 97.9802 22.1598 97.8797 22.4177C97.7793 22.6756 97.632 22.9099 97.4464 23.1073C97.2608 23.3047 97.0404 23.4612 96.7978 23.5681C96.5553 23.6749 96.2953 23.7299 96.0328 23.7299L95.9954 23.71ZM106.776 21.932C106.14 21.8903 105.506 22.0478 104.953 22.385C104.4 22.7222 103.952 23.2243 103.665 23.8292L105.206 24.5146C105.362 24.216 105.596 23.9718 105.879 23.8114C106.163 23.651 106.484 23.5813 106.804 23.6107C107.025 23.5831 107.25 23.6028 107.465 23.6686C107.679 23.7344 107.879 23.8449 108.053 23.9938C108.227 24.1427 108.371 24.3269 108.478 24.5357C108.584 24.7444 108.65 24.9736 108.672 25.2099V25.3291C108.11 25.0151 107.485 24.8515 106.85 24.8523C105.188 24.8523 103.487 25.8456 103.487 27.6534C103.504 28.0376 103.593 28.4144 103.749 28.7614C103.905 29.1084 104.125 29.4185 104.396 29.6733C104.667 29.9281 104.983 30.1224 105.326 30.2446C105.669 30.3669 106.032 30.4146 106.393 30.3849C106.831 30.4107 107.268 30.312 107.659 30.0991C108.049 29.8861 108.38 29.5666 108.616 29.1731H108.672V30.1664H110.354V25.3887C110.354 23.2134 108.803 21.9519 106.813 21.9519L106.776 21.932ZM106.561 28.736C105.991 28.736 105.197 28.4281 105.197 27.6832C105.197 26.6899 106.187 26.3522 107.065 26.3522C107.62 26.3376 108.169 26.4817 108.653 26.7693C108.595 27.3088 108.354 27.8073 107.976 28.1726C107.598 28.5378 107.109 28.7451 106.598 28.7559L106.561 28.736ZM116.482 22.2201L114.483 27.6037H114.426L112.353 22.2201H110.484L113.595 29.7492L111.82 33.9309H113.642L118.425 22.2201H116.482ZM100.788 30.1664H102.525V17.7503H100.788V30.1664Z" fill="white"/>
<path d="M10.6413 7.85664C10.3335 8.24365 10.1764 8.74113 10.2023 9.24724V31.2188C10.1705 31.7257 10.3283 32.2255 10.6413 32.6094L10.7067 32.6888L22.281 20.382V20.084L10.7067 7.78711L10.6413 7.85664Z" fill="url(#paint0_linear_356_2969)"/>
<path d="M26.1103 24.4835L22.2803 20.3812V20.0832L26.1103 15.981L26.1944 16.0406L30.7812 18.8019C32.089 19.5866 32.089 20.8779 30.7812 21.6725L26.2131 24.4338L26.1103 24.4835Z" fill="url(#paint1_linear_356_2969)"/>
<path d="M26.2229 24.4246L22.2808 20.2329L10.6411 32.6093C10.9051 32.8591 11.243 33.0028 11.5962 33.0155C11.9494 33.0282 12.2956 32.9091 12.5748 32.6788L26.2229 24.4246Z" fill="url(#paint2_linear_356_2969)"/>
<path d="M26.2229 16.0413L12.5748 7.79697C12.2974 7.56346 11.9514 7.44143 11.5978 7.45233C11.2441 7.46323 10.9054 7.60637 10.6411 7.85657L22.2808 20.2329L26.2229 16.0413Z" fill="url(#paint3_linear_356_2969)"/>
<path opacity="0.2" d="M26.1109 24.3345L12.5748 32.5291C12.3057 32.745 11.9778 32.8618 11.6407 32.8618C11.3035 32.8618 10.9756 32.745 10.7065 32.5291L10.6411 32.5986L10.7065 32.6781C10.9756 32.894 11.3035 33.0108 11.6407 33.0108C11.9778 33.0108 12.3057 32.894 12.5748 32.6781L26.2229 24.4239L26.1109 24.3345Z" fill="#2D2A2E"/>
<path opacity="0.12" d="M10.641 32.4713C10.3409 32.0774 10.1939 31.5763 10.23 31.0708V31.2198C10.1982 31.7267 10.356 32.2265 10.669 32.6104L10.7344 32.5409L10.641 32.4713Z" fill="#2D2A2E"/>
<path opacity="0.12" d="M30.7812 21.5242L26.1104 24.3352L26.1944 24.4246L30.7812 21.6632C31.0519 21.5415 31.2868 21.3444 31.461 21.0927C31.6353 20.841 31.7425 20.544 31.7714 20.2329C31.713 20.5156 31.5929 20.7797 31.4209 21.004C31.2489 21.2283 31.0298 21.4065 30.7812 21.5242Z" fill="#2D2A2E"/>
<path opacity="0.25" d="M12.5744 7.93707L30.7813 18.9427C31.0299 19.0604 31.249 19.2386 31.421 19.4629C31.593 19.6872 31.7131 19.9513 31.7715 20.234C31.7426 19.9229 31.6354 19.6259 31.4611 19.3742C31.2869 19.1225 31.052 18.9254 30.7813 18.8036L12.5744 7.79801C11.2759 7.00338 10.2017 7.65895 10.2017 9.24821V9.3972C10.2297 7.80794 11.2759 7.15237 12.5744 7.93707Z" fill="white"/>
<defs>
<linearGradient id="paint0_linear_356_2969" x1="21.2534" y1="9.01879" x2="4.61739" y2="24.6646" gradientUnits="userSpaceOnUse">
<stop stop-color="#00A0FF"/>
<stop offset="0.01" stop-color="#00A1FF"/>
<stop offset="0.26" stop-color="#00BEFF"/>
<stop offset="0.51" stop-color="#00D2FF"/>
<stop offset="0.76" stop-color="#00DFFF"/>
<stop offset="1" stop-color="#00E3FF"/>
</linearGradient>
<linearGradient id="paint1_linear_356_2969" x1="32.4907" y1="20.2322" x2="9.89327" y2="20.2322" gradientUnits="userSpaceOnUse">
<stop stop-color="#FFE000"/>
<stop offset="0.41" stop-color="#FFBD00"/>
<stop offset="0.78" stop-color="#FFA500"/>
<stop offset="1" stop-color="#FF9C00"/>
</linearGradient>
<linearGradient id="paint2_linear_356_2969" x1="24.0837" y1="22.5175" x2="1.51961" y2="43.7291" gradientUnits="userSpaceOnUse">
<stop stop-color="#FF3A44"/>
<stop offset="1" stop-color="#C31162"/>
</linearGradient>
<linearGradient id="paint3_linear_356_2969" x1="7.70784" y1="0.545976" x2="17.7807" y2="10.0192" gradientUnits="userSpaceOnUse">
<stop stop-color="#32A071"/>
<stop offset="0.07" stop-color="#2DA771"/>
<stop offset="0.48" stop-color="#15CF74"/>
<stop offset="0.8" stop-color="#06E775"/>
<stop offset="1" stop-color="#00F076"/>
</linearGradient>
</defs>
</svg>
