<svg width="54" height="54" viewBox="0 0 54 54" fill="none" xmlns="http://www.w3.org/2000/svg">
<g filter="url(#filter0_d_162_6496)">
<rect x="12" y="8" width="30" height="30" rx="15" fill="#FCD400" shape-rendering="crispEdges"/>
<rect x="11" y="7" width="32" height="32" rx="16" stroke="white" stroke-opacity="0.26" stroke-width="2" shape-rendering="crispEdges"/>
</g>
<path d="M26.9961 28C27.5456 28 27.991 27.5545 27.9908 27.005L27.9899 23.9914L31.0053 23.9912C31.5547 23.9912 32 23.5458 32 22.9964C32 22.447 31.5545 22.0016 31.0051 22.0017L27.9899 22.0022L27.9908 18.995C27.991 18.4455 27.5456 18 26.9961 18C26.4467 18 26.0014 18.4453 26.0013 18.9946L26.0008 22.0022L22.9949 22.0017C22.4455 22.0016 22 22.447 22 22.9964C22 23.5458 22.4453 23.9912 22.9947 23.9912L26.0008 23.9914L26.0013 27.0054C26.0014 27.5547 26.4467 28 26.9961 28Z" fill="#2D2A2E"/>
<defs>
<filter id="filter0_d_162_6496" x="0" y="0" width="54" height="54" filterUnits="userSpaceOnUse" color-interpolation-filters="sRGB">
<feFlood flood-opacity="0" result="BackgroundImageFix"/>
<feColorMatrix in="SourceAlpha" type="matrix" values="0 0 0 0 0 0 0 0 0 0 0 0 0 0 0 0 0 0 127 0" result="hardAlpha"/>
<feOffset dy="4"/>
<feGaussianBlur stdDeviation="5"/>
<feComposite in2="hardAlpha" operator="out"/>
<feColorMatrix type="matrix" values="0 0 0 0 0.152378 0 0 0 0 0.227512 0 0 0 0 0.279167 0 0 0 0.1 0"/>
<feBlend mode="normal" in2="BackgroundImageFix" result="effect1_dropShadow_162_6496"/>
<feBlend mode="normal" in="SourceGraphic" in2="effect1_dropShadow_162_6496" result="shape"/>
</filter>
</defs>
</svg>
