<svg width="42" height="46" viewBox="0 0 42 46" fill="none" xmlns="http://www.w3.org/2000/svg">
<path d="M14.2238 38.8434L18.2803 38.8434L17.989 37.5526M17.989 37.5526C14.9148 36.4716 12.266 33.7658 10.4587 30.9256C8.65142 28.0853 8.01159 24.5574 8.22512 21.1428C8.43865 17.7282 9.7182 14.4848 11.8634 11.9203C14.0087 9.35587 16.8985 7.61514 20.0805 6.97066M17.989 37.5526L17.1521 34.4599M31.3757 6.7316L27.5565 6.7316L27.6241 7.85425M27.6241 7.85425C30.6999 8.93328 33.3498 11.0596 35.1585 13.9001C36.9673 16.7405 37.8327 20.1345 37.6191 23.5501C37.4054 26.9658 36.1249 30.21 33.9781 32.7744C31.8313 35.3388 28.9397 37.0785 25.7562 37.7207M27.6241 7.85425L28.029 10.603" stroke="#2D2A2E" stroke-width="1.73077" stroke-linecap="round" stroke-linejoin="round"/>
<path d="M33.5754 22.487C33.5754 28.7488 28.7408 33.824 22.776 33.824C16.8111 33.824 11.9766 28.7488 11.9766 22.487C11.9766 16.2252 16.8111 11.1499 22.776 11.1499C28.7408 11.1499 33.5754 16.2252 33.5754 22.487Z" fill="url(#paint0_linear_162_1738)"/>
<path d="M27.816 16.4487H24.2967C24.9144 17.0173 25.3631 17.8333 25.4908 18.9715H27.816V20.2073H25.5123C25.2983 22.7292 23.571 24.3365 20.8411 24.4361C22.5046 26.4386 24.3173 28.9605 26.1094 31.5079H24.062C22.3976 29.1832 20.8411 27.0319 18.8359 24.5593V23.0268H20.0084C22.3121 23.0268 23.5494 21.9132 23.6987 20.2073H18.8359V18.9715H23.6348C23.3363 17.5367 22.2061 16.8202 20.3501 16.8202H18.8359V15.2129H27.816V16.4487Z" fill="url(#paint1_linear_162_1738)"/>
<path d="M5.56735 33.5767L6.35275 35.0836L7.78821 35.9069L6.35275 36.7314L5.56735 38.2383L4.78311 36.7314L3.34766 35.9069L4.78311 35.0836L5.56735 33.5767Z" fill="url(#paint2_linear_162_1738)"/>
<path d="M6.36436 2.65088L7.13443 4.13179L8.54512 4.94021L7.13443 5.75096L6.36436 7.23189L5.59205 5.75096L4.18359 4.94021L5.59205 4.13179L6.36436 2.65088Z" fill="url(#paint3_linear_162_1738)"/>
<path d="M34.4031 0L35.0302 1.20427L36.1774 1.86258L35.0302 2.52088L34.4031 3.72515L33.7761 2.52088L32.6289 1.86258L33.7761 1.20427L34.4031 0Z" fill="url(#paint4_linear_162_1738)"/>
<path d="M24.7177 43.2959L25.1739 44.17L26.0066 44.648L25.1739 45.126L24.7177 46.0001L24.2624 45.126L23.4297 44.648L24.2624 44.17L24.7177 43.2959Z" fill="url(#paint5_linear_162_1738)"/>
<path d="M39.1966 31.8091L39.7436 32.8577L40.7425 33.4302L39.7436 34.0045L39.1966 35.0531L38.6513 34.0045L37.6523 33.4302L38.6513 32.8577L39.1966 31.8091Z" fill="url(#paint6_linear_162_1738)"/>
<path d="M41.0779 18.5552L41.4044 19.1789L41.9985 19.5217L41.4044 19.8613L41.0779 20.4851L40.7543 19.8613L40.1602 19.5217L40.7543 19.1789L41.0779 18.5552Z" fill="url(#paint7_linear_162_1738)"/>
<path d="M1.67604 19.4512L2.26506 20.5867L3.34672 21.2107L2.26506 21.829L1.67604 22.9645L1.08166 21.829L0 21.2107L1.08166 20.5867L1.67604 19.4512Z" fill="url(#paint8_linear_162_1738)"/>
<defs>
<linearGradient id="paint0_linear_162_1738" x1="15.6407" y1="22.487" x2="29.2679" y2="22.487" gradientUnits="userSpaceOnUse">
<stop stop-color="#FFE177"/>
<stop offset="1" stop-color="#FEB137"/>
</linearGradient>
<linearGradient id="paint1_linear_162_1738" x1="16.5824" y1="23.3605" x2="37.3499" y2="23.793" gradientUnits="userSpaceOnUse">
<stop stop-color="#FFF9DF"/>
<stop offset="0.364776" stop-color="#FFE177"/>
<stop offset="1" stop-color="#FEB137"/>
</linearGradient>
<linearGradient id="paint2_linear_162_1738" x1="7.64649" y1="33.5767" x2="3.17379" y2="33.8227" gradientUnits="userSpaceOnUse">
<stop stop-color="#FCB937"/>
<stop offset="1" stop-color="#FCE300"/>
</linearGradient>
<linearGradient id="paint3_linear_162_1738" x1="8.40592" y1="2.65088" x2="4.01281" y2="2.89243" gradientUnits="userSpaceOnUse">
<stop stop-color="#FCB937"/>
<stop offset="1" stop-color="#FCE300"/>
</linearGradient>
<linearGradient id="paint4_linear_162_1738" x1="36.0641" y1="7.58758e-07" x2="32.49" y2="0.196623" gradientUnits="userSpaceOnUse">
<stop stop-color="#FCB937"/>
<stop offset="1" stop-color="#FCE300"/>
</linearGradient>
<linearGradient id="paint5_linear_162_1738" x1="25.9243" y1="43.2959" x2="23.3288" y2="43.4387" gradientUnits="userSpaceOnUse">
<stop stop-color="#FCB937"/>
<stop offset="1" stop-color="#FCE300"/>
</linearGradient>
<linearGradient id="paint6_linear_162_1738" x1="40.6439" y1="31.8091" x2="37.5313" y2="31.9803" gradientUnits="userSpaceOnUse">
<stop stop-color="#FCB937"/>
<stop offset="1" stop-color="#FCE300"/>
</linearGradient>
<linearGradient id="paint7_linear_162_1738" x1="41.9399" y1="18.5552" x2="40.0882" y2="18.657" gradientUnits="userSpaceOnUse">
<stop stop-color="#FCB937"/>
<stop offset="1" stop-color="#FCE300"/>
</linearGradient>
<linearGradient id="paint8_linear_162_1738" x1="3.23991" y1="19.4512" x2="-0.131038" y2="19.6366" gradientUnits="userSpaceOnUse">
<stop stop-color="#FCB937"/>
<stop offset="1" stop-color="#FCE300"/>
</linearGradient>
</defs>
</svg>
