<svg width="16" height="18" viewBox="0 0 16 18" fill="none" xmlns="http://www.w3.org/2000/svg">
<g opacity="0.8">
<path fill-rule="evenodd" clip-rule="evenodd" d="M9.38055 14.7029C12.5854 14.0693 15 11.2727 15 7.91872C15 4.09762 11.866 1 8 1C4.13401 1 1 4.09762 1 7.91872C1 11.2727 3.41463 14.0693 6.61945 14.7029L7.68273 16.8048C7.8143 17.0649 8.1857 17.0649 8.31727 16.8048L9.38055 14.7029Z" fill="#FDF2CC"/>
<path d="M9.38055 14.7029L9.25126 14.0489C9.05 14.0887 8.87828 14.2189 8.78567 14.402L9.38055 14.7029ZM6.61945 14.7029L7.21433 14.402C7.12172 14.2189 6.95 14.0887 6.74875 14.0489L6.61945 14.7029ZM7.68273 16.8048L7.08785 17.1057L7.68273 16.8048ZM8.31727 16.8048L8.91215 17.1057L8.31727 16.8048ZM14.3333 7.91872C14.3333 10.9429 12.1551 13.4748 9.25126 14.0489L9.50985 15.3569C13.0156 14.6638 15.6667 11.6025 15.6667 7.91872H14.3333ZM8 1.66667C11.5052 1.66667 14.3333 4.47312 14.3333 7.91872H15.6667C15.6667 3.72211 12.2268 0.333333 8 0.333333V1.66667ZM1.66667 7.91872C1.66667 4.47312 4.49483 1.66667 8 1.66667V0.333333C3.77318 0.333333 0.333333 3.72211 0.333333 7.91872H1.66667ZM6.74875 14.0489C3.84486 13.4748 1.66667 10.9429 1.66667 7.91872H0.333333C0.333333 11.6025 2.9844 14.6638 6.49015 15.3569L6.74875 14.0489ZM8.27761 16.5038L7.21433 14.402L6.02457 15.0038L7.08785 17.1057L8.27761 16.5038ZM7.72239 16.5038C7.83751 16.2763 8.16249 16.2763 8.27761 16.5038L7.08785 17.1057C7.4661 17.8534 8.5339 17.8534 8.91215 17.1057L7.72239 16.5038ZM8.78567 14.402L7.72239 16.5038L8.91215 17.1057L9.97543 15.0038L8.78567 14.402Z" fill="#2D2A2E"/>
<ellipse cx="8" cy="7.91864" rx="1.75" ry="1.72968" fill="#FDF2CC" stroke="#2D2A2E" stroke-width="1.33333"/>
</g>
</svg>
