<svg width="30" height="34" viewBox="0 0 30 34" fill="none" xmlns="http://www.w3.org/2000/svg">
<path d="M13.9102 33.0002C13.9102 33.0002 14.0481 32.9902 14.2945 32.9602" stroke="black" stroke-width="0.5" stroke-linecap="round" stroke-linejoin="round" stroke-dasharray="3.8 3.8"/>
<path d="M15.28 32.7718C17.6748 32.2066 22.3361 30.2829 21.8138 23.9167C21.8138 23.9167 21.8828 20.1288 16.4823 18.2051C15.9699 18.0266 12.0913 17.1784 11.5 16.9999C9.46005 16.395 6.12489 16.083 7.10052 11.5216C7.10052 11.5216 7.7608 9.231 10.057 9.00293" stroke="black" stroke-width="0.9" stroke-linecap="round" stroke-linejoin="round" stroke-dasharray="3.8 3.8"/>
<path d="M20.2993 6.55856C20.3888 6.52252 20.4604 6.45045 20.4604 6.36036V6.23423C20.4604 6.10811 20.353 6.01802 20.2456 6H17.8998C17.7923 6 17.7207 6.09009 17.7207 6.18018V6.37838C17.7207 6.48649 17.8103 6.55856 17.8998 6.55856H17.9893H17.9714L17.6133 7.76576V9.99999H19.4577H19.9412L20.4784 9.83783C20.5679 9.81982 20.6216 9.72973 20.6216 9.65765V7.76576L20.2993 6.55856Z" fill="#FCD400"/>
<path d="M20.2498 6.57658H17.8861C17.7966 6.57658 17.707 6.5045 17.707 6.3964V6.18018C17.707 6.09009 17.7787 6 17.8861 6H20.2498C20.3751 6 20.4647 6.09009 20.4647 6.21622V6.36036C20.4647 6.48649 20.3751 6.57658 20.2498 6.57658Z" stroke="black" stroke-width="0.181705" stroke-miterlimit="10" stroke-linecap="round" stroke-linejoin="round"/>
<path d="M20.2852 9.60356V7.89185" stroke="black" stroke-width="0.181705" stroke-miterlimit="10" stroke-linecap="round" stroke-linejoin="round"/>
<path d="M20.2316 6.01807C20.2316 6.01807 20.0167 6.28834 20.2316 6.57662L19.9451 7.80185V8.79284V9.98203H19.4616H17.6172V7.76581L17.9395 6.59464" stroke="black" stroke-width="0.181705" stroke-miterlimit="10" stroke-linecap="round" stroke-linejoin="round"/>
<path d="M18.0645 7.17114H19.7835" stroke="black" stroke-width="0.181705" stroke-miterlimit="10" stroke-linecap="round" stroke-linejoin="round"/>
<path d="M19.9453 10L20.4825 9.83787C20.572 9.81985 20.6258 9.72976 20.6258 9.65769V8.81084V7.7658L20.3034 6.55859" stroke="black" stroke-width="0.181705" stroke-miterlimit="10" stroke-linecap="round" stroke-linejoin="round"/>
<path d="M13.61 4.2029C14.2249 3.00892 15.2086 2.02341 16.4383 1.49275C17.1059 1.20847 17.8086 1.0379 18.5288 1C18.6869 1 18.845 1 19.0031 1C19.1613 1 19.3194 1 19.4775 1C20.1977 1.0379 20.9004 1.20847 21.568 1.49275C22.9031 2.08027 23.9571 3.19844 24.5368 4.52508C25.8895 7.61427 24.449 11.0825 22.6923 13.6789C22.1652 14.456 21.5855 15.1761 21.0058 15.9153C20.4261 16.6544 19.8639 17.3935 19.0558 17.981C19.0558 18 19.0207 18 19.0031 18C18.9856 18 18.968 18 18.9329 17.981C18.1951 17.3556 17.5626 16.6544 16.9829 15.9153C16.4032 15.1761 15.8235 14.456 15.2965 13.6789C13.733 11.3857 12.4506 8.3913 13.1006 5.60535" stroke="black" stroke-width="0.983614" stroke-miterlimit="10" stroke-linecap="round" stroke-linejoin="round"/>
<path d="M19 12C21.2091 12 23 10.2091 23 8C23 5.79086 21.2091 4 19 4C16.7909 4 15 5.79086 15 8C15 10.2091 16.7909 12 19 12Z" stroke="black" stroke-width="1.08005" stroke-miterlimit="10"/>
</svg>
