<svg width="12" height="17" viewBox="0 0 12 17" fill="none" xmlns="http://www.w3.org/2000/svg">
<path d="M2.25666 0.611803L2.25835 0.6118L9.58536 0.601036L10.2482 0.600063L10.2487 0.600062L10.6151 0.6C10.7299 0.599981 10.8472 0.611061 10.9559 0.643974C11.0632 0.67645 11.1929 0.739917 11.2865 0.866533C11.4993 1.15421 11.3486 1.46597 11.2501 1.61427L10.7542 2.37613L10.7476 2.38627C10.7103 2.44365 10.6682 2.50846 10.6255 2.56169C10.5748 2.62484 10.5045 2.69682 10.4007 2.74842C10.3011 2.79794 10.2034 2.81221 10.1274 2.8181C10.0582 2.82347 9.97676 2.82346 9.89647 2.82345L9.88501 2.82344H9.58595H8.48741C8.63896 3.05874 8.75967 3.30633 8.82749 3.55584L10.2415 3.53934C10.2808 3.53888 10.324 3.5374 10.3746 3.53566L10.3798 3.53548C10.4308 3.53374 10.4882 3.53181 10.5457 3.53123C10.6538 3.53015 10.7959 3.53287 10.9257 3.56316C11.0372 3.58919 11.2825 3.66958 11.372 3.93492C11.4546 4.17999 11.339 4.40482 11.2503 4.53993L10.7532 5.2962C10.6193 5.49993 10.4599 5.63494 10.2669 5.69992C10.1216 5.74887 9.96852 5.74668 9.91034 5.74585C9.90236 5.74574 9.89616 5.74565 9.89201 5.74572L8.79218 5.76498C8.37426 7.67089 6.67114 8.83401 4.61113 9.26906L4.59761 9.27191L4.59757 9.27168C4.54715 9.28052 4.5038 9.28969 4.46679 9.299C4.47241 9.30637 4.47838 9.31402 4.48471 9.32196L9.15116 15.1801C9.2063 15.2493 9.27192 15.3318 9.32717 15.4125C9.3777 15.4863 9.44656 15.5963 9.47876 15.7204C9.49592 15.7865 9.50875 15.879 9.48533 15.9822C9.46 16.0939 9.39825 16.1908 9.31021 16.2616C9.15867 16.3836 8.96759 16.399 8.83852 16.3991L7.1539 16.4C7.03023 16.4001 6.8863 16.3861 6.73794 16.3212C6.5877 16.2555 6.4643 16.1515 6.35677 16.0192L1.3006 9.80011C1.00753 9.43963 0.926768 9.1199 0.933133 8.85154L0.950015 8.13967C0.954025 7.97062 1.01689 7.80893 1.14939 7.68751C1.26803 7.57879 1.40976 7.53285 1.5192 7.51032C1.71904 7.4692 1.96745 7.47877 2.16751 7.48649L2.25666 0.611803ZM2.25666 0.611803C2.24839 0.611815 2.23986 0.611803 2.23108 0.611792C2.09909 0.611615 1.91133 0.611363 1.72868 0.689914C1.52192 0.778836 1.37106 0.941471 1.22944 1.14332L1.22943 1.14331L1.22724 1.1465L0.979915 1.50637C0.979833 1.50649 0.979752 1.50661 0.979671 1.50673C0.89406 1.63073 0.81311 1.7499 0.751381 1.85528C0.69605 1.94974 0.625164 2.08289 0.605553 2.22562C0.594609 2.30526 0.596059 2.41163 0.645981 2.52098C0.698023 2.63498 0.784134 2.71159 0.871619 2.75854C1.02011 2.83822 1.19346 2.8436 1.31971 2.83995C2.61547 2.80909 3.63615 2.85223 4.40151 3.0478C4.80876 3.15186 5.12933 3.29503 5.37712 3.48515L2.26462 3.44091C2.04976 3.43786 1.84588 3.45479 1.66773 3.54129C1.47247 3.6361 1.36643 3.78543 1.29301 3.90628L0.754392 4.79286C0.677683 4.91912 0.535741 5.21183 0.735509 5.47909C0.824004 5.59749 0.943353 5.65139 1.02996 5.67684C1.11801 5.70273 1.20717 5.7098 1.28353 5.71023L5.92509 5.73654C5.69683 6.41479 5.30327 6.82603 4.79495 7.08367C4.14797 7.41159 3.27101 7.51329 2.19233 7.48744L2.25666 0.611803ZM4.32967 9.34777C4.32964 9.34776 4.33013 9.34741 4.3312 9.34674L4.32967 9.34777ZM10.2488 0.999695V1.00006V0.999695Z" stroke="black" stroke-width="0.8" stroke-linejoin="round"/>
</svg>
