<svg width="107" height="81" viewBox="0 0 107 81" fill="none" xmlns="http://www.w3.org/2000/svg">
<path d="M34.1695 58.2994C40.6591 70.3022 53.2774 78.3572 67.7581 78.3572C88.8803 78.3572 105.999 61.0388 105.999 39.6786C105.999 18.3184 88.8762 1 67.7581 1C46.6401 1 29.5176 18.3184 29.5176 39.6786C29.5176 40.438 29.5299 41.0463 29.5709 41.7934C29.5709 41.7934 35.4781 44.2756 32.102 50.9833C32.102 50.9833 36.278 53.9105 34.2843 57.985L34.1695 58.2994Z" fill="#FCD400" stroke="#2D2A2E" stroke-width="0.665313" stroke-miterlimit="10"/>
<path d="M61.5196 27.5696C63.9823 27.5696 65.9787 24.7456 65.9787 21.262C65.9787 17.7784 63.9823 14.9543 61.5196 14.9543C59.0569 14.9543 57.0605 17.7784 57.0605 21.262C57.0605 24.7456 59.0569 27.5696 61.5196 27.5696Z" fill="#2D2A2E"/>
<path d="M73.5606 27.2593C76.0233 27.2593 78.0197 24.4353 78.0197 20.9517C78.0197 17.4681 76.0233 14.644 73.5606 14.644C71.098 14.644 69.1016 17.4681 69.1016 20.9517C69.1016 24.4353 71.098 27.2593 73.5606 27.2593Z" fill="#2D2A2E"/>
<path d="M90.5711 50.9385C90.5711 50.9385 87.6093 45.925 82.0262 42.6794C76.2462 39.3235 68.5218 38.8295 62.6188 41.9608C58.1474 44.3287 53.0197 49.2197 52.0352 56.646" stroke="#2D2A2E" stroke-width="1.33063" stroke-miterlimit="10" stroke-linecap="round" stroke-linejoin="round"/>
<path d="M7.96815 65.3827C5.66273 63.7619 2.46302 60.308 4.16953 54.2372C4.16953 54.2372 -2.63599 50.5874 1.14212 42.2752C1.14212 42.2752 3.34089 38.3804 6.97542 37.0576C6.97542 37.0576 7.85329 34.7224 16.9273 34.0651C16.9273 34.0651 27.2074 32.5382 25.6568 42.9121C25.6568 42.9121 32.3638 44.986 28.8811 52.3551C28.8811 52.3551 33.7791 55.5232 30.5014 60.6347C29.6564 61.9533 28.3232 62.9005 26.7931 63.2516C25.1973 63.619 22.6622 63.8803 18.802 63.5537C18.802 63.5537 17.5714 66.6075 11.9965 66.6442C10.5525 66.6524 9.14138 66.2115 7.96815 65.3827Z" fill="#FCD400"/>
<path d="M28.8801 52.355C28.8801 52.355 21.3116 50.0973 14.5676 53.7717C13.8292 54.1758 13.177 54.7229 12.7175 55.4292C12.0038 56.5233 11.4459 58.2829 13.058 60.2712C13.4149 60.708 13.8456 61.0918 14.3461 61.3612C14.8261 61.6184 15.5275 61.892 16.43 61.9899C17.1028 62.0634 17.7755 61.8879 18.3457 61.5327C19.4451 60.8509 21.9064 59.7772 25.5204 60.7284" fill="#FCD400"/>
<path d="M25.6507 42.9079C25.6507 42.9079 14.62 42.0424 11.1167 45.627C10.7311 46.0189 10.4358 46.5006 10.2183 47.0028C9.54968 48.5297 9.12305 51.4406 14.0539 53.4411" fill="#FCD400"/>
<path d="M9.91789 47.4887C9.91789 47.4887 5.31935 46.9865 5.40549 41.3729C5.40549 41.3729 5.34806 38.7437 6.97253 37.0576" fill="#FCD400"/>
<path d="M7.80524 50.8853C7.80524 50.8853 5.65159 51.2568 4.1543 54.2452L7.80524 50.8853Z" fill="#FCD400"/>
<path d="M9.35576 66.6442C12.0796 68.51 10.5823 72.6497 9.66342 74.393C9.4337 74.8258 9.12604 75.2136 8.74864 75.528C8.05537 76.1118 7.87487 76.7813 7.87897 77.3447C7.88718 78.0143 8.23586 78.6307 8.74043 79.0717C11.374 81.3702 14.6025 81.2109 16.912 80.6353C19.7138 79.9372 21.9741 77.7897 22.4909 74.9605C23.5001 69.4 18.4093 63.6843 18.4093 63.6843C18.4093 63.6843 17.2525 65.6848 14.8035 66.1298C14.8035 66.1298 10.6151 66.8402 7.98153 65.3664L9.35576 66.6442Z" fill="#FCD400"/>
<path d="M21.9566 62.2104C25.8209 62.537 28.356 62.2757 29.9518 61.9083C31.4819 61.5572 32.811 60.61 33.6602 59.2913C36.9419 54.1758 32.0398 51.0077 32.0398 51.0077C35.5184 43.6386 28.8155 41.5647 28.8155 41.5647C29.9026 35.8082 26.0383 33.7955 23.1011 33.0933C21.6572 32.7462 20.1599 32.6891 18.6831 32.8401C10.9177 33.624 10.13 35.7143 10.13 35.7143C6.4996 37.0411 4.29673 40.9319 4.29673 40.9319C0.522725 49.244 7.32414 52.8939 7.32414 52.8939C5.45765 59.5485 9.3178 62.9616 11.5125 64.268C12.2919 64.7294 13.1451 64.9743 14.0435 65.0886C15.2988 65.2479 16.751 65.3418 18.4123 64.9457" stroke="#2D2A2E" stroke-width="0.665313" stroke-miterlimit="10" stroke-linecap="round" stroke-linejoin="round"/>
<path d="M32.0422 51.0117C32.0422 51.0117 24.4737 48.7541 17.7297 52.4284C16.9913 52.8326 16.3391 53.3796 15.8796 54.0859C15.1659 55.1801 14.608 56.9397 16.2201 58.9279C16.577 59.3647 17.0077 59.7485 17.5082 60.018C17.9882 60.2752 18.6896 60.5487 19.5921 60.6467C20.2649 60.7202 20.9376 60.5446 21.5078 60.1894C22.6072 59.5076 25.0685 58.4339 28.6826 59.3852" stroke="#2D2A2E" stroke-width="0.665313" stroke-miterlimit="10" stroke-linecap="round" stroke-linejoin="round"/>
<path d="M28.8148 41.5647C28.8148 41.5647 17.784 40.6992 14.2808 44.2837C13.8952 44.6756 13.5998 45.1574 13.3824 45.6595C12.7137 47.1864 12.2871 50.0973 17.2179 52.0978" stroke="#2D2A2E" stroke-width="0.665313" stroke-miterlimit="10" stroke-linecap="round" stroke-linejoin="round"/>
<path d="M13.0741 46.1454C13.0741 46.1454 8.4756 45.6432 8.56174 40.0297C8.56174 40.0297 8.50431 37.4005 10.1288 35.7144" stroke="#2D2A2E" stroke-width="0.665313" stroke-miterlimit="10" stroke-linecap="round" stroke-linejoin="round"/>
<path d="M10.9654 49.542C10.9654 49.542 8.81175 49.9135 7.31445 52.902" stroke="#2D2A2E" stroke-width="0.665313" stroke-miterlimit="10" stroke-linecap="round" stroke-linejoin="round"/>
<path d="M21.9581 62.2104C21.9581 62.2104 27.0489 67.9261 26.0398 73.4866C25.527 76.3158 23.2667 78.4674 20.4608 79.1614C18.1513 79.7371 14.9229 79.8963 12.2893 77.5978C11.7847 77.1569 11.436 76.5404 11.4278 75.8708C11.4237 75.3115 11.6042 74.6379 12.2975 74.0541C12.6749 73.7397 12.9825 73.3519 13.2123 72.9191C14.1311 71.1758 15.3905 66.6931 12.6626 64.8274" stroke="#2D2A2E" stroke-width="0.665313" stroke-miterlimit="10" stroke-linecap="round" stroke-linejoin="round"/>
</svg>
