<svg width="15" height="17" viewBox="0 0 15 17" fill="none" xmlns="http://www.w3.org/2000/svg">
<path d="M13.9833 15.2868L10.9915 11.6438M13.0572 7.65988C12.9824 8.42226 12.7581 9.16244 12.3972 9.83815C12.0363 10.5139 11.5459 11.1119 10.9539 11.5981C10.3619 12.0842 9.67995 12.449 8.94697 12.6717C8.21398 12.8943 7.44433 12.9703 6.68195 12.8955C5.91957 12.8207 5.17939 12.5964 4.50368 12.2356C3.82796 11.8747 3.22995 11.3842 2.74378 10.7922C2.2576 10.2002 1.89279 9.51828 1.67017 8.7853C1.44755 8.05232 1.37148 7.28266 1.44631 6.52028C1.59743 4.98058 2.35401 3.56398 3.5496 2.58211C4.74518 1.60024 6.28185 1.13352 7.82155 1.28464C9.36125 1.43577 10.7779 2.19234 11.7597 3.38793C12.7416 4.58352 13.2083 6.12019 13.0572 7.65988Z" stroke="#6D7E8B" stroke-width="1.5" stroke-linecap="round" stroke-linejoin="round"/>
</svg>
