<svg width="26" height="26" viewBox="0 0 26 26" fill="none" xmlns="http://www.w3.org/2000/svg">
<path d="M23.4808 19.4658V23.2376C23.4808 24.2128 22.686 25.0001 21.7013 25.0001H2.77948C1.79484 25.0001 1 24.2128 1 23.2376V10.5121V9.31356C1 8.8788 1.15422 8.47929 1.42708 8.17379C1.75925 7.79778 2.24564 7.55103 2.77948 7.55103H21.7013C22.686 7.55103 23.4808 8.33829 23.4808 9.31356V13.1206" stroke="black" stroke-width="0.9" stroke-miterlimit="10" stroke-linecap="round" stroke-linejoin="round"/>
<path d="M12.1641 7.46873V5.18918C12.1641 4.54292 12.6979 4.01416 13.3504 4.01416H19.6142C20.2666 4.01416 20.8005 4.54292 20.8005 5.18918V7.48048" stroke="black" stroke-width="0.9" stroke-miterlimit="10" stroke-linecap="round" stroke-linejoin="round"/>
<path d="M3.76558 7.46866L3.07751 5.60037C2.85211 4.98936 3.32664 4.26084 4.1452 3.95534L11.9275 1.12353C12.746 0.829777 13.5883 1.07653 13.8137 1.68754L14.6797 3.99059" stroke="black" stroke-width="0.9" stroke-miterlimit="10" stroke-linecap="round" stroke-linejoin="round"/>
<path d="M23.8243 19.348H19.8857C18.2486 19.348 16.9199 18.032 16.9199 16.4105V16.1285C16.9199 14.5069 18.2486 13.1909 19.8857 13.1909H23.8125C24.4649 13.1909 24.9988 13.7197 24.9988 14.3659V18.173C25.0106 18.831 24.4768 19.348 23.8243 19.348Z" stroke="black" stroke-width="0.9" stroke-miterlimit="10" stroke-linecap="round" stroke-linejoin="round"/>
<path d="M19.9807 16.857C20.3477 16.857 20.6451 16.5624 20.6451 16.199C20.6451 15.8356 20.3477 15.541 19.9807 15.541C19.6138 15.541 19.3164 15.8356 19.3164 16.199C19.3164 16.5624 19.6138 16.857 19.9807 16.857Z" stroke="black" stroke-width="0.9" stroke-miterlimit="10" stroke-linecap="round" stroke-linejoin="round"/>
<path d="M9.26031 15.473L12.5931 15.4443C13.419 15.4443 14.1001 16.1045 14.1001 16.9226C14.1001 17.7407 13.4335 18.4153 12.6076 18.4153L9.2748 18.444C8.44886 18.444 7.76781 17.7838 7.76781 16.9657C7.75332 16.1476 8.41987 15.473 9.26031 15.473Z" fill="#FCD400"/>
<path d="M9.2609 18.4445C10.0868 18.4445 10.7679 17.7843 10.7679 16.9519C10.7679 16.1338 10.1013 15.4592 9.2609 15.4592C8.43495 15.4592 7.75391 16.1194 7.75391 16.9519C7.7684 17.7843 8.43495 18.4445 9.2609 18.4445Z" fill="#2D2A2E"/>
<path d="M12.7558 14.9858L9.42301 15.0145C8.59706 15.0145 7.91602 14.3543 7.91602 13.5362C7.91602 12.7182 8.58257 12.0436 9.40852 12.0436L12.7413 12.0149C13.5672 12.0149 14.2483 12.6751 14.2483 13.4932C14.2628 14.3113 13.5817 14.9715 12.7558 14.9858Z" fill="#FCD400"/>
<path d="M12.7394 14.9853C13.5654 14.9853 14.2464 14.3251 14.2464 13.4926C14.2464 12.6746 13.5799 12 12.7394 12C11.899 12 11.2324 12.6602 11.2324 13.4926C11.2469 14.3107 11.9135 14.9853 12.7394 14.9853Z" fill="#2D2A2E"/>
<path d="M6.94187 20.3531C6.92738 20.2957 6.88391 20.2527 6.85493 20.224C6.79697 20.1809 6.72452 20.1666 6.66656 20.1666C6.60859 20.1666 6.52165 20.1809 6.46369 20.2383C6.42022 20.2814 6.37675 20.3531 6.37675 20.4393C6.37675 20.4967 6.39124 20.5397 6.4492 20.5828C6.47818 20.6115 6.55063 20.6545 6.5941 20.6689L6.73901 20.7407C6.81146 20.7694 6.88391 20.8268 6.95636 20.8842C7.05779 20.9846 7.07228 21.0708 7.07228 21.1712C7.07228 21.2717 7.05779 21.4152 6.92738 21.5444C6.78248 21.6879 6.60859 21.7023 6.49267 21.7023C6.36226 21.7023 6.24634 21.6736 6.1449 21.5731C6.07245 21.5013 6.01449 21.3865 6 21.2717L6.18837 21.2286C6.18837 21.3147 6.23184 21.3865 6.27532 21.4439C6.34777 21.5157 6.43471 21.53 6.50716 21.53C6.5941 21.53 6.69554 21.5157 6.76799 21.4439C6.82595 21.3865 6.85493 21.286 6.85493 21.1999C6.85493 21.0995 6.81146 21.0277 6.76799 20.9846C6.73901 20.9559 6.65206 20.9129 6.60859 20.8842L6.47818 20.8268C6.43471 20.8124 6.33328 20.755 6.27532 20.6976C6.23184 20.6545 6.17388 20.5684 6.17388 20.4393C6.17388 20.3244 6.20286 20.224 6.3043 20.1235C6.40573 20.023 6.53614 19.98 6.66656 19.98C6.73901 19.98 6.85493 19.9943 6.94187 20.0517C6.99983 20.0948 7.05779 20.1666 7.08677 20.2383L6.94187 20.3531Z" fill="#2D2A2E"/>
<path d="M7.86767 20.0371C8.04156 20.0371 8.18646 20.0802 8.2734 20.1663C8.34585 20.2237 8.38932 20.3385 8.38932 20.482C8.38932 20.6399 8.33136 20.7691 8.25891 20.8265C8.18646 20.8982 8.05605 20.97 7.79522 20.97H7.65032L7.56337 21.6876H7.375L7.57787 20.0371H7.86767ZM7.66481 20.7834H7.8242C7.91114 20.7834 8.04156 20.7691 8.1285 20.6973C8.17197 20.6543 8.21544 20.5825 8.21544 20.4677C8.21544 20.3529 8.17197 20.2955 8.1285 20.2524C8.05605 20.195 7.95461 20.195 7.88216 20.195H7.75175L7.66481 20.7834Z" fill="#2D2A2E"/>
<path d="M9.63479 20.2667H8.96823L8.92476 20.683H9.56233L9.53335 20.9126H8.89578L8.83782 21.4293H9.50437L9.47539 21.6589H8.5625L8.73639 20.0371H9.64927L9.63479 20.2667Z" fill="#2D2A2E"/>
<path d="M10.9278 20.2667H10.2612L10.2177 20.683H10.8553L10.8263 20.9126H10.1887L10.1308 21.4293H10.7973L10.7684 21.6589H9.85547L10.0438 20.0371H10.9567L10.9278 20.2667Z" fill="#2D2A2E"/>
<path d="M11.7963 20.0371C11.9702 20.0371 12.2455 20.0658 12.4339 20.2524C12.5498 20.3672 12.6367 20.5394 12.6367 20.7978C12.6367 21.1709 12.4628 21.3719 12.3759 21.458C12.1875 21.6446 11.9267 21.6876 11.6224 21.6876H11.1152L11.3036 20.0371H11.7963ZM11.521 21.3575H11.6369C11.7528 21.3575 11.9267 21.3432 12.0571 21.2284C12.1585 21.1422 12.2165 20.9987 12.2165 20.7978C12.2165 20.6543 12.173 20.5394 12.1006 20.4677C12.0136 20.3959 11.8832 20.3529 11.7528 20.3529H11.6369L11.521 21.3575Z" fill="#2D2A2E"/>
<path d="M13.2301 20.9126L12.752 20.0371H13.1867L13.462 20.5394L13.8532 20.0371H14.3169L13.6069 20.9126L13.5054 21.6733H13.1287L13.2301 20.9126Z" fill="#2D2A2E"/>
<path d="M15.1275 20.9557L15.0406 21.6733H14.6204L14.7073 20.9413L14.2871 20.0371H14.7508L14.8667 20.2955C14.9392 20.4533 14.9392 20.4677 14.9537 20.5107C14.9537 20.5251 14.9682 20.5394 14.9682 20.5681C14.9971 20.5251 15.0116 20.4964 15.0551 20.439L15.3449 20.0371H15.8521L15.1275 20.9557Z" fill="#2D2A2E"/>
</svg>
