<svg width="55" height="44" viewBox="0 0 55 44" fill="none" xmlns="http://www.w3.org/2000/svg">
<path d="M40.9746 24.0378L40.9749 24.0378C47.8342 23.9937 53.2185 28.3882 53.2623 33.5955L53.2623 33.5964C53.3148 38.8083 48.0074 43.2581 41.1573 43.2948L41.157 43.2948L12.8272 43.4605L12.8269 43.4605C5.96757 43.5045 0.583244 39.11 0.539469 33.9028C0.495709 28.6972 5.79501 24.2477 12.6448 24.2035C12.6449 24.2035 12.645 24.2035 12.6451 24.2035L40.9746 24.0378Z" fill="white" stroke="#FCD400" stroke-width="1.07839"/>
<path d="M12.7357 43.9996C19.7694 43.9996 25.4714 39.4474 25.4714 33.8319C25.4714 28.2165 19.7694 23.6642 12.7357 23.6642C5.70196 23.6642 0 28.2165 0 33.8319C0 39.4474 5.70196 43.9996 12.7357 43.9996Z" fill="#2D2A2E"/>
<path d="M14.0255 19.9729L14.0252 19.9729C7.16591 20.017 1.78161 15.6225 1.73784 10.4152L1.73783 10.4143C1.68532 5.20241 6.99278 0.752665 13.8429 0.715962L13.8432 0.71596L42.173 0.550264L42.1733 0.550262C49.0326 0.506218 54.4169 4.90072 54.4607 10.108L54.4607 10.1089C54.5132 15.3132 49.2152 19.7631 42.3553 19.8072C42.3552 19.8072 42.3551 19.8072 42.355 19.8072L14.0255 19.9729Z" stroke="white" stroke-width="1.07839"/>
<path d="M42.264 20.3353C49.2977 20.3353 54.9997 15.7831 54.9997 10.1677C54.9997 4.55222 49.2977 0 42.264 0C35.2303 0 29.5283 4.55222 29.5283 10.1677C29.5283 15.7831 35.2303 20.3353 42.264 20.3353Z" fill="#2D2A2E"/>
</svg>
