<svg width="64" height="50" viewBox="0 0 64 50" fill="none" xmlns="http://www.w3.org/2000/svg">
<path d="M24.9761 13.9834L38.3685 13.8855C41.6954 13.8587 44.4114 16.5335 44.4337 19.8491C44.4605 23.1692 41.7802 25.8795 38.4577 25.9018L25.0653 25.9997C21.7384 26.0264 19.0224 23.3516 19.0001 20.036C18.9778 16.7204 21.6536 14.0101 24.9761 13.9834ZM24.9761 13.9834L24.9808 14.6195L24.9812 14.6195M24.9761 13.9834L24.9812 14.6195M24.9812 14.6195L38.3732 14.5216L38.3736 14.5216C41.3499 14.4977 43.7776 16.8904 43.7976 19.8534L43.7976 19.8542C43.8215 22.8211 41.4258 25.2457 38.4535 25.2656L38.4531 25.2657L25.0607 25.3636L25.0602 25.3636C22.0839 25.3875 19.6562 22.9947 19.6363 20.0318C19.6163 17.0683 22.0086 14.6434 24.9812 14.6195Z" stroke="#FCD400" stroke-width="1.27229"/>
<path d="M25.0206 25.9997C28.3456 25.9997 31.0411 23.3098 31.0411 19.9916C31.0411 16.6733 28.3456 13.9834 25.0206 13.9834C21.6955 13.9834 19 16.6733 19 19.9916C19 23.3098 21.6955 25.9997 25.0206 25.9997Z" fill="#2D2A2E"/>
<path d="M25.6266 11.4832L25.6262 11.4832C22.6499 11.5071 20.2222 9.11437 20.2022 6.15138L20.2022 6.15053C20.1783 3.18363 22.574 0.759032 25.5463 0.739125L25.5467 0.739122L38.9392 0.641211L38.9396 0.641207C41.9159 0.617319 44.3436 3.01003 44.3635 5.97302L44.3635 5.97387C44.3875 8.93616 41.9962 11.3614 39.0186 11.3853L25.6266 11.4832Z" stroke="#FCD400" stroke-width="1.27229"/>
<path d="M38.9791 12.0163C42.3041 12.0163 44.9996 9.32638 44.9996 6.00816C44.9996 2.68995 42.3041 0 38.9791 0C35.654 0 32.9585 2.68995 32.9585 6.00816C32.9585 9.32638 35.654 12.0163 38.9791 12.0163Z" fill="#2D2A2E"/>
<path d="M6.13126 40.48C6.00424 40.0799 5.77462 39.785 5.53524 39.5744C5.12974 39.2427 4.69494 39.2111 4.32364 39.2111C3.91815 39.2111 3.40517 39.2795 2.96548 39.6955C2.64304 40.0061 2.39876 40.5327 2.39876 41.0698C2.39876 41.4331 2.52579 41.8175 2.85311 42.1334C3.06319 42.344 3.53219 42.6231 3.75693 42.7442L4.72425 43.2339C5.22257 43.4761 5.70623 43.792 6.09707 44.2238C6.70775 44.903 6.825 45.5086 6.825 46.2615C6.825 46.9408 6.71264 47.9991 5.92119 48.889C5.01738 49.9 3.88883 50 3.13159 50C2.26197 50 1.54869 49.8262 0.903811 49.1312C0.434806 48.6099 0.083053 47.8464 0 47.0092L1.19205 46.6617C1.22625 47.2514 1.43633 47.7938 1.77342 48.1729C2.24243 48.6942 2.77495 48.7837 3.30746 48.7837C3.82532 48.7837 4.48486 48.6942 4.98807 48.1413C5.39356 47.6885 5.56943 47.0092 5.56943 46.4563C5.56943 45.7613 5.28119 45.2558 4.98807 44.9767C4.77799 44.7661 4.27967 44.4555 3.93769 44.2817L3.08273 43.8447C2.79449 43.7078 2.16426 43.355 1.80762 42.9548C1.51938 42.6231 1.19205 42.0702 1.19205 41.1645C1.19205 40.3484 1.41678 39.6165 2.03235 38.9741C2.71143 38.2633 3.50288 38 4.40669 38C4.8757 38 5.59875 38.0685 6.18012 38.4844C6.60027 38.7793 6.95691 39.269 7.14744 39.8061L6.13126 40.48Z" fill="#2D2A2E"/>
<path d="M12.2137 38.1841C13.3129 38.1841 14.2656 38.4947 14.8128 39.0739C15.2476 39.5268 15.5554 40.2903 15.5554 41.2644C15.5554 42.3965 15.1499 43.2495 14.6857 43.7339C14.2363 44.2025 13.3618 44.7449 11.6372 44.7449H10.7187L10.1374 49.7892H8.94531L10.2693 38.1893H12.2137V38.1841ZM10.8409 43.5233H11.8571C12.4384 43.5233 13.2299 43.4548 13.7917 42.8967C14.1141 42.586 14.3731 42.0595 14.3731 41.296C14.3731 40.5114 14.0848 40.0586 13.777 39.8164C13.3422 39.4531 12.6778 39.4004 12.1942 39.4004H11.305L10.8409 43.5233Z" fill="#2D2A2E"/>
<path d="M23.6074 39.8532H19.313L18.9906 42.7914H23.153L22.9576 44.4605H18.7952L18.375 48.1148H22.6694L22.4739 49.7839H16.5332L17.8572 38.1841H23.7979L23.6074 39.8532Z" fill="#2D2A2E"/>
<path d="M31.9999 39.8532H27.7056L27.3832 42.7914H31.5456L31.3502 44.4605H27.1878L26.7676 48.1148H31.0619L30.8665 49.7839H24.9258L26.2497 38.1841H32.1905L31.9999 39.8532Z" fill="#2D2A2E"/>
<path d="M37.6284 38.1841C38.7423 38.1841 40.5353 38.3578 41.742 39.6637C42.4504 40.4272 43.0317 41.7014 43.0317 43.5233C43.0317 46.1823 41.9032 47.6303 41.3511 48.1832C40.1102 49.4522 38.415 49.7839 36.4608 49.7839H33.1533L34.4773 38.1841H37.6284ZM35.9038 47.525H36.6611C37.389 47.525 38.5322 47.4724 39.4067 46.6352C40.0223 46.0454 40.4864 44.966 40.4864 43.5917C40.4864 42.5649 40.1786 41.7488 39.7096 41.2591C39.1918 40.722 38.3075 40.443 37.4672 40.443H36.7099L35.9038 47.525Z" fill="#2D2A2E"/>
<path d="M46.989 44.3763L43.8428 38.1841H46.6812L48.44 41.7857L51.0049 38.1841H54.0388L49.4708 44.3763L48.8602 49.7839H46.3735L46.989 44.3763Z" fill="#2D2A2E"/>
<path d="M59.3052 44.7081L58.7238 49.7893H55.9977L56.5938 44.6239L53.8481 38.1895H56.8674L57.61 40.0534C58.0448 41.1644 58.079 41.2382 58.1913 41.6173C58.2255 41.7068 58.2548 41.8437 58.3037 42.0017C58.4503 41.7068 58.5919 41.4646 58.8362 41.0802L60.6927 38.1947H64.0002L59.3052 44.7081Z" fill="#2D2A2E"/>
</svg>
