<svg width="64" height="12" viewBox="0 0 64 12" fill="none" xmlns="http://www.w3.org/2000/svg">
<path d="M6.13126 2.48004C6.00424 2.07986 5.77462 1.785 5.53524 1.57438C5.12974 1.24265 4.69494 1.21106 4.32364 1.21106C3.91815 1.21106 3.40517 1.27951 2.96548 1.69548C2.64304 2.00614 2.39876 2.53269 2.39876 3.06977C2.39876 3.43309 2.52579 3.81747 2.85311 4.1334C3.06319 4.34402 3.53219 4.62308 3.75693 4.74418L4.72425 5.23388C5.22257 5.47609 5.70623 5.79202 6.09707 6.22379C6.70775 6.90303 6.825 7.50856 6.825 8.26152C6.825 8.94077 6.71264 9.99912 5.92119 10.889C5.01738 11.9 3.88883 12 3.13159 12C2.26197 12 1.54869 11.8262 0.903811 11.1312C0.434806 10.6099 0.083053 9.84643 0 9.00922L1.19205 8.66169C1.22625 9.25143 1.43633 9.79378 1.77342 10.1729C2.24243 10.6942 2.77495 10.7837 3.30746 10.7837C3.82532 10.7837 4.48486 10.6942 4.98807 10.1413C5.39356 9.68846 5.56943 9.00922 5.56943 8.45634C5.56943 7.7613 5.28119 7.25582 4.98807 6.97675C4.77799 6.76613 4.27967 6.45546 3.93769 6.2817L3.08273 5.84467C2.79449 5.70777 2.16426 5.35498 1.80762 4.95481C1.51938 4.62308 1.19205 4.0702 1.19205 3.16454C1.19205 2.3484 1.41678 1.6165 2.03235 0.974115C2.71143 0.263277 3.50288 0 4.40669 0C4.8757 0 5.59875 0.0684501 6.18012 0.484422C6.60027 0.779288 6.95691 1.26897 7.14744 1.80605L6.13126 2.48004Z" fill="#2D2A2E"/>
<path d="M12.2137 0.184296C13.3129 0.184296 14.2656 0.494952 14.8128 1.07415C15.2476 1.52698 15.5554 2.29048 15.5554 3.26459C15.5554 4.39667 15.1499 5.24967 14.6857 5.7341C14.2363 6.20272 13.3618 6.74507 11.6372 6.74507H10.7187L10.1374 11.7894H8.94531L10.2693 0.189558H12.2137V0.184296ZM10.8409 5.52348H11.8571C12.4384 5.52348 13.2299 5.45503 13.7917 4.89689C14.1141 4.58623 14.3731 4.05967 14.3731 3.29618C14.3731 2.51163 14.0848 2.0588 13.777 1.81659C13.3422 1.45327 12.6778 1.40062 12.1942 1.40062H11.305L10.8409 5.52348Z" fill="#2D2A2E"/>
<path d="M23.6074 1.85345H19.313L18.9906 4.79158H23.153L22.9576 6.46073H18.7952L18.375 10.115H22.6694L22.4739 11.7841H16.5332L17.8572 0.184296H23.7979L23.6074 1.85345Z" fill="#2D2A2E"/>
<path d="M31.9999 1.85345H27.7056L27.3832 4.79158H31.5456L31.3502 6.46073H27.1878L26.7676 10.115H31.0619L30.8665 11.7841H24.9258L26.2497 0.184296H32.1905L31.9999 1.85345Z" fill="#2D2A2E"/>
<path d="M37.6284 0.184296C38.7423 0.184296 40.5353 0.358055 41.742 1.66389C42.4504 2.42738 43.0317 3.70163 43.0317 5.52348C43.0317 8.18254 41.9032 9.63054 41.3511 10.1834C40.1102 11.4524 38.415 11.7841 36.4608 11.7841H33.1533L34.4773 0.184296H37.6284ZM35.9038 9.52523H36.6611C37.389 9.52523 38.5322 9.47258 39.4067 8.63537C40.0223 8.04563 40.4864 6.96621 40.4864 5.59193C40.4864 4.56516 40.1786 3.74902 39.7096 3.25933C39.1918 2.72225 38.3075 2.44318 37.4672 2.44318H36.7099L35.9038 9.52523Z" fill="#2D2A2E"/>
<path d="M46.989 6.37648L43.8428 0.184296H46.6812L48.44 3.78587L51.0049 0.184296H54.0388L49.4708 6.37648L48.8602 11.7841H46.3735L46.989 6.37648Z" fill="#2D2A2E"/>
<path d="M59.3052 6.70823L58.7238 11.7894H55.9977L56.5938 6.62398L53.8481 0.189575H56.8674L57.61 2.05355C58.0448 3.16456 58.079 3.23828 58.1913 3.61739C58.2255 3.70691 58.2548 3.84381 58.3037 4.00178C58.4503 3.70691 58.5919 3.4647 58.8362 3.08032L60.6927 0.194838H64.0002L59.3052 6.70823Z" fill="#2D2A2E"/>
</svg>
