<svg width="90" height="61" viewBox="0 0 90 61" fill="none" xmlns="http://www.w3.org/2000/svg">
<g filter="url(#filter0_d_356_3072)">
<path d="M50.6578 16.3468L31.8248 16.4718C27.1463 16.5059 23.327 13.0913 23.2957 8.85865C23.2581 4.62027 27.0272 1.16025 31.6994 1.13184L50.5324 1.00684C55.2109 0.972756 59.0302 4.38733 59.0615 8.62003C59.0992 12.8527 55.3363 16.3127 50.6578 16.3468Z" fill="#FFB703"/>
<path d="M50.6578 16.3468L31.8248 16.4718C27.1463 16.5059 23.327 13.0913 23.2957 8.85865C23.2581 4.62027 27.0272 1.16025 31.6994 1.13184L50.5324 1.00684C55.2109 0.972756 59.0302 4.38733 59.0615 8.62003C59.0992 12.8527 55.3363 16.3127 50.6578 16.3468Z" stroke="white"/>
</g>
<path d="M50.5953 16.34C55.2712 16.34 59.0617 12.906 59.0617 8.66999C59.0617 4.43397 55.2712 1 50.5953 1C45.9194 1 42.1289 4.43397 42.1289 8.66999C42.1289 12.906 45.9194 16.34 50.5953 16.34Z" fill="black"/>
<g filter="url(#filter1_d_356_3072)">
<path d="M30.9042 20.274L49.7372 20.149C54.4157 20.1149 58.235 23.5295 58.2663 27.7622C58.304 32.0006 54.5348 35.4606 49.8626 35.489L31.0296 35.614C26.3511 35.6481 22.5318 32.2335 22.5005 28.0008C22.4628 23.7681 26.2257 20.3081 30.9042 20.274Z" fill="#FFB703"/>
<path d="M30.9042 20.274L49.7372 20.149C54.4157 20.1149 58.235 23.5295 58.2663 27.7622C58.304 32.0006 54.5348 35.4606 49.8626 35.489L31.0296 35.614C26.3511 35.6481 22.5318 32.2335 22.5005 28.0008C22.4628 23.7681 26.2257 20.3081 30.9042 20.274Z" stroke="white"/>
</g>
<path d="M30.9672 20.2809C26.2913 20.2809 22.5008 23.7148 22.5008 27.9509C22.5008 32.1869 26.2913 35.6208 30.9672 35.6208C35.6431 35.6208 39.4336 32.1869 39.4336 27.9509C39.4336 23.7148 35.6431 20.2809 30.9672 20.2809Z" fill="black"/>
<path d="M8.62207 48.8469C8.44345 48.3361 8.12055 47.9596 7.78391 47.6908C7.21368 47.2673 6.60224 47.2269 6.08011 47.2269C5.50988 47.2269 4.78851 47.3143 4.1702 47.8454C3.71677 48.2419 3.37325 48.9141 3.37325 49.5998C3.37325 50.0636 3.55188 50.5543 4.01218 50.9576C4.3076 51.2265 4.96713 51.5827 5.28316 51.7373L6.64346 52.3625C7.34422 52.6717 8.02436 53.075 8.57398 53.6262C9.43275 54.4933 9.59763 55.2663 9.59763 56.2275C9.59763 57.0947 9.43962 58.4457 8.32665 59.5817C7.05567 60.8723 5.46866 61.0001 4.40378 61.0001C3.18089 61.0001 2.17785 60.7782 1.27098 59.891C0.611445 59.2255 0.116793 58.2508 0 57.182L1.67632 56.7384C1.72441 57.4912 2.01983 58.1836 2.49387 58.6676C3.15341 59.333 3.90226 59.4473 4.65111 59.4473C5.37935 59.4473 6.30682 59.333 7.01445 58.6272C7.58468 58.0492 7.832 57.182 7.832 56.4762C7.832 55.589 7.42666 54.9437 7.01445 54.5874C6.71903 54.3185 6.01827 53.9219 5.53736 53.7001L4.33508 53.1422C3.92974 52.9674 3.04349 52.5171 2.54196 52.0062C2.13662 51.5827 1.67632 50.8769 1.67632 49.7208C1.67632 48.6789 1.99235 47.7445 2.85799 46.9245C3.81295 46.017 4.92592 45.6809 6.1969 45.6809C6.85644 45.6809 7.87322 45.7683 8.69077 46.2993C9.28161 46.6757 9.78313 47.3009 10.0511 47.9865L8.62207 48.8469Z" fill="white"/>
<path d="M17.1753 45.9163C18.721 45.9163 20.0607 46.3128 20.8302 47.0522C21.4416 47.6303 21.8745 48.605 21.8745 49.8486C21.8745 51.2938 21.3042 52.3827 20.6516 53.0011C20.0195 53.5994 18.7897 54.2917 16.3646 54.2917H15.073L14.2554 60.7313H12.5791L14.4409 45.923H17.1753V45.9163ZM15.2447 52.7322H16.6737C17.4913 52.7322 18.6042 52.6449 19.3943 51.9323C19.8477 51.5357 20.2119 50.8636 20.2119 49.8889C20.2119 48.8873 19.8065 48.3092 19.3737 48C18.7623 47.5362 17.8279 47.469 17.1478 47.469H15.8974L15.2447 52.7322Z" fill="white"/>
<path d="M33.198 48.0471H27.1591L26.7057 51.7979H32.5591L32.2843 53.9287H26.4309L25.8401 58.5937H31.8789L31.6041 60.7246H23.25L25.1118 45.9163H33.466L33.198 48.0471Z" fill="#DCDCDC"/>
<path d="M44.9998 48.0471H38.9609L38.5075 51.7979H44.3609L44.086 53.9287H38.2327L37.6418 58.5937H43.6807L43.4059 60.7246H35.0518L36.9136 45.9163H45.2677L44.9998 48.0471Z" fill="white"/>
<path d="M52.9151 45.9163C54.4815 45.9163 57.0029 46.1381 58.6998 47.8051C59.696 48.7798 60.5136 50.4065 60.5136 52.7322C60.5136 56.1268 58.9266 57.9753 58.1502 58.6811C56.4052 60.3011 54.0212 60.7246 51.2732 60.7246H46.6221L48.4839 45.9163H52.9151ZM50.49 57.8409H51.5549C52.5785 57.8409 54.1861 57.7736 55.4159 56.7049C56.2815 55.952 56.9342 54.574 56.9342 52.8196C56.9342 51.5089 56.5014 50.467 55.8418 49.8418C55.1136 49.1562 53.8701 48.7999 52.6884 48.7999H51.6236L50.49 57.8409Z" fill="white"/>
<path d="M66.0782 53.8212L61.6538 45.9163H65.6454L68.1186 50.514L71.7255 45.9163H75.9919L69.5683 53.8212L68.7095 60.7246H65.2126L66.0782 53.8212Z" fill="white"/>
<path d="M83.3976 54.2445L82.5801 60.7311H78.7465L79.5847 54.137L75.7236 45.9229H79.9694L81.0137 48.3024C81.6251 49.7207 81.6732 49.8148 81.8312 50.2988C81.8793 50.4131 81.9205 50.5878 81.9892 50.7895C82.1953 50.4131 82.3946 50.1039 82.7381 49.6132L85.3487 45.9296H89.9999L83.3976 54.2445Z" fill="white"/>
<defs>
<filter id="filter0_d_356_3072" x="18.7954" y="0.506592" width="44.7666" height="24.4656" filterUnits="userSpaceOnUse" color-interpolation-filters="sRGB">
<feFlood flood-opacity="0" result="BackgroundImageFix"/>
<feColorMatrix in="SourceAlpha" type="matrix" values="0 0 0 0 0 0 0 0 0 0 0 0 0 0 0 0 0 0 127 0" result="hardAlpha"/>
<feOffset dy="4"/>
<feGaussianBlur stdDeviation="2"/>
<feComposite in2="hardAlpha" operator="out"/>
<feColorMatrix type="matrix" values="0 0 0 0 0 0 0 0 0 0 0 0 0 0 0 0 0 0 0.25 0"/>
<feBlend mode="normal" in2="BackgroundImageFix" result="effect1_dropShadow_356_3072"/>
<feBlend mode="normal" in="SourceGraphic" in2="effect1_dropShadow_356_3072" result="shape"/>
</filter>
<filter id="filter1_d_356_3072" x="18" y="19.6487" width="44.7666" height="24.4656" filterUnits="userSpaceOnUse" color-interpolation-filters="sRGB">
<feFlood flood-opacity="0" result="BackgroundImageFix"/>
<feColorMatrix in="SourceAlpha" type="matrix" values="0 0 0 0 0 0 0 0 0 0 0 0 0 0 0 0 0 0 127 0" result="hardAlpha"/>
<feOffset dy="4"/>
<feGaussianBlur stdDeviation="2"/>
<feComposite in2="hardAlpha" operator="out"/>
<feColorMatrix type="matrix" values="0 0 0 0 0 0 0 0 0 0 0 0 0 0 0 0 0 0 0.25 0"/>
<feBlend mode="normal" in2="BackgroundImageFix" result="effect1_dropShadow_356_3072"/>
<feBlend mode="normal" in="SourceGraphic" in2="effect1_dropShadow_356_3072" result="shape"/>
</filter>
</defs>
</svg>
