<svg width="64" height="50" viewBox="0 0 64 50" fill="none" xmlns="http://www.w3.org/2000/svg">
<path d="M24.9761 13.9835L38.3685 13.8856C41.6954 13.8589 44.4114 16.5336 44.4337 19.8492C44.4605 23.1693 41.7802 25.8797 38.4577 25.9019L25.0653 25.9998C21.7384 26.0265 19.0224 23.3518 19.0001 20.0362C18.9778 16.7205 21.6536 14.0102 24.9761 13.9835ZM24.9761 13.9835L24.9808 14.6196L24.9812 14.6196M24.9761 13.9835L24.9812 14.6196M24.9812 14.6196L38.3732 14.5217L38.3736 14.5217C41.3499 14.4978 43.7776 16.8905 43.7976 19.8535L43.7976 19.8544C43.8215 22.8213 41.4258 25.2459 38.4535 25.2658L38.4531 25.2658L25.0607 25.3637L25.0602 25.3637C22.0839 25.3876 19.6562 22.9949 19.6363 20.0319C19.6163 17.0685 22.0086 14.6435 24.9812 14.6196Z" stroke="white" stroke-width="1.27229"/>
<path d="M25.0206 25.9997C28.3456 25.9997 31.0411 23.3098 31.0411 19.9916C31.0411 16.6733 28.3456 13.9834 25.0206 13.9834C21.6955 13.9834 19 16.6733 19 19.9916C19 23.3098 21.6955 25.9997 25.0206 25.9997Z" fill="#2D2A2E"/>
<path d="M25.6266 11.4834L25.6262 11.4834C22.6499 11.5073 20.2222 9.11461 20.2022 6.15163L20.2022 6.15078C20.1783 3.18387 22.574 0.759276 25.5463 0.739369L25.5467 0.739366L38.9392 0.641455L38.9396 0.641452C41.9159 0.617563 44.3436 3.01028 44.3635 5.97326L44.3635 5.97412C44.3875 8.93641 41.9962 11.3616 39.0186 11.3855L25.6266 11.4834Z" stroke="white" stroke-width="1.27229"/>
<path d="M38.9791 12.0163C42.3041 12.0163 44.9996 9.32638 44.9996 6.00816C44.9996 2.68995 42.3041 0 38.9791 0C35.654 0 32.9585 2.68995 32.9585 6.00816C32.9585 9.32638 35.654 12.0163 38.9791 12.0163Z" fill="#2D2A2E"/>
<path d="M6.13126 40.48C6.00424 40.0799 5.77462 39.785 5.53524 39.5744C5.12974 39.2427 4.69494 39.2111 4.32364 39.2111C3.91815 39.2111 3.40517 39.2795 2.96548 39.6955C2.64304 40.0061 2.39876 40.5327 2.39876 41.0698C2.39876 41.4331 2.52579 41.8175 2.85311 42.1334C3.06319 42.344 3.53219 42.6231 3.75693 42.7442L4.72425 43.2339C5.22257 43.4761 5.70623 43.792 6.09707 44.2238C6.70775 44.903 6.825 45.5086 6.825 46.2615C6.825 46.9408 6.71264 47.9991 5.92119 48.889C5.01738 49.9 3.88883 50 3.13159 50C2.26197 50 1.54869 49.8262 0.903811 49.1312C0.434806 48.6099 0.083053 47.8464 0 47.0092L1.19205 46.6617C1.22625 47.2514 1.43633 47.7938 1.77342 48.1729C2.24243 48.6942 2.77495 48.7837 3.30746 48.7837C3.82532 48.7837 4.48486 48.6942 4.98807 48.1413C5.39356 47.6885 5.56943 47.0092 5.56943 46.4563C5.56943 45.7613 5.28119 45.2558 4.98807 44.9767C4.77799 44.7661 4.27967 44.4555 3.93769 44.2817L3.08273 43.8447C2.79449 43.7078 2.16426 43.355 1.80762 42.9548C1.51938 42.6231 1.19205 42.0702 1.19205 41.1645C1.19205 40.3484 1.41678 39.6165 2.03235 38.9741C2.71143 38.2633 3.50288 38 4.40669 38C4.8757 38 5.59875 38.0685 6.18012 38.4844C6.60027 38.7793 6.95691 39.269 7.14744 39.8061L6.13126 40.48Z" fill="#2D2A2E"/>
<path d="M12.2137 38.1843C13.3129 38.1843 14.2656 38.495 14.8128 39.0742C15.2476 39.527 15.5554 40.2905 15.5554 41.2646C15.5554 42.3967 15.1499 43.2497 14.6857 43.7341C14.2363 44.2028 13.3618 44.7451 11.6372 44.7451H10.7187L10.1374 49.7894H8.94531L10.2693 38.1896H12.2137V38.1843ZM10.8409 43.5235H11.8571C12.4384 43.5235 13.2299 43.4551 13.7917 42.8969C14.1141 42.5863 14.3731 42.0597 14.3731 41.2962C14.3731 40.5117 14.0848 40.0588 13.777 39.8166C13.3422 39.4533 12.6778 39.4006 12.1942 39.4006H11.305L10.8409 43.5235Z" fill="#2D2A2E"/>
<path d="M23.6074 39.8535H19.313L18.9906 42.7916H23.153L22.9576 44.4608H18.7952L18.375 48.115H22.6694L22.4739 49.7842H16.5332L17.8572 38.1843H23.7979L23.6074 39.8535Z" fill="#2D2A2E"/>
<path d="M31.9999 39.8535H27.7056L27.3832 42.7916H31.5456L31.3502 44.4608H27.1878L26.7676 48.115H31.0619L30.8665 49.7842H24.9258L26.2497 38.1843H32.1905L31.9999 39.8535Z" fill="#2D2A2E"/>
<path d="M37.6284 38.1843C38.7423 38.1843 40.5353 38.3581 41.742 39.6639C42.4504 40.4274 43.0317 41.7017 43.0317 43.5235C43.0317 46.1826 41.9032 47.6306 41.3511 48.1834C40.1102 49.4524 38.415 49.7842 36.4608 49.7842H33.1533L34.4773 38.1843H37.6284ZM35.9038 47.5253H36.6611C37.389 47.5253 38.5322 47.4726 39.4067 46.6354C40.0223 46.0457 40.4864 44.9662 40.4864 43.592C40.4864 42.5652 40.1786 41.749 39.7096 41.2594C39.1918 40.7223 38.3075 40.4432 37.4672 40.4432H36.7099L35.9038 47.5253Z" fill="#2D2A2E"/>
<path d="M46.989 44.3765L43.8428 38.1843H46.6812L48.44 41.7859L51.0049 38.1843H54.0388L49.4708 44.3765L48.8602 49.7842H46.3735L46.989 44.3765Z" fill="#2D2A2E"/>
<path d="M59.3052 44.7082L58.7238 49.7894H55.9977L56.5938 44.624L53.8481 38.1896H56.8674L57.61 40.0535C58.0448 41.1646 58.079 41.2383 58.1913 41.6174C58.2255 41.7069 58.2548 41.8438 58.3037 42.0018C58.4503 41.7069 58.5919 41.4647 58.8362 41.0803L60.6927 38.1948H64.0002L59.3052 44.7082Z" fill="#2D2A2E"/>
</svg>
