<svg width="30" height="30" viewBox="0 0 30 30" fill="none" xmlns="http://www.w3.org/2000/svg">
<path d="M6.21372 4.84037C8.08641 3.80194 10.3137 3.7042 12.2307 4.69377C13.1504 5.17023 14.0923 5.92767 14.8791 7.16158L14.9899 7.30818L15.1007 7.16158C15.8874 5.92767 16.8404 5.17023 17.7601 4.69377C19.9874 3.53317 22.6579 3.86302 24.6747 5.42678C28.5198 8.4077 26.4366 13.9908 26.4366 13.9908C24.0098 20.4047 15.1229 25.9267 15.1229 25.9267L14.9899 26L14.9012 25.9389C14.9012 25.9389 5.9921 20.4047 3.56536 13.9908C3.56536 13.9908 1.78132 9.21401 4.55157 6.13536" stroke="black" stroke-width="0.9" stroke-miterlimit="10" stroke-linecap="round" stroke-linejoin="round"/>
<path d="M20.4531 6.5752C20.4531 6.5752 25.2734 7.24712 24.6972 12.5615" stroke="#FCD400" stroke-width="1.5" stroke-miterlimit="10" stroke-linecap="round" stroke-linejoin="round"/>
</svg>
