<svg width="79" height="30" viewBox="0 0 79 30" fill="none" xmlns="http://www.w3.org/2000/svg">
<rect width="79" height="30" rx="6" fill="#F2F5F8"/>
<path d="M28.5 16.0459H13.5M21 15.0001H21.0083M24.3333 10.0001V8.33341C24.3333 7.89139 24.1577 7.46746 23.8452 7.1549C23.5326 6.84234 23.1087 6.66675 22.6667 6.66675H19.3333C18.8913 6.66675 18.4674 6.84234 18.1548 7.1549C17.8423 7.46746 17.6667 7.89139 17.6667 8.33341V10.0001H24.3333ZM15.1667 21.6667H26.8333C27.2754 21.6667 27.6993 21.4912 28.0118 21.1786C28.3244 20.866 28.5 20.4421 28.5 20.0001V11.6667C28.5 11.2247 28.3244 10.8008 28.0118 10.4882C27.6993 10.1757 27.2754 10.0001 26.8333 10.0001H15.1667C14.7246 10.0001 14.3007 10.1757 13.9882 10.4882C13.6756 10.8008 13.5 11.2247 13.5 11.6667V20.0001C13.5 20.4421 13.6756 20.866 13.9882 21.1786C14.3007 21.4912 14.7246 21.6667 15.1667 21.6667Z" stroke="#6D7E8B" stroke-width="1.33" stroke-linecap="round" stroke-linejoin="round"/>
<path d="M48.7974 11.66L46.3254 20H44.7774L43.0254 13.688L41.1654 20L39.6294 20.012L37.2654 11.66H38.7174L40.4454 18.452L42.3174 11.66H43.8534L45.5934 18.416L47.3334 11.66H48.7974ZM52.8177 20.108C52.1937 20.108 51.6297 19.968 51.1257 19.688C50.6217 19.4 50.2257 19 49.9377 18.488C49.6497 17.968 49.5057 17.368 49.5057 16.688C49.5057 16.016 49.6537 15.42 49.9497 14.9C50.2457 14.38 50.6497 13.98 51.1617 13.7C51.6737 13.42 52.2457 13.28 52.8777 13.28C53.5097 13.28 54.0817 13.42 54.5937 13.7C55.1057 13.98 55.5097 14.38 55.8057 14.9C56.1017 15.42 56.2497 16.016 56.2497 16.688C56.2497 17.36 56.0977 17.956 55.7937 18.476C55.4897 18.996 55.0737 19.4 54.5457 19.688C54.0257 19.968 53.4497 20.108 52.8177 20.108ZM52.8177 18.92C53.1697 18.92 53.4977 18.836 53.8017 18.668C54.1137 18.5 54.3657 18.248 54.5577 17.912C54.7497 17.576 54.8457 17.168 54.8457 16.688C54.8457 16.208 54.7537 15.804 54.5697 15.476C54.3857 15.14 54.1417 14.888 53.8377 14.72C53.5337 14.552 53.2057 14.468 52.8537 14.468C52.5017 14.468 52.1737 14.552 51.8697 14.72C51.5737 14.888 51.3377 15.14 51.1617 15.476C50.9857 15.804 50.8977 16.208 50.8977 16.688C50.8977 17.4 51.0777 17.952 51.4377 18.344C51.8057 18.728 52.2657 18.92 52.8177 18.92ZM58.994 14.348C59.194 14.012 59.458 13.752 59.786 13.568C60.122 13.376 60.518 13.28 60.974 13.28V14.696H60.626C60.09 14.696 59.682 14.832 59.402 15.104C59.13 15.376 58.994 15.848 58.994 16.52V20H57.626V13.388H58.994V14.348ZM64.8715 16.7L67.9195 20H66.0715L63.6235 17.156V20H62.2555V11.12H63.6235V16.28L66.0235 13.388H67.9195L64.8715 16.7Z" fill="#6D7E8B"/>
</svg>
